<?xml version="1.0" encoding="UTF-8" standalone="no"?>
<svg
   xmlns:svg="http://www.w3.org/2000/svg"
   xmlns="http://www.w3.org/2000/svg"
   width="800.0"
   height="240.0"

>
    <g transform="scale(2.7535414742230593, -2.7535414742230593)   translate(122.77620954631706,-39.294358268195154)" stroke-width="0.3631686718218619"  fill="none">
       <!-- hidden lines -->
       <g  stroke="rgb(160,160,160)" fill="none" stroke-dasharray="0.3631686718218619,0.3631686718218619" >
			<path d="M-50.142475181944675,-32.990472963857655 L51.79422730558522,-25.736742685183604 " />
			<path d="M51.79422730558521,-25.736742685183607 L52.3723405488594,-26.072563531418517 " />
			<path d="M52.37234054885939,-26.072563531418517 L52.37608807935032,-26.074707810412274 L52.37966534929905,-26.07668793803618 L52.383071502841915,-26.07850344054369 L52.38630572505497,-26.080153883574916 L52.389367242148886,-26.08163887226052 L52.39225532165416,-26.0829580513162 L52.39496927259629,-26.084111105127704 L52.39750844566114,-26.08509775782631 L52.39987223335026,-26.085917773354875 L52.40206007012625,-26.08657095552425 L52.40407143254804,-26.087057148060286 L52.40590583939615,-26.087376234641155 L52.407562851787816,-26.08752813892524 L52.40904207328198,-26.087512824569355 " />
			<path d="M51.79422730558521,-25.736742685183607 L51.79422730558521,32.03098483175792 " />
			<path d="M-47.310900112846625,-29.851638378984095 L48.96265223648716,-23.000893115791936 " />
			<path d="M48.96265223648716,-23.000893115791936 L48.96265223648716,28.892150246884352 " />
			<path d="M48.96265223648716,28.892150246884352 L-47.310900112846625,22.041404983692193 " />
			<path d="M-47.310900112846625,22.041404983692193 L-47.310900112846625,-29.851638378984095 " />
			<path d="M-49.788528298307426,-28.41240618083448 L-47.31090011284663,-29.851638378984095 " />
			<path d="M-49.788528298307426,-28.41240618083448 L46.48502405102636,-21.56166091764232 " />
			<path d="M46.48502405102636,-21.56166091764232 L48.96265223648715,-23.000893115791936 " />
			<path d="M-42.00169685828778,-28.93532721282884 L-42.05051129248174,-28.91051548625324 L-42.109821687921524,-28.88666782524449 L-42.17917264456172,-28.863967338106402 L-42.25803166841755,-28.84258832485497 L-42.345793260186916,-28.822694938899282 L-42.441783564425364,-28.804439926630614 L-42.54526554357671,-28.787963454597428 L-42.65544463713166,-28.77339203327156 L-42.77147486246205,-28.76083754566922 L-42.89246531048701,-28.750396388285186 L-43.01748698629563,-28.742148730936435 L-43.14557994220216,-28.73615790119823 L-43.275760648464335,-28.73246989815918 L-43.407029545070685,-28.73111303922872 L-43.53837871661218,-28.73209774270897 L-43.66879963130879,-28.735416447800407 L-43.79729088476861,-28.741043672655568 L-43.92286588902118,-28.748936210035055 L-44.044560447786615,-28.759033459063513 L-44.16144015981569,-28.77125789053831 L-44.27260759345626,-28.78551564221813 L-44.37720917735788,-28.801697239520745 L-44.474441754406044,-28.819678436096215 L-44.56355874856334,-28.839321167821435 L-44.64387589726689,-28.860474612890986 L-44.714776505367425,-28.882976349864677 L-44.77571618026883,-28.90665360477996 L-44.8262270119106,-28.93132457775363 L-44.86592116549827,-28.956799838886763 L-44.88161343106193,-28.969778151255547 L-44.89449385939596,-28.98288378275485 L-44.90453771383646,-28.99609156422157 L-44.91172570531594,-29.009376130315164 L-44.91604402940765,-29.022711968231405 L-44.917484392836805,-29.036073466699314 " />
			<path d="M-44.917484392836805,-29.036073466699314 L-44.915677577144564,-29.05103752911483 L-44.9102614828451,-29.06596554179329 L-44.90124915778398,-29.080821541844614 L-44.88866231344165,-29.095569739863443 L-44.87253127262862,-29.11017460614896 L-44.85289489643512,-29.12460095629905 L-44.80330369160374,-29.152779604615766 L-44.740366289359336,-29.179834309026283 L-44.664688811290624,-29.20550451793752 L-44.577000072880914,-29.229543013204896 L-44.47814456461663,-29.251718290978214 L-44.36907431908227,-29.271816791210274 L-44.25083974236621,-29.289644954356884 L-44.1245794980758,-29.305031085461074 L-43.99150954138444,-29.3178270076694 L-43.8529114087185,-29.32790948925603 L-43.710119875861,-29.335181430411644 L-43.564510103331145,-29.33957279836766 L-43.417484392836805,-29.341041301850098 L-43.270458682342465,-29.33957279836766 L-43.12484890981261,-29.335181430411644 L-42.98205737695511,-29.32790948925603 L-42.84345924428917,-29.3178270076694 L-42.710389287597806,-29.305031085461074 L-42.5841290433074,-29.289644954356884 L-42.46589446659134,-29.271816791210274 L-42.35682422105698,-29.251718290978214 L-42.257968712792696,-29.229543013204896 L-42.170279974382986,-29.20550451793752 L-42.09460249631427,-29.179834309026283 L-42.03166509406987,-29.152779604615766 L-41.98207388923849,-29.12460095629905 L-41.96243751304499,-29.11017460614896 L-41.94630647223196,-29.095569739863443 L-41.93371962788963,-29.080821541844614 L-41.92470730282851,-29.06596554179329 L-41.919291208529046,-29.05103752911483 L-41.917484392836805,-29.036073466699317 " />
			<path d="M-41.917484392836805,-29.036073466699314 L-41.91881251633946,-29.02324288098925 L-41.9227945349647,-29.010435016082436 L-41.92942339722917,-28.9976725525474 L-41.93868736453584,-28.98497809055451 L-41.965050357305095,-28.959882929972462 L-42.00169685828778,-28.93532721282884 " />
			<path d="M44.83327192738583,-22.7562236421065 L44.78445749319187,-22.7314119155309 L44.725147097752085,-22.70756425452215 L44.65579614111189,-22.684863767384062 L44.57693711725606,-22.66348475413263 L44.489175525486694,-22.643591368176942 L44.393185221248245,-22.625336355908274 L44.2897032420969,-22.608859883875088 L44.17952414854195,-22.59428846254922 L44.06349392321156,-22.58173397494688 L43.9425034751866,-22.571292817562846 L43.81748179937798,-22.563045160214095 L43.68938884347145,-22.55705433047589 L43.559208137209275,-22.55336632743684 L43.427939240602925,-22.55200946850638 L43.29659006906143,-22.55299417198663 L43.16616915436482,-22.556312877078067 L43.037677900905,-22.561940101933228 L42.91210289665243,-22.569832639312715 L42.790408337886994,-22.579929888341173 L42.67352862585792,-22.592154319815968 L42.56236119221735,-22.60641207149579 L42.45775960831573,-22.622593668798405 L42.360527031267566,-22.640574865373875 L42.27141003711027,-22.660217597099095 L42.19109288840672,-22.681371042168646 L42.120192280306185,-22.703872779142337 L42.05925260540478,-22.72755003405762 L42.008741773763006,-22.75222100703129 L41.96904762017534,-22.777696268164423 L41.95335535461168,-22.790674580533206 L41.94047492627765,-22.80378021203251 L41.93043107183715,-22.81698799349923 L41.92324308035767,-22.830272559592824 L41.91892475626596,-22.843608397509065 L41.917484392836805,-22.856969895976974 " />
			<path d="M41.917484392836805,-22.856969895976974 L41.919291208529046,-22.87193395839249 L41.92470730282851,-22.88686197107095 L41.93371962788963,-22.901717971122274 L41.94630647223196,-22.916466169141103 L41.96243751304499,-22.93107103542662 L41.98207388923849,-22.94549738557671 L42.03166509406987,-22.973676033893426 L42.09460249631427,-23.000730738303943 L42.170279974382986,-23.02640094721518 L42.257968712792696,-23.050439442482556 L42.35682422105698,-23.072614720255874 L42.46589446659134,-23.092713220487934 L42.5841290433074,-23.110541383634544 L42.710389287597806,-23.125927514738734 L42.84345924428917,-23.13872343694706 L42.98205737695511,-23.14880591853369 L43.12484890981261,-23.156077859689304 L43.270458682342465,-23.16046922764532 L43.417484392836805,-23.161937731127757 L43.564510103331145,-23.16046922764532 L43.710119875861,-23.156077859689304 L43.8529114087185,-23.14880591853369 L43.99150954138444,-23.13872343694706 L44.1245794980758,-23.125927514738734 L44.25083974236621,-23.110541383634544 L44.36907431908227,-23.092713220487934 L44.47814456461663,-23.072614720255874 L44.577000072880914,-23.050439442482556 L44.664688811290624,-23.02640094721518 L44.740366289359336,-23.000730738303943 L44.80330369160374,-22.973676033893426 L44.85289489643512,-22.94549738557671 L44.87253127262862,-22.93107103542662 L44.88866231344165,-22.916466169141103 L44.90124915778398,-22.901717971122274 L44.9102614828451,-22.88686197107095 L44.915677577144564,-22.87193395839249 L44.917484392836805,-22.856969895976977 " />
			<path d="M44.917484392836805,-22.856969895976974 L44.91615626933415,-22.84413931026691 L44.91217425070891,-22.831331445360096 L44.90554538844444,-22.81856898182506 L44.89628142113777,-22.80587451983217 L44.869918428368514,-22.780779359250122 L44.83327192738583,-22.7562236421065 " />
			<path d="M46.48502405102636,30.331382445033967 L48.96265223648715,28.892150246884352 " />
			<path d="M46.48502405102636,-21.56166091764232 L46.48502405102636,30.331382445033967 " />
			<path d="M46.48502405102636,30.331382445033967 L-49.788528298307426,23.480637181841807 " />
			<path d="M-49.788528298307426,23.480637181841807 L-47.31090011284663,22.041404983692193 " />
			<path d="M44.83327192738583,29.136819720569786 L44.869918428368514,29.112264003426166 L44.89628142113777,29.087168842844118 L44.90554538844444,29.07447438085123 L44.91217425070891,29.06171191731619 L44.91615626933415,29.048904052409377 L44.917484392836805,29.036073466699314 " />
			<path d="M44.917484392836805,29.036073466699314 L44.915677577144564,29.0211094042838 L44.9102614828451,29.006181391605338 L44.90124915778398,28.991325391554014 L44.88866231344165,28.976577193535185 L44.87253127262862,28.96197232724967 L44.85289489643512,28.947545977099576 L44.80330369160374,28.91936732878286 L44.740366289359336,28.892312624372344 L44.664688811290624,28.866642415461108 L44.577000072880914,28.84260392019373 L44.47814456461663,28.820428642420413 L44.36907431908227,28.800330142188354 L44.25083974236621,28.782501979041744 L44.1245794980758,28.767115847937553 L43.99150954138444,28.754319925729227 L43.8529114087185,28.7442374441426 L43.710119875861,28.736965502986983 L43.564510103331145,28.73257413503097 L43.417484392836805,28.73110563154853 L43.270458682342465,28.73257413503097 L43.12484890981261,28.736965502986983 L42.98205737695511,28.7442374441426 L42.84345924428917,28.754319925729227 L42.710389287597806,28.767115847937553 L42.5841290433074,28.782501979041744 L42.46589446659134,28.800330142188354 L42.35682422105698,28.820428642420413 L42.257968712792696,28.84260392019373 L42.170279974382986,28.866642415461108 L42.09460249631427,28.892312624372344 L42.03166509406987,28.91936732878286 L41.98207388923849,28.947545977099576 L41.96243751304499,28.96197232724967 L41.94630647223196,28.976577193535185 L41.93371962788963,28.991325391554014 L41.92470730282851,29.006181391605338 L41.919291208529046,29.0211094042838 L41.917484392836805,29.03607346669931 " />
			<path d="M41.917484392836805,29.036073466699314 L41.91892475626596,29.049434965167222 L41.92324308035767,29.062770803083463 L41.93043107183715,29.07605536917706 L41.94047492627765,29.089263150643777 L41.95335535461168,29.10236878214308 L41.96904762017534,29.115347094511865 L42.008741773763006,29.140822355644996 L42.05925260540478,29.165493328618666 L42.120192280306185,29.18917058353395 L42.19109288840672,29.211672320507642 L42.27141003711027,29.232825765577193 L42.360527031267566,29.252468497302413 L42.45775960831573,29.270449693877882 L42.56236119221735,29.2866312911805 L42.67352862585792,29.30088904286032 L42.790408337886994,29.313113474335115 L42.91210289665243,29.323210723363573 L43.037677900905,29.33110326074306 L43.16616915436482,29.33673048559822 L43.29659006906142,29.34004919068966 L43.427939240602925,29.341033894169907 L43.559208137209275,29.339677035239447 L43.68938884347145,29.3359890322004 L43.81748179937797,29.329998202462193 L43.9425034751866,29.321750545113442 L44.06349392321156,29.31130938772941 L44.17952414854195,29.29875490012707 L44.2897032420969,29.2841834788012 L44.393185221248245,29.267707006768013 L44.489175525486694,29.249451994499346 L44.57693711725606,29.22955860854366 L44.65579614111189,29.208179595292226 L44.725147097752085,29.185479108154137 L44.78445749319187,29.16163144714539 L44.83327192738583,29.13681972056979 " />
			<path d="M-42.00169685828778,22.957716149847446 L-41.965050357305095,22.933160432703826 L-41.93868736453584,22.908065272121778 L-41.92942339722917,22.895370810128888 L-41.9227945349647,22.88260834659385 L-41.91881251633946,22.869800481687037 L-41.917484392836805,22.856969895976974 " />
			<path d="M-41.917484392836805,22.856969895976974 L-41.919291208529046,22.84200583356146 L-41.92470730282851,22.827077820882998 L-41.93371962788963,22.812221820831674 L-41.94630647223196,22.797473622812845 L-41.96243751304499,22.78286875652733 L-41.98207388923849,22.768442406377236 L-42.03166509406987,22.74026375806052 L-42.09460249631427,22.713209053650004 L-42.170279974382986,22.687538844738768 L-42.257968712792696,22.66350034947139 L-42.35682422105698,22.641325071698073 L-42.46589446659134,22.621226571466014 L-42.5841290433074,22.603398408319404 L-42.710389287597806,22.588012277215213 L-42.84345924428917,22.575216355006887 L-42.98205737695511,22.56513387342026 L-43.12484890981261,22.557861932264643 L-43.270458682342465,22.55347056430863 L-43.417484392836805,22.55200206082619 L-43.564510103331145,22.55347056430863 L-43.710119875861,22.557861932264643 L-43.8529114087185,22.56513387342026 L-43.99150954138444,22.575216355006887 L-44.1245794980758,22.588012277215213 L-44.25083974236621,22.603398408319404 L-44.36907431908227,22.621226571466014 L-44.47814456461663,22.641325071698073 L-44.577000072880914,22.66350034947139 L-44.664688811290624,22.687538844738768 L-44.740366289359336,22.713209053650004 L-44.80330369160374,22.74026375806052 L-44.85289489643512,22.768442406377236 L-44.87253127262862,22.78286875652733 L-44.88866231344165,22.797473622812845 L-44.90124915778398,22.812221820831674 L-44.9102614828451,22.827077820882998 L-44.915677577144564,22.84200583356146 L-44.917484392836805,22.85696989597697 " />
			<path d="M-44.917484392836805,22.856969895976974 L-44.91604402940765,22.870331394444882 L-44.91172570531594,22.883667232361123 L-44.90453771383646,22.89695179845472 L-44.89449385939596,22.910159579921437 L-44.88161343106193,22.92326521142074 L-44.86592116549827,22.936243523789525 L-44.8262270119106,22.961718784922656 L-44.77571618026883,22.986389757896326 L-44.714776505367425,23.01006701281161 L-44.64387589726689,23.0325687497853 L-44.56355874856334,23.053722194854853 L-44.474441754406044,23.073364926580073 L-44.37720917735788,23.091346123155542 L-44.27260759345626,23.107527720458158 L-44.16144015981569,23.12178547213798 L-44.044560447786615,23.134009903612775 L-43.92286588902118,23.144107152641233 L-43.79729088476861,23.15199969002072 L-43.66879963130879,23.15762691487588 L-43.538378716612186,23.16094561996732 L-43.407029545070685,23.161930323447567 L-43.275760648464335,23.160573464517107 L-43.14557994220216,23.15688546147806 L-43.01748698629564,23.150894631739853 L-42.89246531048701,23.142646974391102 L-42.77147486246205,23.13220581700707 L-42.65544463713166,23.11965132940473 L-42.54526554357671,23.10507990807886 L-42.441783564425364,23.088603436045673 L-42.345793260186916,23.070348423777006 L-42.25803166841755,23.05045503782132 L-42.17917264456172,23.029076024569886 L-42.109821687921524,23.006375537431797 L-42.05051129248174,22.98252787642305 L-42.00169685828778,22.95771614984745 " />
			<path d="M-49.788528298307426,23.480637181841807 L-49.788528298307426,-28.41240618083448 " />
			<path d="M32.62108306249729,9.221168567888382 L32.615064129353904,9.220830211457933 L32.60919930815814,9.220682691595616 L32.603490002071446,9.220726043595635 L32.59793757704821,9.220960257086002 L32.59254336150893,9.221385276031022 L32.587308646022436,9.22200099874469 L32.58223468299704,9.22280727791504 L32.577322686381,9.223803920639373 L32.57257383137199,9.224990688470402 L32.56798925413598,9.226367297473326 L32.56357005153543,9.227933418293741 L32.55931728086677,9.229688676236442 L32.555231959607575,9.231632651355078 L32.55131506517303,9.23376487855261 " />
			<path d="M-29.706634930561542,4.785980415100963 L-29.7081141520557,4.785965100745083 L-29.709771164447364,4.786117005029166 L-29.71160557129548,4.786436091610036 L-29.713616933717272,4.7869222841460655 L-29.715804770493254,4.787575466315444 L-29.71816855818238,4.788395481844005 L-29.720707731247224,4.789382134542616 L-29.72342168218936,4.7905351883541165 L-29.72630976169463,4.791854367409798 L-29.729371278788545,4.793339356095402 L-29.7326055010016,4.7949897991266255 L-29.73601165454447,4.79680530163414 L-29.739588924493194,4.798785429258045 L-29.743336454984124,4.800929708251799 " />
			<path d="M-29.701230222258637,-10.956494633088784 L-29.701447080303485,-10.947195186817353 L-29.7020975290316,-10.938301934841416 L-29.70318119229621,-10.929820020022937 L-29.70469744342773,-10.921754347352488 L-29.70664540559613,-10.914109581112749 L-29.709023952318045,-10.906890142181213 L-29.711831708108154,-10.900100205473649 L-29.71506704927464,-10.893743697529779 L-29.718728104858158,-10.887824294242638 L-29.72281275771374,-10.882345418732816 L-29.72731864573518,-10.877310239368933 L-29.732243163220964,-10.872721667935394 L-29.73758346238113,-10.868582357948545 L-29.743336454984124,-10.864894703122173 " />
			<path d="M-47.42888240739238,-25.79671069343984 L44.12537816011132,-19.281786276482592 " />
			<path d="M44.12537816011131,-19.281786276482592 L44.12537816011131,27.715686957639328 " />
			<path d="M44.12537816011131,27.715686957639328 L-47.428882407392386,21.200762540682078 " />
			<path d="M-47.42888240739238,21.200762540682078 L-47.42888240739238,-25.79671069343984 " />
			<path d="M-42.00169685828778,-26.487542148551658 L-42.05051129248174,-26.462730421976055 L-42.109821687921524,-26.438882760967306 L-42.17917264456172,-26.416182273829218 L-42.25803166841755,-26.394803260577785 L-42.345793260186916,-26.374909874622098 L-42.441783564425364,-26.35665486235343 L-42.54526554357671,-26.340178390320244 L-42.65544463713166,-26.325606968994375 L-42.77147486246205,-26.313052481392035 L-42.89246531048701,-26.302611324008 L-43.01748698629563,-26.29436366665925 L-43.14557994220216,-26.288372836921045 L-43.275760648464335,-26.284684833881997 L-43.407029545070685,-26.283327974951536 L-43.53837871661218,-26.284312678431785 L-43.66879963130879,-26.287631383523223 L-43.79729088476861,-26.293258608378384 L-43.92286588902118,-26.30115114575787 L-44.044560447786615,-26.31124839478633 L-44.16144015981569,-26.323472826261124 L-44.27260759345626,-26.337730577940945 L-44.37720917735788,-26.35391217524356 L-44.474441754406044,-26.37189337181903 L-44.56355874856334,-26.39153610354425 L-44.64387589726689,-26.412689548613802 L-44.714776505367425,-26.435191285587493 L-44.77571618026883,-26.458868540502777 L-44.8262270119106,-26.483539513476448 L-44.86592116549827,-26.50901477460958 L-44.88161343106193,-26.521993086978362 L-44.89449385939596,-26.535098718477666 L-44.90453771383646,-26.548306499944385 L-44.91172570531594,-26.56159106603798 L-44.91604402940765,-26.57492690395422 L-44.917484392836805,-26.58828840242213 " />
			<path d="M-44.917484392836805,-26.58828840242213 L-44.915677577144564,-26.603252464837645 L-44.9102614828451,-26.618180477516105 L-44.90124915778398,-26.63303647756743 L-44.88866231344165,-26.64778467558626 L-44.87253127262862,-26.662389541871775 L-44.85289489643512,-26.676815892021867 L-44.80330369160374,-26.704994540338582 L-44.740366289359336,-26.7320492447491 L-44.664688811290624,-26.757719453660336 L-44.577000072880914,-26.781757948927712 L-44.47814456461663,-26.80393322670103 L-44.36907431908227,-26.82403172693309 L-44.25083974236621,-26.8418598900797 L-44.1245794980758,-26.85724602118389 L-43.99150954138444,-26.870041943392216 L-43.8529114087185,-26.880124424978845 L-43.710119875861,-26.88739636613446 L-43.564510103331145,-26.891787734090475 L-43.417484392836805,-26.893256237572913 L-43.270458682342465,-26.891787734090475 L-43.12484890981261,-26.88739636613446 L-42.98205737695511,-26.880124424978845 L-42.84345924428917,-26.870041943392216 L-42.710389287597806,-26.85724602118389 L-42.5841290433074,-26.8418598900797 L-42.46589446659134,-26.82403172693309 L-42.35682422105698,-26.80393322670103 L-42.257968712792696,-26.781757948927712 L-42.170279974382986,-26.757719453660336 L-42.09460249631427,-26.7320492447491 L-42.03166509406987,-26.704994540338582 L-41.98207388923849,-26.676815892021867 L-41.96243751304499,-26.662389541871775 L-41.94630647223196,-26.64778467558626 L-41.93371962788963,-26.63303647756743 L-41.92470730282851,-26.618180477516105 L-41.919291208529046,-26.603252464837645 L-41.917484392836805,-26.588288402422133 " />
			<path d="M-41.917484392836805,-26.58828840242213 L-41.91881251633946,-26.575457816712067 L-41.9227945349647,-26.562649951805252 L-41.92942339722917,-26.549887488270215 L-41.93868736453584,-26.537193026277325 L-41.965050357305095,-26.512097865695278 L-42.00169685828778,-26.487542148551658 " />
			<path d="M44.83327192738583,-20.308438577829317 L44.78445749319187,-20.283626851253715 L44.725147097752085,-20.259779190244966 L44.65579614111189,-20.237078703106878 L44.57693711725606,-20.215699689855445 L44.489175525486694,-20.195806303899758 L44.393185221248245,-20.17755129163109 L44.2897032420969,-20.161074819597903 L44.17952414854195,-20.146503398272035 L44.06349392321156,-20.133948910669694 L43.9425034751866,-20.12350775328566 L43.81748179937798,-20.11526009593691 L43.68938884347145,-20.109269266198705 L43.559208137209275,-20.105581263159657 L43.427939240602925,-20.104224404229196 L43.29659006906143,-20.105209107709445 L43.16616915436482,-20.108527812800883 L43.037677900905,-20.114155037656044 L42.91210289665243,-20.12204757503553 L42.790408337886994,-20.13214482406399 L42.67352862585792,-20.144369255538784 L42.56236119221735,-20.158627007218605 L42.45775960831573,-20.17480860452122 L42.360527031267566,-20.19278980109669 L42.27141003711027,-20.21243253282191 L42.19109288840672,-20.23358597789146 L42.120192280306185,-20.256087714865153 L42.05925260540478,-20.279764969780437 L42.008741773763006,-20.304435942754107 L41.96904762017534,-20.32991120388724 L41.95335535461168,-20.342889516256022 L41.94047492627765,-20.355995147755326 L41.93043107183715,-20.369202929222045 L41.92324308035767,-20.38248749531564 L41.91892475626596,-20.39582333323188 L41.917484392836805,-20.40918483169979 " />
			<path d="M41.917484392836805,-20.40918483169979 L41.919291208529046,-20.424148894115305 L41.92470730282851,-20.439076906793765 L41.93371962788963,-20.45393290684509 L41.94630647223196,-20.46868110486392 L41.96243751304499,-20.483285971149435 L41.98207388923849,-20.497712321299527 L42.03166509406987,-20.525890969616242 L42.09460249631427,-20.55294567402676 L42.170279974382986,-20.578615882937996 L42.257968712792696,-20.602654378205372 L42.35682422105698,-20.62482965597869 L42.46589446659134,-20.64492815621075 L42.5841290433074,-20.66275631935736 L42.710389287597806,-20.67814245046155 L42.84345924428917,-20.690938372669876 L42.98205737695511,-20.701020854256505 L43.12484890981261,-20.70829279541212 L43.270458682342465,-20.712684163368134 L43.417484392836805,-20.714152666850573 L43.564510103331145,-20.712684163368134 L43.710119875861,-20.70829279541212 L43.8529114087185,-20.701020854256505 L43.99150954138444,-20.690938372669876 L44.1245794980758,-20.67814245046155 L44.25083974236621,-20.66275631935736 L44.36907431908227,-20.64492815621075 L44.47814456461663,-20.62482965597869 L44.577000072880914,-20.602654378205372 L44.664688811290624,-20.578615882937996 L44.740366289359336,-20.55294567402676 L44.80330369160374,-20.525890969616242 L44.85289489643512,-20.497712321299527 L44.87253127262862,-20.483285971149435 L44.88866231344165,-20.46868110486392 L44.90124915778398,-20.45393290684509 L44.9102614828451,-20.439076906793765 L44.915677577144564,-20.424148894115305 L44.917484392836805,-20.409184831699793 " />
			<path d="M44.917484392836805,-20.40918483169979 L44.91615626933415,-20.396354245989727 L44.91217425070891,-20.383546381082912 L44.90554538844444,-20.370783917547875 L44.89628142113777,-20.358089455554985 L44.869918428368514,-20.332994294972938 L44.83327192738583,-20.308438577829317 " />
			<path d="M44.83327192738583,26.689034656292602 L44.869918428368514,26.66447893914898 L44.89628142113777,26.639383778566934 L44.90554538844444,26.626689316574044 L44.91217425070891,26.613926853039008 L44.91615626933415,26.601118988132193 L44.917484392836805,26.58828840242213 " />
			<path d="M44.917484392836805,26.58828840242213 L44.915677577144564,26.573324340006614 L44.9102614828451,26.558396327328154 L44.90124915778398,26.54354032727683 L44.88866231344165,26.528792129258 L44.87253127262862,26.514187262972484 L44.85289489643512,26.499760912822392 L44.80330369160374,26.471582264505678 L44.740366289359336,26.44452756009516 L44.664688811290624,26.418857351183924 L44.577000072880914,26.394818855916547 L44.47814456461663,26.37264357814323 L44.36907431908227,26.35254507791117 L44.25083974236621,26.33471691476456 L44.1245794980758,26.31933078366037 L43.99150954138444,26.306534861452043 L43.8529114087185,26.296452379865414 L43.710119875861,26.2891804387098 L43.564510103331145,26.284789070753785 L43.417484392836805,26.283320567271346 L43.270458682342465,26.284789070753785 L43.12484890981261,26.2891804387098 L42.98205737695511,26.296452379865414 L42.84345924428917,26.306534861452043 L42.710389287597806,26.31933078366037 L42.5841290433074,26.33471691476456 L42.46589446659134,26.35254507791117 L42.35682422105698,26.37264357814323 L42.257968712792696,26.394818855916547 L42.170279974382986,26.418857351183924 L42.09460249631427,26.44452756009516 L42.03166509406987,26.471582264505678 L41.98207388923849,26.499760912822392 L41.96243751304499,26.514187262972484 L41.94630647223196,26.528792129258 L41.93371962788963,26.54354032727683 L41.92470730282851,26.558396327328154 L41.919291208529046,26.573324340006614 L41.917484392836805,26.588288402422126 " />
			<path d="M41.917484392836805,26.58828840242213 L41.91892475626596,26.60164990089004 L41.92324308035767,26.61498573880628 L41.93043107183715,26.628270304899875 L41.94047492627765,26.641478086366593 L41.95335535461168,26.654583717865897 L41.96904762017534,26.66756203023468 L42.008741773763006,26.693037291367812 L42.05925260540478,26.717708264341482 L42.120192280306185,26.741385519256767 L42.19109288840672,26.763887256230458 L42.27141003711027,26.78504070130001 L42.360527031267566,26.80468343302523 L42.45775960831573,26.8226646296007 L42.56236119221735,26.838846226903314 L42.67352862585792,26.853103978583135 L42.790408337886994,26.86532841005793 L42.91210289665243,26.87542565908639 L43.037677900905,26.883318196465876 L43.16616915436482,26.888945421321036 L43.29659006906142,26.892264126412474 L43.427939240602925,26.893248829892723 L43.559208137209275,26.891891970962263 L43.68938884347145,26.888203967923214 L43.81748179937797,26.88221313818501 L43.9425034751866,26.873965480836258 L44.06349392321156,26.863524323452225 L44.17952414854195,26.850969835849885 L44.2897032420969,26.836398414524016 L44.393185221248245,26.81992194249083 L44.489175525486694,26.80166693022216 L44.57693711725606,26.781773544266475 L44.65579614111189,26.76039453101504 L44.725147097752085,26.737694043876953 L44.78445749319187,26.713846382868205 L44.83327192738583,26.689034656292606 " />
			<path d="M-42.00169685828778,20.509931085570262 L-41.965050357305095,20.48537536842664 L-41.93868736453584,20.460280207844594 L-41.92942339722917,20.447585745851704 L-41.9227945349647,20.434823282316668 L-41.91881251633946,20.422015417409852 L-41.917484392836805,20.40918483169979 " />
			<path d="M-41.917484392836805,20.40918483169979 L-41.919291208529046,20.394220769284274 L-41.92470730282851,20.379292756605814 L-41.93371962788963,20.36443675655449 L-41.94630647223196,20.34968855853566 L-41.96243751304499,20.335083692250144 L-41.98207388923849,20.320657342100052 L-42.03166509406987,20.292478693783337 L-42.09460249631427,20.26542398937282 L-42.170279974382986,20.239753780461584 L-42.257968712792696,20.215715285194207 L-42.35682422105698,20.19354000742089 L-42.46589446659134,20.17344150718883 L-42.5841290433074,20.15561334404222 L-42.710389287597806,20.14022721293803 L-42.84345924428917,20.127431290729703 L-42.98205737695511,20.117348809143074 L-43.12484890981261,20.11007686798746 L-43.270458682342465,20.105685500031445 L-43.417484392836805,20.104216996549006 L-43.564510103331145,20.105685500031445 L-43.710119875861,20.11007686798746 L-43.8529114087185,20.117348809143074 L-43.99150954138444,20.127431290729703 L-44.1245794980758,20.14022721293803 L-44.25083974236621,20.15561334404222 L-44.36907431908227,20.17344150718883 L-44.47814456461663,20.19354000742089 L-44.577000072880914,20.215715285194207 L-44.664688811290624,20.239753780461584 L-44.740366289359336,20.26542398937282 L-44.80330369160374,20.292478693783337 L-44.85289489643512,20.320657342100052 L-44.87253127262862,20.335083692250144 L-44.88866231344165,20.34968855853566 L-44.90124915778398,20.36443675655449 L-44.9102614828451,20.379292756605814 L-44.915677577144564,20.394220769284274 L-44.917484392836805,20.409184831699786 " />
			<path d="M-44.917484392836805,20.40918483169979 L-44.91604402940765,20.422546330167698 L-44.91172570531594,20.43588216808394 L-44.90453771383646,20.449166734177535 L-44.89449385939596,20.462374515644253 L-44.88161343106193,20.475480147143557 L-44.86592116549827,20.48845845951234 L-44.8262270119106,20.513933720645472 L-44.77571618026883,20.538604693619142 L-44.714776505367425,20.562281948534427 L-44.64387589726689,20.584783685508118 L-44.56355874856334,20.60593713057767 L-44.474441754406044,20.62557986230289 L-44.37720917735788,20.64356105887836 L-44.27260759345626,20.659742656180974 L-44.16144015981569,20.674000407860795 L-44.044560447786615,20.68622483933559 L-43.92286588902118,20.69632208836405 L-43.79729088476861,20.704214625743536 L-43.66879963130879,20.709841850598696 L-43.538378716612186,20.713160555690134 L-43.407029545070685,20.714145259170383 L-43.275760648464335,20.712788400239923 L-43.14557994220216,20.709100397200874 L-43.01748698629564,20.70310956746267 L-42.89246531048701,20.694861910113918 L-42.77147486246205,20.684420752729885 L-42.65544463713166,20.671866265127544 L-42.54526554357671,20.657294843801676 L-42.441783564425364,20.64081837176849 L-42.345793260186916,20.62256335949982 L-42.25803166841755,20.602669973544135 L-42.17917264456172,20.5812909602927 L-42.109821687921524,20.558590473154613 L-42.05051129248174,20.534742812145865 L-42.00169685828778,20.509931085570265 " />
			<path d="M31.973201821898844,9.56958572478752 L32.55131506517303,9.23376487855261 " />
			<path d="M31.97320182189884,9.56958572478752 L31.97320182189884,9.175065882033023 " />
			<path d="M-30.321449698258306,5.136750554486707 L-29.743336454984117,4.800929708251797 " />
			<path d="M-30.321449698258313,5.13675055448671 L31.973201821898844,9.56958572478752 " />
			<path d="M-29.70123022225864,-10.484939559007335 L-30.321449698258313,-10.529073856887264 " />
			<path d="M-30.321449698258306,-10.529073856887265 L-29.743336454984117,-10.864894703122177 " />
			<path d="M-30.321449698258313,-10.529073856887262 L-30.321449698258313,5.136750554486711 " />
			<path d="M36.65160698805908,-1.0061686350297019 L36.5746458908925,-0.9711195364543204 L36.49873163638368,-0.9339241320034635 L36.42391604277303,-0.8946078108536764 L36.35025017836704,-0.853197409896068 " />
			<path d="M36.350250178367034,-0.8531974098960609 L36.28214110152304,-0.8124143720385772 L36.21513202315341,-0.7698328872551987 L36.14926330702133,-0.7254786050401352 L36.0845746299784,-0.6793782427544777 L36.02110495806481,-0.6315595695326657 L35.95889252303764,-0.5820513895553914 L35.89797479934147,-0.5308835246990444 L35.8383884815352,-0.4780867965721236 L35.780169462188596,-0.4236930079494554 L35.72335281026197,-0.3677349236153913 L35.66797274998192,-0.3102462506275274 L35.61406264022598,-0.2512616180128311 L35.56165495442843,-0.19081655590841207 L35.51078126101953,-0.12894747415949626 L35.46147220440993,-0.06569164038749431 L35.41375748653152,-0.001087157541381334 L35.3676658489462,0.06482705905409203 L35.323225055532966,0.13201130513953796 L35.280461875764026,0.2004251114372979 L35.23940206857985,0.2700272680286142 L35.20007036687296,0.34077584917694836 L35.16249046258976,0.4126282385824769 L35.12668499245938,0.4855411550525566 L35.09267552435819,0.5594706785726937 L35.06048254431806,0.6343722767623237 L35.03012544418641,0.7102008316994486 L35.00162250994522,0.7869106670979849 L34.9749909106963,0.8644555758214578 L34.9502466883192,0.9427888477164403 L34.92740474780823,1.0218632977490112 L34.90647884829426,1.1016312944272573 L34.88748159475668,1.1820447884926957 L34.87042443043067,1.2630553418633568 L34.85531762991419,1.3446141568110694 L34.84217029297902,1.426672105355389 L34.830990339089304,1.5091797588564577 L34.821784502631225,1.5920874177889663 L34.814558328856435,1.6753451416792906 L34.806061185367504,1.8427099983179809 L34.805519378985444,2.010871132173454 L34.81293421496928,2.1794234283450717 L34.82828783032967,2.3479608295879233 L34.85154323686239,2.516077314540282 L34.88264441025617,2.683367875864632 L34.92151642506016,2.849429495945821 L34.968065635185916,3.0138621177957923 L35.02217989950902,3.176269608825914 L35.08372885202685,3.3362607151650776 L35.15256421592176,3.493450004224546 L35.22852016077285,3.6474587932388207 L35.31141370205602,3.7979160615455907 L35.40104514196971,3.9444593444070026 L35.49719855052437,4.086735606218965 L35.59964228573674,4.224402091004846 L35.70812955167571,4.357127148144638 L35.82239899301525,4.484591031350348 L35.94217532466235,4.606486668962818 L36.06716999494292,4.72252040371424 L36.197081880748,4.832412700174244 L36.331598012965756,4.935898818175231 L36.47039433045145,5.032729450594619 L36.61313646071914,5.122671323957553 L36.75948052547428,5.2055077604131235 L36.909073969046645,5.281039199730291 L36.9849768701432,5.316007982665183 L37.06155640772783,5.349083680055967 L37.13876645315057,5.380246368339318 L37.21656049796716,5.409477276277059 L37.294891681953885,5.436758796263263 L37.37371282133451,5.4620744949304125 L37.452976437201976,5.485409123048244 L37.53263478411795,5.506748624709321 L37.612639878872876,5.526080145795774 L37.69294352938924,5.543392041722154 L37.77349736375073,5.558673884449689 L37.85425285933962,5.5719164687677445 L37.93516137206502,5.5831118178387005 L38.01617416566421,5.592253188002896 L38.097242441059606,5.599335072840763 L38.17831736575345,5.604353206489682 L38.259350103242674,5.607304566213585 L38.340291842436244,5.608187374223734 L38.421093827057064,5.60700109874959 L38.50170738501099,5.603746454359145 L38.58208395770503,5.598425401528479 L38.662175129297275,5.591041145460849 L38.741932655860765,5.581598134155997 L38.82130849444382,5.570102055730835 L38.90025483200933,5.556559834993141 L38.97872411423554,5.540979629270311 L39.05666907416099,5.523370823495691 L39.13404276065638,5.503744024555443 L39.21079856670614,5.482111054899356 L39.286890257482796,5.458484945419443 L39.36227199819708,5.4328799276006166 L39.43689838170709,5.405311424948177 L39.51072445586985,5.375796043697271 L39.58370575061883,5.34435156280991 L39.655798304751016,5.310996923265599 L39.726958692407514,5.275752216651988 L39.797144049231655,5.238638673062454 L39.866312098188864,5.199678648307909 " />
			<path d="M39.866312098188885,5.199678648307895 L39.93877782155926,5.156202513301797 L40.00999407236301,5.110690248381875 L40.07991223933931,5.063172919611773 L40.148484597282035,5.013682961684914 " />
			<path d="M-47.42888240739238,-25.79671069343984 L-44.951254221931585,-27.235942891589456 " />
			<path d="M-44.95125422193158,-27.235942891589456 L46.60300634557212,-20.721018474632206 " />
			<path d="M44.12537816011131,-19.281786276482592 L46.603006345572105,-20.721018474632206 " />
			<path d="M44.12537816011131,27.715686957639328 L46.603006345572105,26.276454759489713 " />
			<path d="M46.60300634557211,-20.721018474632206 L46.60300634557211,26.276454759489713 " />
			<path d="M46.60300634557211,26.276454759489713 L-44.951254221931585,19.761530342532463 " />
			<path d="M-47.42888240739238,21.200762540682078 L-44.951254221931585,19.761530342532463 " />
			<path d="M-44.95125422193158,19.761530342532463 L-44.95125422193158,-27.235942891589456 " />
			<path d="M-29.706634942968076,4.785980414218125 L-29.70123022225864,4.78636500961214 " />
			<path d="M-41.9174843928368,-29.036073466699314 L-41.9174843928368,-26.58828840242213 " />
			<path d="M-44.917484392836805,-29.036073466699314 L-44.917484392836805,-26.58828840242213 " />
			<path d="M44.917484392836805,-22.856969895976974 L44.917484392836805,-20.40918483169979 " />
			<path d="M41.9174843928368,-22.856969895976974 L41.9174843928368,-20.40918483169979 " />
			<path d="M41.9174843928368,29.036073466699314 L41.9174843928368,26.58828840242213 " />
			<path d="M44.917484392836805,29.036073466699314 L44.917484392836805,26.58828840242213 " />
			<path d="M-44.917484392836805,22.856969895976974 L-44.917484392836805,20.40918483169979 " />
			<path d="M-41.9174843928368,22.856969895976974 L-41.9174843928368,20.40918483169979 " />
			<path d="M40.44442534146308,4.863857802072979 L39.86631209818889,5.1996786483078905 " />
			<path d="M36.92836342164121,-1.1890182561309737 L36.35025017836702,-0.8531974098960629 " />

       </g>

       <!-- solid lines -->
       <g  stroke="rgb(0,0,0)" fill="none">
			<path d="M-50.142475181944675,-32.990472963857655 L-49.56436193867049,-33.326293810092565 " />
			<path d="M-50.142475181944675,24.777254553083864 L-49.56436193867049,24.441433706848954 " />
			<path d="M-50.142475181944675,24.777254553083864 L-50.142475181944675,-32.99047296385766 " />
			<path d="M-49.564361938670494,-33.326293810092565 L-49.56044504423594,-33.3284260372901 L-49.556359722976744,-33.33037001240874 L-49.552106952308094,-33.33212527035143 L-49.547687749707535,-33.333691391171854 L-49.543103172471525,-33.33506800017478 L-49.53835431746251,-33.33625476800581 L-49.53344232084648,-33.33725141073015 L-49.52836835782109,-33.33805768990049 L-49.523133642334585,-33.33867341261416 L-49.51773942679531,-33.33909843155918 L-49.51218700177207,-33.339332645049545 L-49.50647769568537,-33.339375997049565 L-49.50061287448961,-33.33922847718725 L-49.494593941346224,-33.3388901207568 " />
			<path d="M-49.494593941346224,-33.3388901207568 L-49.45355054470393,-33.33245448187342 L-49.406924572030455,-33.318624405813814 L-49.35515196491296,-33.297529200450015 L-49.29871678472802,-33.26936610085897 L-49.2381466867847,-33.23439842522215 L-49.174007986874756,-33.192953112864195 L-49.10690036635673,-33.145417667449124 L-49.03745126528004,-33.09223653391462 L-48.966310015971985,-33.03390694301921 L-48.89414177193731,-32.97097426235471 L-48.82162128883347,-32.90402689729089 L-48.74942661566817,-32.83369078952737 L-48.678232755204874,-32.76062356468981 L-48.6087053528499,-32.68550838368915 " />
			<path d="M52.40904207328198,-26.087512824569355 L52.4097858272327,-26.087432221795982 L52.41047470821845,-26.08730017004277 L52.41110866552277,-26.087116679031563 L52.41168765247279,-26.08688176227125 L52.41221162644264,-26.08659543705674 L52.41268054885657,-26.08625772446772 L52.41309438519182,-26.085868649367104 L52.413453104981144,-26.08542824039916 L52.413756681815066,-26.084936529987466 L52.414005093343796,-26.08439355433246 L52.41419832127893,-26.083799353408814 L52.414336351394724,-26.083153970962485 L52.4144191735292,-26.082457454507484 L52.414446781584886,-26.081709855322384 " />
			<path d="M52.414446781584886,-26.081709855322384 L52.411534658082736,-26.071086096194545 L52.402820902145095,-26.055162389110702 L52.38837318186117,-26.034062392208575 L52.36830369335306,-26.00794996094649 L52.342768289498544,-25.977027875657182 L52.31196526963015,-25.941536266824137 L52.27613383960947,-25.901750750309247 L52.23555225423512,-25.857980287013014 L52.19053565640981,-25.810564783588415 L52.14143362984692,-25.759872452840483 L52.088627484321265,-25.706296954309888 L52.032527294546036,-25.650254337245716 L51.973568715670865,-25.592179809707368 L51.912209600130964,-25.532524358885563 " />
			<path d="M51.79422730558521,32.03098483175792 L-50.14247518194468,24.777254553083868 " />
			<path d="M51.79422730558521,32.03098483175792 L52.3723405488594,31.69516398552301 " />
			<path d="M-49.564361938670494,24.441433706848954 L-49.532170217067595,24.421018806979273 L-49.491481150188925,24.392259412392452 L-49.44280642665881,24.355517189162015 L-49.386758159367396,24.31125419206342 L-49.32404118779582,24.260027053967168 L-49.25544421425083,24.20247998585749 L-49.18182988547565,24.139336675505465 L-49.104123944366656,24.071391186675363 L-49.02330358821933,23.999497973312113 L-48.940385179905284,23.92456113428719 L-48.85641146651945,23.847523043830673 L-48.77243846623034,23.769352500628603 L-48.68952218823886,23.691032544617364 L-48.6087053528499,23.613548094686085 " />
			<path d="M52.37234054885939,31.695163985523006 L52.378093541462384,31.691476330696638 L52.38343384062255,31.68733702070979 L52.388358358108334,31.682748449276247 L52.39286424612978,31.677713269912363 L52.39694889898536,31.672234394402544 L52.40060995456888,31.666314991115403 L52.403845295735366,31.659958483171533 L52.406653051525474,31.65316854646397 L52.40903159824738,31.645949107532438 L52.41097956041579,31.638304341292695 L52.4124958115473,31.630238668622248 L52.41357947481191,31.62175675380377 L52.41422992354003,31.612863501827828 L52.414446781584886,31.6035640555564 " />
			<path d="M52.414446781584886,31.6035640555564 L52.411534658082736,31.566091716817816 L52.402820902145095,31.52352792713571 L52.38837318186117,31.476203222542846 L52.36830369335306,31.42448511073113 L52.342768289498544,31.36877521711096 L52.31196526963015,31.3095061659237 L52.27613383960947,31.247138220627782 L52.23555225423512,31.182155709647944 L52.19053565640981,31.11506326524406 L52.14143362984692,31.04638190470724 L52.088627484321265,30.97664498431529 L52.032527294546036,30.906394057467775 L51.973568715670865,30.836174669165025 L51.912209600130964,30.766532119489657 " />
			<path d="M33.50697165099362,9.874550304956042 L33.43744424863865,9.799435123955377 L33.366250388175345,9.726367899117822 L33.294055715010046,9.656031791354295 L33.2215352319062,9.589084426290476 L33.14936698787153,9.526151745625974 L33.07822573856348,9.467822154730568 L33.00877663748679,9.414641021196063 L32.94166901696876,9.367105575780986 L32.87753031705882,9.325660263423032 L32.8169602191155,9.290692587786214 L32.76052503893056,9.262529488195163 L32.70875243181306,9.241434282831367 L32.662126459139586,9.227604206771764 L32.6210830624973,9.221168567888382 " />
			<path d="M33.50697165099362,-7.259945144984243 L33.426154815604654,-7.182460695052957 L33.343238537613175,-7.104140739041713 L33.25926553732407,-7.025970195839648 L33.17529182393823,-6.948932105383134 L33.09237341562419,-6.873995266358201 L33.01155305947686,-6.802102052994955 L32.93384711836787,-6.734156564164854 L32.860232789592686,-6.671013253812829 L32.791635816047695,-6.613466185703157 L32.72891884447613,-6.562239047606901 L32.6728705771847,-6.517976050508303 L32.6241958536546,-6.481233827277864 L32.58350678677592,-6.452474432691047 L32.55131506517303,-6.432059532821364 " />
			<path d="M-30.20346740371256,5.340968880784759 L-30.142108288172647,5.281313429962953 L-30.083149709297487,5.223238902424606 L-30.02704951952225,5.167196285360434 L-29.9742433739966,5.113620786829835 L-29.925141347433712,5.062928456081904 L-29.880124749608406,5.015512952657307 L-29.83954316423405,4.971742489361078 L-29.803711734213373,4.931956972846189 L-29.77290871434498,4.896465364013141 L-29.747373310490456,4.865543278723831 L-29.727303821982357,4.8394308474617445 L-29.712856101698428,4.818330850559617 L-29.704142345760783,4.802407143475778 L-29.701230222258637,4.791783384347937 " />
			<path d="M-29.701230222258637,4.791783384347936 L-29.70125783031431,4.791035785162836 L-29.701340652448792,4.790339268707836 L-29.70147868256459,4.789693886261506 L-29.70167191049972,4.789099685337861 L-29.701920322028453,4.788556709682854 L-29.70222389886237,4.788064999271158 L-29.7025826186517,4.787624590303217 L-29.702996454986945,4.787235515202597 L-29.703465377400875,4.7868978026135816 L-29.703989351370723,4.786611477399071 L-29.704568338320744,4.786376560638754 L-29.705202295625067,4.78619306962755 L-29.70589117661081,4.786061017874338 L-29.706634930561542,4.785980415100963 " />
			<path d="M-30.20346740371256,-11.793526569155528 L-30.142108288172647,-11.723884019480158 L-30.083149709297487,-11.653664631177412 L-30.02704951952225,-11.5834137043299 L-29.9742433739966,-11.513676783937944 L-29.925141347433712,-11.444995423401123 L-29.880124749608406,-11.377902978997241 L-29.83954316423405,-11.312920468017406 L-29.803711734213373,-11.250552522721492 L-29.77290871434498,-11.19128347153423 L-29.747373310490456,-11.135573577914059 L-29.727303821982357,-11.083855466102346 L-29.712856101698428,-11.036530761509473 L-29.704142345760783,-10.993966971827374 L-29.701230222258637,-10.956494633088786 " />
			<path d="M31.97320182189884,9.175065882033023 L31.97320182189884,-6.096238686586453 " />
			<path d="M31.973201821898844,-6.096238686586456 L32.55131506517303,-6.432059532821366 " />
			<path d="M31.973201821898844,-6.096238686586453 L-29.70123022225864,-10.484939559007335 " />
			<path d="M41.411785385559014,2.408315211570353 L41.9898986288332,2.072494365335442 " />
			<path d="M41.41178538555902,2.4083152115703546 L41.41012790134364,2.2996549469304584 L41.405157111933704,2.1908678292659447 L41.39687800536879,2.08206302321949 L41.38529888948655,1.9733497111835356 L41.37043138358596,1.8648369837389995 L41.35229040676779,1.7566337301861183 L41.330894162963666,1.6488485292772659 L41.30626412266899,1.5415895402614008 L41.278425001397935,1.4349643943494699 L41.24740473488213,1.329080086709684 L41.21323445103805,1.224042869101042 L41.175948438731005,1.1199581432528505 L41.135584113367315,1.0169303550972106 L41.09218197934907,0.9150628899606299 L41.04578558942914,0.8144579688199189 L40.99644150100729,0.7152165457264708 L40.944199229411225,0.6174382065018715 L40.88911119820942,0.5212210688064838 L40.8312326866056,0.42666168368128754 L40.77062177396776,0.33385493866177907 L40.70733928154718,0.24289396256114237 L40.64144871144613,0.15387003201825378 L40.57301618289542,0.06687247990428347 L40.50211036590568,-0.0180113943201885 L40.428802412359055,-0.10069641220758907 L40.35316588461041,-0.1810996017973956 L40.27527668166968,-0.2591402808760339 L40.19521296303949,-0.3347401379390833 L40.113055070284375,-0.4078233107745506 L40.028885446410435,-0.47831646258834093 L39.94278855313623,-0.5461488555955589 L39.85485078613793,-0.6112524220037718 L39.76516038835384,-0.6735618323170223 L39.67380736143522,-0.7330145608920318 L39.5808833754323,-0.7895509486808345 L39.48648167680611,-0.8431142630968567 L39.39069699485842,-0.8936507549443804 L39.29362544667372,-0.9411097123542702 L39.19536444066854,-0.9854435116718281 L39.09601257884503,-1.0266076652457143 L38.99566955784675,-1.064560866069984 L38.8944360689161,-1.0992650292344446 L38.79241369685358,-1.1306853301417323 L38.689704818080486,-1.1587902394527574 L38.58641249790724,-1.1835515547254647 L38.482640387110386,-1.2049444287151436 L38.378492617922085,-1.2229473943079023 L38.27407369953657,-1.2375423860622785 L38.169488413238234,-1.248714758337373 L38.064841707256726,-1.2564532999893179 L37.96023859145453,-1.2607502456213222 L37.85578403195266,-1.261601283376021 L37.75158284580033,-1.2590055592622957 L37.64773959579409,-1.2529656780122274 L37.54435848555221,-1.2434877004673246 L37.441543254949416,-1.2305811374966522 L37.33939707601702,-1.2142589404529538 L37.23802244941286,-1.1945374881763553 L37.1375211015649,-1.1714365705586847 L37.03799388259181,-1.144979368684901 L36.93954066510287,-1.1151924315715687 L36.84226024397873,-1.0821056495257042 L36.74625023723373,-1.04575222415074 L36.65160698805909,-1.006168635029708 " />
			<path d="M40.148484597282035,5.013682961684914 L40.22114953826464,4.957920648575907 L40.29212419329004,4.8999306029924155 L40.361351782928566,4.8397592167304015 L40.428776925395624,4.777454626649323 L40.49434568085686,4.713066676162848 L40.55800559457985,4.6466468753643255 L40.61970573889765,4.5782483598189305 L40.67939675395067,4.507925848055426 L40.73703088717444,4.435735597791572 L40.79256203150141,4.361735360928183 L40.84594576224643,4.285984337347845 L40.897139372646286,4.208543127555256 L40.94610190802499,4.129473684197077 L40.992794198557306,4.048839262500067 L41.03717889060445,3.966704369667163 L41.07922047659686,3.8831347132719927 L41.118885323440104,3.7981971486930783 L41.15614169942122,3.7119596256298193 L41.19095979959393,3.6244911337430104 L41.2233117696225,3.5358616474634 L41.25317172806508,3.446142070012434 L41.28051578707875,3.3554041766799756 L41.305322071529716,3.263720557404371 L41.32757073649329,3.1711645587007964 L41.34724398312978,3.0778102249843555 L41.36432607292346,2.9837322393348478 L41.37880334027335,2.88900586375062 L41.3906642034256,2.793706878939278 L41.399899173738895,2.6979115236934326 L41.40650086327527,2.6016964338999857 L41.41046399071048,2.505138581231734 L41.41178538555902,2.4083152115703625 " />
			<path d="M-49.564361938670494,24.441433706848954 L-49.564361938670494,-33.32629381009257 " />
			<path d="M-48.608705352849896,-32.68550838368915 L51.91220960013096,-25.532524358885563 " />
			<path d="M52.37234054885939,31.695163985523006 L-49.5643619386705,24.441433706848954 " />
			<path d="M-48.608705352849896,23.613548094686074 L-48.608705352849896,-32.68550838368914 " />
			<path d="M51.912209600130964,-25.53252435888556 L51.912209600130964,30.766532119489653 " />
			<path d="M51.912209600130964,30.766532119489657 L-48.60870535284989,23.613548094686077 " />
			<path d="M33.50697165099362,9.87455030495604 L33.50697165099362,-7.259945144984243 " />
			<path d="M-30.20346740371256,5.340968880784759 L33.50697165099362,9.874550304956042 " />
			<path d="M33.50697165099362,-7.259945144984243 L-30.203467403712562,-11.793526569155526 " />
			<path d="M-30.20346740371256,-11.793526569155526 L-30.20346740371256,5.340968880784757 " />
			<path d="M42.9455552146538,1.978944272455719 L42.94434705656973,1.8767364914558784 L42.94072331006679,1.7744183335689883 L42.934686157954346,1.6720514314274375 L42.92623923678711,1.5696974470253322 L42.91538763467453,1.4674180345756127 L42.90213788821596,1.3652748033718665 L42.88649797856322,1.263329280677188 L42.868477326613075,1.1616428746624599 L42.84808678733243,1.0602768374163665 L42.82533864321967,0.959292228049425 L42.800246596906234,0.8587498759142598 L42.772825762902556,0.7587103439642762 L42.7430926584937,0.6592338922728023 L42.71106519378998,0.5603804417346716 L42.67676266093855,0.4622095379721205 L42.640205722502536,0.3647803154667302 L42.60141639901471,0.2681514619390237 L42.56041805571311,0.17238118299717997 L42.51723538846671,0.07752716707615259 L42.47189440889956,-0.01635344931168703 L42.424422428722345,-0.10920411599344981 L42.37484804328083,-0.20096890319943705 L42.3232011143311,-0.2915925352531419 L42.26951275205195,-0.38102042386725055 L42.21381529630528,-0.46919870102558603 L42.15614229715577,-0.556074251431188 L42.09652849466158,-0.6415947445009769 L42.03500979794821,-0.7257086658877441 L41.97162326357825,-0.8083653485104683 L41.90640707322983,-0.8895150030742713 L41.83940051069741,-0.9691087480616241 L41.77064393822872,-1.0470986391767494 L41.70017877221206,-1.1234376982254672 L41.62804745822857,-1.1980799414131091 L41.554293445484625,-1.2709804070434316 L41.47896116063966,-1.3420951826018634 L41.40209598104522,-1.4113814312067605 L41.32374420741131,-1.478797417412744 L41.243953035916604,-1.5443025323505686 L41.16277052977924,-1.607857318188389 L41.08024559030528,-1.669423491899685 L40.996427927432485,-1.728963968323519 L40.911368029786814,-1.7864428825032546 L40.82511713427001,-1.8418256112902656 L40.737727195196406,-1.895078794199625 L40.64925085299758,-1.9461703535052126 L40.55974140251374,-1.9950695135621386 L40.46925276089086,-2.0417468193448434 L40.377839435103084,-2.0861741541896994 L40.28555648911969,-2.1283247567314407 L40.192459510736676,-2.168173237023209 L40.09860457809268,-2.2056955918305072 L40.004048225889676,-2.240869219089851 L39.908847411338535,-2.273672931523406 L39.81305947985015,-2.3040869694014114 L39.71674213049273,-2.3320930124447043 L39.61995338123597,-2.357674190860169 L39.52275153400326,-2.3808150955024683 L39.42519513955277,-2.401501787155942 L39.32734296220864,-2.4197218049310623 L39.22925394446358,-2.435464173770411 L39.13098717147409,-2.4487194110596455 L39.03260183546979,-2.4594795323394685 L38.93415720009823,-2.4677380561151665 L38.83571256472666,-2.473490007760823 L38.737327228722364,-2.476731922515847 L38.639060455732874,-2.4774618475720125 L38.54097143798781,-2.4756793432497606 L38.44311926064368,-2.47138548326304 L38.34556286619319,-2.4645828540725523 L38.24836101896048,-2.455275553327753 L38.15157226970372,-2.4434691873985894 L38.05525492034629,-2.429170867998428 L37.95946698885792,-2.412389207900227 L37.86426617430678,-2.393134315748524 L37.76970982210377,-2.371417789970362 L37.67585488945978,-2.3472527117888395 L37.582757911076754,-2.3206536373434608 L37.49047496509337,-2.2916365889220676 L37.39906163930559,-2.260219045309613 L37.30857299768272,-2.2264199312595916 L37.219063547198864,-2.1902596060944766 L37.13058720500004,-2.1517598514420255 L37.04319726592644,-2.110943858114843 L36.95694637040964,-2.0678362121411005 L36.87188647276396,-2.022462879954834 L36.788068809891165,-1.9748511927547336 L36.705543870417216,-1.925029830040855 L36.62436136427984,-1.8730288023391548 L36.544570192785145,-1.8188794331242764 L36.46621841915123,-1.7626143399514604 L36.38935323955679,-1.704267414808947 L36.31402095471182,-1.6438738037027076 L36.24026694196788,-1.5814698854858147 L36.168135627984384,-1.5170932499451655 L36.097670461967724,-1.450782675158813 L36.028913889499044,-1.3825781041374974 L35.961907326966625,-1.3125206207644688 L35.896691136618195,-1.2406524250480917 L35.83330460224824,-1.167016807702141 L35.77178590553488,-1.0916581240690917 L35.71217210304068,-1.0146217674021258 L35.65449910389117,-0.9359541415219215 L35.5988016481445,-0.8557026328647375 L35.545113285865355,-0.7739155819385921 L35.49346635691562,-0.6906422542047475 L35.44389197147411,-0.6059328104020416 L35.396419991296895,-0.5198382763319298 L35.351079011729745,-0.4324105121224546 L35.307896344483346,-0.34370218098964056 L35.266898001181744,-0.2537667175151448 L35.22810867769392,-0.16265829545925814 L35.1915517392579,-0.0704317951286666 L35.15724920640647,0.022857229681402025 L35.12522174170275,0.11715258515070293 L35.0954886372939,0.21239747128303277 L35.06806780329022,0.30853451612042093 L35.04297575697678,0.4055058103018536 L35.020227612864026,0.5032529419457057 L34.99983707358338,0.6017170318348757 L34.98181642163323,0.7008387688834253 L34.96617651198049,0.8005584458633557 L34.95292676552192,0.9008159953700109 L34.94207516340934,1.001551026004441 L34.93362824224211,1.1027028587509173 L34.92759109012967,1.204210563527705 L34.92396734362672,1.3060129958890625 L34.92275918554265,1.4080488338563746 L34.92396734362672,1.5102566148562144 L34.92759109012967,1.6125747727431043 L34.93362824224211,1.714941674884654 L34.94207516340934,1.8172956592867595 L34.95292676552192,1.9195750717364786 L34.96617651198049,2.021718302940225 L34.98181642163323,2.1236638256349067 L34.99983707358338,2.2253502316496343 L35.020227612864026,2.3267162688957272 L35.04297575697678,2.427700878262672 L35.06806780329022,2.528243230397837 L35.0954886372939,2.628282762347821 L35.12522174170275,2.7277592140392946 L35.157249206406476,2.826612664577424 L35.19155173925791,2.9247835683399743 L35.22810867769392,3.022212790845365 L35.26689800118175,3.118841644373071 L35.30789634448335,3.214611923314914 L35.351079011729745,3.309465939235941 L35.396419991296895,3.4033465556237803 L35.44389197147411,3.496197222305543 L35.493466356915626,3.5879620095115294 L35.545113285865355,3.6785856415652334 L35.5988016481445,3.768013530179342 L35.654499103891176,3.8561918073376775 L35.712172103040686,3.9430673577432787 L35.77178590553488,4.028587850813067 L35.83330460224824,4.112701772199834 L35.896691136618195,4.195358454822559 L35.961907326966625,4.276508109386361 L36.028913889499044,4.356101854373717 L36.09767046196773,4.434091745488841 L36.16813562798439,4.51043080453756 L36.24026694196788,4.585073047725203 L36.31402095471183,4.657973513355525 L36.38935323955679,4.729088288913958 L36.46621841915123,4.798374537518855 L36.544570192785145,4.865790523724837 L36.62436136427985,4.931295638662661 L36.705543870417216,4.994850424500482 L36.78806880989117,5.056416598211777 L36.87188647276397,5.1159570746356104 L36.95694637040964,5.173435988815346 L37.043197265926445,5.2288187176023575 L37.13058720500005,5.282071900511717 L37.21906354719887,5.333163459817304 L37.30857299768272,5.38206261987423 L37.39906163930559,5.428739925656934 L37.49047496509337,5.47316726050179 L37.582757911076754,5.515317863043531 L37.67585488945978,5.5551663433353 L37.76970982210377,5.592688698142598 L37.86426617430678,5.627862325401942 L37.95946698885792,5.6606660378354965 L38.05525492034629,5.6910800757135025 L38.15157226970372,5.719086118756795 L38.24836101896048,5.74466729717226 L38.34556286619319,5.767808201814561 L38.443119260643684,5.788494893468035 L38.540971437987814,5.806714911243154 L38.639060455732874,5.822457280082503 L38.737327228722364,5.835712517371738 L38.83571256472666,5.84647263865156 L38.93415720009823,5.854731162427258 L39.03260183546979,5.860483114072915 L39.13098717147409,5.863725028827939 L39.22925394446358,5.864454953884104 L39.32734296220864,5.862672449561852 L39.42519513955277,5.858378589575133 L39.52275153400326,5.851575960384644 L39.61995338123597,5.842268659639845 L39.71674213049273,5.8304622937106805 L39.81305947985016,5.81616397431052 L39.90884741133854,5.799382314212318 L40.00404822588968,5.780127422060615 L40.09860457809269,5.758410896282454 L40.19245951073668,5.73424581810093 L40.2855564891197,5.707646743655551 L40.377839435103084,5.678629695234159 L40.46925276089086,5.647212151621705 L40.55974140251374,5.613413037571684 L40.64925085299758,5.577252712406569 L40.737727195196406,5.538752957754118 L40.82511713427001,5.497936964426936 L40.911368029786814,5.454829318453193 L40.99642792743249,5.409455986266925 L41.08024559030529,5.361844299066826 L41.16277052977924,5.312022936352947 L41.243953035916604,5.260021908651247 L41.32374420741131,5.205872539436369 L41.40209598104522,5.149607446263554 L41.47896116063966,5.09126052112104 L41.554293445484625,5.030866910014803 L41.62804745822857,4.968462991797908 L41.70017877221207,4.904086356257258 L41.77064393822873,4.837775781470905 L41.83940051069741,4.76957121044959 L41.90640707322983,4.699513727076559 L41.97162326357826,4.627645531360182 L42.03500979794822,4.554009914014231 L42.09652849466158,4.478651230381184 L42.15614229715577,4.401614873714218 L42.213815296305285,4.322947247834014 L42.26951275205195,4.242695739176829 L42.3232011143311,4.160908688250684 L42.374848043280835,4.07763536051684 L42.424422428722345,3.9929259167141335 L42.47189440889956,3.906831382644022 L42.51723538846671,3.8194036184345466 L42.56041805571311,3.7306952873017334 L42.60141639901471,3.6407598238272367 L42.640205722502536,3.549651401771352 L42.67676266093855,3.4574249014407616 L42.71106519378998,3.3641358766306944 L42.7430926584937,3.2698405211613935 L42.772825762902556,3.174595635029063 L42.800246596906234,3.078458590191675 L42.82533864321967,2.9814872960102425 L42.84808678733243,2.8837401643663867 L42.868477326613075,2.785276074477217 L42.88649797856322,2.6861543374286687 L42.90213788821596,2.586434660448737 L42.91538763467453,2.486177110942082 L42.92623923678711,2.3854420803076515 L42.934686157954346,2.2842902475611755 L42.94072331006679,2.1827825427843877 L42.94434705656973,2.08098011042303 L42.9455552146538,1.978944272455755 " />
			<path d="M32.55131506517303,9.2162039356968 L32.55131506517303,-6.432059532821363 " />
			<path d="M32.55131506517303,-6.432059532821363 L-29.70123022225864,-10.861898458906023 " />
			<path d="M41.9898986288332,2.0724943653354435 L41.98806588079691,1.9582286400615985 L41.98256967026518,1.8438288679106465 L41.97341609571302,1.7294219843681022 L41.960615313746594,1.615134932810124 L41.94418152783364,1.5010945236499196 L41.924132972543646,1.3874272936316847 L41.90049189331514,1.2742593654282026 L41.87328452177265,1.1617163076978811 L41.842541046620696,1.0499229957565133 L41.808295580146996,0.9390034730183603 L41.77058612037228,0.8290808133602936 L41.7294545088885,0.7202769845617087 L41.68494638443231,0.6127127129717462 L41.637111132245295,0.5065073495539725 L41.586001829277244,0.40177873745716486 L41.53167518529308,0.2986430812591261 L41.47419147994897,0.19721481802862928 L41.413614495907325,0.09760649034854807 L41.350011448064954,-7.137855893413203e-05 L41.28345290897289,-0.09571040746647275 L41.21401273053063,-0.1892044773990016 L41.14176796204165,-0.2804498493810301 L41.066798764721256,-0.369345279543136 L40.98918832275138,-0.45579213145995445 L40.90902275098127,-0.5396944855949972 L40.82639099937632,-0.6209592457308715 L40.74138475432114,-0.6994962422668076 L40.65409833688634,-0.7752183322688764 L40.564628598171964,-0.8480414961618841 L40.47307481184358,-0.9178849309556523 L40.37953856398042,-0.9846711399022527 L40.28412364035769,-1.0483260184847032 L40.186935911288124,-1.108778936641717 L40.088083214150636,-1.1659628171372753 L39.98767523373627,-1.219814209988065 L39.8858233805444,-1.2702733628661866 L39.78264066716407,-1.317284287399034 L39.678241582877654,-1.3607948212927694 L39.57274196662612,-1.4007566862104606 L39.4662588784766,-1.4371255413406716 L39.358910469735186,-1.4698610325970554 L39.250815851848735,-1.4989268373943647 L39.142094964241466,-1.5242907049512004 L39.03286844123279,-1.5459244920747721 L38.9232574781841,-1.5638041943879706 L38.81338369702305,-1.5779099729640953 L38.70336901129453,-1.5882261763397032 L38.59333549088804,-1.5947413578811183 L38.483405226591636,-1.5974482884853758 L38.373700194622664,-1.5963439646014714 L38.264342121285594,-1.5914296115630375 L38.155452347907186,-1.58271068222874 L38.0471516961988,-1.570196850931904 L37.939560334195285,-1.5539020027460888 L37.83279764291914,-1.5338442180785081 L37.72698208391794,-1.5100457526084117 L37.62223106782201,-1.4825330125926655 L37.51866082406814,-1.45133652556595 L37.41638627193395,-1.416490906468072 L37.315520893025976,-1.3780348192359881 L37.216176605362946,-1.336010933903143 L37.11846363919403,-1.2904658792537342 L37.02249041468972,-1.2414501910844329 L36.92836342164122,-1.1890182561309766 " />
			<path d="M40.444425341463074,4.8638578020729835 L40.53177978725164,4.811099889730124 L40.61729736440652,4.755382021317269 L40.70089295002893,4.6967596575552575 L40.782483334341315,4.6352911502555285 L40.86198730351304,4.5710376842376155 L40.93932572049948,4.504063216426705 L41.01442160381378,4.434434412191886 L41.08720020415309,4.362220578988449 L41.15758907880286,4.287493597370297 L41.22551816374524,4.210327849441138 L41.29091984339974,4.13080014481566 L41.35372901792673,4.048989644164412 L41.41388316802688,3.9649777804184714 L41.47132241717185,3.8788481777123387 L41.52598959120454,3.7906865681457433 L41.57783027524937,3.700580706447215 L41.626792867875984,3.6086202826243543 L41.672828632462576,3.5148968326877634 L41.71589174570755,3.419503647537489 L41.75593934324136,3.322535680102673 L41.79293156229304,3.2240894508268525 L41.82683158136902,3.12426295159297 L41.85760565690465,3.0231555481837438 L41.88522315685207,2.9208678813744733 L41.90965659117086,2.817501766756738 L41.930881639191206,2.713160093392705 L41.94887717382235,2.607946721400913 L41.96362528258217,2.5019663785754904 L41.97511128542696,2.3953245561416976 L41.98332374936376,2.2881274037515595 L41.988254499830575,2.1804816238241136 L41.9898986288332,2.0724943653354497 " />
			<path d="M-49.49459392893969,-33.338890119873966 L52.40904206087793,-26.08751282545202 " />
			<path d="M52.414446781584886,-26.081709885667884 L52.414446781584886,31.60356408590204 " />
			<path d="M-29.70123022225864,4.78636500961214 L32.62108307490278,9.221168568771148 " />
			<path d="M-29.70123022225864,-10.95649460274327 L-29.70123022225864,4.79178335400257 " />
			<path d="M36.9283634216412,-1.189018256130969 L36.821674688399554,-1.123898619279556 L36.71785486882093,-1.0541840287823765 L36.61705529963226,-0.9799663891324915 L36.51942403396386,-0.9013439954439215 L36.425105841349406,-0.8184215334516473 L36.33424220772598,-0.7313100795116092 L36.246971335434004,-0.6401271006007079 L36.16342814321732,-0.5449964543168038 L36.08374426622312,-0.44604838887871756 L36.00804805600198,-0.3434195431262296 L35.93646458050787,-0.2372529465200803 L35.869115624098114,-0.1276980191419701 L35.806119687533425,-0.014910571694559296 L35.747591987977906,0.10094719449853157 L35.69364445899902,0.21970668749272235 L35.644385750567615,0.34119292472247287 L35.598437188746004,0.469573194475177 L35.55769479277088,0.6004777780966497 L35.52225551365688,0.7336780448865978 L35.49220534237047,0.8689420646497508 L35.467619309829956,1.0060346076958606 L35.44856148690546,1.1447171448397007 L35.43508498441894,1.284747847401069 L35.42723195314417,1.4258815872047843 L35.425033583806766,1.5678699365806887 L35.428510107084165,1.7104611683636461 L35.43767079360562,1.8534002558935434 L35.452513953952234,1.9964288730152902 L35.47302693865692,2.1392853940788186 L35.49918613820443,2.281704893939082 L35.53095698303134,2.423419147956057 L35.56829394352605,2.5641566319947446 L35.60866343257582,2.696156163897862 L35.65390149986293,2.8268602263661746 L35.70393556905737,2.956046300277136 L35.75868539889703,3.0834969655235636 L35.81806308318772,3.208999901013635 L35.881973050803175,3.3323478846708894 L35.95031206568507,3.45333879343423 L36.022969226842974,3.5717756032579207 L36.0998259683544,3.687466389111588 L36.18075605936478,3.80022432498022 L36.26562560408747,3.909867683864167 L36.354293041803736,4.01621983777914 L36.446609146862784,4.119109257756215 L36.54241702868173,4.21836951384183 L36.64155213174563,4.31383927509778 L36.74384223560743,4.405362309601228 L36.840064329159674,4.485531123428121 L36.93866304177922,4.562183237472446 L37.039493944918036,4.63521971306339 L37.14241159052372,4.70454794137398 L37.24726951103959,4.770081643421089 L37.353920219404586,4.83174087006543 L37.46221520905333,4.8894520020115575 L37.57200495391612,4.943147749807869 L37.683138908418904,4.992767153846605 L37.79546550748329,5.038255584363848 L37.90883216652659,5.079564741439522 L38.02308528146174,5.116652654997393 L38.13807022869735,5.149483684805072 L38.25363136513773,5.178028520474008 L38.3696120281828,5.202264181459495 L38.4858545357282,5.222174017060669 L38.615368768143476,5.2392407634972695 L38.744827427942525,5.250918809582637 L38.874026879341336,5.257216130281905 L39.00276735899551,5.258146631276527 L39.13085297600026,5.253730148964273 L39.25809171189039,5.243992450459232 L39.38429542064031,5.228965233591811 L39.509279828664056,5.20868612690874 L39.63286453481523,5.18319868967306 L39.75487301038707,5.152552411864136 L39.87513259911242,5.116802714177651 L39.99347451716369,5.076010948025606 L40.109733853152946,5.030244395536319 L40.22374956813183,4.979576269554428 L40.335364495591584,4.924085713640891 L40.44442534146305,4.863857802072993 " />

       </g>
    </g>
    <g transform="translate(20,210.0)" stroke="rgb(0,0,255)">
        <line x1="30" y1="-30" x2="75" y2="-33" stroke-width="3" stroke="#000000" />
         <text x="80" y="-30" style="stroke:#000000">X </text>

        <line x1="30" y1="-30" x2="30" y2="-75" stroke-width="3" stroke="#000000" />
         <text x="25" y="-85" style="stroke:#000000">Y </text>

        <line x1="30" y1="-30" x2="58" y2="-15" stroke-width="3" stroke="#000000" />
         <text x="65" y="-5" style="stroke:#000000">Z </text>
        <!--
            <line x1="0" y1="0" x2="2.7535414742230593" y2="0" stroke-width="3" />
            <text x="0" y="20" style="stroke:#000000">1  mm </text>
        -->
    </g>
</svg>
