<?xml version="1.0" encoding="UTF-8" standalone="no"?>
<svg
   xmlns:svg="http://www.w3.org/2000/svg"
   xmlns="http://www.w3.org/2000/svg"
   width="800.0"
   height="240.0"

>
    <g transform="scale(2.7480411791549875, -2.7480411791549875)   translate(122.92158836157297,-39.308896149720745)" stroke-width="0.3638955658981414"  fill="none">
       <!-- hidden lines -->
       <g  stroke="rgb(160,160,160)" fill="none" stroke-dasharray="0.3638955658981414,0.3638955658981414" >
			<path d="M51.79422730558521,-25.736742685183607 L52.62010336740548,-26.21648675123348 " />
			<path d="M-50.142475181944675,-32.990472963857655 L51.794227305585224,-25.7367426851836 " />
			<path d="M51.79422730558521,-25.736742685183607 L51.79422730558521,32.03098483175792 " />
			<path d="M-47.310900112846625,-29.851638378984095 L48.96265223648716,-23.000893115791932 " />
			<path d="M48.96265223648716,-23.000893115791936 L48.96265223648716,28.892150246884352 " />
			<path d="M48.96265223648716,28.892150246884352 L-47.310900112846625,22.04140498369219 " />
			<path d="M-47.310900112846625,22.041404983692193 L-47.310900112846625,-29.851638378984095 " />
			<path d="M-49.788528298307426,-28.41240618083448 L-47.31090011284663,-29.851638378984095 " />
			<path d="M-49.788528298307426,-28.41240618083448 L46.48502405102636,-21.56166091764232 " />
			<path d="M46.48502405102636,-21.56166091764232 L48.96265223648715,-23.000893115791936 " />
			<path d="M-42.00169685828778,-28.93532721282884 L-42.05051129248174,-28.91051548625324 L-42.109821687921524,-28.88666782524449 L-42.17917264456172,-28.863967338106402 L-42.25803166841755,-28.84258832485497 L-42.345793260186916,-28.822694938899282 L-42.441783564425364,-28.804439926630614 L-42.54526554357671,-28.787963454597428 L-42.65544463713166,-28.77339203327156 L-42.77147486246205,-28.76083754566922 L-42.89246531048701,-28.750396388285186 L-43.01748698629563,-28.742148730936435 L-43.14557994220216,-28.73615790119823 L-43.275760648464335,-28.73246989815918 L-43.407029545070685,-28.73111303922872 L-43.53837871661218,-28.73209774270897 L-43.66879963130879,-28.735416447800407 L-43.79729088476861,-28.741043672655568 L-43.92286588902118,-28.748936210035055 L-44.044560447786615,-28.759033459063513 L-44.16144015981569,-28.77125789053831 L-44.27260759345626,-28.78551564221813 L-44.37720917735788,-28.801697239520745 L-44.474441754406044,-28.819678436096215 L-44.56355874856334,-28.839321167821435 L-44.64387589726689,-28.860474612890986 L-44.714776505367425,-28.882976349864677 L-44.77571618026883,-28.90665360477996 L-44.8262270119106,-28.93132457775363 L-44.86592116549827,-28.956799838886763 L-44.88161343106193,-28.969778151255547 L-44.89449385939596,-28.98288378275485 L-44.90453771383646,-28.99609156422157 L-44.91172570531594,-29.009376130315164 L-44.91604402940765,-29.022711968231405 L-44.917484392836805,-29.036073466699314 " />
			<path d="M-44.917484392836805,-29.036073466699314 L-44.915677577144564,-29.05103752911483 L-44.9102614828451,-29.06596554179329 L-44.90124915778398,-29.080821541844614 L-44.88866231344165,-29.095569739863443 L-44.87253127262862,-29.11017460614896 L-44.85289489643512,-29.12460095629905 L-44.80330369160374,-29.152779604615766 L-44.740366289359336,-29.179834309026283 L-44.664688811290624,-29.20550451793752 L-44.577000072880914,-29.229543013204896 L-44.47814456461663,-29.251718290978214 L-44.36907431908227,-29.271816791210274 L-44.25083974236621,-29.289644954356884 L-44.1245794980758,-29.305031085461074 L-43.99150954138444,-29.3178270076694 L-43.8529114087185,-29.32790948925603 L-43.710119875861,-29.335181430411644 L-43.564510103331145,-29.33957279836766 L-43.417484392836805,-29.341041301850098 L-43.270458682342465,-29.33957279836766 L-43.12484890981261,-29.335181430411644 L-42.98205737695511,-29.32790948925603 L-42.84345924428917,-29.3178270076694 L-42.710389287597806,-29.305031085461074 L-42.5841290433074,-29.289644954356884 L-42.46589446659134,-29.271816791210274 L-42.35682422105698,-29.251718290978214 L-42.257968712792696,-29.229543013204896 L-42.170279974382986,-29.20550451793752 L-42.09460249631427,-29.179834309026283 L-42.03166509406987,-29.152779604615766 L-41.98207388923849,-29.12460095629905 L-41.96243751304499,-29.11017460614896 L-41.94630647223196,-29.095569739863443 L-41.93371962788963,-29.080821541844614 L-41.92470730282851,-29.06596554179329 L-41.919291208529046,-29.05103752911483 L-41.917484392836805,-29.036073466699317 " />
			<path d="M-41.917484392836805,-29.036073466699314 L-41.91881251633946,-29.02324288098925 L-41.9227945349647,-29.010435016082436 L-41.92942339722917,-28.9976725525474 L-41.93868736453584,-28.98497809055451 L-41.965050357305095,-28.959882929972462 L-42.00169685828778,-28.93532721282884 " />
			<path d="M44.83327192738583,-22.7562236421065 L44.78445749319187,-22.7314119155309 L44.725147097752085,-22.70756425452215 L44.65579614111189,-22.684863767384062 L44.57693711725606,-22.66348475413263 L44.489175525486694,-22.643591368176942 L44.393185221248245,-22.625336355908274 L44.2897032420969,-22.608859883875088 L44.17952414854195,-22.59428846254922 L44.06349392321156,-22.58173397494688 L43.9425034751866,-22.571292817562846 L43.81748179937798,-22.563045160214095 L43.68938884347145,-22.55705433047589 L43.559208137209275,-22.55336632743684 L43.427939240602925,-22.55200946850638 L43.29659006906143,-22.55299417198663 L43.16616915436482,-22.556312877078067 L43.037677900905,-22.561940101933228 L42.91210289665243,-22.569832639312715 L42.790408337886994,-22.579929888341173 L42.67352862585792,-22.592154319815968 L42.56236119221735,-22.60641207149579 L42.45775960831573,-22.622593668798405 L42.360527031267566,-22.640574865373875 L42.27141003711027,-22.660217597099095 L42.19109288840672,-22.681371042168646 L42.120192280306185,-22.703872779142337 L42.05925260540478,-22.72755003405762 L42.008741773763006,-22.75222100703129 L41.96904762017534,-22.777696268164423 L41.95335535461168,-22.790674580533206 L41.94047492627765,-22.80378021203251 L41.93043107183715,-22.81698799349923 L41.92324308035767,-22.830272559592824 L41.91892475626596,-22.843608397509065 L41.917484392836805,-22.856969895976974 " />
			<path d="M41.917484392836805,-22.856969895976974 L41.919291208529046,-22.87193395839249 L41.92470730282851,-22.88686197107095 L41.93371962788963,-22.901717971122274 L41.94630647223196,-22.916466169141103 L41.96243751304499,-22.93107103542662 L41.98207388923849,-22.94549738557671 L42.03166509406987,-22.973676033893426 L42.09460249631427,-23.000730738303943 L42.170279974382986,-23.02640094721518 L42.257968712792696,-23.050439442482556 L42.35682422105698,-23.072614720255874 L42.46589446659134,-23.092713220487934 L42.5841290433074,-23.110541383634544 L42.710389287597806,-23.125927514738734 L42.84345924428917,-23.13872343694706 L42.98205737695511,-23.14880591853369 L43.12484890981261,-23.156077859689304 L43.270458682342465,-23.16046922764532 L43.417484392836805,-23.161937731127757 L43.564510103331145,-23.16046922764532 L43.710119875861,-23.156077859689304 L43.8529114087185,-23.14880591853369 L43.99150954138444,-23.13872343694706 L44.1245794980758,-23.125927514738734 L44.25083974236621,-23.110541383634544 L44.36907431908227,-23.092713220487934 L44.47814456461663,-23.072614720255874 L44.577000072880914,-23.050439442482556 L44.664688811290624,-23.02640094721518 L44.740366289359336,-23.000730738303943 L44.80330369160374,-22.973676033893426 L44.85289489643512,-22.94549738557671 L44.87253127262862,-22.93107103542662 L44.88866231344165,-22.916466169141103 L44.90124915778398,-22.901717971122274 L44.9102614828451,-22.88686197107095 L44.915677577144564,-22.87193395839249 L44.917484392836805,-22.856969895976977 " />
			<path d="M44.917484392836805,-22.856969895976974 L44.91615626933415,-22.84413931026691 L44.91217425070891,-22.831331445360096 L44.90554538844444,-22.81856898182506 L44.89628142113777,-22.80587451983217 L44.869918428368514,-22.780779359250122 L44.83327192738583,-22.7562236421065 " />
			<path d="M46.48502405102636,30.331382445033967 L48.96265223648715,28.892150246884352 " />
			<path d="M46.48502405102636,-21.56166091764232 L46.48502405102636,30.331382445033967 " />
			<path d="M46.48502405102636,30.331382445033967 L-49.788528298307426,23.480637181841807 " />
			<path d="M-49.788528298307426,23.480637181841807 L-47.31090011284663,22.041404983692193 " />
			<path d="M44.83327192738583,29.136819720569786 L44.869918428368514,29.112264003426166 L44.89628142113777,29.087168842844118 L44.90554538844444,29.07447438085123 L44.91217425070891,29.06171191731619 L44.91615626933415,29.048904052409377 L44.917484392836805,29.036073466699314 " />
			<path d="M44.917484392836805,29.036073466699314 L44.915677577144564,29.0211094042838 L44.9102614828451,29.006181391605338 L44.90124915778398,28.991325391554014 L44.88866231344165,28.976577193535185 L44.87253127262862,28.96197232724967 L44.85289489643512,28.947545977099576 L44.80330369160374,28.91936732878286 L44.740366289359336,28.892312624372344 L44.664688811290624,28.866642415461108 L44.577000072880914,28.84260392019373 L44.47814456461663,28.820428642420413 L44.36907431908227,28.800330142188354 L44.25083974236621,28.782501979041744 L44.1245794980758,28.767115847937553 L43.99150954138444,28.754319925729227 L43.8529114087185,28.7442374441426 L43.710119875861,28.736965502986983 L43.564510103331145,28.73257413503097 L43.417484392836805,28.73110563154853 L43.270458682342465,28.73257413503097 L43.12484890981261,28.736965502986983 L42.98205737695511,28.7442374441426 L42.84345924428917,28.754319925729227 L42.710389287597806,28.767115847937553 L42.5841290433074,28.782501979041744 L42.46589446659134,28.800330142188354 L42.35682422105698,28.820428642420413 L42.257968712792696,28.84260392019373 L42.170279974382986,28.866642415461108 L42.09460249631427,28.892312624372344 L42.03166509406987,28.91936732878286 L41.98207388923849,28.947545977099576 L41.96243751304499,28.96197232724967 L41.94630647223196,28.976577193535185 L41.93371962788963,28.991325391554014 L41.92470730282851,29.006181391605338 L41.919291208529046,29.0211094042838 L41.917484392836805,29.03607346669931 " />
			<path d="M41.917484392836805,29.036073466699314 L41.91892475626596,29.049434965167222 L41.92324308035767,29.062770803083463 L41.93043107183715,29.07605536917706 L41.94047492627765,29.089263150643777 L41.95335535461168,29.10236878214308 L41.96904762017534,29.115347094511865 L42.008741773763006,29.140822355644996 L42.05925260540478,29.165493328618666 L42.120192280306185,29.18917058353395 L42.19109288840672,29.211672320507642 L42.27141003711027,29.232825765577193 L42.360527031267566,29.252468497302413 L42.45775960831573,29.270449693877882 L42.56236119221735,29.2866312911805 L42.67352862585792,29.30088904286032 L42.790408337886994,29.313113474335115 L42.91210289665243,29.323210723363573 L43.037677900905,29.33110326074306 L43.16616915436482,29.33673048559822 L43.29659006906142,29.34004919068966 L43.427939240602925,29.341033894169907 L43.559208137209275,29.339677035239447 L43.68938884347145,29.3359890322004 L43.81748179937797,29.329998202462193 L43.9425034751866,29.321750545113442 L44.06349392321156,29.31130938772941 L44.17952414854195,29.29875490012707 L44.2897032420969,29.2841834788012 L44.393185221248245,29.267707006768013 L44.489175525486694,29.249451994499346 L44.57693711725606,29.22955860854366 L44.65579614111189,29.208179595292226 L44.725147097752085,29.185479108154137 L44.78445749319187,29.16163144714539 L44.83327192738583,29.13681972056979 " />
			<path d="M-42.00169685828778,22.957716149847446 L-41.965050357305095,22.933160432703826 L-41.93868736453584,22.908065272121778 L-41.92942339722917,22.895370810128888 L-41.9227945349647,22.88260834659385 L-41.91881251633946,22.869800481687037 L-41.917484392836805,22.856969895976974 " />
			<path d="M-41.917484392836805,22.856969895976974 L-41.919291208529046,22.84200583356146 L-41.92470730282851,22.827077820882998 L-41.93371962788963,22.812221820831674 L-41.94630647223196,22.797473622812845 L-41.96243751304499,22.78286875652733 L-41.98207388923849,22.768442406377236 L-42.03166509406987,22.74026375806052 L-42.09460249631427,22.713209053650004 L-42.170279974382986,22.687538844738768 L-42.257968712792696,22.66350034947139 L-42.35682422105698,22.641325071698073 L-42.46589446659134,22.621226571466014 L-42.5841290433074,22.603398408319404 L-42.710389287597806,22.588012277215213 L-42.84345924428917,22.575216355006887 L-42.98205737695511,22.56513387342026 L-43.12484890981261,22.557861932264643 L-43.270458682342465,22.55347056430863 L-43.417484392836805,22.55200206082619 L-43.564510103331145,22.55347056430863 L-43.710119875861,22.557861932264643 L-43.8529114087185,22.56513387342026 L-43.99150954138444,22.575216355006887 L-44.1245794980758,22.588012277215213 L-44.25083974236621,22.603398408319404 L-44.36907431908227,22.621226571466014 L-44.47814456461663,22.641325071698073 L-44.577000072880914,22.66350034947139 L-44.664688811290624,22.687538844738768 L-44.740366289359336,22.713209053650004 L-44.80330369160374,22.74026375806052 L-44.85289489643512,22.768442406377236 L-44.87253127262862,22.78286875652733 L-44.88866231344165,22.797473622812845 L-44.90124915778398,22.812221820831674 L-44.9102614828451,22.827077820882998 L-44.915677577144564,22.84200583356146 L-44.917484392836805,22.85696989597697 " />
			<path d="M-44.917484392836805,22.856969895976974 L-44.91604402940765,22.870331394444882 L-44.91172570531594,22.883667232361123 L-44.90453771383646,22.89695179845472 L-44.89449385939596,22.910159579921437 L-44.88161343106193,22.92326521142074 L-44.86592116549827,22.936243523789525 L-44.8262270119106,22.961718784922656 L-44.77571618026883,22.986389757896326 L-44.714776505367425,23.01006701281161 L-44.64387589726689,23.0325687497853 L-44.56355874856334,23.053722194854853 L-44.474441754406044,23.073364926580073 L-44.37720917735788,23.091346123155542 L-44.27260759345626,23.107527720458158 L-44.16144015981569,23.12178547213798 L-44.044560447786615,23.134009903612775 L-43.92286588902118,23.144107152641233 L-43.79729088476861,23.15199969002072 L-43.66879963130879,23.15762691487588 L-43.538378716612186,23.16094561996732 L-43.407029545070685,23.161930323447567 L-43.275760648464335,23.160573464517107 L-43.14557994220216,23.15688546147806 L-43.01748698629564,23.150894631739853 L-42.89246531048701,23.142646974391102 L-42.77147486246205,23.13220581700707 L-42.65544463713166,23.11965132940473 L-42.54526554357671,23.10507990807886 L-42.441783564425364,23.088603436045673 L-42.345793260186916,23.070348423777006 L-42.25803166841755,23.05045503782132 L-42.17917264456172,23.029076024569886 L-42.109821687921524,23.006375537431797 L-42.05051129248174,22.98252787642305 L-42.00169685828778,22.95771614984745 " />
			<path d="M-49.788528298307426,23.480637181841807 L-49.788528298307426,-28.41240618083448 " />
			<path d="M31.97320182189884,9.56958572478752 L31.97320182189884,9.03107301064654 " />
			<path d="M31.973201821898844,9.569585724787519 L32.79907788371911,9.089841658737651 " />
			<path d="M-29.495573636438046,-10.470305208796153 L-30.321449698258313,-10.529073856887264 " />
			<path d="M-30.321449698258306,-10.529073856887267 L-29.495573636438046,-11.008817922937135 " />
			<path d="M-30.321449698258313,-10.529073856887262 L-30.321449698258313,5.136750554486711 " />
			<path d="M-30.321449698258306,5.1367505544867065 L-29.495573636438046,4.6570064884368385 " />
			<path d="M-30.321449698258313,5.13675055448671 L31.97320182189884,9.56958572478752 " />
			<path d="M36.7824549763298,-1.059901837892637 L36.67129679053881,-1.0147183262569666 L36.56211052599464,-0.9651600947515515 L36.45504601502864,-0.9112951503312425 L36.35025017836704,-0.853197409896068 " />
			<path d="M36.350250178367034,-0.8531974098960609 L36.28214110152304,-0.8124143720385772 L36.21513202315341,-0.7698328872551987 L36.14926330702133,-0.7254786050401356 L36.0845746299784,-0.6793782427544777 L36.02110495806481,-0.6315595695326657 L35.95889252303764,-0.5820513895553914 L35.89797479934147,-0.530883524699044 L35.8383884815352,-0.4780867965721236 L35.780169462188596,-0.42369300794945497 L35.72335281026197,-0.36773492361539084 L35.66797274998192,-0.3102462506275274 L35.61406264022598,-0.2512616180128311 L35.56165495442843,-0.19081655590841207 L35.51078126101953,-0.12894747415949626 L35.46147220440993,-0.06569164038749387 L35.41375748653152,-0.001087157541381334 L35.3676658489462,0.06482705905409203 L35.323225055532966,0.1320113051395384 L35.280461875764026,0.20042511143729813 L35.23940206857985,0.2700272680286142 L35.20007036687296,0.3407758491769486 L35.16249046258976,0.41262823858247755 L35.12668499245938,0.4855411550525566 L35.09267552435819,0.5594706785726942 L35.06048254431806,0.6343722767623245 L35.03012544418641,0.7102008316994484 L35.00162250994522,0.7869106670979851 L34.97499091069629,0.8644555758214578 L34.9502466883192,0.9427888477164406 L34.92740474780823,1.0218632977490116 L34.90647884829426,1.1016312944272577 L34.88748159475668,1.182044788492696 L34.87042443043067,1.2630553418633568 L34.85531762991419,1.3446141568110692 L34.84217029297902,1.4266721053553892 L34.830990339089304,1.509179758856458 L34.821784502631225,1.5920874177889663 L34.814558328856435,1.6753451416792908 L34.806061185367504,1.8427099983179809 L34.80551937898544,2.0108711321734534 L34.81293421496928,2.179423428345072 L34.82828783032967,2.3479608295879237 L34.85154323686239,2.5160773145402824 L34.88264441025617,2.683367875864632 L34.92151642506016,2.849429495945821 L34.968065635185916,3.0138621177957927 L35.02217989950901,3.176269608825914 L35.08372885202685,3.3362607151650776 L35.15256421592176,3.4934500042245467 L35.22852016077285,3.6474587932388207 L35.31141370205602,3.7979160615455907 L35.40104514196971,3.9444593444070026 L35.49719855052437,4.086735606218965 L35.59964228573674,4.224402091004846 L35.70812955167571,4.357127148144638 L35.82239899301525,4.484591031350349 L35.94217532466235,4.606486668962818 L36.067169994942915,4.72252040371424 L36.197081880748,4.832412700174244 L36.331598012965756,4.935898818175231 L36.470394330451455,5.032729450594619 L36.61313646071914,5.122671323957553 L36.75948052547428,5.205507760413123 L36.909073969046645,5.281039199730291 L36.9849768701432,5.316007982665183 L37.06155640772782,5.349083680055967 L37.13876645315057,5.380246368339318 L37.21656049796716,5.409477276277059 L37.294891681953885,5.436758796263263 L37.37371282133451,5.4620744949304125 L37.452976437201976,5.485409123048244 L37.53263478411795,5.506748624709321 L37.612639878872876,5.526080145795774 L37.69294352938924,5.543392041722154 L37.77349736375073,5.558673884449689 L37.85425285933962,5.5719164687677445 L37.93516137206502,5.5831118178387005 L38.01617416566421,5.592253188002895 L38.097242441059606,5.599335072840763 L38.17831736575345,5.604353206489682 L38.259350103242674,5.607304566213585 L38.340291842436244,5.608187374223734 L38.421093827057064,5.607001098749591 L38.50170738501099,5.603746454359145 L38.58208395770503,5.598425401528479 L38.662175129297275,5.591041145460849 L38.741932655860765,5.581598134155998 L38.82130849444382,5.570102055730835 L38.90025483200933,5.556559834993141 L38.97872411423554,5.5409796292703115 L39.05666907416099,5.523370823495691 L39.13404276065638,5.503744024555443 L39.21079856670614,5.482111054899357 L39.286890257482796,5.458484945419443 L39.36227199819708,5.4328799276006166 L39.43689838170709,5.405311424948177 L39.51072445586985,5.375796043697271 L39.58370575061883,5.34435156280991 L39.655798304751016,5.310996923265599 L39.726958692407514,5.275752216651988 L39.797144049231655,5.238638673062454 L39.866312098188864,5.199678648307909 " />
			<path d="M39.866312098188885,5.199678648307895 L39.968695453038926,5.137427837269559 L40.06852582913109,5.07110938014721 L40.16566623287877,5.000814283342456 L40.25998336204638,4.926639010254608 " />
			<path d="M-47.42888240739238,-25.79671069343984 L44.125378160111325,-19.281786276482592 " />
			<path d="M44.12537816011131,-19.281786276482592 L44.12537816011131,27.715686957639328 " />
			<path d="M44.12537816011131,27.715686957639328 L-47.42888240739239,21.200762540682078 " />
			<path d="M-47.42888240739238,21.200762540682078 L-47.42888240739238,-25.79671069343984 " />
			<path d="M-42.00169685828778,-26.487542148551658 L-42.05051129248174,-26.462730421976055 L-42.109821687921524,-26.438882760967306 L-42.17917264456172,-26.416182273829218 L-42.25803166841755,-26.394803260577785 L-42.345793260186916,-26.374909874622098 L-42.441783564425364,-26.35665486235343 L-42.54526554357671,-26.340178390320244 L-42.65544463713166,-26.325606968994375 L-42.77147486246205,-26.313052481392035 L-42.89246531048701,-26.302611324008 L-43.01748698629563,-26.29436366665925 L-43.14557994220216,-26.288372836921045 L-43.275760648464335,-26.284684833881997 L-43.407029545070685,-26.283327974951536 L-43.53837871661218,-26.284312678431785 L-43.66879963130879,-26.287631383523223 L-43.79729088476861,-26.293258608378384 L-43.92286588902118,-26.30115114575787 L-44.044560447786615,-26.31124839478633 L-44.16144015981569,-26.323472826261124 L-44.27260759345626,-26.337730577940945 L-44.37720917735788,-26.35391217524356 L-44.474441754406044,-26.37189337181903 L-44.56355874856334,-26.39153610354425 L-44.64387589726689,-26.412689548613802 L-44.714776505367425,-26.435191285587493 L-44.77571618026883,-26.458868540502777 L-44.8262270119106,-26.483539513476448 L-44.86592116549827,-26.50901477460958 L-44.88161343106193,-26.521993086978362 L-44.89449385939596,-26.535098718477666 L-44.90453771383646,-26.548306499944385 L-44.91172570531594,-26.56159106603798 L-44.91604402940765,-26.57492690395422 L-44.917484392836805,-26.58828840242213 " />
			<path d="M-44.917484392836805,-26.58828840242213 L-44.915677577144564,-26.603252464837645 L-44.9102614828451,-26.618180477516105 L-44.90124915778398,-26.63303647756743 L-44.88866231344165,-26.64778467558626 L-44.87253127262862,-26.662389541871775 L-44.85289489643512,-26.676815892021867 L-44.80330369160374,-26.704994540338582 L-44.740366289359336,-26.7320492447491 L-44.664688811290624,-26.757719453660336 L-44.577000072880914,-26.781757948927712 L-44.47814456461663,-26.80393322670103 L-44.36907431908227,-26.82403172693309 L-44.25083974236621,-26.8418598900797 L-44.1245794980758,-26.85724602118389 L-43.99150954138444,-26.870041943392216 L-43.8529114087185,-26.880124424978845 L-43.710119875861,-26.88739636613446 L-43.564510103331145,-26.891787734090475 L-43.417484392836805,-26.893256237572913 L-43.270458682342465,-26.891787734090475 L-43.12484890981261,-26.88739636613446 L-42.98205737695511,-26.880124424978845 L-42.84345924428917,-26.870041943392216 L-42.710389287597806,-26.85724602118389 L-42.5841290433074,-26.8418598900797 L-42.46589446659134,-26.82403172693309 L-42.35682422105698,-26.80393322670103 L-42.257968712792696,-26.781757948927712 L-42.170279974382986,-26.757719453660336 L-42.09460249631427,-26.7320492447491 L-42.03166509406987,-26.704994540338582 L-41.98207388923849,-26.676815892021867 L-41.96243751304499,-26.662389541871775 L-41.94630647223196,-26.64778467558626 L-41.93371962788963,-26.63303647756743 L-41.92470730282851,-26.618180477516105 L-41.919291208529046,-26.603252464837645 L-41.917484392836805,-26.588288402422133 " />
			<path d="M-41.917484392836805,-26.58828840242213 L-41.91881251633946,-26.575457816712067 L-41.9227945349647,-26.562649951805252 L-41.92942339722917,-26.549887488270215 L-41.93868736453584,-26.537193026277325 L-41.965050357305095,-26.512097865695278 L-42.00169685828778,-26.487542148551658 " />
			<path d="M44.83327192738583,-20.308438577829317 L44.78445749319187,-20.283626851253715 L44.725147097752085,-20.259779190244966 L44.65579614111189,-20.237078703106878 L44.57693711725606,-20.215699689855445 L44.489175525486694,-20.195806303899758 L44.393185221248245,-20.17755129163109 L44.2897032420969,-20.161074819597903 L44.17952414854195,-20.146503398272035 L44.06349392321156,-20.133948910669694 L43.9425034751866,-20.12350775328566 L43.81748179937798,-20.11526009593691 L43.68938884347145,-20.109269266198705 L43.559208137209275,-20.105581263159657 L43.427939240602925,-20.104224404229196 L43.29659006906143,-20.105209107709445 L43.16616915436482,-20.108527812800883 L43.037677900905,-20.114155037656044 L42.91210289665243,-20.12204757503553 L42.790408337886994,-20.13214482406399 L42.67352862585792,-20.144369255538784 L42.56236119221735,-20.158627007218605 L42.45775960831573,-20.17480860452122 L42.360527031267566,-20.19278980109669 L42.27141003711027,-20.21243253282191 L42.19109288840672,-20.23358597789146 L42.120192280306185,-20.256087714865153 L42.05925260540478,-20.279764969780437 L42.008741773763006,-20.304435942754107 L41.96904762017534,-20.32991120388724 L41.95335535461168,-20.342889516256022 L41.94047492627765,-20.355995147755326 L41.93043107183715,-20.369202929222045 L41.92324308035767,-20.38248749531564 L41.91892475626596,-20.39582333323188 L41.917484392836805,-20.40918483169979 " />
			<path d="M41.917484392836805,-20.40918483169979 L41.919291208529046,-20.424148894115305 L41.92470730282851,-20.439076906793765 L41.93371962788963,-20.45393290684509 L41.94630647223196,-20.46868110486392 L41.96243751304499,-20.483285971149435 L41.98207388923849,-20.497712321299527 L42.03166509406987,-20.525890969616242 L42.09460249631427,-20.55294567402676 L42.170279974382986,-20.578615882937996 L42.257968712792696,-20.602654378205372 L42.35682422105698,-20.62482965597869 L42.46589446659134,-20.64492815621075 L42.5841290433074,-20.66275631935736 L42.710389287597806,-20.67814245046155 L42.84345924428917,-20.690938372669876 L42.98205737695511,-20.701020854256505 L43.12484890981261,-20.70829279541212 L43.270458682342465,-20.712684163368134 L43.417484392836805,-20.714152666850573 L43.564510103331145,-20.712684163368134 L43.710119875861,-20.70829279541212 L43.8529114087185,-20.701020854256505 L43.99150954138444,-20.690938372669876 L44.1245794980758,-20.67814245046155 L44.25083974236621,-20.66275631935736 L44.36907431908227,-20.64492815621075 L44.47814456461663,-20.62482965597869 L44.577000072880914,-20.602654378205372 L44.664688811290624,-20.578615882937996 L44.740366289359336,-20.55294567402676 L44.80330369160374,-20.525890969616242 L44.85289489643512,-20.497712321299527 L44.87253127262862,-20.483285971149435 L44.88866231344165,-20.46868110486392 L44.90124915778398,-20.45393290684509 L44.9102614828451,-20.439076906793765 L44.915677577144564,-20.424148894115305 L44.917484392836805,-20.409184831699793 " />
			<path d="M44.917484392836805,-20.40918483169979 L44.91615626933415,-20.396354245989727 L44.91217425070891,-20.383546381082912 L44.90554538844444,-20.370783917547875 L44.89628142113777,-20.358089455554985 L44.869918428368514,-20.332994294972938 L44.83327192738583,-20.308438577829317 " />
			<path d="M44.83327192738583,26.689034656292602 L44.869918428368514,26.66447893914898 L44.89628142113777,26.639383778566934 L44.90554538844444,26.626689316574044 L44.91217425070891,26.613926853039008 L44.91615626933415,26.601118988132193 L44.917484392836805,26.58828840242213 " />
			<path d="M44.917484392836805,26.58828840242213 L44.915677577144564,26.573324340006614 L44.9102614828451,26.558396327328154 L44.90124915778398,26.54354032727683 L44.88866231344165,26.528792129258 L44.87253127262862,26.514187262972484 L44.85289489643512,26.499760912822392 L44.80330369160374,26.471582264505678 L44.740366289359336,26.44452756009516 L44.664688811290624,26.418857351183924 L44.577000072880914,26.394818855916547 L44.47814456461663,26.37264357814323 L44.36907431908227,26.35254507791117 L44.25083974236621,26.33471691476456 L44.1245794980758,26.31933078366037 L43.99150954138444,26.306534861452043 L43.8529114087185,26.296452379865414 L43.710119875861,26.2891804387098 L43.564510103331145,26.284789070753785 L43.417484392836805,26.283320567271346 L43.270458682342465,26.284789070753785 L43.12484890981261,26.2891804387098 L42.98205737695511,26.296452379865414 L42.84345924428917,26.306534861452043 L42.710389287597806,26.31933078366037 L42.5841290433074,26.33471691476456 L42.46589446659134,26.35254507791117 L42.35682422105698,26.37264357814323 L42.257968712792696,26.394818855916547 L42.170279974382986,26.418857351183924 L42.09460249631427,26.44452756009516 L42.03166509406987,26.471582264505678 L41.98207388923849,26.499760912822392 L41.96243751304499,26.514187262972484 L41.94630647223196,26.528792129258 L41.93371962788963,26.54354032727683 L41.92470730282851,26.558396327328154 L41.919291208529046,26.573324340006614 L41.917484392836805,26.588288402422126 " />
			<path d="M41.917484392836805,26.58828840242213 L41.91892475626596,26.60164990089004 L41.92324308035767,26.61498573880628 L41.93043107183715,26.628270304899875 L41.94047492627765,26.641478086366593 L41.95335535461168,26.654583717865897 L41.96904762017534,26.66756203023468 L42.008741773763006,26.693037291367812 L42.05925260540478,26.717708264341482 L42.120192280306185,26.741385519256767 L42.19109288840672,26.763887256230458 L42.27141003711027,26.78504070130001 L42.360527031267566,26.80468343302523 L42.45775960831573,26.8226646296007 L42.56236119221735,26.838846226903314 L42.67352862585792,26.853103978583135 L42.790408337886994,26.86532841005793 L42.91210289665243,26.87542565908639 L43.037677900905,26.883318196465876 L43.16616915436482,26.888945421321036 L43.29659006906142,26.892264126412474 L43.427939240602925,26.893248829892723 L43.559208137209275,26.891891970962263 L43.68938884347145,26.888203967923214 L43.81748179937797,26.88221313818501 L43.9425034751866,26.873965480836258 L44.06349392321156,26.863524323452225 L44.17952414854195,26.850969835849885 L44.2897032420969,26.836398414524016 L44.393185221248245,26.81992194249083 L44.489175525486694,26.80166693022216 L44.57693711725606,26.781773544266475 L44.65579614111189,26.76039453101504 L44.725147097752085,26.737694043876953 L44.78445749319187,26.713846382868205 L44.83327192738583,26.689034656292606 " />
			<path d="M-42.00169685828778,20.509931085570262 L-41.965050357305095,20.48537536842664 L-41.93868736453584,20.460280207844594 L-41.92942339722917,20.447585745851704 L-41.9227945349647,20.434823282316668 L-41.91881251633946,20.422015417409852 L-41.917484392836805,20.40918483169979 " />
			<path d="M-41.917484392836805,20.40918483169979 L-41.919291208529046,20.394220769284274 L-41.92470730282851,20.379292756605814 L-41.93371962788963,20.36443675655449 L-41.94630647223196,20.34968855853566 L-41.96243751304499,20.335083692250144 L-41.98207388923849,20.320657342100052 L-42.03166509406987,20.292478693783337 L-42.09460249631427,20.26542398937282 L-42.170279974382986,20.239753780461584 L-42.257968712792696,20.215715285194207 L-42.35682422105698,20.19354000742089 L-42.46589446659134,20.17344150718883 L-42.5841290433074,20.15561334404222 L-42.710389287597806,20.14022721293803 L-42.84345924428917,20.127431290729703 L-42.98205737695511,20.117348809143074 L-43.12484890981261,20.11007686798746 L-43.270458682342465,20.105685500031445 L-43.417484392836805,20.104216996549006 L-43.564510103331145,20.105685500031445 L-43.710119875861,20.11007686798746 L-43.8529114087185,20.117348809143074 L-43.99150954138444,20.127431290729703 L-44.1245794980758,20.14022721293803 L-44.25083974236621,20.15561334404222 L-44.36907431908227,20.17344150718883 L-44.47814456461663,20.19354000742089 L-44.577000072880914,20.215715285194207 L-44.664688811290624,20.239753780461584 L-44.740366289359336,20.26542398937282 L-44.80330369160374,20.292478693783337 L-44.85289489643512,20.320657342100052 L-44.87253127262862,20.335083692250144 L-44.88866231344165,20.34968855853566 L-44.90124915778398,20.36443675655449 L-44.9102614828451,20.379292756605814 L-44.915677577144564,20.394220769284274 L-44.917484392836805,20.409184831699786 " />
			<path d="M-44.917484392836805,20.40918483169979 L-44.91604402940765,20.422546330167698 L-44.91172570531594,20.43588216808394 L-44.90453771383646,20.449166734177535 L-44.89449385939596,20.462374515644253 L-44.88161343106193,20.475480147143557 L-44.86592116549827,20.48845845951234 L-44.8262270119106,20.513933720645472 L-44.77571618026883,20.538604693619142 L-44.714776505367425,20.562281948534427 L-44.64387589726689,20.584783685508118 L-44.56355874856334,20.60593713057767 L-44.474441754406044,20.62557986230289 L-44.37720917735788,20.64356105887836 L-44.27260759345626,20.659742656180974 L-44.16144015981569,20.674000407860795 L-44.044560447786615,20.68622483933559 L-43.92286588902118,20.69632208836405 L-43.79729088476861,20.704214625743536 L-43.66879963130879,20.709841850598696 L-43.538378716612186,20.713160555690134 L-43.407029545070685,20.714145259170383 L-43.275760648464335,20.712788400239923 L-43.14557994220216,20.709100397200874 L-43.01748698629564,20.70310956746267 L-42.89246531048701,20.694861910113918 L-42.77147486246205,20.684420752729885 L-42.65544463713166,20.671866265127544 L-42.54526554357671,20.657294843801676 L-42.441783564425364,20.64081837176849 L-42.345793260186916,20.62256335949982 L-42.25803166841755,20.602669973544135 L-42.17917264456172,20.5812909602927 L-42.109821687921524,20.558590473154613 L-42.05051129248174,20.534742812145865 L-42.00169685828778,20.509931085570265 " />
			<path d="M-44.95125422193158,19.761530342532463 L-44.95125422193158,-27.235942891589456 " />
			<path d="M-44.95125422193158,-27.235942891589456 L46.603006345572126,-20.721018474632203 " />
			<path d="M46.60300634557211,-20.721018474632206 L46.60300634557211,26.276454759489713 " />
			<path d="M46.60300634557211,26.276454759489713 L-44.95125422193159,19.76153034253246 " />
			<path d="M-47.42888240739238,-25.79671069343984 L-44.951254221931585,-27.235942891589456 " />
			<path d="M44.12537816011131,-19.281786276482592 L46.603006345572105,-20.721018474632206 " />
			<path d="M44.12537816011131,27.715686957639328 L46.603006345572105,26.276454759489713 " />
			<path d="M-47.42888240739238,21.200762540682078 L-44.951254221931585,19.761530342532463 " />
			<path d="M40.69218816000916,4.719934582258016 L39.86631209818889,5.199678648307891 " />
			<path d="M37.17612624018729,-1.3329414759459333 L36.35025017836702,-0.8531974098960582 " />
			<path d="M-41.9174843928368,-29.036073466699314 L-41.9174843928368,-26.58828840242213 " />
			<path d="M-44.917484392836805,-29.036073466699314 L-44.917484392836805,-26.58828840242213 " />
			<path d="M44.917484392836805,-22.856969895976974 L44.917484392836805,-20.40918483169979 " />
			<path d="M41.9174843928368,-22.856969895976974 L41.9174843928368,-20.40918483169979 " />
			<path d="M41.9174843928368,29.036073466699314 L41.9174843928368,26.58828840242213 " />
			<path d="M44.917484392836805,29.036073466699314 L44.917484392836805,26.58828840242213 " />
			<path d="M-44.917484392836805,22.856969895976974 L-44.917484392836805,20.40918483169979 " />
			<path d="M-41.9174843928368,22.856969895976974 L-41.9174843928368,20.40918483169979 " />

       </g>

       <!-- solid lines -->
       <g  stroke="rgb(0,0,0)" fill="none">
			<path d="M-50.142475181944675,-32.990472963857655 L-49.31659912012441,-33.47021702990752 " />
			<path d="M-49.31659912012441,-33.47021702990753 L52.62010336740549,-26.216486751233475 " />
			<path d="M-50.142475181944675,24.777254553083864 L-49.31659912012441,24.297510487033993 " />
			<path d="M-50.142475181944675,24.777254553083864 L-50.142475181944675,-32.99047296385766 " />
			<path d="M-49.31659912012441,24.297510487033993 L-49.31659912012441,-33.47021702990753 " />
			<path d="M51.79422730558521,32.03098483175792 L52.62010336740548,31.551240765708048 " />
			<path d="M52.62010336740548,-26.21648675123348 L52.62010336740548,31.551240765708048 " />
			<path d="M51.79422730558521,32.03098483175792 L-50.14247518194469,24.777254553083864 " />
			<path d="M52.62010336740548,31.551240765708044 L-49.31659912012442,24.29751048703399 " />
			<path d="M32.79907788371911,9.08984165873765 L32.79907788371911,-6.575982752636325 " />
			<path d="M32.79907788371911,-6.575982752636325 L-29.495573636438046,-11.008817922937135 " />
			<path d="M-29.495573636438046,-11.008817922937133 L-29.495573636438046,4.657006488436839 " />
			<path d="M-29.495573636438046,4.657006488436839 L32.79907788371911,9.08984165873765 " />
			<path d="M42.23766144737929,1.9285711455204833 L42.235828699342996,1.8143054202466375 L42.230332488811264,1.699905648095686 L42.221178914259106,1.5854987645531426 L42.20837813229268,1.4712117129951645 L42.19194434637973,1.3571713038349595 L42.17189579108973,1.2435040738167251 L42.14825471186123,1.130336145613243 L42.12104734031874,1.017793087882921 L42.09030386516678,0.9059997759415531 L42.05605839869308,0.7950802532034011 L42.01834893891837,0.6851575935453349 L41.97721732743459,0.5763537647467496 L41.932709202978394,0.4687894931567862 L41.88487395079138,0.36258412973901266 L41.83376464782333,0.2578555176422048 L41.77943800383917,0.15471986144416672 L41.721954298495056,0.05329159821367058 L41.66137731445342,-0.0463167294664113 L41.59777426661105,-0.14399459837389417 L41.53121572751898,-0.23963362728143278 L41.46177554907671,-0.33312769721396185 L41.38953078058774,-0.4243730691959895 L41.31456158326734,-0.5132684993580949 L41.23695114129747,-0.5997153512749143 L41.15678556952736,-0.6836177054099575 L41.07415381792241,-0.7648824655458313 L40.989147572867225,-0.8434194620817665 L40.901861155432435,-0.9191415520838357 L40.81239141671806,-0.9919647159768434 L40.72083763038967,-1.0618081507706116 L40.62730138252651,-1.1285943597172126 L40.53188645890378,-1.192249238299663 L40.43469872983422,-1.2527021564566763 L40.33584603269672,-1.3098860369522356 L40.23543805228236,-1.3637374298030247 L40.133586199090495,-1.414196582681147 L40.03040348571016,-1.4612075072139943 L39.92600440142375,-1.5047180411077292 L39.820504785172204,-1.5446799060254204 L39.714021697022694,-1.5810487611556319 L39.60667328828127,-1.6137842524120156 L39.49857867039482,-1.6428500572093254 L39.38985778278755,-1.6682139247661611 L39.28063125977888,-1.6898477118897324 L39.17102029673019,-1.7077274142029308 L39.06114651556914,-1.7218331927790569 L38.95113182984062,-1.7321493961546643 L38.84109830943412,-1.7386645776960794 L38.73116804513773,-1.741371508300337 L38.62146301316876,-1.7402671844164326 L38.51210493983169,-1.7353528313779987 L38.40321516645327,-1.7266339020437016 L38.29491451474489,-1.714120070746866 L38.18732315274137,-1.6978252225610504 L38.080560461465225,-1.6777674378934697 L37.97474490246403,-1.6539689724233733 L37.8699938863681,-1.6264562324076275 L37.76642364261423,-1.5952597453809116 L37.66414909048004,-1.560414126283034 L37.56328371157206,-1.5219580390509506 L37.46393942390904,-1.479934153718105 L37.36622645774012,-1.4343890990686963 L37.27025323323581,-1.3853734108993954 L37.17612624018731,-1.332941475945939 " />
			<path d="M37.1761262401873,-1.332941475945932 L37.108017163343305,-1.2921584380884483 L37.041008084973676,-1.2495769533050698 L36.975139368841596,-1.2052226710900067 L36.910450691798665,-1.1591223088043487 L36.84698101988508,-1.1113036355825368 L36.78476858485791,-1.0617954556052625 L36.723850861161736,-1.010627590748915 L36.664264543355465,-0.9578308626219947 L36.60604552400886,-0.903437073999326 L36.54922887208224,-0.8474789896652619 L36.49384881180219,-0.7899903166773985 L36.43993870204625,-0.7310056840627022 L36.387531016248694,-0.6705606219582831 L36.3366573228398,-0.6086915402093673 L36.2873482662302,-0.5454357064373649 L36.23963354835179,-0.4808312235912524 L36.19354191076647,-0.41491700699577905 L36.14910111735323,-0.34773276091033267 L36.10633793758429,-0.27931895461257294 L36.06527813040012,-0.20971679802125687 L36.025946428693224,-0.1389682168729225 L35.988366524410026,-0.06711582746739353 L35.95256105427965,0.005797089002685496 L35.91855158617846,0.07972661252282309 L35.88635860613833,0.15462821071245347 L35.85600150600668,0.2304567656495773 L35.82749857176549,0.307166601048114 L35.80086697251656,0.38471150977158675 L35.776122750139464,0.4630447816665695 L35.7532808096285,0.5421192316991406 L35.73235491011453,0.6218872283773866 L35.713357656576946,0.7023007224428248 L35.696300492250934,0.7833112758134857 L35.68119369173446,0.8648700907611981 L35.66804635479929,0.9469280393055182 L35.65686640090957,1.0294356928065869 L35.64766056445149,1.1123433517390953 L35.6404343906767,1.1956010756294198 L35.63193724718777,1.3629659322681098 L35.631395440805704,1.5311270661235825 L35.63881027678955,1.699679362295201 L35.65416389214994,1.8682167635380527 L35.67741929868266,2.0363332484904113 L35.70852047207644,2.2036238098147614 L35.74739248688043,2.36968542989595 L35.79394169700618,2.5341180517459216 L35.84805596132928,2.696525542776043 L35.90960491384712,2.856516649115207 L35.978440277742024,3.0137059381746756 L36.05439622259312,3.1677147271889496 L36.13728976387629,3.3181719954957196 L36.22692120378998,3.4647152783571316 L36.323074612344634,3.6069915401690937 L36.42551834755701,3.7446580249549752 L36.53400561349598,3.8773830820947675 L36.648275054835516,4.004846965300478 L36.76805138648262,4.126742602912947 L36.89304605676318,4.242776337664369 L37.02295794256827,4.352668634124373 L37.15747407478602,4.456154752125359 L37.29627039227172,4.5529853845447485 L37.43901252253941,4.642927257907682 L37.58535658729455,4.725763694363252 L37.73495003086691,4.801295133680419 L37.81085293196347,4.836263916615312 L37.88743246954809,4.869339614006097 L37.96464251497084,4.900502302289447 L38.042436559787426,4.929733210227187 L38.12076774377415,4.957014730213392 L38.199588883154775,4.982330428880541 L38.27885249902224,5.005665056998374 L38.35851084593822,5.027004558659449 L38.438515940693144,5.0463360797459025 L38.51881959120951,5.063647975672282 L38.599373425570995,5.078929818399819 L38.680128921159884,5.092172402717874 L38.761037433885285,5.103367751788829 L38.84205022748448,5.112509121953025 L38.92311850287987,5.119591006790891 L39.00419342757372,5.124609140439811 L39.08522616506294,5.127560500163715 L39.16616790425651,5.128443308173862 L39.24696988887733,5.12725703269972 L39.327583446831255,5.124002388309274 L39.4079600195253,5.118681335478607 L39.48805119111754,5.111297079410979 L39.56780871768103,5.101854068106126 L39.64718455626409,5.090357989680964 L39.7261308938296,5.076815768943271 L39.80460017605581,5.061235563220441 L39.88254513598126,5.04362675744582 L39.959918822476645,5.023999958505572 L40.036674628526406,5.002366988849486 L40.11276631930306,4.978740879369572 L40.18814806001735,4.953135861550745 L40.262774443527356,4.925567358898306 L40.336600517690115,4.896051977647399 L40.4095818124391,4.86460749676004 L40.48167436657128,4.831252857215729 L40.55283475422778,4.796008150602116 L40.62302011105192,4.758894607012583 L40.69218816000913,4.7199345822580385 " />
			<path d="M40.69218816000915,4.719934582258023 L40.779542605797715,4.667176669915165 L40.865060182952604,4.61145880150231 L40.948655768575016,4.552836437740298 L41.03024615288739,4.491367930440569 L41.109750122059125,4.427114464422655 L41.18708853904556,4.360139996611746 L41.262184422359866,4.290511192376927 L41.33496302269917,4.21829735917349 L41.40535189734894,4.143570377555338 L41.47328098229132,4.066404629626178 L41.53868266194582,3.9868769250007006 L41.60149183647282,3.905066424349453 L41.661645986572964,3.8210545606035122 L41.71908523571793,3.734924957897379 L41.77375240975063,3.6467633483307846 L41.825593093795455,3.5566574866322562 L41.87455568642207,3.4646970628093956 L41.92059145100866,3.370973612872805 L41.96365456425364,3.2755804277225304 L42.003702161787444,3.178612460287715 L42.04069438083913,3.080166231011894 L42.07459439991511,2.9803397317780114 L42.10536847545074,2.879232328368786 L42.13298597539816,2.7769446615595155 L42.157419409716944,2.67357854694178 L42.17864445773729,2.569236873577746 L42.19663999236844,2.464023501585955 L42.21138810112826,2.3580431587605326 L42.22287410397305,2.2514013363267393 L42.23108656790985,2.1442041839366013 L42.23601731837666,2.0365584040091553 L42.23766144737929,1.9285711455204917 " />
			<path d="M31.97320182189884,9.03107301064654 L31.97320182189884,-6.096238686586453 " />
			<path d="M31.973201821898844,-6.096238686586457 L32.79907788371911,-6.575982752636325 " />
			<path d="M31.973201821898844,-6.096238686586453 L-29.495573636438046,-10.470305208796153 " />
			<path d="M41.411785385559014,2.408315211570354 L42.23766144737928,1.928571145520479 " />
			<path d="M41.41178538555902,2.408315211570354 L41.41019853889596,2.3019974793411273 L41.40543952339845,2.1955560497417403 L41.39751291107686,2.08909318159478 L41.38642631706795,1.9827111543189575 L41.372190392318956,1.876512169668746 L41.354818813355166,1.7705982535486386 L41.334328269140805,1.665071157996342 L41.31073844504588,1.560032263429076 L41.284072003934334,1.4555824812468932 L41.254354564391726,1.3518221568865818 L41.221614676113305,1.2488509734192959 L41.185883792476204,1.14676785578452 L41.147196240322,1.0456708757523792 L41.10558918697874,0.9456571577055914 L41.06110260455411,0.8468227853315746 L41.01377923153402,0.7492627093143651 L40.963664531723545,0.6530706561150099 L40.91080665056958,0.5583390379280797 L40.85525636890729,0.4651588639008035 L40.7970670541747,0.3736196527001172 L40.73629460914231,0.2838093465116276 L40.67299741820707,0.19581422655310643 L40.6072362913021,0.10971883018368311 L40.539074405476384,0.02560586968837919 L40.46857724420017,-0.05644384718400941 L40.39581253445472,-0.13635149485332354 L40.32085018166665,-0.21404030563617837 L40.2437622025494,-0.2894356434970695 L40.16462265591644,-0.36246507575158615 L40.083507571532586,-0.4330584426528623 L40.00049487707181,-0.501147924794406 L39.91566432325174,-0.56666810826454 L39.82909740721672,-0.6295560474898863 L39.74087729424313,-0.6897513257074928 L39.65108873784201,-0.7471961130075315 L39.559817998336015,-0.8018352218907805 L39.46715275998863,-0.8536161602875381 L39.37318204676545,-0.9024891819870224 L39.277996136808454,-0.9484073344288033 L39.18168647570528,-0.9913265038103716 L39.084345588637,-1.0312054574674931 L38.986066991488734,-1.0680058834866366 L38.88694510100843,-1.1016924275114213 L38.78707514410023,-1.1322327267077346 L38.6865530663395,-1.1595974408548648 L38.58547543979741,-1.1837602805328018 L38.48393937026369,-1.2046980323786176 L38.382042403956575,-1.2223905813876628 L38.279882433809654,-1.2368209302381508 L38.17755760542566,-1.2479752156205741 L38.07516622278746,-1.2558427215562542 L37.97280665381694,-1.26041588969224 L37.87057723587242,-1.26169032656265 L37.76857618127547,-1.2596648078095063 L37.66690148295786,-1.2543412793589708 L37.565650820319185,-1.245724855551893 L37.46492146538583,-1.2338238142304307 L37.3648101893612,-1.2186495887854911 L37.26541316965717,-1.200216757172607 L37.166825897495926,-1.178543027906827 L37.06914308617107,-1.153649223050048 L36.972458580056085,-1.125559258207165 L36.87686526444755,-1.094300119550216 L36.78245497632982,-1.059901837892642 " />
			<path d="M40.25998336204638,4.926639010254608 L40.32667537191558,4.870361855225983 L40.39175980836824,4.812130214229771 L40.45518950755571,4.751986285193032 L40.51691850474517,4.689973651794457 L40.57690206762827,4.626137251881173 L40.63509672873666,4.560523344904253 L40.691460316941,4.493179478396506 L40.74595198801048,4.424154453516865 L40.79853225421093,4.353498289686307 L40.849163012919774,4.2812621883409765 L40.8978075742374,4.2074984958287285 L40.944430687574666,4.132260665476023 L40.98899856719754,4.055603218852634 L41.03147891671008,3.977581706262247 L41.07184095245825,3.89825266648758 L41.110055425837494,3.817673585819197 L41.14609464448789,3.7359028563977046 L41.17993249236165,3.6529997338995193 L41.21154444864822,3.569024294596863 L41.24090760554348,3.4840373918231133 L41.26800068485001,3.398100611875055 L41.29280405339648,3.311276229383974 L41.31529973726496,3.2236271621879533 L41.3354714348158,3.13521692573807 L41.35330452850076,3.046109587071511 L41.36878609545566,2.9563697183849986 L41.38190491686507,2.8660623502421343 L41.392651486092056,2.7752529244485915 L41.40101801556724,2.684007246629297 L41.4069984424321,2.592391438541967 L41.410588432932464,2.500471890161559 L41.41178538555902,2.408315211570363 " />

       </g>
    </g>
    <g transform="translate(20,210.0)" stroke="rgb(0,0,255)">
        <line x1="30" y1="-30" x2="75" y2="-33" stroke-width="3" stroke="#000000" />
         <text x="80" y="-30" style="stroke:#000000">X </text>

        <line x1="30" y1="-30" x2="30" y2="-75" stroke-width="3" stroke="#000000" />
         <text x="25" y="-85" style="stroke:#000000">Y </text>

        <line x1="30" y1="-30" x2="58" y2="-15" stroke-width="3" stroke="#000000" />
         <text x="65" y="-5" style="stroke:#000000">Z </text>
        <!--
            <line x1="0" y1="0" x2="2.7480411791549875" y2="0" stroke-width="3" />
            <text x="0" y="20" style="stroke:#000000">1  mm </text>
        -->
    </g>
</svg>
