<?xml version="1.0" encoding="UTF-8" standalone="no"?>
<svg
   xmlns:svg="http://www.w3.org/2000/svg"
   xmlns="http://www.w3.org/2000/svg"
   width="800.0"
   height="240.0"

>
    <g transform="scale(2.626097253560138, -2.626097253560138)   translate(127.95286908050986,-41.233057343998915)" stroke-width="0.38079320887462326"  fill="none">
       <!-- hidden lines -->
       <g  stroke="rgb(160,160,160)" fill="none" stroke-dasharray="0.38079320887462326,0.38079320887462326" >
			<path d="M-51.7942273055852,-34.57668129860619 L53.44597942922575,-27.0878764275677 " />
			<path d="M53.44597942922574,-27.0878764275677 L54.024092672499926,-27.42369727380261 " />
			<path d="M54.02409267249992,-27.42369727380261 L54.02784020299085,-27.425841552796363 L54.03141747293958,-27.427821680420273 L54.03482362648244,-27.429637182927788 L54.0380578486955,-27.43128762595901 L54.04111936578942,-27.432772614644616 L54.04400744529469,-27.434091793700293 L54.04672139623682,-27.435244847511797 L54.049260569301666,-27.43623150021041 L54.05162435699079,-27.437051515738965 L54.05381219376678,-27.437704697908348 L54.05582355618857,-27.438190890444375 L54.05765796303668,-27.438509977025245 L54.05931497542835,-27.43866188130933 L54.0607941969225,-27.438646566953448 " />
			<path d="M53.44597942922574,-27.0878764275677 L53.44597942922574,33.617193166506446 " />
			<path d="M-48.72668764739565,-31.176277164993163 L50.378439771036184,-24.124039394060055 " />
			<path d="M50.378439771036184,-24.124039394060052 L50.378439771036184,30.21678903289342 " />
			<path d="M50.378439771036184,30.21678903289342 L-48.72668764739565,23.164551261960312 " />
			<path d="M-48.72668764739565,23.16455126196031 L-48.72668764739565,-31.176277164993163 " />
			<path d="M-51.20431583285645,-29.73704496684355 L-48.72668764739566,-31.176277164993163 " />
			<path d="M-51.20431583285645,-29.73704496684355 L47.90081158557538,-22.68480719591044 " />
			<path d="M47.90081158557538,-22.684807195910437 L50.37843977103618,-24.124039394060052 " />
			<path d="M-21.897513867691604,-28.297812768693934 L-22.558214717147816,-27.914017515854038 " />
			<path d="M-17.178222085861517,-27.961991922459024 L-21.897513867691604,-28.297812768693934 " />
			<path d="M-22.558214717147816,-27.914017515854034 L-17.83892293531773,-27.578196669619125 " />
			<path d="M-17.83892293531773,-27.578196669619125 L-17.178222085861517,-27.96199192245902 " />
			<path d="M15.856820386949092,-25.611245998814656 L15.19611953749288,-25.22745074597476 " />
			<path d="M20.57611216877918,-25.275425152579746 L15.856820386949092,-25.611245998814656 " />
			<path d="M19.915411319322967,-24.891629899739847 L20.57611216877918,-25.275425152579743 " />
			<path d="M15.19611953749288,-25.227450745974757 L19.915411319322967,-24.891629899739847 " />
			<path d="M47.90081158557538,-22.684807195910437 L47.90081158557538,31.656021231043034 " />
			<path d="M47.90081158557538,31.656021231043034 L50.37843977103618,30.21678903289342 " />
			<path d="M48.891862859759705,-10.287239234501213 L48.23116201030349,-9.903443981661315 " />
			<path d="M48.891862859759705,-5.391669105946847 L48.891862859759705,-10.287239234501214 " />
			<path d="M48.23116201030349,-9.903443981661317 L48.23116201030349,-5.00787385310695 " />
			<path d="M48.23116201030349,-5.00787385310695 L48.891862859759705,-5.391669105946847 " />
			<path d="M48.891862859759705,13.211497382559749 L48.23116201030349,13.595292635399646 " />
			<path d="M48.891862859759705,18.107067511114114 L48.891862859759705,13.211497382559747 " />
			<path d="M48.23116201030349,18.490862763954013 L48.891862859759705,18.107067511114117 " />
			<path d="M48.23116201030349,13.595292635399645 L48.23116201030349,18.490862763954013 " />
			<path d="M47.90081158557538,31.656021231043034 L-51.20431583285645,24.603783460109927 " />
			<path d="M-51.20431583285645,24.603783460109923 L-48.72668764739566,23.16455126196031 " />
			<path d="M15.19611953749288,29.113377680978715 L19.915411319322967,29.449198527213625 " />
			<path d="M19.915411319322967,29.449198527213625 L20.57611216877918,29.06540327437373 " />
			<path d="M20.57611216877918,29.065403274373725 L15.856820386949092,28.729582428138816 " />
			<path d="M15.856820386949092,28.729582428138816 L15.19611953749288,29.11337768097871 " />
			<path d="M-22.558214717147816,26.426810911099437 L-17.83892293531773,26.762631757334347 " />
			<path d="M-21.897513867691604,26.043015658259538 L-22.558214717147816,26.426810911099434 " />
			<path d="M-17.83892293531773,26.762631757334347 L-17.178222085861517,26.37883650449445 " />
			<path d="M-17.178222085861517,26.378836504494448 L-21.897513867691604,26.043015658259538 " />
			<path d="M-51.20431583285645,24.603783460109923 L-51.20431583285645,-29.73704496684355 " />
			<path d="M-50.87396540812834,6.543054864466537 L-50.87396540812834,11.438624993020904 " />
			<path d="M-50.87396540812834,11.438624993020904 L-50.21326455867213,11.054829740181006 " />
			<path d="M-50.21326455867213,11.054829740181008 L-50.21326455867213,6.159259611626641 " />
			<path d="M-50.21326455867213,6.1592596116266405 L-50.87396540812834,6.543054864466537 " />
			<path d="M-50.87396540812834,-16.955681752594423 L-50.87396540812834,-12.060111624040056 " />
			<path d="M-50.21326455867213,-17.339477005434322 L-50.87396540812834,-16.955681752594426 " />
			<path d="M-50.87396540812834,-12.060111624040058 L-50.21326455867213,-12.443906876879955 " />
			<path d="M-50.21326455867213,-12.443906876879954 L-50.21326455867213,-17.33947700543432 " />
			<path d="M32.62108306249729,9.221168567888384 L32.615064129353904,9.220830211457933 L32.60919930815814,9.220682691595616 L32.603490002071446,9.220726043595635 L32.597937577048214,9.220960257086002 L32.59254336150893,9.221385276031022 L32.587308646022436,9.222000998744692 L32.58223468299704,9.22280727791504 L32.577322686381,9.223803920639371 L32.57257383137199,9.224990688470402 L32.56798925413598,9.226367297473326 L32.56357005153543,9.227933418293741 L32.55931728086677,9.229688676236442 L32.555231959607575,9.231632651355078 L32.55131506517303,9.23376487855261 " />
			<path d="M-29.706634930561545,4.785980415100963 L-29.7081141520557,4.785965100745083 L-29.709771164447368,4.7861170050291655 L-29.71160557129548,4.786436091610036 L-29.713616933717272,4.7869222841460655 L-29.715804770493257,4.787575466315445 L-29.71816855818238,4.788395481844003 L-29.720707731247224,4.789382134542614 L-29.72342168218936,4.790535188354116 L-29.72630976169463,4.791854367409798 L-29.72937127878855,4.793339356095402 L-29.7326055010016,4.7949897991266255 L-29.73601165454447,4.796805301634141 L-29.739588924493194,4.798785429258046 L-29.743336454984124,4.800929708251799 " />
			<path d="M-29.701230222258637,-10.956494633088772 L-29.701447080303485,-10.947195186817343 L-29.7020975290316,-10.938301934841405 L-29.703181192296217,-10.929820020022929 L-29.70469744342773,-10.921754347352481 L-29.706645405596134,-10.914109581112742 L-29.70902395231805,-10.906890142181208 L-29.71183170810815,-10.900100205473644 L-29.715067049274644,-10.893743697529775 L-29.71872810485816,-10.887824294242636 L-29.722812757713744,-10.882345418732816 L-29.72731864573518,-10.877310239368933 L-29.732243163220964,-10.872721667935394 L-29.73758346238113,-10.868582357948545 L-29.743336454984124,-10.864894703122173 " />
			<path d="M-48.844669941941405,-27.121349479448906 L45.541165694660336,-20.404932554750708 " />
			<path d="M45.541165694660336,-20.40493255475071 L45.541165694660336,29.040325743648392 " />
			<path d="M45.541165694660336,29.040325743648392 L-48.844669941941405,22.323908818950194 " />
			<path d="M-48.844669941941405,22.323908818950198 L-48.844669941941405,-27.121349479448906 " />
			<path d="M-21.897513867691604,-28.297812768693934 L-21.897513867691604,-28.78736978154937 " />
			<path d="M-22.558214717147816,-27.914017515854034 L-22.558214717147816,-28.40357452870947 " />
			<path d="M-21.897513867691604,-28.78736978154937 L-22.558214717147816,-28.403574528709473 " />
			<path d="M-17.178222085861517,-27.961991922459024 L-17.178222085861517,-28.45154893531446 " />
			<path d="M-17.178222085861517,-28.45154893531446 L-21.897513867691604,-28.78736978154937 " />
			<path d="M-17.83892293531773,-27.578196669619125 L-17.83892293531773,-28.06775368247456 " />
			<path d="M-22.558214717147816,-28.40357452870947 L-17.83892293531773,-28.06775368247456 " />
			<path d="M-17.83892293531773,-28.06775368247456 L-17.178222085861517,-28.451548935314456 " />
			<path d="M15.856820386949092,-25.611245998814656 L15.856820386949092,-26.10080301167009 " />
			<path d="M15.19611953749288,-25.227450745974757 L15.19611953749288,-25.717007758830192 " />
			<path d="M15.856820386949092,-26.10080301167009 L15.19611953749288,-25.717007758830196 " />
			<path d="M20.57611216877918,-25.275425152579746 L20.57611216877918,-25.764982165435182 " />
			<path d="M20.57611216877918,-25.764982165435182 L15.856820386949092,-26.10080301167009 " />
			<path d="M19.915411319322967,-24.891629899739847 L19.915411319322967,-25.381186912595282 " />
			<path d="M19.915411319322967,-25.381186912595282 L20.57611216877918,-25.76498216543518 " />
			<path d="M15.19611953749288,-25.717007758830192 L19.915411319322967,-25.381186912595282 " />
			<path d="M48.891862859759705,-10.287239234501213 L49.363792037942716,-10.253657149877721 " />
			<path d="M48.23116201030349,-9.903443981661317 L48.7030911884865,-9.869861897037826 " />
			<path d="M49.363792037942716,-10.253657149877721 L48.7030911884865,-9.869861897037824 " />
			<path d="M48.891862859759705,-5.391669105946847 L49.363792037942716,-5.358087021323356 " />
			<path d="M49.363792037942716,-5.358087021323356 L49.363792037942716,-10.253657149877721 " />
			<path d="M48.23116201030349,-5.00787385310695 L48.7030911884865,-4.974291768483459 " />
			<path d="M48.7030911884865,-9.869861897037826 L48.7030911884865,-4.974291768483459 " />
			<path d="M48.7030911884865,-4.974291768483459 L49.363792037942716,-5.358087021323356 " />
			<path d="M48.891862859759705,13.211497382559749 L49.363792037942716,13.24507946718324 " />
			<path d="M48.23116201030349,13.595292635399645 L48.7030911884865,13.628874720023136 " />
			<path d="M49.363792037942716,13.24507946718324 L48.7030911884865,13.628874720023138 " />
			<path d="M48.891862859759705,18.107067511114114 L49.363792037942716,18.140649595737603 " />
			<path d="M49.363792037942716,18.140649595737603 L49.363792037942716,13.245079467183237 " />
			<path d="M48.23116201030349,18.490862763954013 L48.7030911884865,18.524444848577502 " />
			<path d="M48.7030911884865,18.524444848577502 L49.363792037942716,18.140649595737607 " />
			<path d="M48.7030911884865,13.628874720023136 L48.7030911884865,18.524444848577502 " />
			<path d="M15.19611953749288,29.113377680978715 L15.19611953749288,29.60293469383415 " />
			<path d="M19.915411319322967,29.449198527213625 L19.915411319322967,29.93875554006906 " />
			<path d="M15.19611953749288,29.60293469383415 L19.915411319322967,29.93875554006906 " />
			<path d="M20.57611216877918,29.065403274373725 L20.57611216877918,29.55496028722916 " />
			<path d="M19.915411319322967,29.93875554006906 L20.57611216877918,29.554960287229164 " />
			<path d="M15.856820386949092,28.729582428138816 L15.856820386949092,29.21913944099425 " />
			<path d="M20.57611216877918,29.55496028722916 L15.856820386949092,29.21913944099425 " />
			<path d="M15.856820386949092,29.21913944099425 L15.19611953749288,29.602934693834147 " />
			<path d="M-22.558214717147816,26.426810911099437 L-22.558214717147816,26.916367923954873 " />
			<path d="M-17.83892293531773,26.762631757334347 L-17.83892293531773,27.252188770189782 " />
			<path d="M-22.558214717147816,26.916367923954873 L-17.83892293531773,27.252188770189782 " />
			<path d="M-21.897513867691604,26.043015658259538 L-21.897513867691604,26.532572671114973 " />
			<path d="M-21.897513867691604,26.532572671114973 L-22.558214717147816,26.91636792395487 " />
			<path d="M-17.178222085861517,26.378836504494448 L-17.178222085861517,26.868393517349883 " />
			<path d="M-17.83892293531773,27.252188770189782 L-17.178222085861517,26.868393517349887 " />
			<path d="M-17.178222085861517,26.868393517349883 L-21.897513867691604,26.532572671114973 " />
			<path d="M-50.87396540812834,6.543054864466537 L-51.34589458631135,6.509472779843046 " />
			<path d="M-50.87396540812834,11.438624993020904 L-51.34589458631135,11.405042908397412 " />
			<path d="M-51.34589458631135,6.509472779843046 L-51.34589458631135,11.405042908397412 " />
			<path d="M-50.21326455867213,11.054829740181008 L-50.68519373685514,11.021247655557517 " />
			<path d="M-51.34589458631135,11.405042908397412 L-50.68519373685514,11.021247655557515 " />
			<path d="M-50.21326455867213,6.1592596116266405 L-50.68519373685514,6.125677527003149 " />
			<path d="M-50.68519373685514,11.021247655557517 L-50.68519373685514,6.12567752700315 " />
			<path d="M-50.68519373685514,6.125677527003149 L-51.34589458631135,6.509472779843046 " />
			<path d="M-50.87396540812834,-16.955681752594423 L-51.34589458631135,-16.989263837217912 " />
			<path d="M-50.87396540812834,-12.060111624040058 L-51.34589458631135,-12.09369370866355 " />
			<path d="M-51.34589458631135,-16.989263837217912 L-51.34589458631135,-12.093693708663546 " />
			<path d="M-50.21326455867213,-17.339477005434322 L-50.68519373685514,-17.37305909005781 " />
			<path d="M-50.68519373685514,-17.37305909005781 L-51.34589458631135,-16.989263837217916 " />
			<path d="M-50.21326455867213,-12.443906876879954 L-50.68519373685514,-12.477488961503445 " />
			<path d="M-51.34589458631135,-12.09369370866355 L-50.68519373685514,-12.477488961503447 " />
			<path d="M-50.68519373685514,-12.477488961503445 L-50.68519373685514,-17.37305909005781 " />
			<path d="M31.973201821898837,9.569585724787522 L32.55131506517303,9.23376487855261 " />
			<path d="M31.97320182189884,9.56958572478752 L31.97320182189884,9.175065882033024 " />
			<path d="M-30.321449698258313,5.13675055448671 L-29.743336454984124,4.800929708251797 " />
			<path d="M-30.321449698258313,5.13675055448671 L31.97320182189884,9.56958572478752 " />
			<path d="M-29.70123022225864,-10.484939559007335 L-30.321449698258313,-10.529073856887264 " />
			<path d="M-30.321449698258313,-10.529073856887264 L-29.743336454984124,-10.864894703122177 " />
			<path d="M-30.321449698258313,-10.529073856887262 L-30.321449698258313,5.136750554486711 " />
			<path d="M36.65160698805907,-1.0061686350296983 L36.5746458908925,-0.9711195364543177 L36.498731636383674,-0.9339241320034617 L36.42391604277302,-0.894607810853675 L36.35025017836704,-0.853197409896068 " />
			<path d="M36.350250178367034,-0.8531974098960609 L36.26905469586547,-0.8042937747854864 L36.18943859059663,-0.752833276679095 L36.11147023035968,-0.6988601056435471 L36.03521656800511,-0.642420609423497 L35.96074308394114,-0.5835632536419357 L35.88811372990445,-0.522338580181883 L35.81739087404372,-0.45879916378515206 L35.74863524736292,-0.3929995669054702 " />
			<path d="M38.580210316461034,5.598573181698468 L38.66542093719384,5.59069773266585 L38.75025165788011,5.580492002940716 L38.83464463451947,5.567962951561363 L38.918542321598544,5.553119121782485 L39.00188751132982,5.535970635249736 L39.08462337266026,5.5165291850980225 L39.166693490023036,5.494808027978246 L39.24804190180588,5.470821975017916 L39.328613138509944,5.444587381721793 L39.40835226057315,5.416122136819484 L39.487204895832114,5.385445650067541 L39.56511727659717,5.352578839014427 L39.64203627631527,5.317544114737348 L39.717909445795684,5.280365366560693 L39.79268504897385,5.241067945766469 L39.866312098188864,5.199678648307909 " />
			<path d="M39.866312098188885,5.199678648307895 L39.93877782155927,5.156202513301794 L40.00999407236302,5.11069024838187 L40.07991223933932,5.0631729196117625 L40.14848459728205,5.013682961684901 " />
			<path d="M35.748635247362905,-0.39299956690545956 L35.69332603171986,-0.3369403533017499 L35.63943394045656,-0.2794081356475524 L35.586990598093145,-0.22043667453246707 L35.53602677900666,-0.16006057511127691 L35.48657238937232,-0.09831526679722868 L35.43865644961415,-0.03523698247163454 L35.39230707737552,0.02913726277801887 L35.34755147101933,0.09476969337895724 L35.30441589366771,0.1616217954402801 L35.26292565779049,0.22965433935336454 L35.223105110351575,0.2988274028122726 L35.18497761852182,0.36910039424062857 L35.14856555596691,0.44043207661124306 L35.11389028971824,0.5127805916444901 L35.08097216763447,0.5861034843712405 L35.049830506461156,0.6603577280459505 L34.99294861086263,0.8114854541873058 L34.94337809922702,0.9658090879203312 L34.90123530874807,1.1229664466109575 L34.866619144476765,1.2825886971468694 L34.83961084720075,1.4443012215531243 L34.82027380278007,1.6077244961842871 L34.808653393386685,1.7724749824296986 L34.8047768909969,1.9381660268414784 L34.808653393386685,2.1044087685727515 L34.82027380278007,2.270813051996418 L34.83961084720075,2.436988342362669 L34.866619144476765,2.6025446423462317 L34.90123530874807,2.7670934073323648 L34.94337809922702,2.930248457293461 L34.992948610862626,3.0916268831162066 L35.049830506461156,3.2508499452522095 L35.11389028971824,3.4075439625830715 L35.18497761852182,3.5613411894138096 L35.26292565779049,3.7118806785364136 L35.34755147101933,3.8588091283380157 L35.43865644961415,4.0017817119655845 L35.53602677900666,4.140462886601178 L35.639433940456556,4.2745271809484695 L35.748635247362884,4.403659959082358 " />
			<path d="M35.748635247362905,4.403659959082381 L35.817479561630975,4.479339600411375 L35.88829603420465,4.553033913850911 L35.96102369895924,4.624679455734018 L36.03559994441868,4.6942145461876255 L36.11196056765794,4.761579322232949 L36.19003982957552,4.826715789321733 L36.26977051148848,4.889567871263935 L36.351083973001174,4.95008145850389 L36.43391021109802,5.008204454703401 L36.5181779204093,5.063886821591645 L36.603814554598166,5.117080622043268 L36.69074638881603,5.167740061347615 L36.77889858317252,5.215821526633542 L36.86819524716536,5.2612836244158725 L36.958559505014755,5.304087216231176 L37.049913561846004,5.344195452332199 L37.142178770663314,5.3815738034119285 L37.23527570005729,5.416190090329973 L37.32912420258766,5.4480145118157015 L37.42364348378247,5.477019670124241 L37.51875217169431,5.503180594623281 L37.61436838695366,5.526474763290375 L37.710409813259076,5.546882122102215 L37.80679376824362,5.564385102299207 L37.90343727465633,5.578968635510472 L38.00025713179759,5.590620166726255 L38.09716998714687,5.5993296651065645 L38.19409240812123,5.605089632616764 L38.29094095390261,5.60789511048265 L38.38763224727237,5.607743683459475 L38.48408304639094,5.604635481911241 L38.580210316461006,5.598573181698471 " />
			<path d="M-48.844669941941405,-27.121349479448906 L-46.36704175648061,-28.56058167759852 " />
			<path d="M45.541165694660336,-20.40493255475071 L48.01879388012113,-21.844164752900326 " />
			<path d="M-46.3670417564806,-28.56058167759852 L48.01879388012114,-21.844164752900323 " />
			<path d="M45.541165694660336,29.040325743648392 L48.01879388012113,27.601093545498777 " />
			<path d="M48.01879388012114,-21.844164752900326 L48.01879388012114,27.601093545498777 " />
			<path d="M-48.844669941941405,22.323908818950198 L-46.36704175648061,20.884676620800583 " />
			<path d="M48.01879388012114,27.601093545498777 L-46.3670417564806,20.88467662080058 " />
			<path d="M-46.3670417564806,20.884676620800583 L-46.3670417564806,-28.56058167759852 " />
			<path d="M-2.9495573636438044,-18.22558610197689 L4.601309487284335,-17.688272748001037 " />
			<path d="M-2.9495573636438044,-15.28824402484427 L-2.9495573636438044,-18.22558610197689 " />
			<path d="M4.601309487284335,-17.688272748001037 L4.601309487284335,-14.750930670868417 " />
			<path d="M4.601309487284335,-14.750930670868415 L-2.9495573636438044,-15.288244024844271 " />
			<path d="M-36.92845819282043,-7.082766938772644 L-34.09688312372238,-6.881274431031698 " />
			<path d="M-36.92845819282043,0.7501452669143434 L-36.92845819282043,-7.082766938772643 " />
			<path d="M-34.09688312372238,-6.881274431031698 L-34.09688312372238,0.9516377746552891 " />
			<path d="M-34.09688312372238,0.9516377746552895 L-36.92845819282043,0.7501452669143436 " />
			<path d="M-2.9495573636438044,13.791442538768672 L4.601309487284335,14.328755892744528 " />
			<path d="M4.601309487284335,14.328755892744526 L4.601309487284335,17.266097969877148 " />
			<path d="M4.601309487284335,17.266097969877148 L-2.9495573636438044,16.728784615901294 " />
			<path d="M-2.9495573636438044,16.728784615901294 L-2.9495573636438044,13.791442538768674 " />
			<path d="M38.58021031646096,5.598573181698452 L38.58021031646096,6.123278806672902 " />
			<path d="M38.58021031646096,6.123278806672901 L35.74863524736291,5.921786298931955 " />
			<path d="M38.58021031646096,-1.7096333990140855 L38.58021031646096,-1.1849277740396364 " />
			<path d="M35.74863524736291,5.921786298931955 L35.74863524736291,4.403659959082377 " />
			<path d="M35.74863524736291,-1.9111259067550317 L38.58021031646096,-1.7096333990140857 " />
			<path d="M35.74863524736291,-0.39299956690545645 L35.74863524736291,-1.9111259067550321 " />
			<path d="M35.74863524736291,4.403659959082377 L35.74863524736291,3.0610295321542718 " />
			<path d="M35.74863524736291,0.09877333041634095 L35.74863524736291,-0.39299956690545645 " />
			<path d="M38.58021031646096,5.2351411972233475 L38.58021031646096,5.598573181698452 " />
			<path d="M-2.9495573636438044,-18.22558610197689 L-5.526290676523033,-16.728784615901294 " />
			<path d="M4.601309487284335,-17.688272748001037 L2.024576174405107,-16.19147126192544 " />
			<path d="M-5.526290676523033,-16.728784615901294 L2.024576174405107,-16.19147126192544 " />
			<path d="M-2.9495573636438044,-15.28824402484427 L-5.526290676523033,-13.79144253876867 " />
			<path d="M-5.526290676523033,-13.79144253876867 L-5.526290676523033,-16.72878461590129 " />
			<path d="M4.601309487284335,-14.750930670868415 L2.024576174405107,-13.254129184792816 " />
			<path d="M2.024576174405107,-16.19147126192544 L2.024576174405107,-13.25412918479282 " />
			<path d="M2.024576174405107,-13.254129184792816 L-5.526290676523033,-13.791442538768672 " />
			<path d="M-3.9925208474282536,-14.005408392226915 L-4.32287127215636,-13.813510765806967 " />
			<path d="M1.4818576194946471,-13.61585621059442 L-3.9925208474282536,-14.005408392226915 " />
			<path d="M1.151507194766541,-13.423958584174471 L1.4818576194946471,-13.61585621059442 " />
			<path d="M-4.32287127215636,-13.813510765806967 L1.1515071947665412,-13.423958584174471 " />
			<path d="M-3.043943199280406,-14.864150270456184 L-3.572503878845376,-14.557114068184266 " />
			<path d="M3.374293624008512,-14.407433919576706 L-3.043943199280407,-14.864150270456182 " />
			<path d="M-3.572503878845376,-14.557114068184267 L2.8457329444435433,-14.10039771730479 " />
			<path d="M2.8457329444435424,-14.100397717304789 L3.374293624008512,-14.407433919576707 " />
			<path d="M-36.92845819282043,-7.082766938772644 L-39.505191505699656,-5.585965452697046 " />
			<path d="M-34.09688312372238,-6.881274431031698 L-36.673616436601606,-5.3844729449561 " />
			<path d="M-39.505191505699656,-5.585965452697046 L-36.673616436601606,-5.3844729449561 " />
			<path d="M-36.92845819282043,0.7501452669143434 L-39.505191505699656,2.2469467529899414 " />
			<path d="M-39.505191505699656,2.246946752989941 L-39.505191505699656,-5.585965452697046 " />
			<path d="M-36.673616436601606,-5.3844729449561 L-36.673616436601606,2.448439260730887 " />
			<path d="M-34.09688312372238,0.9516377746552895 L-36.673616436601606,2.4484392607308876 " />
			<path d="M-36.50844122423756,-4.403396329884113 L-36.50844122423756,1.2754650192389523 " />
			<path d="M-36.50844122423756,1.2754650192389523 L-36.17809079950945,1.0835673928190037 " />
			<path d="M-36.17809079950945,1.083567392819004 L-36.17809079950945,-4.595293956304062 " />
			<path d="M-36.17809079950945,-4.595293956304062 L-36.50844122423756,-4.403396329884113 " />
			<path d="M-35.28614465274356,-5.602974560493359 L-35.28614465274356,1.0550008143405796 " />
			<path d="M-34.75758397317859,-5.9100107627652765 L-35.28614465274356,-5.602974560493359 " />
			<path d="M-35.28614465274356,1.0550008143405798 L-34.75758397317859,0.7479646120686623 " />
			<path d="M-34.75758397317859,0.7479646120686623 L-34.75758397317859,-5.9100107627652765 " />
			<path d="M-36.673616436601606,2.448439260730887 L-39.505191505699656,2.2469467529899414 " />
			<path d="M-2.9495573636438044,13.791442538768672 L-5.526290676523033,15.288244024844271 " />
			<path d="M-5.526290676523033,15.288244024844271 L2.024576174405107,15.825557378820127 " />
			<path d="M4.601309487284335,14.328755892744526 L2.024576174405107,15.825557378820125 " />
			<path d="M-4.32287127215636,15.266175797805975 L1.1515071947665412,15.65572797943847 " />
			<path d="M1.151507194766541,15.65572797943847 L1.4818576194946471,15.463830353018523 " />
			<path d="M1.4818576194946471,15.463830353018523 L-3.9925208474282536,15.074278171386027 " />
			<path d="M-3.9925208474282536,15.074278171386027 L-4.32287127215636,15.266175797805975 " />
			<path d="M-3.572503878845376,14.522572495428674 L2.8457329444435433,14.979288846308151 " />
			<path d="M-3.043943199280406,14.215536293156758 L-3.572503878845376,14.522572495428676 " />
			<path d="M2.8457329444435424,14.979288846308153 L3.374293624008512,14.672252644036234 " />
			<path d="M3.374293624008512,14.672252644036236 L-3.043943199280407,14.21553629315676 " />
			<path d="M4.601309487284335,17.266097969877148 L2.024576174405107,18.762899455952745 " />
			<path d="M2.024576174405107,15.825557378820125 L2.024576174405107,18.762899455952745 " />
			<path d="M-2.9495573636438044,16.728784615901294 L-5.526290676523033,18.22558610197689 " />
			<path d="M2.024576174405107,18.762899455952745 L-5.526290676523033,18.22558610197689 " />
			<path d="M-5.526290676523033,18.22558610197689 L-5.526290676523033,15.288244024844271 " />
			<path d="M38.58021031646096,-1.7096333990140855 L36.003477003581736,-0.21283191293848747 " />
			<path d="M38.58021031646096,6.123278806672901 L36.003477003581736,7.620080292748499 " />
			<path d="M36.003477003581736,-0.2128319129384877 L36.003477003581736,7.620080292748499 " />
			<path d="M35.74863524736291,5.921786298931955 L33.171901934483685,7.418587785007553 " />
			<path d="M36.003477003581736,7.620080292748499 L33.171901934483685,7.418587785007553 " />
			<path d="M33.171901934483685,7.418587785007553 L33.171901934483685,-0.4143244206794341 " />
			<path d="M35.74863524736291,-1.9111259067550317 L33.171901934483685,-0.41432442067943365 " />
			<path d="M33.66742757157584,0.3748545679726044 L33.33707714684773,0.5667521943925529 " />
			<path d="M33.66742757157584,6.053715917095669 L33.66742757157584,0.3748545679726041 " />
			<path d="M33.33707714684773,6.245613543515618 L33.66742757157584,6.053715917095669 " />
			<path d="M33.33707714684773,0.5667521943925529 L33.33707714684773,6.245613543515618 " />
			<path d="M35.0879343979067,-0.9398622384886106 L34.55937371834173,-0.6328260362166931 " />
			<path d="M35.0879343979067,5.718113136345329 L35.0879343979067,-0.93986223848861 " />
			<path d="M34.55937371834173,-0.6328260362166931 L34.55937371834173,6.025149338617245 " />
			<path d="M34.55937371834173,6.025149338617246 L35.0879343979067,5.718113136345329 " />
			<path d="M33.171901934483685,-0.41432442067943387 L36.003477003581736,-0.21283191293848797 " />
			<path d="M-3.9925208474282536,-14.005408392226915 L-3.9925208474282536,-13.320028574229303 " />
			<path d="M-4.32287127215636,-13.813510765806967 L-4.32287127215636,-13.128130947809355 " />
			<path d="M-3.9925208474282536,-13.320028574229305 L-4.32287127215636,-13.128130947809357 " />
			<path d="M1.4818576194946471,-13.61585621059442 L1.4818576194946471,-12.930476392596807 " />
			<path d="M1.4818576194946471,-12.930476392596809 L-3.9925208474282536,-13.320028574229305 " />
			<path d="M1.151507194766541,-13.423958584174471 L1.151507194766541,-12.73857876617686 " />
			<path d="M1.151507194766541,-12.738578766176861 L1.4818576194946471,-12.930476392596809 " />
			<path d="M-4.32287127215636,-13.128130947809357 L1.1515071947665412,-12.738578766176861 " />
			<path d="M-3.043943199280406,-14.864150270456184 L-3.043943199280406,-16.03908710130923 " />
			<path d="M-3.572503878845376,-14.557114068184267 L-3.572503878845376,-15.732050899037315 " />
			<path d="M-3.043943199280406,-16.03908710130923 L-3.572503878845376,-15.732050899037313 " />
			<path d="M3.374293624008512,-14.407433919576706 L3.374293624008512,-15.582370750429753 " />
			<path d="M3.374293624008512,-15.582370750429753 L-3.043943199280407,-16.03908710130923 " />
			<path d="M2.8457329444435424,-14.100397717304789 L2.8457329444435424,-15.275334548157836 " />
			<path d="M-3.572503878845376,-15.732050899037315 L2.8457329444435433,-15.275334548157838 " />
			<path d="M2.8457329444435424,-15.275334548157836 L3.374293624008512,-15.582370750429755 " />
			<path d="M-36.50844122423756,-4.403396329884113 L-35.847740374781345,-4.356381411411226 " />
			<path d="M-36.50844122423756,1.2754650192389523 L-35.847740374781345,1.3224799377118397 " />
			<path d="M-35.847740374781345,-4.356381411411225 L-35.847740374781345,1.3224799377118401 " />
			<path d="M-36.17809079950945,1.083567392819004 L-35.517389950053236,1.1305823112918914 " />
			<path d="M-35.847740374781345,1.3224799377118397 L-35.51738995005324,1.1305823112918911 " />
			<path d="M-36.17809079950945,-4.595293956304062 L-35.517389950053236,-4.548279037831175 " />
			<path d="M-35.517389950053236,1.1305823112918914 L-35.517389950053236,-4.548279037831174 " />
			<path d="M-35.517389950053236,-4.548279037831174 L-35.84774037478134,-4.356381411411225 " />
			<path d="M-35.28614465274356,-5.602974560493359 L-36.41877468038278,-5.683571563589737 " />
			<path d="M-35.28614465274356,1.0550008143405798 L-36.41877468038278,0.9744038112442014 " />
			<path d="M-36.41877468038278,-5.683571563589737 L-36.41877468038278,0.9744038112442013 " />
			<path d="M-34.75758397317859,-5.9100107627652765 L-35.890214000817814,-5.990607765861655 " />
			<path d="M-35.890214000817814,-5.990607765861655 L-36.41877468038278,-5.683571563589737 " />
			<path d="M-34.75758397317859,0.7479646120686623 L-35.890214000817814,0.6673676089722839 " />
			<path d="M-36.41877468038278,0.9744038112442011 L-35.890214000817814,0.6673676089722835 " />
			<path d="M-35.890214000817814,0.6673676089722835 L-35.890214000817814,-5.990607765861655 " />
			<path d="M-4.32287127215636,15.266175797805975 L-4.32287127215636,14.580795979808363 " />
			<path d="M1.151507194766541,15.65572797943847 L1.151507194766541,14.970348161440858 " />
			<path d="M-4.32287127215636,14.580795979808364 L1.1515071947665412,14.97034816144086 " />
			<path d="M1.4818576194946471,15.463830353018523 L1.4818576194946471,14.77845053502091 " />
			<path d="M1.151507194766541,14.97034816144086 L1.4818576194946471,14.778450535020912 " />
			<path d="M-3.9925208474282536,15.074278171386027 L-3.9925208474282536,14.388898353388415 " />
			<path d="M1.4818576194946471,14.778450535020912 L-3.9925208474282536,14.388898353388416 " />
			<path d="M-3.9925208474282536,14.388898353388416 L-4.32287127215636,14.580795979808364 " />
			<path d="M-3.572503878845376,14.522572495428674 L-3.572503878845376,15.697509326281722 " />
			<path d="M2.8457329444435424,14.979288846308153 L2.8457329444435424,16.1542256771612 " />
			<path d="M-3.572503878845376,15.697509326281722 L2.8457329444435433,16.1542256771612 " />
			<path d="M-3.043943199280406,14.215536293156758 L-3.043943199280406,15.390473124009805 " />
			<path d="M-3.043943199280406,15.390473124009805 L-3.572503878845376,15.697509326281724 " />
			<path d="M3.374293624008512,14.672252644036236 L3.374293624008512,15.847189474889284 " />
			<path d="M2.8457329444435424,16.1542256771612 L3.374293624008512,15.847189474889282 " />
			<path d="M3.374293624008512,15.847189474889284 L-3.043943199280407,15.390473124009807 " />
			<path d="M33.66742757157584,0.3748545679726044 L33.00672672211963,0.32783964949971706 " />
			<path d="M33.33707714684773,0.5667521943925529 L32.67637629739152,0.5197372759196655 " />
			<path d="M33.00672672211963,0.327839649499717 L32.67637629739153,0.5197372759196655 " />
			<path d="M33.66742757157584,6.053715917095669 L33.00672672211963,6.006700998622782 " />
			<path d="M33.00672672211963,6.006700998622781 L33.00672672211963,0.3278396494997162 " />
			<path d="M33.33707714684773,6.245613543515618 L32.67637629739152,6.198598625042731 " />
			<path d="M32.67637629739152,6.19859862504273 L33.00672672211962,6.006700998622781 " />
			<path d="M32.67637629739152,0.5197372759196655 L32.67637629739152,6.198598625042731 " />
			<path d="M35.0879343979067,-0.9398622384886106 L36.22056442554592,-0.8592652353922322 " />
			<path d="M34.55937371834173,-0.6328260362166931 L35.692003745980955,-0.5522290331203147 " />
			<path d="M36.22056442554592,-0.8592652353922319 L35.692003745980955,-0.5522290331203143 " />
			<path d="M35.0879343979067,5.718113136345329 L36.22056442554592,5.798710139441707 " />
			<path d="M36.22056442554592,5.798710139441707 L36.22056442554592,-0.8592652353922317 " />
			<path d="M34.55937371834173,6.025149338617246 L35.692003745980955,6.105746341713624 " />
			<path d="M35.692003745980955,-0.5522290331203143 L35.692003745980955,6.105746341713624 " />
			<path d="M35.692003745980955,6.105746341713624 L36.22056442554592,5.798710139441707 " />
			<path d="M-29.706634942968076,4.785980414218126 L-29.70123022225864,4.786365009612141 " />
			<path d="M40.44442534146308,4.863857802072982 L39.86631209818889,5.199678648307891 " />
			<path d="M36.92836342164121,-1.189018256130968 L36.35025017836702,-0.8531974098960582 " />

       </g>

       <!-- solid lines -->
       <g  stroke="rgb(0,0,0)" fill="none">
			<path d="M-51.7942273055852,-34.57668129860619 L-51.216114062311014,-34.9125021448411 " />
			<path d="M-51.7942273055852,26.128388295467957 L-51.216114062311014,25.792567449233047 " />
			<path d="M-51.7942273055852,26.128388295467957 L-51.7942273055852,-34.57668129860619 " />
			<path d="M-51.21611406231102,-34.9125021448411 L-51.212197167876475,-34.91463437203863 L-51.20811184661727,-34.91657834715727 L-51.20385907594862,-34.91833360509997 L-51.19943987334807,-34.91989972592039 L-51.19485529611206,-34.92127633492331 L-51.19010644110305,-34.922463102754335 L-51.185194444487,-34.92345974547867 L-51.18012048146161,-34.92426602464902 L-51.174885765975105,-34.92488174736269 L-51.169491550435836,-34.92530676630771 L-51.16393912541259,-34.92554097979807 L-51.1582298193259,-34.92558433179809 L-51.15236499813013,-34.92543681193578 L-51.14634606498675,-34.92509845550533 " />
			<path d="M-51.14634606498675,-34.92509845550533 L-51.105302668344464,-34.918662816621946 L-51.05867669567098,-34.90483274056235 L-51.006904088553476,-34.88373753519855 L-50.95046890836855,-34.855574435607494 L-50.88989881042523,-34.82060675997067 L-50.825760110515276,-34.77916144761272 L-50.75865248999725,-34.73162600219764 L-50.68920338892056,-34.67844486866314 L-50.61806213961251,-34.62011527776774 L-50.54589389557784,-34.557182597103235 L-50.473373412474,-34.49023523203942 L-50.4011787393087,-34.419899124275894 L-50.3299848788454,-34.346831899438335 L-50.26045747649044,-34.27171671843768 " />
			<path d="M54.0607941969225,-27.438646566953448 L54.06153795087324,-27.43856596418007 L54.06222683185898,-27.43843391242686 L54.0628607891633,-27.43825042141566 L54.06343977611333,-27.43801550465534 L54.063963750083175,-27.43772917944083 L54.06443267249709,-27.437391466851814 L54.06484650883235,-27.437002391751193 L54.06520522862168,-27.436561982783253 L54.0655088054556,-27.436070272371555 L54.06575721698433,-27.435527296716543 L54.06595044491946,-27.434933095792903 L54.06608847503526,-27.434287713346578 L54.06617129716974,-27.433591196891573 L54.066198905225406,-27.432843597706473 " />
			<path d="M54.066198905225406,-27.432843597706473 L54.06328678172327,-27.42221983857863 L54.05457302578562,-27.40629613149479 L54.04012530550169,-27.385196134592665 L54.02005581699358,-27.359083703330576 L53.99452041313907,-27.32816161804127 L53.96371739327068,-27.29267000920822 L53.92788596325,-27.252884492693333 L53.887304377875644,-27.2091140293971 L53.84228778005034,-27.161698525972504 L53.79318575348744,-27.111006195224572 L53.7403796079618,-27.057430696693977 L53.68427941818656,-27.001388079629805 L53.6253208393114,-26.94331355209146 L53.563961723771484,-26.883658101269653 " />
			<path d="M53.44597942922574,33.61719316650645 L-51.79422730558522,26.128388295467964 " />
			<path d="M53.44597942922574,33.61719316650645 L54.024092672499926,33.281372320271544 " />
			<path d="M-51.21611406231102,25.792567449233047 L-51.18392234070812,25.772152549363366 L-51.14323327382945,25.74339315477654 L-51.09455855029935,25.706650931546108 L-51.03851028300793,25.66238793444751 L-50.97579331143635,25.611160796351257 L-50.907196337891364,25.553613728241583 L-50.833582009116185,25.490470417889558 L-50.75587606800719,25.422524929059456 L-50.67505571185986,25.350631715696206 L-50.59213730354582,25.275694876671277 L-50.50816359015998,25.198656786214762 L-50.424190589870875,25.120486243012696 L-50.341274311879395,25.042166287001454 L-50.26045747649044,24.964681837070174 " />
			<path d="M54.02409267249992,33.281372320271544 L54.02984566510292,33.27768466544517 L54.035185964263086,33.27354535545832 L54.04011048174887,33.26895678402478 L54.0446163697703,33.2639216046609 L54.04870102262589,33.25844272915107 L54.0523620782094,33.252523325863926 L54.05559741937589,33.24616681792007 L54.05840517516601,33.23937688121249 L54.06078372188792,33.23215744228096 L54.06273168405632,33.22451267604122 L54.06424793518783,33.216447003370774 L54.06533159845245,33.20796508855229 L54.06598204718057,33.19907183657635 L54.066198905225406,33.189772390304924 " />
			<path d="M54.066198905225406,33.189772390304924 L54.06328678172327,33.152300051566336 L54.05457302578562,33.10973626188424 L54.04012530550169,33.06241155729136 L54.02005581699358,33.010693445479646 L53.99452041313907,32.95498355185948 L53.96371739327068,32.89571450067222 L53.92788596325,32.8333465553763 L53.887304377875644,32.76836404439647 L53.84228778005034,32.70127159999259 L53.79318575348744,32.63259023945576 L53.7403796079618,32.56285331906381 L53.68427941818656,32.4926023922163 L53.6253208393114,32.42238300391355 L53.563961723771484,32.35274045423819 " />
			<path d="M33.50697165099362,9.874550304956042 L33.43744424863865,9.799435123955377 L33.366250388175345,9.726367899117822 L33.294055715010046,9.656031791354295 L33.2215352319062,9.589084426290476 L33.14936698787153,9.526151745625974 L33.07822573856348,9.467822154730568 L33.00877663748679,9.414641021196063 L32.94166901696876,9.367105575780984 L32.87753031705882,9.32566026342303 L32.8169602191155,9.290692587786218 L32.76052503893056,9.262529488195165 L32.70875243181306,9.241434282831367 L32.662126459139586,9.227604206771764 L32.6210830624973,9.221168567888384 " />
			<path d="M33.50697165099362,-7.259945144984243 L33.426154815604654,-7.182460695052957 L33.343238537613175,-7.104140739041714 L33.25926553732407,-7.025970195839648 L33.17529182393823,-6.948932105383134 L33.09237341562419,-6.873995266358201 L33.01155305947686,-6.802102052994954 L32.93384711836787,-6.734156564164854 L32.860232789592686,-6.671013253812829 L32.791635816047695,-6.613466185703157 L32.72891884447613,-6.5622390476069015 L32.6728705771847,-6.517976050508303 L32.6241958536546,-6.481233827277864 L32.58350678677592,-6.452474432691046 L32.55131506517303,-6.432059532821364 " />
			<path d="M-30.20346740371256,5.340968880784759 L-30.142108288172647,5.281313429962952 L-30.08314970929748,5.223238902424604 L-30.027049519522244,5.167196285360428 L-29.974243373996593,5.113620786829832 L-29.92514134743371,5.062928456081898 L-29.880124749608402,5.0155129526573 L-29.83954316423404,4.971742489361069 L-29.803711734213362,4.931956972846181 L-29.772908714344968,4.896465364013133 L-29.747373310490453,4.865543278723823 L-29.727303821982357,4.8394308474617365 L-29.71285610169842,4.818330850559612 L-29.704142345760772,4.802407143475774 L-29.701230222258637,4.7917833843479345 " />
			<path d="M-29.701230222258637,4.791783384347934 L-29.70125783031431,4.7910357851628325 L-29.701340652448792,4.790339268707832 L-29.70147868256459,4.789693886261505 L-29.70167191049972,4.7890996853378605 L-29.701920322028457,4.788556709682854 L-29.70222389886238,4.788064999271155 L-29.7025826186517,4.787624590303216 L-29.702996454986952,4.787235515202596 L-29.703465377400878,4.786897802613581 L-29.70398935137073,4.78661147739907 L-29.704568338320748,4.786376560638754 L-29.70520229562507,4.786193069627549 L-29.705891176610812,4.786061017874338 L-29.706634930561545,4.785980415100963 " />
			<path d="M-30.20346740371256,-11.793526569155528 L-30.142108288172647,-11.723884019480156 L-30.08314970929748,-11.653664631177406 L-30.027049519522244,-11.583413704329894 L-29.974243373996593,-11.513676783937939 L-29.92514134743371,-11.444995423401114 L-29.880124749608402,-11.37790297899723 L-29.83954316423404,-11.312920468017394 L-29.803711734213362,-11.250552522721478 L-29.772908714344968,-11.191283471534216 L-29.747373310490453,-11.135573577914046 L-29.727303821982357,-11.083855466102332 L-29.71285610169842,-11.036530761509457 L-29.704142345760772,-10.993966971827362 L-29.701230222258637,-10.956494633088774 " />
			<path d="M31.97320182189884,9.175065882033024 L31.97320182189884,-6.096238686586453 " />
			<path d="M31.973201821898837,-6.096238686586453 L32.55131506517303,-6.432059532821366 " />
			<path d="M31.973201821898844,-6.096238686586453 L-29.70123022225864,-10.484939559007335 " />
			<path d="M41.411785385559014,2.408315211570354 L41.9898986288332,2.0724943653354444 " />
			<path d="M41.41178538555902,2.408315211570354 L41.40849918583473,2.2552657212012903 L41.39864712463355,2.10205303996133 L41.38224880286311,1.9489819880856905 L41.35933684537051,1.7963571040346353 L41.32995683603441,1.6444820386070407 L41.29416722707487,1.4936589508199831 L41.25203922276121,1.344187906756266 L41.20365663774952,1.196366282575886 L41.14911573033136,1.0504881728791595 L41.08852501092567,0.9068438055985981 L41.02200502619473,0.7657189645836042 L40.94968811921372,0.6273944210267779 L40.87171816617107,0.49214537486302024 L40.7882502901234,0.36024090725278857 L40.699450552374536,0.23194344523878896 L40.60549562209265,0.10750823964120526 L40.50657242482278,-0.012817142769820045 L40.402877770594074,-0.12879331181409892 L40.2946179623616,-0.24018953017379552 L40.182008385561744,-0.3467841724507523 L40.065273079597844,-0.44836516609543375 L39.94464429210851,-0.5447304133302531 L39.82036201690545,-0.6356881932278635 L39.69267351650021,-0.721057543144449 L39.561832830169514,-0.8006686187491674 L39.428100268538174,-0.8743630319334392 L39.291741895684986,-0.9419941659278237 L39.15302899980195,-1.003427466999526 L39.01223755346007,-1.058540712150219 L38.869647664555394,-1.1072242522815752 L38.72554301902778,-1.149381230344726 L38.580210316461056,-1.1849277740396387 " />
			<path d="M38.58021031646104,-1.1849277740396418 L38.45729597797126,-1.2096438497448299 L38.33389089097335,-1.229603263791141 L38.210168574915336,-1.244777951318424 L38.0863029952999,-1.255146575253241 L37.962468319072094,-1.260694556310848 L37.83883866972381,-1.2614140934950786 L37.71558788245942,-1.25730417506729 L37.59288925976665,-1.2483705799689702 L37.47091532773663,-1.2346258696959875 L37.349837593475556,-1.2160893706359173 L37.229826303949174,-1.1927871468932771 L37.11105020659913,-1.1647519636408834 L36.99367631206781,-1.1320232410488584 L36.87786965936526,-1.0946469988560774 L36.76379308380844,-1.052675791661971 L36.651606988059086,-1.006168635029704 " />
			<path d="M40.14848459728205,5.013682961684901 L40.22114953826466,4.957920648575894 L40.29212419329006,4.899930602992402 L40.36135178292859,4.839759216730387 L40.42877692539564,4.777454626649309 L40.494345680856874,4.713066676162834 L40.55800559457987,4.646646875364311 L40.61970573889766,4.578248359818916 L40.679396753950684,4.507925848055412 L40.737030887174456,4.435735597791559 L40.792562031501426,4.3617353609281695 L40.84594576224644,4.285984337347832 L40.89713937264629,4.208543127555243 L40.946101908025,4.129473684197065 L40.99279419855731,4.048839262500055 L41.03717889060445,3.966704369667152 L41.079220476596866,3.8831347132719816 L41.11888532344011,3.7981971486930677 L41.15614169942123,3.7119596256298095 L41.190959799593934,3.624491133743001 L41.2233117696225,3.535861647463392 L41.25317172806508,3.446142070012426 L41.280515787078755,3.3554041766799676 L41.305322071529716,3.2637205574043646 L41.32757073649329,3.1711645587007906 L41.34724398312978,3.0778102249843506 L41.36432607292346,2.9837322393348433 L41.37880334027335,2.889005863750617 L41.39066420342561,2.7937068789392745 L41.399899173738895,2.6979115236934303 L41.40650086327527,2.601696433899984 L41.41046399071048,2.5051385812317335 L41.41178538555902,2.408315211570363 " />
			<path d="M35.74863524736291,3.0610295321542718 L35.74863524736291,0.09877333041634095 " />
			<path d="M38.58021031646096,-1.1849277740396364 L38.58021031646096,5.2351411972233475 " />
			<path d="M-51.21611406231102,25.792567449233047 L-51.21611406231102,-34.9125021448411 " />
			<path d="M-50.26045747649043,-34.27171671843767 L53.563961723771484,-26.883658101269653 " />
			<path d="M54.02409267249992,33.281372320271544 L-51.216114062311036,25.792567449233054 " />
			<path d="M-50.26045747649043,24.964681837070167 L-50.26045747649043,-34.27171671843767 " />
			<path d="M53.563961723771484,-26.883658101269653 L53.563961723771484,32.35274045423819 " />
			<path d="M53.563961723771484,32.35274045423819 L-50.26045747649043,24.964681837070167 " />
			<path d="M33.50697165099362,9.87455030495604 L33.50697165099362,-7.259945144984243 " />
			<path d="M-30.20346740371256,5.34096888078476 L33.50697165099362,9.874550304956042 " />
			<path d="M33.50697165099362,-7.259945144984244 L-30.20346740371256,-11.793526569155528 " />
			<path d="M-30.20346740371256,-11.793526569155526 L-30.20346740371256,5.340968880784757 " />
			<path d="M42.9455552146538,1.9789442724557187 L42.94434705656973,1.8767364914558788 L42.94072331006679,1.7744183335689883 L42.934686157954346,1.6720514314274373 L42.92623923678711,1.5696974470253318 L42.91538763467453,1.4674180345756125 L42.90213788821596,1.3652748033718662 L42.88649797856322,1.2633292806771879 L42.868477326613075,1.1616428746624599 L42.84808678733243,1.060276837416366 L42.82533864321967,0.9592922280494247 L42.800246596906234,0.8587498759142596 L42.772825762902556,0.758710343964276 L42.7430926584937,0.659233892272802 L42.71106519378998,0.5603804417346714 L42.67676266093855,0.4622095379721203 L42.640205722502536,0.36478031546672995 L42.60141639901471,0.2681514619390235 L42.56041805571311,0.17238118299717975 L42.51723538846671,0.07752716707615237 L42.47189440889956,-0.01635344931168725 L42.424422428722345,-0.10920411599344981 L42.37484804328083,-0.20096890319943728 L42.3232011143311,-0.2915925352531421 L42.26951275205195,-0.381020423867251 L42.21381529630528,-0.4691987010255865 L42.15614229715577,-0.5560742514311885 L42.09652849466158,-0.6415947445009773 L42.03500979794821,-0.7257086658877441 L41.97162326357825,-0.8083653485104687 L41.90640707322983,-0.8895150030742718 L41.83940051069741,-0.9691087480616245 L41.77064393822872,-1.0470986391767494 L41.70017877221206,-1.1234376982254677 L41.62804745822857,-1.1980799414131091 L41.554293445484625,-1.2709804070434316 L41.47896116063966,-1.342095182601864 L41.40209598104522,-1.4113814312067605 L41.32374420741131,-1.478797417412744 L41.243953035916604,-1.544302532350569 L41.16277052977924,-1.6078573181883895 L41.08024559030528,-1.6694234918996855 L40.996427927432485,-1.728963968323519 L40.911368029786814,-1.7864428825032546 L40.82511713427001,-1.841825611290266 L40.737727195196406,-1.895078794199625 L40.64925085299758,-1.9461703535052122 L40.55974140251374,-1.9950695135621386 L40.46925276089086,-2.0417468193448434 L40.377839435103084,-2.0861741541897 L40.28555648911969,-2.128324756731441 L40.192459510736676,-2.1681732370232085 L40.09860457809268,-2.2056955918305077 L40.004048225889676,-2.240869219089851 L39.908847411338535,-2.2736729315234054 L39.81305947985016,-2.3040869694014114 L39.71674213049273,-2.3320930124447043 L39.61995338123597,-2.357674190860169 L39.52275153400326,-2.380815095502469 L39.42519513955277,-2.401501787155942 L39.32734296220864,-2.4197218049310623 L39.22925394446358,-2.435464173770412 L39.13098717147409,-2.4487194110596464 L39.03260183546979,-2.4594795323394685 L38.93415720009823,-2.4677380561151665 L38.83571256472666,-2.473490007760823 L38.737327228722364,-2.476731922515847 L38.639060455732874,-2.4774618475720125 L38.54097143798781,-2.4756793432497606 L38.44311926064368,-2.47138548326304 L38.34556286619319,-2.4645828540725523 L38.24836101896048,-2.455275553327753 L38.15157226970372,-2.4434691873985894 L38.05525492034629,-2.429170867998428 L37.95946698885791,-2.412389207900227 L37.86426617430678,-2.393134315748523 L37.76970982210377,-2.371417789970362 L37.67585488945978,-2.3472527117888395 L37.582757911076754,-2.3206536373434608 L37.49047496509337,-2.2916365889220676 L37.39906163930559,-2.260219045309613 L37.30857299768272,-2.2264199312595916 L37.219063547198864,-2.1902596060944766 L37.13058720500004,-2.1517598514420255 L37.043197265926445,-2.110943858114843 L36.95694637040964,-2.0678362121411 L36.87188647276396,-2.0224628799548334 L36.788068809891165,-1.9748511927547336 L36.705543870417216,-1.9250298300408546 L36.62436136427984,-1.8730288023391548 L36.544570192785145,-1.8188794331242764 L36.46621841915123,-1.7626143399514604 L36.38935323955679,-1.7042674148089465 L36.31402095471182,-1.6438738037027076 L36.24026694196788,-1.5814698854858142 L36.168135627984384,-1.5170932499451655 L36.097670461967724,-1.450782675158813 L36.028913889499044,-1.3825781041374974 L35.961907326966625,-1.3125206207644688 L35.896691136618195,-1.2406524250480917 L35.83330460224823,-1.1670168077021406 L35.77178590553488,-1.0916581240690917 L35.71217210304068,-1.0146217674021254 L35.65449910389117,-0.9359541415219215 L35.5988016481445,-0.8557026328647375 L35.545113285865355,-0.7739155819385921 L35.49346635691562,-0.6906422542047475 L35.44389197147411,-0.6059328104020416 L35.396419991296895,-0.5198382763319298 L35.351079011729745,-0.43241051212245374 L35.307896344483346,-0.34370218098964056 L35.266898001181744,-0.25376671751514435 L35.22810867769392,-0.1626582954592577 L35.1915517392579,-0.07043179512866571 L35.15724920640647,0.022857229681402247 L35.12522174170275,0.11715258515070293 L35.0954886372939,0.212397471283033 L35.06806780329022,0.3085345161204218 L35.04297575697677,0.4055058103018536 L35.020227612864026,0.5032529419457059 L34.99983707358338,0.6017170318348757 L34.981816421633226,0.7008387688834252 L34.96617651198049,0.8005584458633555 L34.95292676552192,0.9008159953700106 L34.94207516340934,1.0015510260044411 L34.93362824224211,1.1027028587509176 L34.92759109012967,1.2042105635277045 L34.92396734362672,1.306012995889063 L34.92275918554265,1.4080488338563744 L34.92396734362672,1.5102566148562147 L34.92759109012967,1.6125747727431041 L34.93362824224211,1.7149416748846544 L34.94207516340934,1.8172956592867597 L34.95292676552192,1.9195750717364788 L34.96617651198049,2.0217183029402253 L34.98181642163323,2.1236638256349076 L34.99983707358338,2.2253502316496343 L35.020227612864026,2.3267162688957272 L35.04297575697678,2.427700878262672 L35.06806780329022,2.5282432303978375 L35.0954886372939,2.628282762347821 L35.12522174170275,2.7277592140392946 L35.157249206406476,2.8266126645774245 L35.19155173925791,2.9247835683399748 L35.22810867769392,3.022212790845365 L35.26689800118175,3.118841644373071 L35.30789634448335,3.2146119233149144 L35.351079011729745,3.309465939235941 L35.396419991296895,3.4033465556237807 L35.44389197147411,3.4961972223055433 L35.493466356915626,3.5879620095115294 L35.545113285865355,3.678585641565234 L35.5988016481445,3.768013530179342 L35.654499103891176,3.856191807337678 L35.712172103040686,3.943067357743279 L35.77178590553488,4.028587850813067 L35.83330460224824,4.112701772199834 L35.896691136618195,4.195358454822559 L35.961907326966625,4.276508109386361 L36.028913889499044,4.356101854373717 L36.09767046196773,4.434091745488842 L36.168135627984384,4.51043080453756 L36.24026694196788,4.585073047725204 L36.31402095471183,4.657973513355526 L36.38935323955679,4.729088288913958 L36.46621841915123,4.798374537518855 L36.544570192785145,4.865790523724838 L36.62436136427985,4.931295638662661 L36.705543870417216,4.994850424500482 L36.78806880989117,5.0564165982117775 L36.87188647276397,5.1159570746356104 L36.95694637040964,5.173435988815346 L37.043197265926445,5.2288187176023575 L37.13058720500005,5.282071900511717 L37.21906354719887,5.333163459817304 L37.30857299768272,5.3820626198742305 L37.39906163930559,5.428739925656934 L37.49047496509337,5.47316726050179 L37.582757911076754,5.515317863043531 L37.67585488945977,5.555166343335299 L37.76970982210377,5.592688698142598 L37.86426617430678,5.627862325401942 L37.95946698885792,5.6606660378354965 L38.05525492034629,5.691080075713503 L38.15157226970372,5.719086118756796 L38.24836101896048,5.74466729717226 L38.34556286619319,5.767808201814561 L38.443119260643684,5.788494893468036 L38.540971437987814,5.806714911243154 L38.639060455732874,5.822457280082503 L38.737327228722364,5.8357125173717375 L38.83571256472666,5.84647263865156 L38.93415720009823,5.854731162427258 L39.03260183546979,5.860483114072915 L39.13098717147409,5.863725028827939 L39.22925394446358,5.864454953884105 L39.32734296220864,5.8626724495618525 L39.42519513955277,5.858378589575133 L39.52275153400326,5.851575960384644 L39.61995338123597,5.842268659639845 L39.71674213049273,5.8304622937106805 L39.81305947985016,5.81616397431052 L39.90884741133854,5.799382314212318 L40.00404822588968,5.780127422060615 L40.09860457809269,5.758410896282454 L40.19245951073668,5.73424581810093 L40.2855564891197,5.707646743655551 L40.377839435103084,5.678629695234159 L40.46925276089086,5.647212151621705 L40.55974140251374,5.613413037571684 L40.64925085299758,5.577252712406569 L40.737727195196406,5.5387529577541175 L40.82511713427001,5.497936964426936 L40.911368029786814,5.454829318453193 L40.99642792743249,5.409455986266925 L41.08024559030529,5.361844299066826 L41.16277052977924,5.312022936352947 L41.243953035916604,5.260021908651247 L41.32374420741131,5.205872539436369 L41.40209598104522,5.149607446263554 L41.47896116063966,5.09126052112104 L41.554293445484625,5.030866910014803 L41.62804745822857,4.968462991797908 L41.70017877221207,4.904086356257258 L41.77064393822873,4.837775781470905 L41.83940051069741,4.76957121044959 L41.90640707322983,4.699513727076559 L41.97162326357826,4.627645531360182 L42.03500979794822,4.554009914014231 L42.09652849466158,4.478651230381184 L42.156142297155775,4.401614873714218 L42.213815296305285,4.322947247834014 L42.26951275205195,4.242695739176829 L42.3232011143311,4.160908688250684 L42.374848043280835,4.07763536051684 L42.424422428722345,3.9929259167141335 L42.47189440889956,3.906831382644022 L42.51723538846671,3.8194036184345466 L42.56041805571311,3.7306952873017334 L42.60141639901471,3.6407598238272367 L42.640205722502536,3.5496514017713516 L42.67676266093855,3.4574249014407616 L42.71106519378998,3.364135876630694 L42.7430926584937,3.2698405211613935 L42.772825762902556,3.174595635029063 L42.800246596906234,3.0784585901916737 L42.82533864321967,2.9814872960102416 L42.84808678733243,2.8837401643663867 L42.868477326613075,2.785276074477217 L42.88649797856322,2.686154337428669 L42.90213788821596,2.5864346604487367 L42.91538763467453,2.486177110942082 L42.92623923678711,2.3854420803076515 L42.934686157954346,2.284290247561175 L42.94072331006679,2.1827825427843877 L42.94434705656973,2.0809801104230297 L42.9455552146538,1.978944272455755 " />
			<path d="M32.55131506517303,9.2162039356968 L32.55131506517303,-6.432059532821363 " />
			<path d="M32.55131506517303,-6.432059532821363 L-29.701230222258644,-10.861898458906023 " />
			<path d="M41.9898986288332,2.0724943653354435 L41.98806588079691,1.958228640061599 L41.98256967026518,1.8438288679106467 L41.97341609571302,1.7294219843681022 L41.960615313746594,1.615134932810124 L41.94418152783364,1.5010945236499196 L41.924132972543646,1.3874272936316847 L41.90049189331514,1.2742593654282026 L41.87328452177265,1.1617163076978811 L41.842541046620696,1.0499229957565128 L41.808295580146996,0.9390034730183603 L41.77058612037228,0.8290808133602936 L41.7294545088885,0.7202769845617087 L41.68494638443231,0.6127127129717462 L41.637111132245295,0.5065073495539725 L41.586001829277244,0.40177873745716486 L41.53167518529308,0.2986430812591261 L41.47419147994897,0.19721481802862928 L41.413614495907325,0.09760649034854807 L41.350011448064954,-7.137855893413203e-05 L41.28345290897289,-0.09571040746647275 L41.21401273053063,-0.1892044773990018 L41.14176796204165,-0.2804498493810299 L41.066798764721256,-0.3693452795431358 L40.98918832275138,-0.45579213145995423 L40.90902275098127,-0.539694485594997 L40.82639099937632,-0.6209592457308712 L40.74138475432114,-0.6994962422668078 L40.65409833688634,-0.7752183322688766 L40.564628598171964,-0.8480414961618838 L40.47307481184358,-0.917884930955652 L40.37953856398042,-0.984671139902253 L40.28412364035769,-1.0483260184847034 L40.18693591128813,-1.1087789366417167 L40.088083214150636,-1.165962817137276 L39.98767523373627,-1.2198142099880651 L39.8858233805444,-1.2702733628661864 L39.78264066716407,-1.3172842873990338 L39.678241582877654,-1.3607948212927687 L39.57274196662612,-1.4007566862104608 L39.4662588784766,-1.4371255413406714 L39.358910469735186,-1.4698610325970551 L39.250815851848735,-1.498926837394365 L39.142094964241466,-1.5242907049512002 L39.03286844123279,-1.545924492074772 L38.9232574781841,-1.56380419438797 L38.81338369702305,-1.5779099729640955 L38.70336901129453,-1.5882261763397025 L38.59333549088804,-1.594741357881118 L38.483405226591636,-1.5974482884853756 L38.373700194622664,-1.5963439646014712 L38.264342121285594,-1.5914296115630373 L38.155452347907186,-1.5827106822287398 L38.0471516961988,-1.5701968509319038 L37.939560334195285,-1.5539020027460881 L37.83279764291914,-1.533844218078508 L37.72698208391794,-1.5100457526084115 L37.62223106782201,-1.4825330125926652 L37.518660824068135,-1.4513365255659498 L37.41638627193395,-1.4164909064680717 L37.315520893025976,-1.378034819235988 L37.216176605362946,-1.3360109339031427 L37.11846363919403,-1.290465879253734 L37.02249041468972,-1.2414501910844327 L36.92836342164122,-1.1890182561309763 " />
			<path d="M40.444425341463074,4.8638578020729835 L40.53177978725164,4.811099889730124 L40.61729736440652,4.755382021317269 L40.70089295002893,4.6967596575552575 L40.782483334341315,4.6352911502555285 L40.86198730351304,4.5710376842376155 L40.93932572049948,4.504063216426705 L41.01442160381378,4.434434412191887 L41.08720020415309,4.362220578988449 L41.15758907880286,4.287493597370297 L41.22551816374524,4.210327849441137 L41.29091984339974,4.130800144815661 L41.35372901792673,4.048989644164412 L41.41388316802688,3.9649777804184714 L41.47132241717185,3.8788481777123387 L41.52598959120454,3.790686568145744 L41.57783027524937,3.700580706447215 L41.626792867875984,3.6086202826243543 L41.672828632462576,3.514896832687764 L41.71589174570755,3.419503647537489 L41.75593934324136,3.322535680102673 L41.79293156229304,3.2240894508268525 L41.82683158136902,3.1242629515929696 L41.85760565690465,3.0231555481837447 L41.88522315685207,2.9208678813744733 L41.90965659117086,2.817501766756739 L41.930881639191206,2.7131600933927054 L41.94887717382235,2.6079467214009133 L41.96362528258217,2.5019663785754904 L41.97511128542696,2.395324556141698 L41.98332374936376,2.28812740375156 L41.988254499830575,2.180481623824114 L41.9898986288332,2.0724943653354497 " />
			<path d="M-51.14634605258022,-34.92509845462249 L54.060794184514236,-27.43864656783641 " />
			<path d="M54.06619890522541,-27.432843628051973 L54.06619890522541,33.18977242064575 " />
			<path d="M-29.70123022225864,4.786365009612141 L32.62108307490063,9.221168568770995 " />
			<path d="M-29.70123022225864,-10.956494602743263 L-29.70123022225864,4.791783354001879 " />
			<path d="M36.9283634216412,-1.1890182561309692 L36.821674688399554,-1.1238986192795561 L36.717854868820936,-1.0541840287823767 L36.61705529963226,-0.9799663891324916 L36.51942403396386,-0.9013439954439214 L36.425105841349406,-0.818421533451647 L36.33424220772597,-0.7313100795116089 L36.246971335434004,-0.6401271006007075 L36.16342814321732,-0.5449964543168035 L36.083744266223114,-0.44604838887871745 L36.00804805600198,-0.3434195431262297 L35.93646458050787,-0.23725294652008055 L35.86911562409811,-0.12769801914197032 L35.806119687533425,-0.014910571694559449 L35.747591987977906,0.10094719449853118 L35.69364445899902,0.21970668749272204 L35.644385750567615,0.34119292472247287 L35.598437188746004,0.4695731944751784 L35.55769479277088,0.6004777780966513 L35.52225551365688,0.7336780448865994 L35.49220534237047,0.8689420646497518 L35.467619309829956,1.0060346076958604 L35.44856148690546,1.1447171448397 L35.43508498441894,1.2847478474010678 L35.42723195314417,1.4258815872047834 L35.425033583806766,1.567869936580688 L35.428510107084165,1.7104611683636461 L35.43767079360562,1.8534002558935438 L35.452513953952234,1.996428873015291 L35.47302693865692,2.1392853940788195 L35.49918613820443,2.281704893939083 L35.53095698303134,2.423419147956058 L35.56829394352605,2.564156631994744 L35.60866343257582,2.6961561638978684 L35.65390149986293,2.8268602263661835 L35.70393556905738,2.9560463002771455 L35.75868539889703,3.0834969655235716 L35.81806308318772,3.2089999010136396 L35.881973050803175,3.332347884670892 L35.95031206568507,3.45333879343423 L36.02296922684297,3.571775603257918 L36.0998259683544,3.687466389111583 L36.18075605936478,3.8002243249802143 L36.26562560408747,3.9098676838641606 L36.35429304180374,4.016219837779135 L36.44660914686279,4.119109257756213 L36.54241702868174,4.218369513841828 L36.64155213174563,4.31383927509778 L36.74384223560743,4.4053623096012275 L36.840064329159674,4.485531123428121 L36.93866304177922,4.562183237472446 L37.039493944918036,4.63521971306339 L37.14241159052372,4.7045479413739795 L37.24726951103959,4.770081643421087 L37.353920219404586,4.831740870065428 L37.46221520905333,4.889452002011556 L37.57200495391612,4.943147749807867 L37.6831389084189,4.992767153846604 L37.79546550748329,5.0382555843638475 L37.90883216652659,5.079564741439523 L38.02308528146173,5.116652654997395 L38.13807022869735,5.149483684805074 L38.25363136513772,5.17802852047401 L38.3696120281828,5.202264181459497 L38.4858545357282,5.222174017060668 L38.615368768143476,5.23924076349727 L38.744827427942525,5.250918809582638 L38.874026879341336,5.257216130281906 L39.00276735899551,5.258146631276526 L39.13085297600026,5.25373014896427 L39.25809171189039,5.243992450459228 L39.38429542064031,5.228965233591807 L39.50927982866405,5.2086861269087334 L39.632864534815226,5.183198689673054 L39.75487301038707,5.15255241186413 L39.87513259911241,5.116802714177646 L39.99347451716369,5.076010948025601 L40.10973385315295,5.030244395536315 L40.22374956813183,4.979576269554427 L40.335364495591584,4.92408571364089 L40.44442534146305,4.863857802072992 " />

       </g>
    </g>
    <g transform="translate(20,210.0)" stroke="rgb(0,0,255)">
        <line x1="30" y1="-30" x2="75" y2="-33" stroke-width="3" stroke="#000000" />
         <text x="80" y="-30" style="stroke:#000000">X </text>

        <line x1="30" y1="-30" x2="30" y2="-75" stroke-width="3" stroke="#000000" />
         <text x="25" y="-85" style="stroke:#000000">Y </text>

        <line x1="30" y1="-30" x2="58" y2="-15" stroke-width="3" stroke="#000000" />
         <text x="65" y="-5" style="stroke:#000000">Z </text>
        <!--
            <line x1="0" y1="0" x2="2.626097253560138" y2="0" stroke-width="3" />
            <text x="0" y="20" style="stroke:#000000">1  mm </text>
        -->
    </g>
</svg>
