<?xml version="1.0" encoding="UTF-8" standalone="no"?>
<svg
   xmlns:svg="http://www.w3.org/2000/svg"
   xmlns="http://www.w3.org/2000/svg"
   width="800.0"
   height="240.0"

>
    <g transform="scale(2.688957765633247, -2.688957765633247)   translate(126.99836343386666,-40.90804303655365)" stroke-width="0.3718913003323059"  fill="none">
       <!-- hidden lines -->
       <g  stroke="rgb(160,160,160)" fill="none" stroke-dasharray="0.3718913003323059,0.3718913003323059" >
			<path d="M-52.62010336740548,-31.551240765708044 L49.31659912012442,-24.29751048703399 " />
			<path d="M49.31659912012441,-24.297510487033993 L52.62010336740547,-26.21648675123348 " />
			<path d="M-42.941160239604436,-32.26259876781275 L-42.83180667594071,-32.254176058925 L-42.72601258601773,-32.244047019657785 L-42.624420936563006,-32.23227320954846 L-42.527649153847136,-32.21892618427809 L-42.43628537125728,-32.204087060789654 L-42.35088485489901,-32.18784602429742 L-42.271966628950054,-32.170301780183635 L-42.200010321275414,-32.15156095411361 L-42.13545324847474,-32.13173744401509 L-42.07868775807772,-32.110951727860176 L-42.030058844040276,-32.08933013145692 L-41.98986205003355,-32.06700406070041 L-41.95834167326846,-32.04410920294959 L-41.9356892797721,-32.020784702383274 L-41.92204254013957,-31.997172314347235 L-41.9186243628397,-31.985302963290646 L-41.917484392836805,-31.973415543831937 " />
			<path d="M-41.917484392836805,-31.973415543831933 L-41.92018639989193,-31.95511891918831 L-41.928282686601136,-31.936888211356514 L-41.941744084666006,-31.918789099671457 L-41.96052209702982,-31.90088678936976 L-41.984549072596735,-31.8832457766764 L-42.01373844995675,-31.86592961644573 L-42.04798506923844,-31.849000693193886 L-42.08716555096594,-31.832519996347628 L-42.13113874055517,-31.816546900519153 L-42.17974621684812,-31.80113895159862 L-42.290147496633836,-31.772238297851818 L-42.41677986305498,-31.74623413877274 L-42.55782009812128,-31.723500875093155 L-42.71123754331165,-31.704365814092313 L-42.87482333643708,-31.689104457116727 L-43.04622221423114,-31.677936532987548 L-43.222966422782754,-31.671022834405424 L-43.40251124757848,-31.668462902901403 L-43.58227165160231,-31.670293595665353 L-43.759659493987776,-31.67648855488626 L-43.93212079335849,-31.686958587244753 " />
			<path d="M-43.93212079335846,-31.68695858724477 L-44.04147435702273,-31.69538129613246 L-44.147268446946256,-31.705510335399627 L-44.24886009640153,-31.717284145508913 L-44.345631879117946,-31.730631170779265 L-44.43699566170834,-31.745470294267694 L-44.52239617806711,-31.761711330759933 L-44.601314404016556,-31.779255574873737 L-44.67327071169165,-31.79799640094379 L-44.73782778449273,-31.81781991104236 L-44.79459327489012,-31.83860562719732 L-44.84322218892788,-31.86022722360064 L-44.88341898293487,-31.88255329435721 L-44.91493935970018,-31.9054481521081 L-44.937591753196685,-31.9287726526745 L-44.951238492829305,-31.952385040710617 L-44.954656670129204,-31.964254391767245 L-44.95579664013211,-31.976141811225997 " />
			<path d="M-44.95579664013211,-31.976141811225997 L-44.95309463307697,-31.99443843586966 L-44.94499834636773,-32.012669143701494 L-44.9315369483028,-32.03076825538659 L-44.912758935938896,-32.048670565688326 L-44.888731960371885,-32.06631157838172 L-44.859542583011745,-32.08362773861243 L-44.8252959637299,-32.1005566618643 L-44.78611548200224,-32.11703735871059 L-44.74214229241282,-32.13301045453909 L-44.693534816119666,-32.148418403459644 L-44.583133536333506,-32.177319057206475 L-44.45650116991187,-32.20332321628557 L-44.31546093484503,-32.226056479965145 L-44.16204348965412,-32.24519154096596 L-43.998457696528135,-32.2604528979415 L-43.82705881873355,-32.2716208220706 L-43.65031461018144,-32.278534520652634 L-43.47076978538527,-32.28109445215654 L-43.291009381361086,-32.27926375939246 L-43.113621538975345,-32.273068800171394 L-42.94116023960447,-32.26259876781273 " />
			<path d="M44.05251238788169,-26.07055667778158 L44.17296656955865,-26.0636056399588 L44.29014964952229,-26.054636322294638 L44.4032450908547,-26.043711223393867 L44.511464839485946,-26.030906469831987 L44.61405481538988,-26.016311285701853 L44.71030016704734,-26.00002737089623 L44.79953025256338,-25.9821681924584 L44.8811233127298,-25.962858193938764 L44.95451080347104,-25.942231928266647 L45.019181357484584,-25.92043312017948 L45.07468434747108,-25.897613664742448 L45.12063302612545,-25.8739325689369 L45.1567072210093,-25.849554843692637 L45.182655565526744,-25.824650354084397 L45.19177324701515,-25.81205469206294 L45.198297250458026,-25.79939263570446 L45.202216206015024,-25.78668625206651 L45.20352328384622,-25.773957685458914 " />
			<path d="M45.20352328384622,-25.77395768545891 L45.20056715615176,-25.754820814733588 L45.191710424656314,-25.73575937205298 L45.17698799819889,-25.71684848816189 L45.15645790527625,-25.69816270037712 L45.13020106532342,-25.679775658798352 L45.09832096976939,-25.661759836016024 L45.060943274125336,-25.64418624146036 L45.01821530271291,-25.627124141517438 L44.97030546798494,-25.61064078651547 L44.91740260672714,-25.594801145657428 L44.79747073005506,-25.565299951100922 L44.66030865719201,-25.539085215790887 L44.50807675647524,-25.51656983436322 L44.34317275324791,-25.49810843485847 L44.16819396453666,-25.483991793160364 L43.98589639006452,-25.474442253136388 L43.79915130393533,-25.469610224615387 L43.61090003069159,-25.469571814360716 L43.424107618044154,-25.474327627352288 L43.24171613595081,-25.48380275725783 L43.06659833760545,-25.4978479662435 " />
			<path d="M43.06659833760546,-25.497847966243523 L42.94614415592841,-25.504799004066285 L42.82896107596468,-25.513768321730435 L42.71586563463217,-25.5246934206312 L42.60764588600084,-25.53749817419307 L42.50505591009681,-25.552093358323205 L42.40881055843926,-25.568377273128828 L42.319580472923136,-25.58623645156666 L42.23798741275663,-25.605546450086297 L42.16459992201532,-25.626172715758422 L42.09992936800171,-25.647971523845595 L42.04442637801515,-25.67079097928264 L41.99847769936074,-25.694472075088196 L41.96240350447685,-25.71884980033247 L41.93645515995938,-25.743754289940725 L41.92733747847096,-25.75634995196219 L41.92081347502807,-25.769012008320676 L41.91689451947107,-25.781718391958634 L41.91558744163987,-25.79444695856624 " />
			<path d="M41.91558744163987,-25.79444695856624 L41.91854356933433,-25.81358382929157 L41.92740030082979,-25.832645271972186 L41.94212272728723,-25.851556155863282 L41.962652820209875,-25.870241943648058 L41.98890966016273,-25.88862898522683 L42.02078975571678,-25.906644808009162 L42.05816745136086,-25.924218402564833 L42.10089542277331,-25.941280502507762 L42.148805257501316,-25.95776385750973 L42.20170811875916,-25.97360349836778 L42.32163999543131,-26.00310469292429 L42.458802068294446,-26.029319428234324 L42.61103396901131,-26.051834809661987 L42.77593797223874,-26.070296209166735 L42.95091676095008,-26.08441285086483 L43.133214335422316,-26.09396239088879 L43.31995942155157,-26.098794419409774 L43.50821069479539,-26.098832829664424 L43.69500310744288,-26.094077016672827 L43.87739458953626,-26.084601886767256 L44.05251238788163,-26.070556677781557 " />
			<path d="M49.31659912012441,-24.297510487033993 L49.31659912012441,33.47021702990753 " />
			<path d="M29.495573636438046,11.008817922937137 L29.495573636438046,9.393279780514192 " />
			<path d="M-32.79907788371911,6.575982752636324 L29.495573636438053,11.008817922937133 " />
			<path d="M-32.79907788371911,-9.089841658737647 L-32.79907788371911,6.575982752636325 " />
			<path d="M-30.321449698258313,-8.913535714464322 L-32.7990778837191,-9.08984165873765 " />
			<path d="M-43.93212079336146,25.502402481734507 L-43.93212079336146,-31.686958587244987 " />
			<path d="M-42.94116023960744,25.50512874912856 L-42.94116023960744,-32.26259876781296 " />
			<path d="M43.066598337604944,31.676681566052594 L43.066598337604944,-25.497847966243555 " />
			<path d="M44.05251238788115,31.697170839159924 L44.05251238788115,-26.070556677781596 " />
			<path d="M49.43458141467016,28.876776630222295 L49.43458141467016,29.41528934436328 " />
			<path d="M49.43458141467016,29.41528934436328 L50.26045747649043,28.93554527831341 " />
			<path d="M49.43458141467016,29.41528934436328 L-47.78282929102963,22.49737991192414 " />
			<path d="M-47.78282929102963,22.497379911924135 L-46.95695322920936,22.017635845874263 " />
			<path d="M-47.78282929102963,22.497379911924135 L-47.78282929102963,-30.374777476463024 " />
			<path d="M-47.78282929102963,-30.374777476463024 L-46.95695322920936,-30.854521542512895 " />
			<path d="M-47.78282929102963,-30.374777476463024 L-46.95695322920936,-30.316008828371913 " />
			<path d="M29.495573636438042,11.008817922937137 L31.973201821898844,9.569585724787522 " />
			<path d="M-32.799077883719114,6.575982752636325 L-30.321449698258313,5.13675055448671 " />
			<path d="M-32.799077883719114,-9.08984165873765 L-30.321449698258313,-10.529073856887264 " />
			<path d="M-41.9174843928368,25.794311973109586 L-41.9174843928368,-31.973415543831933 " />
			<path d="M-44.955796640132114,-31.976141811225986 L-44.955796640132114,25.791585705715534 " />
			<path d="M45.20352328384622,31.99376983148261 L45.20352328384622,-25.77395768545891 " />
			<path d="M41.91558744163987,-25.794446958566226 L41.91558744163987,31.973280558375293 " />

       </g>

       <!-- solid lines -->
       <g  stroke="rgb(0,0,0)" fill="none">
			<path d="M-52.62010336740548,-31.551240765708044 L-49.316599120124415,-33.47021702990753 " />
			<path d="M-49.31659912012441,-33.47021702990753 L-49.31659912012441,24.297510487033996 " />
			<path d="M-52.62010336740548,26.21648675123348 L-49.316599120124415,24.297510487033993 " />
			<path d="M-52.62010336740548,-31.551240765708044 L-52.62010336740548,26.216486751233482 " />
			<path d="M-49.31659912012441,-33.47021702990753 L52.62010336740549,-26.216486751233475 " />
			<path d="M-49.31659912012441,24.297510487033993 L52.62010336740549,31.551240765708044 " />
			<path d="M52.62010336740548,-26.21648675123348 L52.62010336740548,31.551240765708048 " />
			<path d="M50.26045747649043,28.93554527831341 L50.26045747649043,-23.93661211007375 " />
			<path d="M-46.95695322920937,22.017635845874263 L50.26045747649043,28.93554527831341 " />
			<path d="M-46.95695322920936,-30.854521542512895 L-46.95695322920936,22.017635845874267 " />
			<path d="M50.26045747649043,-23.936612110073753 L-46.95695322920937,-30.854521542512895 " />
			<path d="M-52.62010336740548,26.21648675123348 L49.31659912012442,33.47021702990753 " />
			<path d="M49.31659912012441,33.47021702990753 L52.62010336740547,31.551240765708044 " />
			<path d="M-42.94116023960446,25.505128749128794 L-43.113621538975345,25.49465871677013 L-43.291009381361086,25.488463757549074 L-43.47076978538527,25.48663306478499 L-43.65031461018144,25.489192996288892 L-43.82705881873355,25.496106694870925 L-43.99845769652813,25.507274619000032 L-44.16204348965412,25.52253597597557 L-44.31546093484503,25.541671036976382 L-44.45650116991187,25.56440430065596 L-44.583133536333506,25.590408459735052 L-44.693534816119666,25.619309113481886 L-44.74214229241282,25.634717062402437 L-44.78611548200224,25.650690158230937 L-44.8252959637299,25.667170855077227 L-44.859542583011745,25.6840997783291 L-44.888731960371885,25.701415938559805 L-44.912758935938896,25.7190569512532 L-44.9315369483028,25.736959261554937 L-44.94499834636773,25.755058373240033 L-44.95309463307697,25.773289081071866 L-44.95579664013211,25.791585705715526 " />
			<path d="M-44.95579664013211,25.79158570571553 L-44.954656670129204,25.803473125174282 L-44.951238492829305,25.81534247623091 L-44.937591753196685,25.838954864267027 L-44.91493935970018,25.862279364833427 L-44.88341898293487,25.885174222584318 L-44.84322218892788,25.907500293340888 L-44.79459327489012,25.929121889744206 L-44.73782778449273,25.949907605899167 L-44.67327071169165,25.969731115997735 L-44.601314404016556,25.98847194206779 L-44.52239617806711,26.006016186181593 L-44.43699566170833,26.022257222673833 L-44.345631879117946,26.03709634616226 L-44.24886009640153,26.050443371432614 L-44.147268446946256,26.0622171815419 L-44.04147435702273,26.072346220809067 L-43.932120793358465,26.080768929696756 " />
			<path d="M-43.93212079335849,26.080768929696774 L-43.759659493987776,26.091238962055268 L-43.58227165160231,26.097433921276174 L-43.40251124757848,26.099264614040123 L-43.222966422782754,26.096704682536103 L-43.04622221423114,26.08979098395398 L-42.87482333643709,26.0786230598248 L-42.71123754331165,26.063361702849214 L-42.55782009812128,26.044226641848372 L-42.41677986305498,26.02149337816879 L-42.29014749663384,25.99548921908971 L-42.17974621684812,25.966588565342906 L-42.13113874055517,25.951180616422377 L-42.08716555096594,25.9352075205939 L-42.04798506923844,25.91872682374764 L-42.01373844995675,25.901797900495797 L-41.984549072596735,25.884481740265127 L-41.96052209702982,25.866840727571766 L-41.941744084666006,25.84893841727007 L-41.928282686601136,25.830839305585013 L-41.92018639989193,25.81260859775322 L-41.917484392836805,25.794311973109593 " />
			<path d="M-41.917484392836805,25.794311973109593 L-41.9186243628397,25.78242455365088 L-41.92204254013957,25.770555202594295 L-41.9356892797721,25.746942814558256 L-41.95834167326846,25.72361831399193 L-41.98986205003355,25.700723456241114 L-42.030058844040276,25.678397385484608 L-42.07868775807772,25.65677578908135 L-42.13545324847474,25.63599007292644 L-42.200010321275414,25.616166562827914 L-42.271966628950054,25.597425736757888 L-42.35088485489901,25.579881492644102 L-42.43628537125728,25.563640456151873 L-42.527649153847136,25.548801332663434 L-42.624420936563006,25.535454307393064 L-42.72601258601773,25.523680497283745 L-42.83180667594071,25.51355145801653 L-42.94116023960442,25.50512874912878 " />
			<path d="M44.05251238788164,31.69717083915997 L43.87739458953626,31.68312563017427 L43.69500310744288,31.6736505002687 L43.50821069479539,31.668894687277103 L43.31995942155157,31.668933097531752 L43.133214335422316,31.673765126052736 L42.95091676095008,31.683314666076697 L42.77593797223874,31.697431307774792 L42.61103396901131,31.71589270727954 L42.458802068294446,31.738408088707203 L42.32163999543131,31.764622824017238 L42.20170811875916,31.794124018573747 L42.148805257501316,31.809963659431794 L42.10089542277332,31.826447014433764 L42.05816745136086,31.843509114376694 L42.02078975571678,31.86108270893236 L41.98890966016273,31.879098531714696 L41.96265282020988,31.89748557329347 L41.94212272728723,31.916171361078245 L41.92740030082979,31.93508224496934 L41.91854356933433,31.954143687649957 L41.91558744163987,31.973280558375283 " />
			<path d="M41.91558744163987,31.973280558375286 L41.91689451947107,31.986009124982893 L41.92081347502807,31.99871550862085 L41.92733747847096,32.01137756497934 L41.93645515995938,32.0239732270008 L41.96240350447685,32.048877716609056 L41.99847769936074,32.07325544185333 L42.04442637801515,32.09693653765889 L42.09992936800171,32.11975599309593 L42.16459992201532,32.141554801183105 L42.23798741275663,32.162181066855226 L42.319580472923136,32.181491065374864 L42.40881055843926,32.1993502438127 L42.50505591009681,32.21563415861832 L42.60764588600084,32.23022934274845 L42.71586563463217,32.243034096310325 L42.82896107596468,32.25395919521109 L42.94614415592841,32.26292851287524 L43.06659833760546,32.26987955069801 " />
			<path d="M43.06659833760544,32.26987955069803 L43.24171613595081,32.2839247596837 L43.424107618044154,32.29339988958924 L43.61090003069159,32.29815570258081 L43.79915130393533,32.29811729232614 L43.98589639006452,32.29328526380514 L44.16819396453666,32.28373572378116 L44.34317275324791,32.26961908208306 L44.50807675647524,32.2511576825783 L44.66030865719201,32.228642301150636 L44.79747073005506,32.20242756584061 L44.91740260672714,32.1729263712841 L44.97030546798494,32.15708673042605 L45.01821530271291,32.14060337542409 L45.060943274125336,32.123541275481166 L45.09832096976939,32.1059676809255 L45.13020106532342,32.08795185814318 L45.15645790527625,32.06956481656441 L45.17698799819889,32.05087902877964 L45.191710424656314,32.03196814488855 L45.20056715615176,32.01290670220794 L45.20352328384622,31.993769831482616 " />
			<path d="M45.20352328384622,31.993769831482616 L45.202216206015024,31.981041264875017 L45.198297250458026,31.968334881237066 L45.19177324701515,31.955672824878587 L45.182655565526744,31.94307716285713 L45.1567072210093,31.91817267324889 L45.12063302612545,31.893794948004626 L45.07468434747108,31.87011385219908 L45.019181357484584,31.847294396762045 L44.95451080347104,31.82549558867488 L44.8811233127298,31.804869323002762 L44.79953025256338,31.785559324483128 L44.71030016704734,31.767700146045296 L44.61405481538988,31.751416231239673 L44.511464839485946,31.73682104710954 L44.4032450908547,31.72401629354766 L44.29014964952229,31.71309119464689 L44.17296656955865,31.704121876982725 L44.052512387881706,31.697170839159952 " />
			<path d="M29.495573636438046,9.393279780514192 L29.495573636438046,-4.657006488436837 " />
			<path d="M29.495573636438053,-4.6570064884368385 L-30.321449698258313,-8.913535714464322 " />
			<path d="M-43.93212079336146,26.080768929696532 L-43.93212079336146,25.502402481734507 " />
			<path d="M43.066598337604944,32.269879550697965 L43.066598337604944,31.676681566052594 " />
			<path d="M49.43458141467016,-23.456868044023878 L49.43458141467016,28.876776630222295 " />
			<path d="M49.43458141467016,-23.456868044023878 L50.26045747649043,-23.93661211007375 " />
			<path d="M-46.95695322920936,-30.316008828371913 L49.43458141467016,-23.45686804402388 " />
			<path d="M31.97320182189884,9.56958572478752 L31.97320182189884,-6.096238686586453 " />
			<path d="M29.495573636438042,-4.6570064884368385 L31.973201821898844,-6.096238686586453 " />
			<path d="M-30.321449698258313,5.13675055448671 L31.97320182189884,9.56958572478752 " />
			<path d="M-30.321449698258313,-10.529073856887262 L-30.321449698258313,5.136750554486711 " />
			<path d="M31.973201821898844,-6.096238686586453 L-30.321449698258313,-10.529073856887264 " />

       </g>
    </g>
    <g transform="translate(20,210.0)" stroke="rgb(0,0,255)">
        <line x1="30" y1="-30" x2="75" y2="-33" stroke-width="3" stroke="#000000" />
         <text x="80" y="-30" style="stroke:#000000">X </text>

        <line x1="30" y1="-30" x2="30" y2="-75" stroke-width="3" stroke="#000000" />
         <text x="25" y="-85" style="stroke:#000000">Y </text>

        <line x1="30" y1="-30" x2="58" y2="-15" stroke-width="3" stroke="#000000" />
         <text x="65" y="-5" style="stroke:#000000">Z </text>
        <!--
            <line x1="0" y1="0" x2="2.688957765633247" y2="0" stroke-width="3" />
            <text x="0" y="20" style="stroke:#000000">1  mm </text>
        -->
    </g>
</svg>
