<?xml version="1.0" encoding="UTF-8" standalone="no"?>
<svg
   xmlns:svg="http://www.w3.org/2000/svg"
   xmlns="http://www.w3.org/2000/svg"
   width="800.0"
   height="240.0"

>
    <g transform="scale(2.637046410735661, -2.637046410735661)   translate(127.63665434281195,-41.07170937714542)" stroke-width="0.37921213518613367"  fill="none">
       <!-- hidden lines -->
       <g  stroke="rgb(160,160,160)" fill="none" stroke-dasharray="0.37921213518613367,0.37921213518613367" >
			<path d="M-49.90651059285317,-34.442352960112224 L51.558262716493715,-27.22220476606166 " />
			<path d="M-49.906510592853174,-34.442352960112224 L-49.97270436712809,-34.4458589735654 L-50.038816725104276,-34.446952114684116 L-50.104766350622526,-34.44563103893856 L-50.170472127679545,-34.44189737121109 L-50.235853240198104,-34.43575570379775 L-50.30082927142835,-34.427213590759855 L-50.365320302857896,-34.4162815386327 L-50.42924701250914,-34.40297299350291 L-50.49253077250283,-34.3873043244701 L-50.555093745767984,-34.36929480351344 L-50.61685898177899,-34.34896658178769 L-50.67775051120247,-34.326344662377984 L-50.73769343933715,-34.301456869546776 L-50.796614038232065,-34.27433381451087 L-50.85443983736967,-34.24500885779058 L-50.91109971280227,-34.21351806817732 " />
			<path d="M51.55826271649371,-27.222204766061665 L51.65088858537647,-27.213254815447304 L51.74329131042802,-27.1996088831515 L51.83524828539019,-27.181299843420398 L51.92653797785583,-27.15837180433439 L52.01694046295974,-27.130880001547897 L52.10623795319698,-27.098890665221827 L52.194215323092045,-27.062480860469325 L52.28066062745495,-27.021738301699163 L52.36536561197576,-26.976761141304042 L52.44812621492749,-26.92765773320289 L52.528743058768654,-26.874546371806773 L52.607021930461244,-26.8175550070373 L52.68277424934693,-26.756820936084054 L52.75581752145438,-26.69249047264364 L52.825975779143285,-26.62471859443717 L52.89308000502571,-26.553668569855354 L52.95696853914387,-26.479511564630656 L53.01748746842311,-26.402426229484057 L53.074490997461965,-26.322598269739792 L53.127841799766045,-26.240219997945 L53.17741134857964,-26.155489870571913 L53.223080226517865,-26.06861200991885 L53.26473841325365,-25.97979571236174 L53.302285550566324,-25.889254944140774 L53.33563118411335,-25.797207825897036 L53.3646949813428,-25.703876107200752 L53.38940692502145,-25.609484632337153 L53.40970748191246,-25.5142607986369 L53.42554774619617,-25.418434008656003 L53.436889557288474,-25.32223511752496 L53.44370559177303,-25.225895876798536 L53.445979429225744,-25.129648376145965 " />
			<path d="M53.44597942922574,-25.129648376145955 L53.44597942922574,31.658965115084705 " />
			<path d="M53.445979429225744,31.6589651150847 L53.4422223552432,31.782183994179622 L53.43096608851087,31.904377694079013 L53.4122554351446,32.02505981683171 L53.38616487380796,32.143749981392716 L53.352798259246214,32.25997573580329 L53.31228840888755,32.37327443780883 L53.26479657415681,32.48319509642889 L53.21051179860641,32.58930016714857 L53.14965016541925,32.691167293585785 L53.08245393727919,32.78839098870125 L53.009190592032624,32.880584248859385 L52.930151757979964,32.96738009431499 L52.845652053035046,33.048433029993994 L52.756027832373235,33.12342042075332 L52.66163584955335,33.19204377564574 L52.56285183644282,33.25402993607757 " />
			<path d="M-49.245809743396954,-31.751730172219983 L50.8975618670375,-24.625611815115196 " />
			<path d="M50.89756186703749,-24.625611815115196 L50.89756186703749,30.79224204012024 " />
			<path d="M50.89756186703749,30.79224204012024 L-49.24580974339697,23.666123683015453 " />
			<path d="M-49.245809743396954,23.666123683015453 L-49.245809743396954,-31.751730172219983 " />
			<path d="M-51.72343792885775,-30.312497974070368 L-49.245809743396954,-31.751730172219983 " />
			<path d="M48.419933681576694,-23.18637961696558 L50.89756186703749,-24.625611815115196 " />
			<path d="M-51.72343792885775,-30.312497974070368 L48.41993368157671,-23.18637961696558 " />
			<path d="M-3.284627080153741,-27.33952399675932 L-3.681047589827468,-27.10924684505538 " />
			<path d="M-3.681047589827468,-27.109246845055377 L1.0382441920026195,-26.773425998820468 " />
			<path d="M1.0382441920026189,-26.773425998820468 L1.4346647016763463,-27.003703150524405 " />
			<path d="M-3.2846270801537405,-27.33952399675932 L1.4346647016763472,-27.00370315052441 " />
			<path d="M1.6989450414588312,-27.157221251660367 L-3.284627080153741,-27.33952399675932 " />
			<path d="M1.6989450414588312,-27.157221251660367 L-3.0203467403712563,-27.493042097895277 " />
			<path d="M-3.020346740371256,-27.493042097895277 L-3.284627080153741,-27.33952399675932 " />
			<path d="M48.419933681576694,32.231474238269854 L50.89756186703749,30.79224204012024 " />
			<path d="M48.419933681576694,-23.18637961696558 L48.419933681576694,32.231474238269854 " />
			<path d="M49.14670461597852,1.652587468251066 L48.7502841063048,1.882864619955004 " />
			<path d="M48.7502841063048,1.882864619955004 L48.7502841063048,6.778434748509371 " />
			<path d="M48.7502841063048,6.778434748509371 L49.14670461597852,6.548157596805432 " />
			<path d="M49.14670461597852,1.652587468251066 L49.14670461597852,6.548157596805432 " />
			<path d="M49.41098495576101,6.394639495669473 L49.14670461597852,1.6525874682510648 " />
			<path d="M49.41098495576101,6.394639495669473 L49.41098495576101,1.4990693671151067 " />
			<path d="M49.41098495576101,1.4990693671151072 L49.14670461597852,1.652587468251066 " />
			<path d="M-51.60557869869747,25.036892501594558 L-49.245809743396954,23.666123683015453 " />
			<path d="M48.419933681576694,32.231474238269854 L-51.56767448568311,25.116439877179207 " />
			<path d="M-3.020346740371256,27.92481175734016 L-3.284627080153741,28.078329858476117 " />
			<path d="M1.6989450414588312,28.26063260357507 L-3.0203467403712563,27.92481175734016 " />
			<path d="M1.6989450414588312,28.26063260357507 L-3.284627080153741,28.078329858476117 " />
			<path d="M-3.2846270801537405,28.078329858476117 L1.4346647016763472,28.414150704711027 " />
			<path d="M1.0382441920026189,28.644427856414968 L1.4346647016763463,28.41415070471103 " />
			<path d="M-3.681047589827468,28.308607010180058 L1.0382441920026195,28.644427856414968 " />
			<path d="M-3.284627080153741,28.078329858476117 L-3.681047589827468,28.308607010180054 " />
			<path d="M-51.72343792885775,24.70642895270045 L-51.72343792885775,-30.312497974070368 " />
			<path d="M-50.732386654673434,-5.62704898998968 L-50.99666699445592,-5.4735308888537215 " />
			<path d="M-50.732386654673434,-0.7314788614353134 L-50.732386654673434,-5.62704898998968 " />
			<path d="M-50.732386654673434,-0.7314788614353134 L-50.99666699445592,-5.4735308888537215 " />
			<path d="M-50.99666699445592,-5.473530888853721 L-50.99666699445592,-0.5779607602993542 " />
			<path d="M-51.393087504129646,-0.34768360859541647 L-50.99666699445592,-0.5779607602993546 " />
			<path d="M-51.393087504129646,-5.243253737149782 L-51.393087504129646,-0.3476836085954158 " />
			<path d="M-50.99666699445592,-5.4735308888537215 L-51.393087504129646,-5.243253737149783 " />
			<path d="M32.58548409825292,9.247433949718527 L32.57826137848086,9.24702792200199 L32.57122359304595,9.246850898167208 L32.564372425741915,9.246902920567232 L32.55770951571402,9.247183976755673 L32.5512364570669,9.247693999489695 L32.54495479848309,9.2484328667461 L32.538866042852625,9.24940040175052 L32.532971646913374,9.250596373019716 L32.52727302090257,9.252020494416952 L32.52177152821936,9.253672425220461 L32.51646848509869,9.25555177020496 L32.51136516029631,9.257658079736201 L32.50646277478528,9.259990849878564 L32.50176250146381,9.262549522515602 " />
			<path d="M-29.742361539422756,4.818738763530152 L-29.742394669089567,4.817841644508031 L-29.74249405565094,4.817005824762031 L-29.742659691789896,4.816231365826437 L-29.74289156531205,4.815518324718064 L-29.743189659146537,4.814866753932055 L-29.743553951347238,4.8142767014380174 L-29.743984415094427,4.813748210676493 L-29.744481018696728,4.813281320555747 L-29.745043725593444,4.812876065448929 L-29.745672494357258,4.812532475191516 L-29.746367278697285,4.812250575079135 L-29.747128027462473,4.8120303858656905 L-29.74795468464536,4.811871923761835 L-29.74884718938624,4.811775200433788 " />
			<path d="M-29.74884718938624,4.811775200433788 L-29.75062225517923,4.81175682320673 L-29.752610670049226,4.81193910834763 L-29.754811958266963,4.812322012244674 L-29.757225593173118,4.812905443287909 L-29.759850997304294,4.813689261891161 L-29.762687542531243,4.814673280525435 L-29.765734550209064,4.8158572637637675 L-29.76899129133962,4.81724092833757 L-29.772456986745944,4.8188239432043884 L-29.77613080725865,4.820605929627111 L-29.780011873914308,4.8225864612645815 L-29.784099258165753,4.824765064273598 L-29.788391982104226,4.827141217422286 L-29.79288901869334,4.82971435221479 " />
			<path d="M-29.742361539422756,-10.946029975119117 L-29.742621769076578,-10.934870639593399 L-29.74340230755032,-10.924198737222275 L-29.744702703467855,-10.914020439440101 L-29.74652220482567,-10.90434163223556 L-29.748859759427756,-10.895167912747874 L-29.75171401549405,-10.88650458603003 L-29.755083322442182,-10.878356661980952 L-29.758965731841965,-10.87072885244831 L-29.76335899854218,-10.86362556850374 L-29.768260581968885,-10.857050917891955 L-29.773667647594614,-10.851008702655294 L-29.779577068577552,-10.845502416935048 L-29.785985427569756,-10.840535244950827 L-29.792889018693348,-10.83611005915918 " />
			<path d="M-49.363792037942716,-27.69680248667573 L46.060287790661654,-20.906504975805852 " />
			<path d="M46.06028779066165,-20.906504975805852 L46.06028779066165,29.615778750875215 " />
			<path d="M46.06028779066165,29.615778750875215 L-49.36379203794272,22.825481240005338 " />
			<path d="M-49.363792037942716,22.825481240005338 L-49.363792037942716,-27.69680248667573 " />
			<path d="M-3.681047589827468,-27.109246845055377 L-3.681047589827468,-27.402981052768638 " />
			<path d="M-3.284627080153741,-27.63325820447258 L-3.681047589827468,-27.40298105276864 " />
			<path d="M-3.2846270801537405,-27.33952399675932 L-3.2846270801537405,-27.63325820447258 " />
			<path d="M1.0382441920026189,-26.773425998820468 L1.0382441920026189,-27.06716020653373 " />
			<path d="M-3.681047589827468,-27.402981052768638 L1.0382441920026195,-27.06716020653373 " />
			<path d="M1.4346647016763463,-27.00370315052441 L1.4346647016763463,-27.29743735823767 " />
			<path d="M1.0382441920026189,-27.06716020653373 L1.4346647016763463,-27.297437358237666 " />
			<path d="M-3.2846270801537405,-27.63325820447258 L1.4346647016763472,-27.29743735823767 " />
			<path d="M1.6989450414588312,-27.157221251660367 L1.6989450414588312,-27.450955459373628 " />
			<path d="M1.6989450414588312,-27.450955459373628 L-3.284627080153741,-27.63325820447258 " />
			<path d="M-3.020346740371256,-27.493042097895277 L-3.020346740371256,-27.786776305608537 " />
			<path d="M1.6989450414588312,-27.450955459373628 L-3.0203467403712563,-27.786776305608537 " />
			<path d="M-3.020346740371256,-27.786776305608537 L-3.284627080153741,-27.63325820447258 " />
			<path d="M48.7502841063048,1.882864619955004 L49.0334416132146,1.9030138707290987 " />
			<path d="M49.42986212288832,1.6727367190251603 L49.0334416132146,1.9030138707290984 " />
			<path d="M49.14670461597852,1.652587468251066 L49.42986212288832,1.6727367190251605 " />
			<path d="M48.7502841063048,6.778434748509371 L49.0334416132146,6.798583999283466 " />
			<path d="M49.0334416132146,1.9030138707290984 L49.0334416132146,6.798583999283465 " />
			<path d="M49.14670461597852,6.548157596805432 L49.42986212288832,6.568306847579527 " />
			<path d="M49.0334416132146,6.798583999283466 L49.42986212288832,6.568306847579527 " />
			<path d="M49.42986212288832,1.6727367190251603 L49.42986212288832,6.568306847579526 " />
			<path d="M49.41098495576101,6.394639495669473 L49.69414246267081,6.414788746443568 " />
			<path d="M49.69414246267081,6.414788746443568 L49.42986212288832,1.6727367190251596 " />
			<path d="M49.41098495576101,1.4990693671151072 L49.69414246267081,1.5192186178892018 " />
			<path d="M49.69414246267081,6.414788746443568 L49.69414246267081,1.5192186178892015 " />
			<path d="M49.69414246267081,1.5192186178892015 L49.42986212288832,1.6727367190251603 " />
			<path d="M-3.2846270801537405,28.078329858476117 L-3.2846270801537405,28.372064066189377 " />
			<path d="M-3.020346740371256,28.21854596505342 L-3.284627080153741,28.372064066189377 " />
			<path d="M-3.020346740371256,27.92481175734016 L-3.020346740371256,28.21854596505342 " />
			<path d="M1.6989450414588312,28.26063260357507 L1.6989450414588312,28.55436681128833 " />
			<path d="M1.6989450414588312,28.55436681128833 L-3.0203467403712563,28.21854596505342 " />
			<path d="M1.6989450414588312,28.55436681128833 L-3.284627080153741,28.372064066189377 " />
			<path d="M1.4346647016763463,28.414150704711027 L1.4346647016763463,28.707884912424287 " />
			<path d="M-3.2846270801537405,28.372064066189377 L1.4346647016763472,28.707884912424287 " />
			<path d="M1.0382441920026189,28.938162064128228 L1.4346647016763463,28.70788491242429 " />
			<path d="M1.0382441920026189,28.644427856414968 L1.0382441920026189,28.938162064128228 " />
			<path d="M-3.681047589827468,28.308607010180058 L-3.681047589827468,28.60234121789332 " />
			<path d="M-3.681047589827468,28.60234121789332 L1.0382441920026195,28.938162064128228 " />
			<path d="M-3.284627080153741,28.372064066189377 L-3.681047589827468,28.602341217893315 " />
			<path d="M-50.99666699445592,-5.473530888853721 L-51.279824501365724,-5.493680139627815 " />
			<path d="M-51.015544161583236,-5.647198240763775 L-51.279824501365724,-5.493680139627816 " />
			<path d="M-50.732386654673434,-5.62704898998968 L-51.015544161583236,-5.647198240763775 " />
			<path d="M-50.732386654673434,-0.7314788614353134 L-51.015544161583236,-0.751628112209408 " />
			<path d="M-51.015544161583236,-0.7516281122094077 L-51.015544161583236,-5.647198240763775 " />
			<path d="M-51.015544161583236,-0.7516281122094077 L-51.279824501365724,-5.493680139627816 " />
			<path d="M-50.99666699445592,-0.5779607602993546 L-51.279824501365724,-0.5981100110734492 " />
			<path d="M-51.279824501365724,-5.493680139627815 L-51.279824501365724,-0.598110011073449 " />
			<path d="M-51.67624501103945,-0.3678328593695108 L-51.279824501365724,-0.598110011073449 " />
			<path d="M-51.393087504129646,-0.34768360859541647 L-51.67624501103945,-0.36783285936951104 " />
			<path d="M-51.393087504129646,-5.243253737149782 L-51.67624501103945,-5.263402987923877 " />
			<path d="M-51.67624501103945,-5.263402987923877 L-51.67624501103945,-0.3678328593695106 " />
			<path d="M-51.279824501365724,-5.493680139627816 L-51.67624501103945,-5.263402987923878 " />
			<path d="M31.97320182189884,9.56958572478752 L32.501762501463816,9.262549522515602 " />
			<path d="M31.97320182189884,9.56958572478752 L31.97320182189884,9.203864456310319 " />
			<path d="M-30.321449698258313,5.136750554486708 L-29.792889018693337,4.829714352214789 " />
			<path d="M-30.321449698258313,5.13675055448671 L31.973201821898844,9.56958572478752 " />
			<path d="M-29.742361539422756,-10.487866429049571 L-30.321449698258313,-10.529073856887264 " />
			<path d="M-30.321449698258313,-10.529073856887264 L-29.792889018693337,-10.836110059159182 " />
			<path d="M-30.321449698258313,-10.529073856887262 L-30.321449698258313,5.136750554486711 " />
			<path d="M36.62556007657458,-0.9945995857544232 L36.55535964101955,-0.9619210639568596 L36.48604815055897,-0.927447868955595 L36.417665281447924,-0.8911997343802054 L36.35025017836704,-0.853197409896068 " />
			<path d="M36.350250178367034,-0.8531974098960609 L36.26905469586547,-0.8042937747854864 L36.18943859059663,-0.752833276679095 L36.11147023035968,-0.6988601056435471 L36.03521656800511,-0.6424206094234965 L35.96074308394114,-0.5835632536419357 L35.88811372990445,-0.522338580181883 L35.81739087404372,-0.4587991637851525 L35.74863524736292,-0.3929995669054702 " />
			<path d="M38.580210316461034,5.598573181698468 L38.66542093719384,5.59069773266585 L38.75025165788011,5.580492002940716 L38.83464463451947,5.567962951561364 L38.918542321598544,5.553119121782485 L39.00188751132982,5.535970635249735 L39.08462337266026,5.5165291850980225 L39.166693490023036,5.494808027978246 L39.24804190180588,5.470821975017916 L39.328613138509944,5.444587381721793 L39.40835226057315,5.416122136819484 L39.487204895832114,5.385445650067541 L39.56511727659717,5.352578839014427 L39.64203627631527,5.317544114737349 L39.717909445795684,5.280365366560692 L39.79268504897385,5.241067945766469 L39.866312098188864,5.199678648307909 " />
			<path d="M39.866312098188885,5.199678648307895 L39.932722133336185,5.159943093772027 L39.99808775553946,5.118497782256984 L40.062371545829215,5.07536643939705 L40.12553670453759,5.030573756005956 " />
			<path d="M35.748635247362905,-0.39299956690545956 L35.69332603171986,-0.3369403533017499 L35.63943394045656,-0.2794081356475524 L35.586990598093145,-0.22043667453246707 L35.53602677900666,-0.16006057511127691 L35.48657238937232,-0.09831526679722913 L35.43865644961415,-0.03523698247163454 L35.39230707737552,0.029137262778018425 L35.34755147101933,0.09476969337895724 L35.30441589366771,0.1616217954402801 L35.26292565779049,0.22965433935336454 L35.223105110351575,0.2988274028122728 L35.18497761852182,0.36910039424062857 L35.14856555596691,0.44043207661124284 L35.11389028971824,0.5127805916444899 L35.08097216763447,0.58610348437124 L35.049830506461156,0.6603577280459503 L34.99294861086263,0.8114854541873056 L34.943378099227026,0.9658090879203309 L34.90123530874807,1.1229664466109577 L34.866619144476765,1.2825886971468698 L34.83961084720075,1.4443012215531246 L34.82027380278007,1.6077244961842876 L34.808653393386685,1.7724749824296984 L34.8047768909969,1.9381660268414784 L34.808653393386685,2.104408768572751 L34.82027380278007,2.2708130519964174 L34.83961084720075,2.4369883423626684 L34.866619144476765,2.6025446423462317 L34.90123530874807,2.7670934073323643 L34.94337809922702,2.9302484572934606 L34.992948610862626,3.0916268831162066 L35.049830506461156,3.2508499452522095 L35.11389028971824,3.4075439625830715 L35.18497761852182,3.5613411894138087 L35.26292565779049,3.711880678536413 L35.34755147101933,3.8588091283380153 L35.43865644961415,4.001781711965584 L35.53602677900666,4.140462886601178 L35.63943394045656,4.2745271809484695 L35.748635247362884,4.403659959082358 " />
			<path d="M35.748635247362905,4.403659959082381 L35.817479561630975,4.479339600411374 L35.88829603420465,4.553033913850911 L35.96102369895924,4.624679455734018 L36.03559994441868,4.694214546187624 L36.11196056765794,4.761579322232949 L36.19003982957552,4.826715789321733 L36.26977051148848,4.889567871263935 L36.351083973001174,4.950081458503889 L36.43391021109802,5.0082044547034 L36.5181779204093,5.063886821591645 L36.603814554598166,5.117080622043267 L36.69074638881603,5.167740061347615 L36.77889858317252,5.215821526633542 L36.86819524716536,5.2612836244158725 L36.958559505014755,5.304087216231176 L37.049913561846004,5.344195452332199 L37.142178770663314,5.381573803411928 L37.23527570005729,5.416190090329972 L37.32912420258766,5.4480145118157015 L37.42364348378247,5.477019670124241 L37.51875217169431,5.503180594623281 L37.61436838695366,5.526474763290375 L37.710409813259076,5.546882122102215 L37.80679376824362,5.564385102299207 L37.90343727465633,5.578968635510472 L38.00025713179759,5.590620166726255 L38.09716998714687,5.599329665106564 L38.19409240812123,5.605089632616764 L38.29094095390261,5.60789511048265 L38.38763224727237,5.607743683459475 L38.48408304639094,5.60463548191124 L38.580210316461006,5.5985731816984705 " />
			<path d="M-49.363792037942716,-27.69680248667573 L-46.88616385248192,-29.136034684825344 " />
			<path d="M46.06028779066165,-20.906504975805852 L48.53791597612244,-22.345737173955467 " />
			<path d="M-46.886163852481914,-29.136034684825344 L48.537915976122456,-22.345737173955467 " />
			<path d="M46.06028779066165,29.615778750875215 L48.53791597612244,28.1765465527256 " />
			<path d="M48.53791597612245,-22.345737173955467 L48.53791597612245,28.1765465527256 " />
			<path d="M-49.363792037942716,22.825481240005338 L-46.88616385248192,21.386249041855724 " />
			<path d="M48.53791597612245,28.1765465527256 L-46.88616385248192,21.386249041855724 " />
			<path d="M-46.886163852481914,21.386249041855724 L-46.886163852481914,-29.136034684825344 " />
			<path d="M-2.9495573636438044,-18.22558610197689 L4.601309487284335,-17.688272748001037 " />
			<path d="M-2.9495573636438044,-15.28824402484427 L-2.9495573636438044,-18.22558610197689 " />
			<path d="M4.601309487284335,-17.688272748001037 L4.601309487284335,-14.750930670868417 " />
			<path d="M4.601309487284335,-14.750930670868415 L-2.949557363643805,-15.288244024844271 " />
			<path d="M-36.92845819282043,-7.082766938772644 L-34.09688312372238,-6.881274431031698 " />
			<path d="M-36.92845819282043,0.7501452669143434 L-36.92845819282043,-7.082766938772643 " />
			<path d="M-34.09688312372238,-6.881274431031698 L-34.09688312372238,0.9516377746552891 " />
			<path d="M-34.09688312372238,0.9516377746552893 L-36.92845819282043,0.7501452669143435 " />
			<path d="M-2.9495573636438044,13.791442538768672 L4.601309487284335,14.328755892744528 " />
			<path d="M4.601309487284335,14.328755892744526 L4.601309487284335,17.266097969877148 " />
			<path d="M4.601309487284335,17.266097969877148 L-2.949557363643805,16.728784615901294 " />
			<path d="M-2.9495573636438044,16.728784615901294 L-2.9495573636438044,13.791442538768674 " />
			<path d="M38.58021031646096,5.598573181698452 L38.58021031646096,6.123278806672902 " />
			<path d="M38.58021031646096,6.123278806672901 L35.74863524736291,5.921786298931955 " />
			<path d="M38.58021031646096,-1.7096333990140855 L38.58021031646096,-1.1849277740396364 " />
			<path d="M35.74863524736291,5.921786298931955 L35.74863524736291,4.403659959082377 " />
			<path d="M35.74863524736291,-1.9111259067550315 L38.58021031646096,-1.7096333990140855 " />
			<path d="M35.74863524736291,-0.39299956690545645 L35.74863524736291,-1.9111259067550321 " />
			<path d="M35.74863524736291,4.403659959082377 L35.74863524736291,3.1708387394401405 " />
			<path d="M35.74863524736291,0.03573073047374553 L35.74863524736291,-0.39299956690545645 " />
			<path d="M38.58021031646096,5.265676819223957 L38.58021031646096,5.598573181698452 " />
			<path d="M-2.9495573636438044,-18.22558610197689 L-5.526290676523033,-16.728784615901294 " />
			<path d="M4.601309487284335,-17.688272748001037 L2.024576174405107,-16.19147126192544 " />
			<path d="M-5.526290676523033,-16.728784615901294 L2.0245761744051074,-16.19147126192544 " />
			<path d="M-2.9495573636438044,-15.28824402484427 L-5.526290676523033,-13.79144253876867 " />
			<path d="M-5.526290676523033,-13.79144253876867 L-5.526290676523033,-16.72878461590129 " />
			<path d="M4.601309487284335,-14.750930670868415 L2.024576174405107,-13.254129184792816 " />
			<path d="M2.0245761744051074,-16.19147126192544 L2.0245761744051074,-13.25412918479282 " />
			<path d="M2.0245761744051074,-13.254129184792816 L-5.526290676523033,-13.791442538768672 " />
			<path d="M-3.9925208474282536,-14.005408392226915 L-4.32287127215636,-13.813510765806967 " />
			<path d="M1.4818576194946471,-13.61585621059442 L-3.9925208474282536,-14.005408392226915 " />
			<path d="M1.151507194766541,-13.423958584174471 L1.4818576194946471,-13.61585621059442 " />
			<path d="M-4.32287127215636,-13.813510765806967 L1.1515071947665412,-13.423958584174471 " />
			<path d="M-3.043943199280406,-14.864150270456184 L-3.572503878845376,-14.557114068184266 " />
			<path d="M3.374293624008512,-14.407433919576706 L-3.0439431992804065,-14.864150270456182 " />
			<path d="M-3.572503878845376,-14.557114068184267 L2.845732944443543,-14.10039771730479 " />
			<path d="M2.8457329444435424,-14.100397717304789 L3.374293624008512,-14.407433919576707 " />
			<path d="M-36.92845819282043,-7.082766938772644 L-39.505191505699656,-5.585965452697046 " />
			<path d="M-34.09688312372238,-6.881274431031698 L-36.673616436601606,-5.3844729449561 " />
			<path d="M-39.505191505699656,-5.585965452697046 L-36.673616436601606,-5.3844729449561 " />
			<path d="M-36.92845819282043,0.7501452669143434 L-39.505191505699656,2.2469467529899414 " />
			<path d="M-39.505191505699656,2.2469467529899414 L-39.505191505699656,-5.585965452697046 " />
			<path d="M-36.673616436601606,-5.3844729449561 L-36.673616436601606,2.448439260730887 " />
			<path d="M-34.09688312372238,0.9516377746552893 L-36.673616436601606,2.4484392607308876 " />
			<path d="M-36.50844122423756,-4.403396329884113 L-36.50844122423756,1.2754650192389523 " />
			<path d="M-36.50844122423756,1.275465019238952 L-36.178090799509455,1.0835673928190035 " />
			<path d="M-36.17809079950945,1.0835673928190037 L-36.17809079950945,-4.595293956304062 " />
			<path d="M-36.17809079950945,-4.595293956304062 L-36.50844122423755,-4.403396329884113 " />
			<path d="M-35.28614465274356,-5.602974560493359 L-35.28614465274356,1.0550008143405796 " />
			<path d="M-34.75758397317859,-5.9100107627652765 L-35.28614465274356,-5.602974560493359 " />
			<path d="M-35.28614465274356,1.0550008143405796 L-34.75758397317859,0.747964612068662 " />
			<path d="M-34.75758397317859,0.747964612068662 L-34.75758397317859,-5.9100107627652765 " />
			<path d="M-36.673616436601606,2.448439260730887 L-39.505191505699656,2.2469467529899414 " />
			<path d="M-2.9495573636438044,13.791442538768672 L-5.526290676523033,15.288244024844271 " />
			<path d="M-5.526290676523033,15.288244024844271 L2.0245761744051074,15.825557378820127 " />
			<path d="M4.601309487284335,14.328755892744526 L2.024576174405107,15.825557378820125 " />
			<path d="M-4.32287127215636,15.266175797805975 L1.1515071947665412,15.65572797943847 " />
			<path d="M1.151507194766541,15.65572797943847 L1.4818576194946471,15.463830353018523 " />
			<path d="M1.4818576194946471,15.463830353018523 L-3.9925208474282536,15.074278171386027 " />
			<path d="M-3.9925208474282536,15.074278171386027 L-4.32287127215636,15.266175797805975 " />
			<path d="M-3.572503878845376,14.522572495428674 L2.845732944443543,14.979288846308151 " />
			<path d="M-3.043943199280406,14.215536293156758 L-3.572503878845376,14.522572495428676 " />
			<path d="M2.8457329444435424,14.979288846308153 L3.374293624008512,14.672252644036234 " />
			<path d="M3.374293624008512,14.672252644036236 L-3.0439431992804065,14.21553629315676 " />
			<path d="M4.601309487284335,17.266097969877148 L2.024576174405107,18.762899455952745 " />
			<path d="M2.0245761744051074,15.825557378820125 L2.0245761744051074,18.762899455952745 " />
			<path d="M-2.9495573636438044,16.728784615901294 L-5.526290676523033,18.22558610197689 " />
			<path d="M2.0245761744051074,18.762899455952745 L-5.526290676523033,18.22558610197689 " />
			<path d="M-5.526290676523033,18.22558610197689 L-5.526290676523033,15.288244024844271 " />
			<path d="M38.58021031646096,-1.7096333990140855 L36.003477003581736,-0.21283191293848744 " />
			<path d="M38.58021031646096,6.123278806672901 L36.003477003581736,7.620080292748499 " />
			<path d="M36.003477003581736,-0.21283191293848766 L36.003477003581736,7.620080292748499 " />
			<path d="M35.74863524736291,5.921786298931955 L33.171901934483685,7.418587785007553 " />
			<path d="M36.003477003581736,7.620080292748499 L33.171901934483685,7.418587785007553 " />
			<path d="M33.171901934483685,7.418587785007553 L33.171901934483685,-0.4143244206794341 " />
			<path d="M35.74863524736291,-1.9111259067550315 L33.171901934483685,-0.41432442067943337 " />
			<path d="M33.66742757157584,0.3748545679726045 L33.33707714684774,0.566752194392553 " />
			<path d="M33.66742757157584,6.053715917095669 L33.66742757157584,0.3748545679726041 " />
			<path d="M33.33707714684773,6.245613543515618 L33.667427571575836,6.053715917095669 " />
			<path d="M33.33707714684773,0.566752194392553 L33.33707714684773,6.245613543515618 " />
			<path d="M35.0879343979067,-0.9398622384886106 L34.55937371834173,-0.6328260362166931 " />
			<path d="M35.0879343979067,5.718113136345329 L35.0879343979067,-0.93986223848861 " />
			<path d="M34.55937371834173,-0.632826036216693 L34.55937371834173,6.025149338617245 " />
			<path d="M34.55937371834173,6.025149338617246 L35.0879343979067,5.718113136345329 " />
			<path d="M33.171901934483685,-0.41432442067943365 L36.003477003581736,-0.21283191293848774 " />
			<path d="M-3.9925208474282536,-14.005408392226915 L-3.9925208474282536,-13.320028574229303 " />
			<path d="M-4.32287127215636,-13.813510765806967 L-4.32287127215636,-13.128130947809355 " />
			<path d="M-3.9925208474282536,-13.320028574229305 L-4.32287127215636,-13.128130947809357 " />
			<path d="M1.4818576194946471,-13.61585621059442 L1.4818576194946471,-12.930476392596807 " />
			<path d="M1.4818576194946471,-12.930476392596809 L-3.9925208474282536,-13.320028574229305 " />
			<path d="M1.151507194766541,-13.423958584174471 L1.151507194766541,-12.73857876617686 " />
			<path d="M1.151507194766541,-12.738578766176861 L1.4818576194946471,-12.930476392596809 " />
			<path d="M-4.32287127215636,-13.128130947809357 L1.1515071947665412,-12.738578766176861 " />
			<path d="M-3.043943199280406,-14.864150270456184 L-3.043943199280406,-16.03908710130923 " />
			<path d="M-3.572503878845376,-14.557114068184267 L-3.572503878845376,-15.732050899037315 " />
			<path d="M-3.043943199280406,-16.03908710130923 L-3.572503878845376,-15.732050899037313 " />
			<path d="M3.374293624008512,-14.407433919576706 L3.374293624008512,-15.582370750429753 " />
			<path d="M3.374293624008512,-15.582370750429753 L-3.0439431992804065,-16.03908710130923 " />
			<path d="M2.8457329444435424,-14.100397717304789 L2.8457329444435424,-15.275334548157836 " />
			<path d="M-3.572503878845376,-15.732050899037315 L2.845732944443543,-15.275334548157838 " />
			<path d="M2.8457329444435424,-15.275334548157836 L3.374293624008512,-15.582370750429755 " />
			<path d="M-36.50844122423756,-4.403396329884113 L-35.847740374781345,-4.356381411411226 " />
			<path d="M-36.50844122423756,1.275465019238952 L-35.847740374781345,1.3224799377118395 " />
			<path d="M-35.847740374781345,-4.356381411411225 L-35.847740374781345,1.3224799377118401 " />
			<path d="M-36.17809079950945,1.0835673928190037 L-35.517389950053236,1.1305823112918911 " />
			<path d="M-35.847740374781345,1.3224799377118397 L-35.51738995005324,1.1305823112918911 " />
			<path d="M-36.17809079950945,-4.595293956304062 L-35.517389950053236,-4.548279037831175 " />
			<path d="M-35.517389950053236,1.1305823112918911 L-35.517389950053236,-4.548279037831174 " />
			<path d="M-35.517389950053236,-4.548279037831174 L-35.84774037478134,-4.356381411411225 " />
			<path d="M-35.28614465274356,-5.602974560493359 L-36.41877468038278,-5.683571563589737 " />
			<path d="M-35.28614465274356,1.0550008143405796 L-36.41877468038278,0.9744038112442012 " />
			<path d="M-36.41877468038278,-5.683571563589737 L-36.41877468038278,0.9744038112442013 " />
			<path d="M-34.75758397317859,-5.9100107627652765 L-35.890214000817814,-5.990607765861655 " />
			<path d="M-35.890214000817814,-5.990607765861655 L-36.41877468038278,-5.683571563589737 " />
			<path d="M-34.75758397317859,0.747964612068662 L-35.890214000817814,0.6673676089722836 " />
			<path d="M-36.41877468038278,0.9744038112442011 L-35.890214000817814,0.6673676089722835 " />
			<path d="M-35.890214000817814,0.6673676089722835 L-35.890214000817814,-5.990607765861655 " />
			<path d="M-4.32287127215636,15.266175797805975 L-4.32287127215636,14.580795979808363 " />
			<path d="M1.151507194766541,15.65572797943847 L1.151507194766541,14.970348161440858 " />
			<path d="M-4.32287127215636,14.580795979808364 L1.1515071947665412,14.97034816144086 " />
			<path d="M1.4818576194946471,15.463830353018523 L1.4818576194946471,14.77845053502091 " />
			<path d="M1.151507194766541,14.97034816144086 L1.4818576194946471,14.778450535020912 " />
			<path d="M-3.9925208474282536,15.074278171386027 L-3.9925208474282536,14.388898353388415 " />
			<path d="M1.4818576194946471,14.778450535020912 L-3.9925208474282536,14.388898353388416 " />
			<path d="M-3.9925208474282536,14.388898353388416 L-4.32287127215636,14.580795979808364 " />
			<path d="M-3.572503878845376,14.522572495428674 L-3.572503878845376,15.697509326281722 " />
			<path d="M2.8457329444435424,14.979288846308153 L2.8457329444435424,16.1542256771612 " />
			<path d="M-3.572503878845376,15.697509326281722 L2.845732944443543,16.1542256771612 " />
			<path d="M-3.043943199280406,14.215536293156758 L-3.043943199280406,15.390473124009805 " />
			<path d="M-3.043943199280406,15.390473124009805 L-3.572503878845376,15.697509326281724 " />
			<path d="M3.374293624008512,14.672252644036236 L3.374293624008512,15.847189474889284 " />
			<path d="M2.8457329444435424,16.1542256771612 L3.374293624008512,15.847189474889282 " />
			<path d="M3.374293624008512,15.847189474889284 L-3.0439431992804065,15.390473124009807 " />
			<path d="M33.66742757157584,0.3748545679726045 L33.00672672211963,0.32783964949971717 " />
			<path d="M33.33707714684773,0.566752194392553 L32.67637629739152,0.5197372759196656 " />
			<path d="M33.00672672211963,0.32783964949971695 L32.67637629739153,0.5197372759196655 " />
			<path d="M33.66742757157584,6.053715917095669 L33.00672672211963,6.006700998622782 " />
			<path d="M33.00672672211963,6.006700998622781 L33.00672672211963,0.3278396494997162 " />
			<path d="M33.33707714684773,6.245613543515618 L32.67637629739152,6.198598625042731 " />
			<path d="M32.67637629739152,6.19859862504273 L33.00672672211962,6.006700998622781 " />
			<path d="M32.67637629739152,0.5197372759196655 L32.67637629739152,6.198598625042731 " />
			<path d="M35.0879343979067,-0.9398622384886106 L36.22056442554592,-0.8592652353922322 " />
			<path d="M34.55937371834173,-0.632826036216693 L35.692003745980955,-0.5522290331203146 " />
			<path d="M36.22056442554592,-0.8592652353922319 L35.692003745980955,-0.5522290331203143 " />
			<path d="M35.0879343979067,5.718113136345329 L36.22056442554592,5.798710139441707 " />
			<path d="M36.22056442554592,5.798710139441707 L36.22056442554592,-0.8592652353922317 " />
			<path d="M34.55937371834173,6.025149338617246 L35.692003745980955,6.105746341713624 " />
			<path d="M35.692003745980955,-0.5522290331203143 L35.692003745980955,6.105746341713624 " />
			<path d="M35.692003745980955,6.105746341713624 L36.22056442554592,5.798710139441707 " />
			<path d="M-29.748847204274107,4.81177519937438 L-29.742361539422756,4.8122367138472 " />
			<path d="M40.39487277775386,4.892642446035972 L39.866312098188885,5.199678648307891 " />
			<path d="M36.87881085793199,-1.1602336121679775 L36.35025017836701,-0.8531974098960582 " />

       </g>

       <!-- solid lines -->
       <g  stroke="rgb(0,0,0)" fill="none">
			<path d="M-50.911099712802276,-34.21351806817732 L-51.009883725912815,-34.15153190774548 L-51.1042757087327,-34.082908552853056 L-51.19389992939451,-34.00792116209373 L-51.27839963433943,-33.926868226414726 L-51.35743846839209,-33.84007238095912 L-51.430701813638656,-33.747879120800995 L-51.49789804177872,-33.65065542568552 L-51.55875967496588,-33.54878829924831 L-51.61304445051628,-33.44268322852862 L-51.66053628524701,-33.332762569908574 L-51.70104613560568,-33.21946386790302 L-51.73441275016742,-33.10323811349246 L-51.76050331150407,-32.98454794893145 L-51.77921396487034,-32.86386582617875 L-51.79047023160267,-32.74167212627937 L-51.79422730558521,-32.618453247184455 " />
			<path d="M-51.7942273055852,24.17016024404621 L-51.7942273055852,-32.61845324718445 " />
			<path d="M-49.906510592853174,26.262716633961922 L-49.99913646173594,26.25376668334756 L-50.091539186787486,26.24012075105176 L-50.18349616174966,26.221811711320655 L-50.274785854215295,26.198883672234647 L-50.365188339319204,26.171391869448154 L-50.45448582955645,26.139402533122084 L-50.54246319945151,26.102992728369582 L-50.628908503814415,26.06225016959942 L-50.71361348833522,26.0172730092043 L-50.79637409128695,25.96816960110315 L-50.87699093512812,25.91505823970703 L-50.95526980682071,25.858066874937556 L-51.03102212570639,25.79733280398431 L-51.10406539781385,25.733002340543898 L-51.17422365550275,25.665230462337426 L-51.241327881385175,25.59418043775561 L-51.30521641550334,25.520023432530913 L-51.36573534478258,25.442938097384314 L-51.42273887382143,25.363110137640053 L-51.47608967612551,25.280731865845258 L-51.525659224939105,25.196001738472166 L-51.57132810287733,25.10912387781911 L-51.61298628961312,25.020307580261996 L-51.65053342692579,24.92976681204103 L-51.683879060472826,24.837719693797293 L-51.71294285770227,24.74438797510101 L-51.73765480138091,24.64999650023741 L-51.75795535827193,24.554772666537158 L-51.77379562255564,24.45894587655626 L-51.78513743364794,24.36274698542522 L-51.7919534681325,24.266407744698792 L-51.79422730558521,24.17016024404623 " />
			<path d="M52.56285183644281,33.25402993607758 L52.5061919610102,33.28552072569084 L52.448366161872606,33.314845682411125 L52.389445562977684,33.34196873744703 L52.329502634843,33.36685653027825 L52.268611105419524,33.38947844968796 L52.20684586940852,33.409806671413705 L52.144282896143366,33.42781619237036 L52.08099913614967,33.44348486140317 L52.01707242649843,33.45679340653297 L51.95258139506888,33.46772545866011 L51.88760536383864,33.47626757169802 L51.82222425132008,33.48240923911135 L51.75651847426306,33.486142906838815 L51.69056884874481,33.48746398258438 L51.62445649076862,33.48637084146566 L51.558262716493715,33.48286482801248 " />
			<path d="M51.5582627164937,33.48286482801249 L-49.90651059285318,26.262716633961926 " />
			<path d="M-51.72343792885775,25.105355881165067 L-51.60557869869747,25.036892501594558 " />
			<path d="M-51.56767448568311,25.116439877179207 L-51.72343792885776,25.105355881165067 " />
			<path d="M-51.72343792885775,25.105355881165067 L-51.72343792885775,24.70642895270045 " />
			<path d="M33.64855040444852,10.031492034199719 L33.565117521622554,9.94135381699892 L33.47968488906659,9.853673147193852 L33.39305128126823,9.769269817877621 L33.30602670154362,9.688932979801038 L33.21942480870201,9.613413763003635 L33.13405530953235,9.543418253929147 L33.05071638824032,9.479600893687742 L32.97018724361868,9.42255835918965 L32.89322080372675,9.372823984360105 L32.820536686194764,9.330862773595927 L32.75281446997284,9.297067054086662 L32.69068734143184,9.271752807650108 L32.63473617422367,9.255156716378583 L32.58548409825293,9.247433949718527 " />
			<path d="M33.648550512077065,-7.396737727443831 L33.55157030521059,-7.303756381766292 L33.452070765516936,-7.209772427395933 L33.35130315764037,-7.115967767280184 L33.25053469292089,-7.023522049636832 L33.15103259347378,-6.9335978331908485 L33.05404815613369,-6.847325967321519 L32.960801016668405,-6.765791370973094 L32.87246381214892,-6.690019389167361 L32.79014743435553,-6.620962898693012 L32.714887059666886,-6.55949032512522 L32.64762913111429,-6.506374721868395 L32.589219456309564,-6.4622840485595265 L32.54039257092183,-6.42777277108683 L32.50176250146381,-6.40327488885837 " />
			<path d="M-30.345046264796007,5.477761463244349 L-30.271415314992822,5.406174912666545 L-30.200665009029247,5.336485469685101 L-30.13334477002811,5.2692343191170865 L-30.06997738436378,5.204943710819304 L-30.01105494187873,5.144112904071244 L-29.957035014479043,5.087214290495131 L-29.908337102784547,5.0346897256211935 L-29.865339378427922,4.986947097585948 L-29.828375747300715,4.94435715960989 L-29.797733256552313,4.907250650852444 L-29.773649865478124,4.875915728002698 L-29.75631259760763,4.8505957275513 L-29.74585608834239,4.831487276120969 L-29.742361539422756,4.818738763530153 " />
			<path d="M-30.345046157167467,-11.950468298399205 L-30.27141521851957,-11.866897238788765 L-30.200664923869375,-11.782633972825465 L-30.133344696139098,-11.698332860608453 L-30.069977321508315,-11.614648556138107 L-30.011054889632856,-11.532230923493923 L-29.95703497224249,-11.451719990209265 L-29.908337069793255,-11.373740977033462 L-29.86533935376844,-11.298899442678364 L-29.828375729926368,-11.227776581253652 L-29.79773324530095,-11.160924708909446 L-29.773649859091226,-11.09886297473539 L-29.756312594750504,-11.042073329223939 L-29.74585608762533,-10.990996781605425 L-29.742361539422756,-10.946029975119119 " />
			<path d="M31.97320182189884,9.203864456310319 L31.97320182189884,-6.096238686586453 " />
			<path d="M31.97320182189884,-6.096238686586453 L32.501762501463816,-6.403274888858372 " />
			<path d="M31.973201821898844,-6.096238686586453 L-29.742361539422756,-10.487866429049571 " />
			<path d="M41.41178538555901,2.408315211570354 L41.94034606512398,2.101279009298435 " />
			<path d="M41.41178538555902,2.4083152115703546 L41.40849918583473,2.2552657212012903 L41.39864712463355,2.10205303996133 L41.38224880286311,1.9489819880856907 L41.35933684537051,1.7963571040346356 L41.32995683603441,1.6444820386070407 L41.29416722707487,1.4936589508199833 L41.25203922276121,1.3441879067562663 L41.20365663774952,1.1963662825758865 L41.14911573033136,1.05048817287916 L41.08852501092567,0.9068438055985983 L41.02200502619473,0.7657189645836044 L40.94968811921372,0.6273944210267781 L40.87171816617107,0.49214537486302046 L40.7882502901234,0.3602409072527888 L40.69945055237453,0.23194344523878918 L40.60549562209264,0.10750823964120526 L40.50657242482278,-0.012817142769820045 L40.402877770594074,-0.12879331181409848 L40.2946179623616,-0.24018953017379552 L40.182008385561744,-0.3467841724507523 L40.065273079597844,-0.4483651660954333 L39.9446442921085,-0.5447304133302531 L39.82036201690545,-0.6356881932278635 L39.69267351650021,-0.7210575431444495 L39.561832830169514,-0.800668618749167 L39.428100268538174,-0.8743630319334392 L39.29174189568498,-0.9419941659278233 L39.15302899980195,-1.0034274669995256 L39.01223755346007,-1.0585407121502186 L38.869647664555394,-1.1072242522815747 L38.72554301902778,-1.149381230344726 L38.580210316461056,-1.1849277740396387 " />
			<path d="M38.58021031646104,-1.1849277740396422 L38.455488357880235,-1.2099711800285835 L38.33026376202293,-1.2301168527083748 L38.20471781126534,-1.2453356280366865 L38.07903225319566,-1.2556054744330938 L37.953389037505715,-1.2609115246732676 L37.82797005259005,-1.2612460974116257 L37.70295686223374,-1.2566087083013002 L37.57853044277018,-1.2470060706952983 L37.45487092108923,-1.2324520859278718 L37.332157313875115,-1.2129678231901324 L37.210567268451506,-1.1885814890290791 L37.09027680560896,-1.1593283865141584 L36.97146006478704,-1.1252508641305052 L36.854289051979976,-1.086398254472818 L36.738933390730814,-1.0428268028286394 L36.625560076574594,-0.994599585754429 " />
			<path d="M40.12553670453759,5.030573756005955 L40.19941935157075,4.9749673537838195 L40.271596404471794,4.917075780429573 L40.342008993503136,4.856946254021479 L40.41059968807605,4.794627817978455 L40.47731254359279,4.7301713010588085 L40.542093147076635,4.66362927590281 L40.60488866155275,4.595056016152878 L40.665647869143555,4.524507452186407 L40.724321212843535,4.452041125497292 L40.78086083693944,4.37771614176338 L40.835220626042776,4.301593122638144 L40.8873562427029,4.223734156305862 L40.937225163569956,4.144202746840661 L40.98478671407817,4.06306376241072 L41.03000210162122,3.9803833823698693 L41.07283444719265,3.8962290432797593 L41.11324881546546,3.810669383906604 L41.151212243286416,3.7237741892373757 L41.18669376656174,3.6356143335611066 L41.219664445512365,3.5462617226617263 L41.25009738827806,3.455789235169574 L41.27796777285123,3.3642706631194397 L41.3032528673225,3.2717806517635966 L41.32593204842148,3.1783946386889244 L41.34598681833777,3.0841887922877906 L41.36340081980829,2.9892399496328523 L41.37815984945876,2.8936255538064724 L41.39025186938838,2.79742359073585 L41.399667016988296,2.700712525585394 L41.40639761298586,2.6035712387582217 L41.41043816770806,2.5060789615589583 L41.41178538555902,2.4083152115703625 " />
			<path d="M35.74863524736291,3.1708387394401405 L35.74863524736291,0.03573073047374553 " />
			<path d="M38.58021031646096,-1.1849277740396364 L38.58021031646096,5.265676819223957 " />
			<path d="M-51.26566662602024,-32.925489449456364 L-51.2619095520377,-33.048708328551285 L-51.25065328530537,-33.170902028450676 L-51.2319426319391,-33.291584151203374 L-51.205852070602454,-33.41027431576438 L-51.17248545604071,-33.52650007017495 L-51.131975605682044,-33.6397987721805 L-51.08448377095131,-33.749719430800546 L-51.03019899540091,-33.85582450152023 L-50.96933736221375,-33.957691627957445 L-50.90214113407369,-34.05491532307292 L-50.82887778882712,-34.147108583231045 L-50.74983895477446,-34.23390442868665 L-50.66533924982954,-34.314957364365654 L-50.57571502916773,-34.389944755124986 L-50.481323046347846,-34.4585681100174 L-50.38253903323732,-34.52055427044923 " />
			<path d="M-51.7942273055852,-32.61845324718444 L-51.265666626020234,-32.92548944945636 " />
			<path d="M-49.080634531032906,-34.040894403022314 L-49.0816988780955,-34.11477243204907 L-49.08488429885906,-34.186884975760584 L-49.090167986611014,-34.25671572872057 L-49.09751211164006,-34.32376472246976 L-49.106864092086205,-34.387551905158794 L-49.11815697041202,-34.44762057858384 L-49.1313098927997,-34.503540668016626 L-49.14622868804154,-34.554911801418044 L-49.162806541779176,-34.60136617598878 L-49.18092476126423,-34.6425711915334 L-49.2004536251648,-34.67823183178383 L-49.22125331233359,-34.70809277663243 L-49.243174902887795,-34.73194023015181 L-49.26606144443338,-34.749603451313305 L-49.28974907579989,-34.76095597644446 L-49.314068200240094,-34.76591652467319 " />
			<path d="M-49.08063453103291,-34.040894403022314 L52.38413877831397,-26.82074620897175 " />
			<path d="M52.384138778313975,-26.82074620897175 L52.38307443125138,-26.894624237998503 L52.37988901048782,-26.96673678171002 L52.37460532273587,-27.036567534670006 L52.367261197706824,-27.103616528419195 L52.35790921726068,-27.167403711108232 L52.346616338934865,-27.227472384533268 L52.33346341654718,-27.28339247396606 L52.31854462130534,-27.33476360736748 L52.301966767567706,-27.38121798193821 L52.28384854808265,-27.422422997482833 L52.264319684182084,-27.458083637733264 L52.243519997013294,-27.487944582581857 L52.22159840645909,-27.51179203610124 L52.1987118649135,-27.52945525726274 L52.17502423354699,-27.54080778239389 L52.15070510910679,-27.54576833062262 " />
			<path d="M-50.11887872303552,-33.03774956091203 L-50.29031542235032,-33.04622379920309 L-50.46658956885694,-33.04773531091973 L-50.640927045960815,-33.04222600951434 L-50.80662816218643,-33.029907614350286 L-50.88423036187775,-33.02133315046447 L-50.95732511656349,-33.011253514445485 L-51.02520848379837,-32.99976577869828 L-51.087226709647105,-32.98698057639794 L-51.142782524692144,-32.97302103603172 L-51.19134089606472,-32.9580215956044 L-51.23243418010381,-32.942126707926825 L-51.265666626020234,-32.925489449456364 " />
			<path d="M-50.118878723035536,-33.03774956091203 L-50.11762811243654,-33.090507701467686 L-50.113879293470035,-33.14296075823842 L-50.10764129736927,-33.194982367216106 L-50.09892915201323,-33.246447203788186 L-50.087763845723174,-33.29723128465555 L-50.07417227669992,-33.34721226651925 L-50.05818718822372,-33.396269740816145 L-50.03984708977285,-33.444285523793724 L-50.01919616425088,-33.49114394122512 L-49.9962841615462,-33.536732107078414 L-49.97116627868018,-33.580940195469026 L-49.9439030268327,-33.62366170523985 L-49.914560085565455,-33.664793716531875 L-49.883208144594086,-33.70423713872717 L-49.8499227334905,-33.741896949166836 L-49.81478403972552,-33.7776824220689 L-49.77787671549018,-33.81150734709472 L-49.739289673761284,-33.84329023703717 L-49.69911587410218,-33.87295452413055 L-49.657452098715055,-33.90042874450896 L-49.61439871928413,-33.92564671036905 L-49.57005945517149,-33.948547669422226 L-49.52454112354804,-33.96907645125225 L-49.47795338206159,-33.98718360022558 L-49.430408464662,-34.002825494634344 L-49.38202091121971,-34.01596445178483 L-49.33290729158923,-34.02656881877844 L-49.28318592478208,-34.03461304876625 L-49.23297659392598,-34.04007776249364 L-49.182400257696784,-34.04294979498656 L-49.13157875891843,-34.043222227267194 L-49.08063453103292,-34.040894403022314 " />
			<path d="M-51.7942273055852,24.17016024404621 L-51.265666626020234,23.863124041774295 " />
			<path d="M-51.265666626020234,23.863124041774295 L-51.265666626020234,-32.925489449456364 " />
			<path d="M-49.08063453103291,24.901769944772266 L-49.13157875891843,24.896847471934368 L-49.182400257696784,24.889342209171673 L-49.23297659392598,24.87927223731957 L-49.28318592478208,24.866661815822265 L-49.33290729158923,24.85154132428969 L-49.38202091121971,24.833947189310354 L-49.430408464662,24.81392179669648 L-49.47795338206159,24.791513389372888 L-49.52454112354804,24.766775951155573 L-49.570059455171496,24.73976907669994 L-49.61439871928413,24.710557827932075 L-49.657452098715055,24.679212577308864 L-49.69911587410218,24.64580883828458 L-49.739289673761284,24.610427083392352 L-49.77787671549018,24.573152550378794 L-49.81478403972552,24.534075036858795 L-49.8499227334905,24.49328868398521 L-49.883208144594086,24.45089174965458 L-49.914560085565455,24.406986371795238 L-49.9439030268327,24.361678322308098 L-49.97116627868018,24.3150767522529 L-49.9962841615462,24.267293928893718 L-50.019196164250886,24.218444965237307 L-50.039847089772856,24.168647542715775 L-50.05818718822372,24.11802162768172 L-50.07417227669992,24.066689182398765 L-50.087763845723174,24.014773871223785 L-50.09892915201323,23.962400762688645 L-50.10764129736927,23.909696028199154 L-50.113879293470035,23.85678663807708 L-50.11762811243654,23.803800055677545 L-50.118878723035536,23.750863930318634 " />
			<path d="M52.38413877831397,32.12191813882283 L-49.08063453103291,24.901769944772266 " />
			<path d="M-50.11887872303552,23.750863930318623 L-50.11887872303552,-33.03774956091203 " />
			<path d="M53.42238297031659,31.118773296712543 L53.421132359717596,31.1715314372682 L53.41738354075109,31.223984494038927 L53.411145544650324,31.27600610301662 L53.40243339929428,31.327470939588697 L53.39126809300423,31.378255020456066 L53.37767652398097,31.428236002319764 L53.361691435504774,31.477293476616655 L53.3433513370539,31.525309259594238 L53.32270041153193,31.572167677025632 L53.299788408827254,31.61775584287893 L53.27467052596123,31.66196393126954 L53.247407274113755,31.70468544104036 L53.21806433284651,31.745817452332393 L53.18671239187514,31.78526087452769 L53.153426980771556,31.82292068496735 L53.11828828700657,31.858706157869417 L53.081380962771235,31.89253108289523 L53.04279392104234,31.924313972837687 L53.00262012138324,31.953978259931066 L52.96095634599611,31.981452480309475 L52.91790296656519,32.006670446169565 L52.87356370245255,32.02957140522274 L52.828045370829095,32.05010018705276 L52.78145762934265,32.06820733602609 L52.733912711943056,32.08384923043486 L52.68552515850077,32.096988187585346 L52.636411538870284,32.10759255457896 L52.586690172063136,32.11563678456677 L52.53648084120704,32.12110149829415 L52.48590450497784,32.123973530787076 L52.435083006199484,32.12424596306771 L52.384138778313975,32.12191813882283 " />
			<path d="M53.42238297031659,-25.66984019451811 L53.42238297031659,31.118773296712547 " />
			<path d="M52.38413877831397,-26.82074620897175 L52.435083006199484,-26.815823736133854 L52.48590450497784,-26.80831847337116 L52.53648084120704,-26.798248501519055 L52.586690172063136,-26.78563808002175 L52.636411538870284,-26.770517588489177 L52.68552515850077,-26.75292345350984 L52.733912711943056,-26.732898060895963 L52.78145762934265,-26.710489653572374 L52.828045370829095,-26.68575221535506 L52.87356370245255,-26.658745340899426 L52.91790296656519,-26.62953409213156 L52.96095634599611,-26.59818884150835 L53.00262012138324,-26.564785102484066 L53.04279392104234,-26.52940334759184 L53.081380962771235,-26.49212881457828 L53.11828828700657,-26.45305130105828 L53.153426980771556,-26.412264948184696 L53.18671239187514,-26.369868013854067 L53.21806433284651,-26.32596263599472 L53.247407274113755,-26.280654586507584 L53.27467052596123,-26.234053016452386 L53.299788408827254,-26.186270193093204 L53.32270041153193,-26.137421229436793 L53.3433513370539,-26.08762380691526 L53.361691435504774,-26.036997891881207 L53.37767652398097,-25.98566544659825 L53.39126809300423,-25.93375013542327 L53.40243339929428,-25.88137702688813 L53.411145544650324,-25.828672292398636 L53.41738354075109,-25.775762902276565 L53.421132359717596,-25.72277631987703 L53.42238297031659,-25.669840194518116 " />
			<path d="M33.64855040444852,10.031492034199719 L33.64855040444852,-7.396737623453825 " />
			<path d="M-30.34504615716746,5.477761359254342 L33.648550404448535,10.03149203419972 " />
			<path d="M33.64855040444852,-7.396737623453826 L-30.34504615716747,-11.950468298399205 " />
			<path d="M-30.34504615716746,-11.950468298399205 L-30.34504615716746,5.477761359254339 " />
			<path d="M43.0871339681087,1.989018897842766 L43.08588316915108,1.8832037833958724 L43.08213152571273,1.777274396407092 L43.075881297643384,1.6712945447781922 L43.06713624984672,1.5653280668089538 L43.05590165001252,1.459438792743362 L43.042184265443645,1.3536905063206601 L43.025992358979636,1.248146906354405 L43.00733568401948,1.1428715683626862 L42.986225478646574,1.037927906272613 L42.962674458859254,0.9333791342221323 L42.93669681091123,0.8292882284821964 L42.908308182766234,0.7257178895222138 L42.87752567467236,0.6227305042416287 L42.84436782886146,0.5203881083903874 L42.80885461837997,0.4187523492009231 L42.77100743505798,0.31788444825416606 L42.73084907662352,0.21784516460195213 L42.6884037329701,0.11869475816804376 L42.6436969715856,0.020492953449803064 L42.59675572215137,-0.07670109645760692 L42.54760826032084,-0.17282884549284394 L42.49628419068728,-0.26783238989433666 L42.44281442895108,-0.361654503079349 L42.387231183297374,-0.4542386701151315 L42.32956793499494,-0.5455291217614087 L42.269859418228386,-0.6354708680636789 L42.208141599175576,-0.724009731477107 L42.144451654342916,-0.8110923795010545 L42.078827948171664,-0.8966663568045812 L42.01131000992859,-0.980680116823577 L41.941938509895024,-1.0630830528104833 L41.870755234868625,-1.1438255283179068 L41.79780306299256,-1.2228589070977565 L41.72312593792729,-1.3001355823979028 L41.64676884238062,-1.3756090056387076 L41.56877777101172,-1.4492337144521432 L41.489199702725706,-1.5209653600666249 L41.4080825723753,-1.5907607340210546 L41.325475241886664,-1.658577794191979 L41.2414274708268,-1.724375690118193 L41.15598988643024,-1.788114787607535 L41.06921395310311,-1.8497566926110331 L40.98115194142288,-1.9092642743500536 L40.89185689665254,-1.966601687682489 L40.80138260678811,-2.021734394694531 L40.709783570158734,-2.0746291855050223 L40.61711496259899,-2.125254198269839 L40.52343260421295,-2.1735789383742867 L40.42879292575031,-2.2195742968019023 L40.33325293461457,-2.2632125676686465 L40.236870180523916,-2.304467464911889 L40.13970272084543,-2.3433141381241507 L40.04180908562349,-2.3797291875220594 L39.943248242323484,-2.4136906780415046 L39.84407956031199,-2.4451781525504988 L39.74436277509489,-2.47417264417179 L39.64415795233495,-2.5006566877078003 L39.5435254516705,-2.524614330161005 L39.44252589035705,-2.546031140343424 L39.34122010675371,-2.5648942175694316 L39.23966912367647,-2.5811921994266394 L39.1379341116403,-2.5949152686202 L39.036076352012316,-2.6060551588863694 L38.93415720009823,-2.6146051599717977 L38.83223804818414,-2.6205601216755365 L38.730380288556155,-2.623916456951326 L38.628645276519975,-2.624672144068297 L38.52709429344274,-2.622826727828789 L38.4257885098394,-2.6183813198425376 L38.32478894852595,-2.611338597857091 L38.2241564478615,-2.6017028041448285 L38.12395162510156,-2.589479742947577 L38.02423483988446,-2.5746767769803505 L37.92506615787296,-2.5573028229963315 L37.82650531457296,-2.537368346415744 L37.728611679351026,-2.5148853550218826 L37.63144421967254,-2.4898673917280707 L37.53506146558188,-2.4623295264199143 L37.43952147444614,-2.4322883468777663 L37.3448817959835,-2.3997619487848727 L37.251199437597464,-2.3647699248272023 L37.15853083003771,-2.3273333528915536 L37.066931793408344,-2.2874747833690168 L36.976457503543905,-2.2452182255714623 L36.88716245877357,-2.200589133269235 L36.799100447093345,-2.153614389358747 L36.71232451376621,-2.1043222896692324 L36.626886929369654,-2.0527425259183927 L36.54283915830978,-1.9989061678272209 L36.460231827821154,-1.9428456444047586 L36.37911469747075,-1.8845947244140788 L36.299536629184736,-1.824188496031241 L36.22154555781584,-1.7616633457094872 L36.14518846226916,-1.6970569362614096 L36.0705113372039,-1.6304081841722668 L35.99755916532783,-1.561757236158162 L35.92637589030143,-1.491145444983152 L35.85700439026786,-1.4186153445498988 L35.78948645202478,-1.3442106242788263 L35.72386274585353,-1.2679761027912528 L35.66017280102088,-1.1899577009123323 L35.59845498196806,-1.1102024140100615 L35.53874646520151,-1.0287582836870266 L35.48108321689908,-0.9456743688419413 L35.425499971245365,-0.8610007161184035 L35.37203020950918,-0.7747883297586582 L35.32070613987561,-0.6870891408805626 L35.27155867804508,-0.5979559761962117 L35.224617428610856,-0.5074425261911077 L35.17991066722635,-0.4156033127830181 L35.13746532357293,-0.3224936564800105 L35.09730696513847,-0.22816964305744558 L35.059459781816486,-0.13268808977400925 L35.023946571334996,-0.03610651114711483 L34.99078872552409,0.0615169156916906 L34.96000621743022,0.16012338604045562 L34.931617589285224,0.2596535030485756 L34.9056399413372,0.3600473134952351 L34.88208892154988,0.46124434390298785 L34.86097871617697,0.5631836369647165 L34.84232204121682,0.6658037882620389 L34.82613013475281,0.7690429832530254 L34.81241275018393,0.8728390345069743 L34.801178150349735,0.9771294191637961 L34.79243310255307,1.0818513165954422 L34.78618287448372,1.1869416462467046 L34.78243123104537,1.2923371056325808 L34.78118043208775,1.3979742084693274 L34.78243123104537,1.5037893229162205 L34.78618287448372,1.609718709905 L34.79243310255307,1.7156985615338993 L34.801178150349735,1.8216650395031377 L34.81241275018393,1.9275543135687292 L34.82613013475281,2.033302599991431 L34.84232204121682,2.1388461999576904 L34.86097871617697,2.244121537949408 L34.88208892154988,2.3490652000394805 L34.9056399413372,2.453613972089965 L34.93161758928523,2.5577048778299005 L34.96000621743022,2.661275216789883 L34.99078872552409,2.764262602070468 L35.023946571335,2.8666049979217085 L35.059459781816486,2.968240757111172 L35.09730696513847,3.069108658057929 L35.13746532357293,3.1691479417101425 L35.17991066722635,3.268298348144051 L35.224617428610856,3.36650015286229 L35.27155867804508,3.4636942027697 L35.32070613987561,3.559821951804937 L35.37203020950918,3.654825496206429 L35.42549997124537,3.7486476093914405 L35.48108321689908,3.841231776427223 L35.53874646520151,3.9325222280735 L35.59845498196807,4.0224639743757695 L35.66017280102088,4.111002837789197 L35.72386274585353,4.198085485813145 L35.78948645202478,4.2836594631166705 L35.85700439026786,4.367673223135666 L35.92637589030143,4.450076159122577 L35.99755916532783,4.530818634629999 L36.0705113372039,4.609852013409848 L36.14518846226917,4.687128688709997 L36.22154555781584,4.762602111950802 L36.29953662918474,4.836226820764237 L36.379114697470754,4.907958466378719 L36.460231827821154,4.977753840333148 L36.54283915830979,5.045570900504071 L36.626886929369654,5.111368796430286 L36.71232451376621,5.175107893919627 L36.799100447093345,5.236749798923125 L36.887162458773574,5.296257380662145 L36.97645750354391,5.3535947939945805 L37.066931793408344,5.408727501006624 L37.15853083003772,5.461622291817114 L37.251199437597464,5.512247304581932 L37.3448817959835,5.560572044686378 L37.43952147444614,5.606567403113993 L37.53506146558188,5.650205673980737 L37.63144421967254,5.691460571223979 L37.728611679351026,5.730307244436241 L37.82650531457296,5.76672229383415 L37.92506615787296,5.800683784353596 L38.024234839884464,5.832171258862591 L38.12395162510156,5.861165750483882 L38.2241564478615,5.887649794019891 L38.324788948525956,5.911607436473097 L38.42578850983941,5.933024246655517 L38.527094293442744,5.9518873238815235 L38.62864527651998,5.968185305738731 L38.730380288556155,5.981908374932292 L38.83223804818414,5.993048265198461 L38.93415720009823,6.00159826628389 L39.036076352012316,6.0075532279876285 L39.1379341116403,6.010909563263418 L39.23966912367648,6.01166525038039 L39.34122010675372,6.009819834140881 L39.44252589035705,6.0053744261546305 L39.5435254516705,5.998331704169184 L39.64415795233495,5.98869591045692 L39.74436277509489,5.976472849259668 L39.844079560312,5.961669883292442 L39.94324824232349,5.9442959293084225 L40.0418090856235,5.924361452727836 L40.139702720845435,5.9018784613339745 L40.23687018052392,5.876860498040162 L40.33325293461458,5.8493226327320045 L40.428792925750315,5.819281453189857 L40.52343260421296,5.786755055096964 L40.61711496259899,5.751763031139295 L40.70978357015874,5.7143264592036465 L40.80138260678811,5.674467889681109 L40.89185689665255,5.632211331883555 L40.98115194142289,5.5875822395813275 L41.06921395310311,5.540607495670839 L41.15598988643024,5.491315395981324 L41.2414274708268,5.439735632230485 L41.32547524188667,5.385899274139313 L41.4080825723753,5.329838750716851 L41.489199702725706,5.271587830726172 L41.56877777101172,5.211181602343334 L41.64676884238062,5.148656452021582 L41.72312593792729,5.084050042573503 L41.79780306299256,5.01740129048436 L41.870755234868625,4.9487503424702535 L41.941938509895024,4.878138551295245 L42.01131000992859,4.805608450861989 L42.07882794817167,4.7312037305909165 L42.14445165434292,4.654969209103344 L42.208141599175576,4.576950807224424 L42.26985941822839,4.497195520322154 L42.32956793499494,4.4157513899991185 L42.387231183297374,4.332667475154034 L42.44281442895109,4.247993822430495 L42.49628419068728,4.161781436070751 L42.54760826032084,4.0740822471926545 L42.59675572215137,3.9849490825083036 L42.6436969715856,3.8944356325031997 L42.6884037329701,3.8025964190951105 L42.73084907662352,3.709486762792103 L42.77100743505798,3.6151627493695395 L42.80885461837997,3.519681196086105 L42.84436782886145,3.4230996174592114 L42.87752567467236,3.325476190620405 L42.908308182766234,3.2268697202716403 L42.93669681091122,3.127339603263521 L42.962674458859254,3.0269457928168606 L42.986225478646574,2.9257487624091043 L43.00733568401948,2.823809469347376 L43.025992358979636,2.7211893180500555 L43.042184265443645,2.6179501230590674 L43.05590165001252,2.5141540718051183 L43.06713624984672,2.409863687148296 L43.075881297643384,2.30514178971665 L43.08213152571273,2.2000514600653878 L43.08588316915108,2.0946560006795116 L43.0871339681087,1.9890188978428038 " />
			<path d="M53.42238297031658,-25.66984019451811 L53.549377159974526,-25.658501195285506 L53.66629374637162,-25.643329590089746 L53.770355891438896,-25.624685713526397 L53.8590920576908,-25.60301236868944 L53.897038641508864,-25.591198019759336 L53.930394708702124,-25.57882431033593 L53.95896190781645,-25.565964820534138 L53.982570364344426,-25.55269601915607 L54.00107969088201,-25.539096808970225 L54.0143798219406,-25.525248057517118 L54.02239166845014,-25.511232116231426 L54.02506758806129,-25.497132330740154 " />
			<path d="M-49.906510592853174,26.262716633961922 L-49.377949913288205,25.955680431690006 " />
			<path d="M-49.377949913288205,25.955680431690006 L-49.47057578217097,25.946730481075644 L-49.56297850722252,25.933084548779842 L-49.65493548218469,25.914775509048738 L-49.74622517465033,25.89184746996273 L-49.836627659754235,25.864355667176238 L-49.92592514999148,25.832366330850167 L-50.01390251988654,25.795956526097665 L-50.10034782424945,25.755213967327503 L-50.18505280877025,25.710236806932382 L-50.26781341172198,25.661133398831232 L-50.34843025556315,25.608022037435113 L-50.42670912725574,25.55103067266564 L-50.502461446141425,25.490296601712394 L-50.57550471824888,25.42596613827198 L-50.64566297593778,25.35819426006551 L-50.712767201820206,25.287144235483694 L-50.77665573593837,25.212987230258996 L-50.83717466521761,25.135901895112397 L-50.89417819425646,25.056073935368136 L-50.94752899656054,24.97369566357334 L-50.997098545374136,24.88896553620025 L-51.04276742331236,24.80208767554719 L-51.08442561004815,24.71327137799008 L-51.12197274736082,24.622730609769114 L-51.15531838090786,24.530683491525377 L-51.1843821781373,24.437351772829093 L-51.209094121815944,24.342960297965494 L-51.22939467870696,24.24773646426524 L-51.24523494299067,24.151909674284344 L-51.25657675408297,24.0557107831533 L-51.26339278856753,23.959371542426876 L-51.26566662602024,23.863124041774313 " />
			<path d="M53.09141251600778,32.94699373380566 L53.03475264057517,32.97848452341892 L52.976926841437574,33.00780948013921 L52.91800624254265,33.034932535175116 L52.85806331440797,33.05982032800633 L52.79717178498449,33.08244224741604 L52.73540654897349,33.10277046914179 L52.672843575708335,33.12077999009844 L52.60955981571464,33.136448659131254 L52.5456331060634,33.14975720426105 L52.48114207463385,33.160689256388196 L52.41616604340361,33.1692313694261 L52.35078493088505,33.17537303683943 L52.28507915382803,33.1791067045669 L52.21912952830978,33.18042778031246 L52.15301717033359,33.17933463919374 L52.08682339605868,33.175828625740564 " />
			<path d="M51.55826271649371,33.48286482801249 L52.086823396058676,33.17582862574057 " />
			<path d="M52.086823396058676,33.175828625740564 L-49.377949913288205,25.955680431690002 " />
			<path d="M-50.11887872303552,23.750863930318623 L-50.29031542235032,23.74238969202757 L-50.46658956885694,23.740878180310933 L-50.640927045960815,23.74638748171632 L-50.80662816218643,23.758705876880374 L-50.88423036187775,23.767280340766188 L-50.95732511656349,23.777359976785174 L-51.02520848379837,23.788847712532377 L-51.087226709647105,23.80163291483272 L-51.142782524692144,23.815592455198942 L-51.19134089606472,23.830591895626263 L-51.23243418010381,23.846486783303835 L-51.265666626020234,23.86312404177429 " />
			<path d="M-49.080634531032906,24.901769944772266 L-49.08206618586303,24.988974541513286 L-49.08634736273475,25.077002581456714 L-49.09343683157447,25.16500630645687 L-49.10326631692177,25.252138192534275 L-49.1157411554594,25.337559111994867 L-49.13074120767281,25.42044641468842 L-49.148122014859325,25.50000185057918 L-49.167716190344414,25.575459257330103 L-49.1893350315069,25.646091938864956 L-49.212770337088315,25.71121966384881 L-49.23779641228489,25.77021521668763 L-49.26417224231181,25.822510437957337 L-49.29164381350744,25.86760169608962 L-49.31994655962367,25.905054737619277 L-49.34880790974355,25.934508869282467 L-49.377949913288205,25.955680431690006 " />
			<path d="M52.384138778313975,32.12191813882283 L52.382707123483854,32.209122735563845 L52.37842594661213,32.297150775507276 L52.37133647777241,32.38515450050743 L52.36150699242511,32.472286386584834 L52.34903215388748,32.55770730604543 L52.33403210167407,32.64059460873898 L52.316651294487556,32.72015004462974 L52.29705711900247,32.79560745138066 L52.27543827783998,32.866240132915514 L52.252002972258566,32.93136785789937 L52.226976897061995,32.99036341073819 L52.20060106703507,33.04265863200789 L52.17312949583944,33.08774989014018 L52.14482674972321,33.12520293166984 L52.11596539960333,33.154657063333026 L52.086823396058676,33.175828625740564 " />
			<path d="M53.42238297031659,31.118773296712547 L53.549377159974526,31.13011229594515 L53.66629374637162,31.14528390114091 L53.770355891438896,31.16392777770426 L53.8590920576908,31.185601122541215 L53.897038641508864,31.19741547147132 L53.930394708702124,31.209789180894727 L53.95896190781645,31.22264867069652 L53.982570364344426,31.235917472074586 L54.00107969088201,31.24951668226043 L54.0143798219406,31.26336543371354 L54.02239166845014,31.27738137499923 L54.02506758806129,31.291481160490502 " />
			<path d="M32.50176250146381,9.241476391088629 L32.50176250146381,-6.40327488885837 " />
			<path d="M32.50176250146381,-6.403274888858371 L-29.742361539422756,-10.8325145660998 " />
			<path d="M41.94034606512399,2.101279009298436 L41.9385133170877,1.9870132840245909 L41.933017106555965,1.872613511873639 L41.92386353200381,1.7582066283310946 L41.91106275003738,1.6439195767731165 L41.89462896412443,1.529879167612912 L41.87458040883443,1.4162119375946771 L41.85093932960593,1.303044009391195 L41.82373195806344,1.1905009516608738 L41.79298848291148,1.0787076397195055 L41.75874301643778,0.9677881169813527 L41.721033556663066,0.857865457323286 L41.67990194517929,0.7490616285247012 L41.635393820723095,0.6414973569347386 L41.58755856853608,0.5352919935169649 L41.53644926556803,0.43056338142015727 L41.48212262158387,0.3274277252221185 L41.42463891623976,0.2259994619916217 L41.36406193219811,0.12639113431154048 L41.30045888435574,0.028713265404058275 L41.23390034526368,-0.06692576350348034 L41.164460166821414,-0.16041983343600918 L41.092215398332435,-0.2516652054180377 L41.01724620101204,-0.3405606355801436 L40.93963575904217,-0.42700748749696205 L40.85947018727206,-0.5109098416320048 L40.77683843566711,-0.5921746017678791 L40.691832190611926,-0.6707115983038152 L40.60454577317713,-0.746433688305884 L40.51507603446275,-0.8192568521988917 L40.42352224813437,-0.8891002869926599 L40.329986000271205,-0.9558864959392603 L40.23457107664848,-1.0195413745217108 L40.13738334757891,-1.0799942926787245 L40.03853065044142,-1.137178173174283 L39.938122670027056,-1.1910295660250725 L39.83627081683519,-1.2414887189031942 L39.733088103454854,-1.2884996434360416 L39.62868901916844,-1.332010177329777 L39.523189402916906,-1.3719720422474682 L39.41670631476739,-1.4083408973776792 L39.30935790602597,-1.441076388634063 L39.20126328813952,-1.4701421934313723 L39.09254240053225,-1.495506060988208 L38.98331587752358,-1.5171398481117797 L38.873704914474885,-1.5350195504249782 L38.763831133313836,-1.549125329001103 L38.653816447585314,-1.5594415323767108 L38.543782927178825,-1.5659567139181259 L38.43385266288242,-1.5686636445223834 L38.32414763091345,-1.567559320638479 L38.21478955757638,-1.5626449676000451 L38.10589978419797,-1.5539260382657476 L37.99759913248959,-1.5414122069689116 L37.89000777048607,-1.5251173587830964 L37.78324507920993,-1.5050595741155157 L37.677429520208726,-1.4812611086454193 L37.572678504112794,-1.453748368629673 L37.46910826035893,-1.4225518816029576 L37.36683370822474,-1.3877062625050796 L37.26596832931676,-1.3492501752729957 L37.16662404165373,-1.3072262899401506 L37.06891107548482,-1.2616812352907418 L36.97293785098051,-1.2126655471214405 L36.87881085793201,-1.1602336121679842 " />
			<path d="M40.39487277775386,4.892642446035976 L40.482227223542424,4.839884533693116 L40.567744800697305,4.784166665280262 L40.65134038631972,4.72554430151825 L40.7329307706321,4.664075794218521 L40.81243473980383,4.599822328200608 L40.88977315679027,4.532847860389698 L40.96486904010457,4.463219056154879 L41.03764764044388,4.391005222951441 L41.108036515093644,4.31627824133329 L41.17596560003603,4.23911249340413 L41.24136727969053,4.159584788778652 L41.30417645421752,4.077774288127404 L41.364330604317665,3.9937624243814636 L41.421769853462635,3.907632821675331 L41.47643702749533,3.819471212108736 L41.528277711540156,3.729365350410207 L41.57724030416677,3.6374049265873465 L41.62327606875336,3.543681476650756 L41.66633918199834,3.4482882915004818 L41.706386779532146,3.3513203240656653 L41.74337899858383,3.2528740947898447 L41.77727901765981,3.1530475955559627 L41.80805309319544,3.0519401921467364 L41.83567059314286,2.949652525337466 L41.860104027461645,2.8462864107197303 L41.88132907548199,2.741944737355697 L41.89932461011314,2.6367313653639055 L41.91407271887296,2.530751022538483 L41.92555872171775,2.42410920010469 L41.93377118565455,2.316912047714552 L41.93870193612136,2.209266267787106 L41.94034606512399,2.101279009298442 " />
			<path d="M-50.911099712802276,-34.213518068177315 L-50.38253903323731,-34.52055427044923 " />
			<path d="M-49.3140682002401,-34.76591652467319 L52.15070510910678,-27.545768330622625 " />
			<path d="M-50.38253903323731,-34.52055427044924 L-50.321922104599444,-34.55425409298262 L-50.260073590665336,-34.58564742492256 L-50.197077705388295,-34.61469207858937 L-50.13301994874541,-34.641349451342066 L-50.06798710673755,-34.66558452557845 L-50.00206725138936,-34.687365868735085 L-49.935349740749274,-34.70666563328727 L-49.867925203019134,-34.723459557391415 L-49.79988421330644,-34.737727097034195 L-49.73131831238095,-34.74945155054837 L-49.66231983382341,-34.75861986226918 L-49.59298107904827,-34.765222607659965 L-49.52339431730368,-34.76925399331217 L-49.45365178567149,-34.770711856945326 L-49.38384568906722,-34.76959766740708 L-49.3140682002401,-34.76591652467319 " />
			<path d="M52.15070510910678,-27.54576833062262 L52.24433543340701,-27.536786335909177 L52.33752942000638,-27.52320800982368 L52.43006865019333,-27.5050752147129 L52.521738425672446,-27.482439919029947 L52.6123277685645,-27.45536419733428 L52.701629421406395,-27.423920230291692 L52.7894398471512,-27.388190304674318 L52.87556012446054,-27.34826597109999 L52.959797451462215,-27.30424668010518 L53.04196360426781,-27.256241013021775 L53.12187588580342,-27.204365646401367 L53.19935722985679,-27.148745210900355 L53.27423664413972,-27.089511656571656 L53.34634929753037,-27.02680413717683 L53.41553687185769,-26.960768302268427 L53.48164732464249,-26.891556668314262 L53.54453523656532,-26.819328212201576 L53.60406235026423,-26.74424736896909 L53.66009757138177,-26.666484029693624 L53.71251696856506,-26.586213541490086 L53.76120383613807,-26.50361659815072 L53.80604976795021,-26.418877332746167 L53.846953404983154,-26.332185473152666 L53.88382132358629,-26.243734880723288 L53.91656852303569,-26.15372271209778 L53.94511842553411,-26.062349419202576 L53.96940287621098,-25.96981874925078 L53.98936214312241,-25.876337744742184 L54.00494509196628,-25.78211647540727 L54.0161104114321,-25.687365978792737 L54.02282562835565,-25.592299578370696 L54.02506758806129,-25.49713233074016 " />
			<path d="M52.56285183644281,33.25402993607758 L53.09141251600778,32.94699373380566 " />
			<path d="M54.02506758806129,31.291481160490505 L54.02113575073268,31.41720990529739 L54.0093422922289,31.542233650205837 L53.98971250755014,31.666046776788683 L53.96230368082259,31.788146434501336 L53.945708775006615,31.848397328579043 L53.927205085298496,31.908032540681777 L53.90680876915572,31.96698999295843 L53.88453798335612,32.02520778055056 L53.860411383595,32.082628491045554 L53.834450470241535,32.139193891173065 L53.80668063112505,32.19484181864213 L53.77712910842434,32.24951150327906 L53.7458249985804,32.30314356726394 L53.71279925229648,32.355680025130624 L53.678084674538,32.407064283766765 L53.64171592453263,32.457241142413764 L53.60372951577026,32.50615679266682 L53.56416381600299,32.55375881847491 L53.52305904724512,32.599996196140765 L53.48045728577319,32.64481929432091 L53.43640246212596,32.68817987402566 L53.3909403611044,32.730031088619064 L53.34411862177169,32.770327483818996 L53.29598673745324,32.80902499769707 L53.246596055736674,32.846080960678705 L53.19599977847183,32.881454095543084 L53.144252961770775,32.91510451742315 L53.091412516007786,32.946993733805655 " />
			<path d="M54.02506758806129,-25.497132330740154 L54.02506758806129,31.291481160490502 " />
			<path d="M-29.742361539422756,4.8122367138472 L32.58548411314058,9.247433950777921 " />
			<path d="M-29.742361539422756,-10.946029938704505 L-29.742361539422756,4.818738727115976 " />
			<path d="M36.87881085793199,-1.160233612167977 L36.77693633520436,-1.098168173667374 L36.67768701278011,-1.031881132926 L36.58119263210563,-0.961449375294643 L36.487580751728714,-0.8869552378750074 L36.39697674729857,-0.8084865095197147 L36.309503811565826,-0.7261364308323026 L36.22528295438253,-0.6400036941672264 L36.14443300270213,-0.5501924436298569 L36.067070600579505,-0.4568122750764826 L35.99331020917095,-0.35997823611430846 L35.92326410673416,-0.25981082610145584 L35.85704238862825,-0.1564359961469634 L35.79475296731376,-0.04998514911078601 L35.736501572352644,0.059404860396204476 L35.68239175040826,0.17159172601222009 L35.63252486524539,0.2864276896245547 L35.59756962491563,0.37521567495928365 L35.56514083297356,0.46536634534880567 L35.53527620061451,0.5568051020454435 L35.50801092672819,0.6494559432309617 L35.48337769789867,0.7432414640165649 L35.461406688404416,0.8380828564428985 L35.44212556021827,0.9338999094800504 L35.42555946300745,1.030611009027548 L35.411731034133545,1.1281331379143607 L35.40066039865254,1.2263818758988976 L35.39236516931478,1.3252713996690102 L35.386860446564995,1.4247144828419902 L35.3841588185423,1.524622495964571 L35.38427036108019,1.624905406512927 L35.387202637706515,1.7254717788926723 L35.39296069964353,1.8262287744388628 L35.40236106239737,1.9352250918264289 L35.415058724456244,2.044229858324645 L35.43104686615096,2.1531236456064553 L35.45031473710762,2.261787841303005 L35.47284765624768,2.3701046490036433 L35.498627011787946,2.477957088255921 L35.52763026124053,2.5852289945655924 L35.5598309314129,2.6918050193966128 L35.59519861840784,2.797570630171142 L35.6336989876235,2.9024121102695415 L35.67529377375333,3.006216559030376 L35.71994078078614,3.108871891750411 L35.76759388200607,3.210266839684617 L35.81820301999257,3.3102909500461646 L35.87171420662048,3.4088345860064293 L35.92806952305992,3.5057889266949873 L35.98295338727931,3.594397771121683 L36.04019514440865,3.681468708127517 L36.09973961832026,3.7669197500592655 L36.16152969253341,3.8506712140258736 L36.22550631021433,3.932645721898457 L36.29160847417617,4.012768200310304 L36.35977324687906,4.090965880656871 L36.42993575043004,4.167168299095787 L36.50202916658312,4.24130729654685 L36.57598473673925,4.313317018692032 L36.65173176194632,4.383133915975474 L36.72919760289918,4.450696743603485 L36.808307679939595,4.515946561544547 L36.888985473056316,4.578826734529316 L36.971152521885024,4.639282932050612 L37.054728425708326,4.697263128363431 L37.13576257191144,4.750262937063899 L37.21794319503045,4.800924549620467 L37.3011972807416,4.849210794472012 L37.38545173864058,4.89508693921288 L37.47063340224258,4.938520690592885 L37.55666902898224,4.979482194517309 L37.643485300213655,5.017944036046906 L37.731008821210395,5.053881239397897 L37.81916612116549,5.087271267941972 L37.90788365319143,5.1180940242062904 L37.99708779432019,5.146331849873482 L38.086704845503185,5.171969525781644 L38.1766610316113,5.194994271924342 L38.26688250143491,5.2153957474506125 L38.35729532768381,5.233166050664961 L38.4478255069873,5.2482997190273615 L38.576875180198854,5.2653084741924605 L38.70581823129801,5.276942918545404 L38.83445350575195,5.283216000275062 L38.96258407633077,5.284146090073631 L39.09001724310742,5.2797569811366385 L39.21656453345772,5.270077889162941 L39.342041702060406,5.255143452354725 L39.466268730897056,5.234993731417504 L39.58906982925214,5.209674209560122 L39.710273433713006,5.179235792494753 L39.82971220816989,5.143734808436898 L39.94722304381588,5.10323300810539 L40.062647059146975,5.057797564722389 L40.17582959996203,5.007501074013385 L40.28662023936278,4.952421554207198 L40.39487277775384,4.892642446035989 " />

       </g>
    </g>
    <g transform="translate(20,210.0)" stroke="rgb(0,0,255)">
        <line x1="30" y1="-30" x2="75" y2="-33" stroke-width="3" stroke="#000000" />
         <text x="80" y="-30" style="stroke:#000000">X </text>

        <line x1="30" y1="-30" x2="30" y2="-75" stroke-width="3" stroke="#000000" />
         <text x="25" y="-85" style="stroke:#000000">Y </text>

        <line x1="30" y1="-30" x2="58" y2="-15" stroke-width="3" stroke="#000000" />
         <text x="65" y="-5" style="stroke:#000000">Z </text>
        <!--
            <line x1="0" y1="0" x2="2.637046410735661" y2="0" stroke-width="3" />
            <text x="0" y="20" style="stroke:#000000">1  mm </text>
        -->
    </g>
</svg>
