<?xml version="1.0" encoding="UTF-8" standalone="no"?>
<svg
   xmlns:svg="http://www.w3.org/2000/svg"
   xmlns="http://www.w3.org/2000/svg"
   width="800.0"
   height="240.0"

>
    <g transform="scale(2.86476775211269, -2.86476775211269)   translate(120.07414476492954,-38.070594152397476)" stroke-width="0.3490684364421956"  fill="none">
       <!-- hidden lines -->
       <g  stroke="rgb(160,160,160)" fill="none" stroke-dasharray="0.3490684364421956,0.3490684364421956" >
			<path d="M-48.34914430484924,-31.394190003722084 L50.00089642848979,-24.395683568186563 " />
			<path d="M50.000896428489774,-24.395683568186566 L50.57900967176396,-24.731504414421476 " />
			<path d="M50.579009671763956,-24.731504414421476 L50.58275720225489,-24.73364869341523 L50.58633447220362,-24.735628821039136 L50.58974062574648,-24.737444323546647 L50.59297484795954,-24.73909476657787 L50.59603636505346,-24.740579755263475 L50.598924444558726,-24.74189893431916 L50.601638395500856,-24.743051988130663 L50.6041775685657,-24.744038640829267 L50.60654135625483,-24.74485865635783 L50.60872919303082,-24.74551183852721 L50.61074055545261,-24.74599803106324 L50.61257496230073,-24.74631711764411 L50.61423197469239,-24.746469021928192 L50.61571119618654,-24.746453707572314 " />
			<path d="M50.000896428489774,-24.395683568186566 L50.000896428489774,30.43470187162234 " />
			<path d="M-47.64125053757473,-30.609481357503697 L49.293002661215276,-23.711721175838647 " />
			<path d="M49.29300266121526,-23.711721175838647 L49.29300266121526,29.649993225403954 " />
			<path d="M49.29300266121526,29.649993225403954 L-47.64125053757474,22.752233043738904 " />
			<path d="M-47.64125053757473,22.752233043738904 L-47.64125053757473,-30.609481357503697 " />
			<path d="M-48.34914430484924,-30.198272158032378 L-47.64125053757473,-30.609481357503697 " />
			<path d="M46.81537447575447,-22.272488977689033 L49.29300266121526,-23.711721175838647 " />
			<path d="M-50.11887872303552,-29.170249159354082 L46.81537447575448,-22.272488977689033 " />
			<path d="M46.81537447575447,-22.272488977689033 L46.81537447575447,31.089225423553568 " />
			<path d="M48.16680803146036,30.30418967910832 L49.29300266121526,29.649993225403954 " />
			<path d="M47.80642574993878,-10.364478029135242 L47.14572490048257,-9.980682776295344 " />
			<path d="M47.80642574993878,-5.468907900580876 L47.80642574993878,-10.364478029135242 " />
			<path d="M47.14572490048257,-9.980682776295346 L47.14572490048257,-5.08511264774098 " />
			<path d="M47.14572490048257,-5.08511264774098 L47.80642574993878,-5.468907900580876 " />
			<path d="M47.80642574993878,13.13425858792572 L47.14572490048257,13.518053840765617 " />
			<path d="M47.80642574993878,18.029828716480083 L47.80642574993878,13.134258587925716 " />
			<path d="M47.14572490048257,18.413623969319982 L47.80642574993878,18.029828716480086 " />
			<path d="M47.14572490048257,13.518053840765615 L47.14572490048257,18.413623969319982 " />
			<path d="M-48.34914430484924,23.163442243210223 L-47.64125053757473,22.752233043738904 " />
			<path d="M-50.11887872303552,11.49235632841849 L-50.11887872303552,6.504469734582809 " />
			<path d="M-50.11887872303552,-12.006380288642479 L-50.11887872303552,-16.994266882478154 " />
			<path d="M-49.78852829830742,6.620293659100566 L-49.78852829830742,11.515863787654933 " />
			<path d="M-49.12782744885121,6.23649840626067 L-49.78852829830742,6.620293659100566 " />
			<path d="M-49.78852829830742,-16.87844295796039 L-49.78852829830742,-11.982872829406025 " />
			<path d="M-49.12782744885121,-17.26223821080029 L-49.78852829830742,-16.878442957960395 " />
			<path d="M32.62108306249729,9.221168567888384 L32.615064129353904,9.220830211457933 L32.60919930815814,9.220682691595616 L32.603490002071446,9.220726043595635 L32.597937577048214,9.220960257086002 L32.59254336150893,9.221385276031022 L32.587308646022436,9.222000998744692 L32.58223468299704,9.22280727791504 L32.577322686381,9.223803920639371 L32.57257383137199,9.224990688470402 L32.56798925413598,9.226367297473326 L32.56357005153543,9.227933418293741 L32.55931728086677,9.229688676236442 L32.555231959607575,9.231632651355078 L32.55131506517303,9.23376487855261 " />
			<path d="M-29.706634930561545,4.785980415100963 L-29.7081141520557,4.785965100745083 L-29.709771164447368,4.7861170050291655 L-29.71160557129548,4.786436091610036 L-29.713616933717272,4.7869222841460655 L-29.715804770493257,4.787575466315445 L-29.71816855818238,4.788395481844003 L-29.720707731247224,4.789382134542614 L-29.72342168218936,4.790535188354116 L-29.72630976169463,4.791854367409798 L-29.72937127878855,4.793339356095402 L-29.7326055010016,4.7949897991266255 L-29.73601165454447,4.796805301634141 L-29.739588924493194,4.798785429258046 L-29.743336454984124,4.800929708251799 " />
			<path d="M-29.701230222258637,-10.956494633088772 L-29.701447080303485,-10.947195186817343 L-29.7020975290316,-10.938301934841405 L-29.703181192296217,-10.929820020022929 L-29.70469744342773,-10.921754347352481 L-29.706645405596134,-10.914109581112742 L-29.70902395231805,-10.906890142181208 L-29.71183170810815,-10.900100205473644 L-29.715067049274644,-10.893743697529775 L-29.71872810485816,-10.887824294242636 L-29.722812757713744,-10.882345418732816 L-29.72731864573518,-10.877310239368933 L-29.732243163220964,-10.872721667935394 L-29.73758346238113,-10.868582357948545 L-29.743336454984124,-10.864894703122173 " />
			<path d="M-47.75923283212049,-26.554553671959443 L44.455728584839434,-19.992614336529304 " />
			<path d="M44.45572858483942,-19.992614336529304 L44.45572858483942,28.47352993615893 " />
			<path d="M44.45572858483942,28.47352993615893 L-47.7592328321205,21.91159060072879 " />
			<path d="M-47.75923283212049,21.91159060072879 L-47.75923283212049,-26.554553671959443 " />
			<path d="M47.80642574993878,-10.364478029135242 L48.27835492812179,-10.33089594451175 " />
			<path d="M47.14572490048257,-9.980682776295346 L47.61765407866558,-9.947100691671855 " />
			<path d="M48.27835492812179,-10.33089594451175 L47.61765407866558,-9.947100691671853 " />
			<path d="M47.80642574993878,-5.468907900580876 L48.27835492812179,-5.435325815957385 " />
			<path d="M48.27835492812179,-5.435325815957385 L48.27835492812179,-10.330895944511752 " />
			<path d="M47.14572490048257,-5.08511264774098 L47.61765407866558,-5.051530563117488 " />
			<path d="M47.61765407866558,-9.947100691671855 L47.61765407866558,-5.051530563117488 " />
			<path d="M47.61765407866558,-5.051530563117488 L48.27835492812179,-5.435325815957385 " />
			<path d="M47.80642574993878,13.13425858792572 L48.27835492812179,13.167840672549211 " />
			<path d="M47.14572490048257,13.518053840765615 L47.61765407866558,13.551635925389107 " />
			<path d="M48.27835492812179,13.167840672549211 L47.61765407866558,13.551635925389109 " />
			<path d="M47.80642574993878,18.029828716480083 L48.27835492812179,18.063410801103572 " />
			<path d="M48.27835492812179,18.063410801103576 L48.27835492812179,13.16784067254921 " />
			<path d="M47.14572490048257,18.413623969319982 L47.61765407866558,18.44720605394347 " />
			<path d="M47.61765407866558,18.447206053943475 L48.27835492812179,18.06341080110358 " />
			<path d="M47.61765407866558,13.551635925389107 L47.61765407866558,18.447206053943475 " />
			<path d="M-49.78852829830742,6.620293659100566 L-50.26045747649043,6.586711574477075 " />
			<path d="M-49.78852829830742,-16.87844295796039 L-50.26045747649043,-16.91202504258388 " />
			<path d="M31.973201821898844,9.569585724787519 L32.55131506517303,9.23376487855261 " />
			<path d="M31.97320182189884,9.56958572478752 L31.97320182189884,9.175065882033024 " />
			<path d="M-30.321449698258306,5.13675055448671 L-29.743336454984117,4.8009297082518 " />
			<path d="M-30.321449698258313,5.13675055448671 L31.97320182189884,9.56958572478752 " />
			<path d="M-29.70123022225864,-10.484939559007335 L-30.321449698258313,-10.529073856887264 " />
			<path d="M-30.321449698258306,-10.529073856887264 L-29.743336454984117,-10.864894703122173 " />
			<path d="M-30.321449698258313,-10.529073856887262 L-30.321449698258313,5.136750554486711 " />
			<path d="M36.65160698805907,-1.0061686350296983 L36.5746458908925,-0.9711195364543177 L36.498731636383674,-0.9339241320034617 L36.42391604277302,-0.894607810853675 L36.35025017836704,-0.853197409896068 " />
			<path d="M36.350250178367034,-0.8531974098960609 L36.28214110152304,-0.8124143720385772 L36.21513202315341,-0.7698328872551987 L36.14926330702133,-0.7254786050401356 L36.0845746299784,-0.6793782427544777 L36.02110495806481,-0.6315595695326657 L35.95889252303764,-0.5820513895553914 L35.89797479934147,-0.530883524699044 L35.8383884815352,-0.4780867965721236 L35.780169462188596,-0.42369300794945497 L35.72335281026197,-0.36773492361539084 L35.66797274998192,-0.3102462506275274 L35.61406264022598,-0.2512616180128311 L35.56165495442843,-0.19081655590841207 L35.51078126101953,-0.12894747415949626 L35.46147220440993,-0.06569164038749387 L35.41375748653152,-0.001087157541381334 L35.3676658489462,0.06482705905409203 L35.323225055532966,0.1320113051395384 L35.280461875764026,0.20042511143729813 L35.23940206857985,0.2700272680286142 L35.20007036687296,0.3407758491769486 L35.16249046258976,0.41262823858247755 L35.12668499245938,0.4855411550525566 L35.09267552435819,0.5594706785726942 L35.06048254431806,0.6343722767623245 L35.03012544418641,0.7102008316994484 L35.00162250994522,0.7869106670979851 L34.97499091069629,0.8644555758214578 L34.9502466883192,0.9427888477164406 L34.92740474780823,1.0218632977490116 L34.90647884829426,1.1016312944272577 L34.88748159475668,1.182044788492696 L34.87042443043067,1.2630553418633568 L34.85531762991419,1.3446141568110692 L34.84217029297902,1.4266721053553892 L34.830990339089304,1.509179758856458 L34.821784502631225,1.5920874177889663 L34.814558328856435,1.6753451416792908 L34.806061185367504,1.8427099983179809 L34.80551937898544,2.0108711321734534 L34.81293421496928,2.179423428345072 L34.82828783032967,2.3479608295879237 L34.85154323686239,2.5160773145402824 L34.88264441025617,2.683367875864632 L34.92151642506016,2.849429495945821 L34.968065635185916,3.0138621177957927 L35.02217989950901,3.176269608825914 L35.08372885202685,3.3362607151650776 L35.15256421592176,3.4934500042245467 L35.22852016077285,3.6474587932388207 L35.31141370205602,3.7979160615455907 L35.40104514196971,3.9444593444070026 L35.49719855052437,4.086735606218965 L35.59964228573674,4.224402091004846 L35.70812955167571,4.357127148144638 L35.82239899301525,4.484591031350349 L35.94217532466235,4.606486668962818 L36.067169994942915,4.72252040371424 L36.197081880748,4.832412700174244 L36.331598012965756,4.935898818175231 L36.470394330451455,5.032729450594619 L36.61313646071914,5.122671323957553 L36.75948052547428,5.205507760413123 L36.909073969046645,5.281039199730291 L36.9849768701432,5.316007982665183 L37.06155640772782,5.349083680055967 L37.13876645315057,5.380246368339318 L37.21656049796716,5.409477276277059 L37.294891681953885,5.436758796263263 L37.37371282133451,5.4620744949304125 L37.452976437201976,5.485409123048244 L37.53263478411795,5.506748624709321 L37.612639878872876,5.526080145795774 L37.69294352938924,5.543392041722154 L37.77349736375073,5.558673884449689 L37.85425285933962,5.5719164687677445 L37.93516137206502,5.5831118178387005 L38.01617416566421,5.592253188002895 L38.097242441059606,5.599335072840763 L38.17831736575345,5.604353206489682 L38.259350103242674,5.607304566213585 L38.340291842436244,5.608187374223734 L38.421093827057064,5.607001098749591 L38.50170738501099,5.603746454359145 L38.58208395770503,5.598425401528479 L38.662175129297275,5.591041145460849 L38.741932655860765,5.581598134155998 L38.82130849444382,5.570102055730835 L38.90025483200933,5.556559834993141 L38.97872411423554,5.5409796292703115 L39.05666907416099,5.523370823495691 L39.13404276065638,5.503744024555443 L39.21079856670614,5.482111054899357 L39.286890257482796,5.458484945419443 L39.36227199819708,5.4328799276006166 L39.43689838170709,5.405311424948177 L39.51072445586985,5.375796043697271 L39.58370575061883,5.34435156280991 L39.655798304751016,5.310996923265599 L39.726958692407514,5.275752216651988 L39.797144049231655,5.238638673062454 L39.866312098188864,5.199678648307909 " />
			<path d="M39.866312098188885,5.199678648307895 L39.93877782155927,5.156202513301794 L40.00999407236302,5.11069024838187 L40.07991223933932,5.0631729196117625 L40.14848459728205,5.013682961684901 " />
			<path d="M-47.75923283212049,-26.554553671959443 L-45.281604646659694,-27.993785870109058 " />
			<path d="M44.45572858483942,-19.992614336529304 L46.933356770300215,-21.431846534678918 " />
			<path d="M-45.28160464665969,-27.993785870109058 L46.933356770300236,-21.431846534678918 " />
			<path d="M44.45572858483942,28.47352993615893 L46.933356770300215,27.034297738009315 " />
			<path d="M46.93335677030022,-21.431846534678918 L46.93335677030022,27.034297738009315 " />
			<path d="M-47.75923283212049,21.91159060072879 L-45.281604646659694,20.472358402579175 " />
			<path d="M46.93335677030022,27.034297738009315 L-45.2816046466597,20.472358402579175 " />
			<path d="M-45.28160464665969,20.472358402579175 L-45.28160464665969,-27.993785870109058 " />
			<path d="M-29.706634942968076,4.785980414218126 L-29.70123022225864,4.786365009612141 " />
			<path d="M40.444425341463074,4.863857802072978 L39.866312098188885,5.199678648307891 " />
			<path d="M36.9283634216412,-1.1890182561309715 L36.35025017836701,-0.8531974098960582 " />

       </g>

       <!-- solid lines -->
       <g  stroke="rgb(0,0,0)" fill="none">
			<path d="M-48.34914430484924,-31.394190003722084 L-47.77103106157505,-31.730010849956994 " />
			<path d="M-48.34914430484924,23.436195436086823 L-47.77103106157505,23.100374589851913 " />
			<path d="M-48.34914430484924,23.436195436086823 L-48.34914430484924,-31.394190003722084 " />
			<path d="M-47.77103106157506,-31.730010849956994 L-47.76711416714051,-31.73214307715453 L-47.76302884588131,-31.734087052273168 L-47.75877607521266,-31.735842310215865 L-47.75435687261211,-31.737408431036283 L-47.7497722953761,-31.738785040039208 L-47.745023440367085,-31.739971807870234 L-47.74011144375104,-31.740968450594565 L-47.735037480725644,-31.741774729764916 L-47.72980276523914,-31.74239045247859 L-47.724408549699874,-31.742815471423604 L-47.71885612467663,-31.743049684913974 L-47.71314681858994,-31.74309303691399 L-47.70728199739417,-31.74294551705167 L-47.70126306425079,-31.742607160621226 " />
			<path d="M-47.70126306425079,-31.742607160621226 L-47.6602196676085,-31.736171521737838 L-47.61359369493502,-31.72234144567824 L-47.56182108781751,-31.70124624031444 L-47.505385907632586,-31.673083140723392 L-47.44481580968927,-31.63811546508657 L-47.38067710977931,-31.596670152728617 L-47.31356948926129,-31.549134707313538 L-47.24412038818459,-31.495953573779037 L-47.17297913887655,-31.437623982883633 L-47.10081089484188,-31.37469130221913 L-47.028290411738034,-31.30774393715531 L-46.956095738572735,-31.237407829391785 L-46.884901878109446,-31.164340604554233 L-46.815374475754474,-31.089225423553575 " />
			<path d="M50.61571119618654,-24.746453707572314 L50.61645495013728,-24.746373104798938 L50.617143831123016,-24.746241053045722 L50.61777778842734,-24.746057562034522 L50.618356775377364,-24.745822645274206 L50.61888074934721,-24.745536320059692 L50.61934967176113,-24.745198607470677 L50.61976350809639,-24.744809532370056 L50.620122227885716,-24.74436912340212 L50.62042580471964,-24.74387741299042 L50.62067421624837,-24.743334437335413 L50.620867444183496,-24.742740236411766 L50.621005474299295,-24.742094853965437 L50.621088296433776,-24.741398337510436 L50.62111590448944,-24.740650738325343 " />
			<path d="M50.62111590448944,-24.740650738325343 L50.61820378098731,-24.730026979197493 L50.60949002504966,-24.714103272113654 L50.59504230476573,-24.693003275211527 L50.57497281625762,-24.66689084394944 L50.54943741240311,-24.635968758660137 L50.518634392534715,-24.600477149827086 L50.482802962514036,-24.560691633312196 L50.44222137713968,-24.516921170015962 L50.39720477931438,-24.469505666591367 L50.34810275275148,-24.418813335843435 L50.295296607225836,-24.36523783731284 L50.23919641745061,-24.309195220248668 L50.18023783857544,-24.251120692710323 L50.11887872303552,-24.19146524188852 " />
			<path d="M50.000896428489774,30.43470187162234 L-48.349144304849254,23.43619543608682 " />
			<path d="M50.000896428489774,30.43470187162234 L50.57900967176396,30.09888102538743 " />
			<path d="M-47.77103106157506,23.100374589851913 L-47.73883933997216,23.07995968998223 L-47.69815027309349,23.051200295395407 L-47.649475549563384,23.014458072164974 L-47.59342728227197,22.970195075066375 L-47.53071031070039,22.918967936970123 L-47.4621133371554,22.861420868860446 L-47.38849900838022,22.79827755850842 L-47.31079306727123,22.730332069678322 L-47.2299727111239,22.658438856315072 L-47.147054302809856,22.583502017290144 L-47.06308058942402,22.50646392683363 L-46.97910758913491,22.42829338363156 L-46.89619131114343,22.34997342762032 L-46.815374475754474,22.27248897768904 " />
			<path d="M50.579009671763956,30.09888102538743 L50.584762664366956,30.095193370561063 L50.59010296352712,30.091054060574216 L50.595027481012906,30.086465489140675 L50.59953336903434,30.08143030977679 L50.60361802188993,30.07595143426697 L50.607279077473436,30.070032030979824 L50.61051441863993,30.06367552303596 L50.613322174430046,30.056885586328388 L50.61570072115196,30.049666147396856 L50.617648683320354,30.042021381157117 L50.619164934451874,30.03395570848667 L50.62024859771649,30.025473793668187 L50.6208990464446,30.016580541692253 L50.62111590448944,30.007281095420815 " />
			<path d="M50.62111590448944,30.007281095420815 L50.61820378098731,29.96980875668223 L50.60949002504966,29.927244967000128 L50.59504230476573,29.879920262407257 L50.57497281625762,29.828202150595544 L50.54943741240311,29.772492256975372 L50.518634392534715,29.71322320578811 L50.482802962514036,29.6508552604922 L50.44222137713968,29.58587274951236 L50.39720477931438,29.518780305108486 L50.34810275275148,29.45009894457166 L50.295296607225836,29.38036202417971 L50.23919641745061,29.310111097332197 L50.18023783857544,29.23989170902945 L50.11887872303552,29.170249159354082 " />
			<path d="M-50.11887872303552,-29.170249159354082 L-48.34914430484924,-30.198272158032378 " />
			<path d="M46.81537447575447,31.089225423553568 L48.16680803146036,30.30418967910832 " />
			<path d="M-50.11887872303552,24.19146524188852 L-48.34914430484924,23.163442243210223 " />
			<path d="M46.81537447575447,31.089225423553568 L-50.118878723035536,24.19146524188852 " />
			<path d="M-50.11887872303552,24.19146524188852 L-50.11887872303552,11.49235632841849 " />
			<path d="M-50.11887872303552,6.504469734582809 L-50.11887872303552,-12.006380288642479 " />
			<path d="M-50.11887872303552,-16.994266882478154 L-50.11887872303552,-29.170249159354082 " />
			<path d="M-49.78852829830742,11.515863787654933 L-49.12782744885121,11.132068534815035 " />
			<path d="M-49.12782744885121,11.132068534815037 L-49.12782744885121,6.2364984062606705 " />
			<path d="M-49.78852829830742,-11.982872829406029 L-49.12782744885121,-12.366668082245926 " />
			<path d="M-49.12782744885121,-12.366668082245925 L-49.12782744885121,-17.26223821080029 " />
			<path d="M33.50697165099362,9.874550304956042 L33.43744424863865,9.799435123955377 L33.366250388175345,9.726367899117822 L33.294055715010046,9.656031791354295 L33.2215352319062,9.589084426290476 L33.14936698787153,9.526151745625974 L33.07822573856348,9.467822154730568 L33.00877663748679,9.414641021196063 L32.94166901696876,9.367105575780984 L32.87753031705882,9.32566026342303 L32.8169602191155,9.290692587786218 L32.76052503893056,9.262529488195165 L32.70875243181306,9.241434282831367 L32.662126459139586,9.227604206771764 L32.6210830624973,9.221168567888384 " />
			<path d="M33.50697165099362,-7.259945144984243 L33.426154815604654,-7.182460695052957 L33.343238537613175,-7.104140739041714 L33.25926553732407,-7.025970195839648 L33.17529182393823,-6.948932105383134 L33.09237341562419,-6.873995266358201 L33.01155305947686,-6.802102052994954 L32.93384711836787,-6.734156564164854 L32.860232789592686,-6.671013253812829 L32.791635816047695,-6.613466185703157 L32.72891884447613,-6.5622390476069015 L32.6728705771847,-6.517976050508303 L32.6241958536546,-6.481233827277864 L32.58350678677592,-6.452474432691046 L32.55131506517303,-6.432059532821364 " />
			<path d="M-30.20346740371256,5.340968880784759 L-30.142108288172647,5.281313429962952 L-30.08314970929748,5.223238902424604 L-30.027049519522244,5.167196285360428 L-29.974243373996593,5.113620786829832 L-29.92514134743371,5.062928456081898 L-29.880124749608402,5.0155129526573 L-29.83954316423404,4.971742489361069 L-29.803711734213362,4.931956972846181 L-29.772908714344968,4.896465364013133 L-29.747373310490453,4.865543278723823 L-29.727303821982357,4.8394308474617365 L-29.71285610169842,4.818330850559612 L-29.704142345760772,4.802407143475774 L-29.701230222258637,4.7917833843479345 " />
			<path d="M-29.701230222258637,4.791783384347934 L-29.70125783031431,4.7910357851628325 L-29.701340652448792,4.790339268707832 L-29.70147868256459,4.789693886261505 L-29.70167191049972,4.7890996853378605 L-29.701920322028457,4.788556709682854 L-29.70222389886238,4.788064999271155 L-29.7025826186517,4.787624590303216 L-29.702996454986952,4.787235515202596 L-29.703465377400878,4.786897802613581 L-29.70398935137073,4.78661147739907 L-29.704568338320748,4.786376560638754 L-29.70520229562507,4.786193069627549 L-29.705891176610812,4.786061017874338 L-29.706634930561545,4.785980415100963 " />
			<path d="M-30.20346740371256,-11.793526569155528 L-30.142108288172647,-11.723884019480156 L-30.08314970929748,-11.653664631177406 L-30.027049519522244,-11.583413704329894 L-29.974243373996593,-11.513676783937939 L-29.92514134743371,-11.444995423401114 L-29.880124749608402,-11.37790297899723 L-29.83954316423404,-11.312920468017394 L-29.803711734213362,-11.250552522721478 L-29.772908714344968,-11.191283471534216 L-29.747373310490453,-11.135573577914046 L-29.727303821982357,-11.083855466102332 L-29.71285610169842,-11.036530761509457 L-29.704142345760772,-10.993966971827362 L-29.701230222258637,-10.956494633088774 " />
			<path d="M-49.78852829830742,11.515863787654933 L-50.26045747649043,11.482281703031441 " />
			<path d="M-50.26045747649043,6.586711574477075 L-50.26045747649043,11.482281703031441 " />
			<path d="M-49.12782744885121,11.132068534815037 L-49.59975662703422,11.098486450191546 " />
			<path d="M-50.26045747649043,11.482281703031441 L-49.59975662703422,11.098486450191544 " />
			<path d="M-49.12782744885121,6.23649840626067 L-49.59975662703422,6.202916321637178 " />
			<path d="M-49.59975662703422,11.098486450191546 L-49.59975662703422,6.202916321637179 " />
			<path d="M-49.59975662703422,6.202916321637178 L-50.26045747649043,6.586711574477075 " />
			<path d="M-49.78852829830742,-11.982872829406029 L-50.26045747649043,-12.01645491402952 " />
			<path d="M-50.26045747649043,-16.912025042583885 L-50.26045747649043,-12.016454914029518 " />
			<path d="M-49.12782744885121,-17.26223821080029 L-49.59975662703422,-17.29582029542378 " />
			<path d="M-49.59975662703422,-17.295820295423784 L-50.26045747649043,-16.91202504258389 " />
			<path d="M-49.12782744885121,-12.366668082245925 L-49.59975662703422,-12.400250166869416 " />
			<path d="M-50.26045747649043,-12.01645491402952 L-49.59975662703422,-12.400250166869418 " />
			<path d="M-49.59975662703422,-12.400250166869416 L-49.59975662703422,-17.29582029542378 " />
			<path d="M31.97320182189884,9.175065882033024 L31.97320182189884,-6.096238686586453 " />
			<path d="M31.973201821898844,-6.096238686586453 L32.55131506517303,-6.432059532821363 " />
			<path d="M31.973201821898844,-6.096238686586453 L-29.70123022225864,-10.484939559007335 " />
			<path d="M41.41178538555901,2.408315211570354 L41.989898628833195,2.072494365335441 " />
			<path d="M41.41178538555902,2.408315211570354 L41.41012790134364,2.2996549469304584 L41.405157111933704,2.1908678292659447 L41.39687800536879,2.08206302321949 L41.38529888948655,1.9733497111835352 L41.37043138358596,1.8648369837389989 L41.35229040676779,1.7566337301861172 L41.330894162963666,1.648848529277265 L41.30626412266899,1.5415895402613993 L41.278425001397935,1.434964394349468 L41.24740473488213,1.329080086709682 L41.21323445103805,1.2240428691010403 L41.175948438731005,1.1199581432528487 L41.135584113367315,1.0169303550972089 L41.09218197934907,0.9150628899606283 L41.04578558942914,0.8144579688199174 L40.99644150100729,0.7152165457264692 L40.944199229411225,0.6174382065018693 L40.88911119820942,0.5212210688064816 L40.8312326866056,0.426661683681286 L40.77062177396776,0.3338549386617766 L40.70733928154718,0.24289396256114015 L40.64144871144613,0.153870032018252 L40.573016182895415,0.06687247990428169 L40.50211036590568,-0.01801139432019072 L40.428802412359055,-0.10069641220759129 L40.353165884610405,-0.1810996017973978 L40.27527668166968,-0.2591402808760357 L40.19521296303949,-0.3347401379390855 L40.11305507028437,-0.4078233107745528 L40.028885446410435,-0.4783164625883427 L39.942788553136225,-0.5461488555955598 L39.85485078613793,-0.6112524220037736 L39.76516038835384,-0.673561832317024 L39.673807361435216,-0.7330145608920344 L39.58088337543229,-0.7895509486808376 L39.48648167680611,-0.8431142630968584 L39.390696994858416,-0.8936507549443822 L39.293625446673715,-0.941109712354272 L39.195364440668534,-0.9854435116718299 L39.09601257884502,-1.0266076652457161 L38.995669557846746,-1.0645608660699861 L38.89443606891609,-1.0992650292344468 L38.79241369685357,-1.1306853301417337 L38.68970481808048,-1.1587902394527587 L38.58641249790724,-1.1835515547254665 L38.48264038711038,-1.204944428715145 L38.37849261792208,-1.2229473943079037 L38.274073699536565,-1.237542386062279 L38.169488413238234,-1.2487147583373739 L38.06484170725672,-1.2564532999893183 L37.96023859145452,-1.2607502456213222 L37.85578403195266,-1.2616012833760206 L37.75158284580033,-1.2590055592622957 L37.647739595794086,-1.252965678012227 L37.5443584855522,-1.2434877004673242 L37.44154325494941,-1.2305811374966509 L37.339397076017015,-1.214258940452953 L37.23802244941285,-1.1945374881763535 L37.13752110156489,-1.1714365705586824 L37.037993882591806,-1.1449793686848992 L36.93954066510287,-1.1151924315715673 L36.84226024397873,-1.082105649525702 L36.746250237233724,-1.0457522241507369 L36.651606988059086,-1.006168635029704 " />
			<path d="M40.14848459728205,5.013682961684901 L40.22114953826466,4.957920648575894 L40.29212419329006,4.899930602992402 L40.36135178292859,4.839759216730387 L40.42877692539564,4.777454626649309 L40.494345680856874,4.713066676162834 L40.55800559457987,4.646646875364311 L40.61970573889766,4.578248359818916 L40.679396753950684,4.507925848055412 L40.737030887174456,4.435735597791559 L40.792562031501426,4.3617353609281695 L40.84594576224644,4.285984337347832 L40.89713937264629,4.208543127555243 L40.946101908025,4.129473684197065 L40.99279419855731,4.048839262500055 L41.03717889060445,3.966704369667152 L41.079220476596866,3.8831347132719816 L41.11888532344011,3.7981971486930677 L41.15614169942123,3.7119596256298095 L41.190959799593934,3.624491133743001 L41.2233117696225,3.535861647463392 L41.25317172806508,3.446142070012426 L41.280515787078755,3.3554041766799676 L41.305322071529716,3.2637205574043646 L41.32757073649329,3.1711645587007906 L41.34724398312978,3.0778102249843506 L41.36432607292346,2.9837322393348433 L41.37880334027335,2.889005863750617 L41.39066420342561,2.7937068789392745 L41.399899173738895,2.6979115236934303 L41.40650086327527,2.601696433899984 L41.41046399071048,2.5051385812317335 L41.41178538555902,2.408315211570363 " />
			<path d="M-47.77103106157506,23.100374589851913 L-47.77103106157506,-31.730010849956994 " />
			<path d="M-46.81537447575447,-31.089225423553568 L50.118878723035536,-24.191465241888523 " />
			<path d="M50.579009671763956,30.09888102538743 L-47.77103106157507,23.10037458985191 " />
			<path d="M-46.81537447575447,22.27248897768903 L-46.81537447575447,-31.089225423553565 " />
			<path d="M50.11887872303552,-24.191465241888515 L50.11887872303552,29.17024915935408 " />
			<path d="M50.11887872303552,29.170249159354082 L-46.81537447575448,22.272488977689036 " />
			<path d="M33.50697165099362,9.87455030495604 L33.50697165099362,-7.259945144984243 " />
			<path d="M-30.20346740371256,5.34096888078476 L33.50697165099362,9.874550304956042 " />
			<path d="M33.50697165099362,-7.259945144984244 L-30.20346740371256,-11.793526569155528 " />
			<path d="M-30.20346740371256,-11.793526569155526 L-30.20346740371256,5.340968880784757 " />
			<path d="M42.9455552146538,1.9789442724557187 L42.94434705656973,1.8767364914558788 L42.94072331006679,1.7744183335689883 L42.934686157954346,1.6720514314274373 L42.92623923678711,1.5696974470253318 L42.91538763467453,1.4674180345756125 L42.90213788821596,1.3652748033718662 L42.88649797856322,1.2633292806771879 L42.868477326613075,1.1616428746624599 L42.84808678733243,1.060276837416366 L42.82533864321967,0.9592922280494247 L42.800246596906234,0.8587498759142596 L42.772825762902556,0.758710343964276 L42.7430926584937,0.659233892272802 L42.71106519378998,0.5603804417346714 L42.67676266093855,0.4622095379721203 L42.640205722502536,0.36478031546672995 L42.60141639901471,0.2681514619390235 L42.56041805571311,0.17238118299717975 L42.51723538846671,0.07752716707615237 L42.47189440889956,-0.01635344931168725 L42.424422428722345,-0.10920411599344981 L42.37484804328083,-0.20096890319943728 L42.3232011143311,-0.2915925352531421 L42.26951275205195,-0.381020423867251 L42.21381529630528,-0.4691987010255865 L42.15614229715577,-0.5560742514311885 L42.09652849466158,-0.6415947445009773 L42.03500979794821,-0.7257086658877441 L41.97162326357825,-0.8083653485104687 L41.90640707322983,-0.8895150030742718 L41.83940051069741,-0.9691087480616245 L41.77064393822872,-1.0470986391767494 L41.70017877221206,-1.1234376982254677 L41.62804745822857,-1.1980799414131091 L41.554293445484625,-1.2709804070434316 L41.47896116063966,-1.342095182601864 L41.40209598104522,-1.4113814312067605 L41.32374420741131,-1.478797417412744 L41.243953035916604,-1.544302532350569 L41.16277052977924,-1.6078573181883895 L41.08024559030528,-1.6694234918996855 L40.996427927432485,-1.728963968323519 L40.911368029786814,-1.7864428825032546 L40.82511713427001,-1.841825611290266 L40.737727195196406,-1.895078794199625 L40.64925085299758,-1.9461703535052122 L40.55974140251374,-1.9950695135621386 L40.46925276089086,-2.0417468193448434 L40.377839435103084,-2.0861741541897 L40.28555648911969,-2.128324756731441 L40.192459510736676,-2.1681732370232085 L40.09860457809268,-2.2056955918305077 L40.004048225889676,-2.240869219089851 L39.908847411338535,-2.2736729315234054 L39.81305947985016,-2.3040869694014114 L39.71674213049273,-2.3320930124447043 L39.61995338123597,-2.357674190860169 L39.52275153400326,-2.380815095502469 L39.42519513955277,-2.401501787155942 L39.32734296220864,-2.4197218049310623 L39.22925394446358,-2.435464173770412 L39.13098717147409,-2.4487194110596464 L39.03260183546979,-2.4594795323394685 L38.93415720009823,-2.4677380561151665 L38.83571256472666,-2.473490007760823 L38.737327228722364,-2.476731922515847 L38.639060455732874,-2.4774618475720125 L38.54097143798781,-2.4756793432497606 L38.44311926064368,-2.47138548326304 L38.34556286619319,-2.4645828540725523 L38.24836101896048,-2.455275553327753 L38.15157226970372,-2.4434691873985894 L38.05525492034629,-2.429170867998428 L37.95946698885791,-2.412389207900227 L37.86426617430678,-2.393134315748523 L37.76970982210377,-2.371417789970362 L37.67585488945978,-2.3472527117888395 L37.582757911076754,-2.3206536373434608 L37.49047496509337,-2.2916365889220676 L37.39906163930559,-2.260219045309613 L37.30857299768272,-2.2264199312595916 L37.219063547198864,-2.1902596060944766 L37.13058720500004,-2.1517598514420255 L37.043197265926445,-2.110943858114843 L36.95694637040964,-2.0678362121411 L36.87188647276396,-2.0224628799548334 L36.788068809891165,-1.9748511927547336 L36.705543870417216,-1.9250298300408546 L36.62436136427984,-1.8730288023391548 L36.544570192785145,-1.8188794331242764 L36.46621841915123,-1.7626143399514604 L36.38935323955679,-1.7042674148089465 L36.31402095471182,-1.6438738037027076 L36.24026694196788,-1.5814698854858142 L36.168135627984384,-1.5170932499451655 L36.097670461967724,-1.450782675158813 L36.028913889499044,-1.3825781041374974 L35.961907326966625,-1.3125206207644688 L35.896691136618195,-1.2406524250480917 L35.83330460224823,-1.1670168077021406 L35.77178590553488,-1.0916581240690917 L35.71217210304068,-1.0146217674021254 L35.65449910389117,-0.9359541415219215 L35.5988016481445,-0.8557026328647375 L35.545113285865355,-0.7739155819385921 L35.49346635691562,-0.6906422542047475 L35.44389197147411,-0.6059328104020416 L35.396419991296895,-0.5198382763319298 L35.351079011729745,-0.43241051212245374 L35.307896344483346,-0.34370218098964056 L35.266898001181744,-0.25376671751514435 L35.22810867769392,-0.1626582954592577 L35.1915517392579,-0.07043179512866571 L35.15724920640647,0.022857229681402247 L35.12522174170275,0.11715258515070293 L35.0954886372939,0.212397471283033 L35.06806780329022,0.3085345161204218 L35.04297575697677,0.4055058103018536 L35.020227612864026,0.5032529419457059 L34.99983707358338,0.6017170318348757 L34.981816421633226,0.7008387688834252 L34.96617651198049,0.8005584458633555 L34.95292676552192,0.9008159953700106 L34.94207516340934,1.0015510260044411 L34.93362824224211,1.1027028587509176 L34.92759109012967,1.2042105635277045 L34.92396734362672,1.306012995889063 L34.92275918554265,1.4080488338563744 L34.92396734362672,1.5102566148562147 L34.92759109012967,1.6125747727431041 L34.93362824224211,1.7149416748846544 L34.94207516340934,1.8172956592867597 L34.95292676552192,1.9195750717364788 L34.96617651198049,2.0217183029402253 L34.98181642163323,2.1236638256349076 L34.99983707358338,2.2253502316496343 L35.020227612864026,2.3267162688957272 L35.04297575697678,2.427700878262672 L35.06806780329022,2.5282432303978375 L35.0954886372939,2.628282762347821 L35.12522174170275,2.7277592140392946 L35.157249206406476,2.8266126645774245 L35.19155173925791,2.9247835683399748 L35.22810867769392,3.022212790845365 L35.26689800118175,3.118841644373071 L35.30789634448335,3.2146119233149144 L35.351079011729745,3.309465939235941 L35.396419991296895,3.4033465556237807 L35.44389197147411,3.4961972223055433 L35.493466356915626,3.5879620095115294 L35.545113285865355,3.678585641565234 L35.5988016481445,3.768013530179342 L35.654499103891176,3.856191807337678 L35.712172103040686,3.943067357743279 L35.77178590553488,4.028587850813067 L35.83330460224824,4.112701772199834 L35.896691136618195,4.195358454822559 L35.961907326966625,4.276508109386361 L36.028913889499044,4.356101854373717 L36.09767046196773,4.434091745488842 L36.168135627984384,4.51043080453756 L36.24026694196788,4.585073047725204 L36.31402095471183,4.657973513355526 L36.38935323955679,4.729088288913958 L36.46621841915123,4.798374537518855 L36.544570192785145,4.865790523724838 L36.62436136427985,4.931295638662661 L36.705543870417216,4.994850424500482 L36.78806880989117,5.0564165982117775 L36.87188647276397,5.1159570746356104 L36.95694637040964,5.173435988815346 L37.043197265926445,5.2288187176023575 L37.13058720500005,5.282071900511717 L37.21906354719887,5.333163459817304 L37.30857299768272,5.3820626198742305 L37.39906163930559,5.428739925656934 L37.49047496509337,5.47316726050179 L37.582757911076754,5.515317863043531 L37.67585488945977,5.555166343335299 L37.76970982210377,5.592688698142598 L37.86426617430678,5.627862325401942 L37.95946698885792,5.6606660378354965 L38.05525492034629,5.691080075713503 L38.15157226970372,5.719086118756796 L38.24836101896048,5.74466729717226 L38.34556286619319,5.767808201814561 L38.443119260643684,5.788494893468036 L38.540971437987814,5.806714911243154 L38.639060455732874,5.822457280082503 L38.737327228722364,5.8357125173717375 L38.83571256472666,5.84647263865156 L38.93415720009823,5.854731162427258 L39.03260183546979,5.860483114072915 L39.13098717147409,5.863725028827939 L39.22925394446358,5.864454953884105 L39.32734296220864,5.8626724495618525 L39.42519513955277,5.858378589575133 L39.52275153400326,5.851575960384644 L39.61995338123597,5.842268659639845 L39.71674213049273,5.8304622937106805 L39.81305947985016,5.81616397431052 L39.90884741133854,5.799382314212318 L40.00404822588968,5.780127422060615 L40.09860457809269,5.758410896282454 L40.19245951073668,5.73424581810093 L40.2855564891197,5.707646743655551 L40.377839435103084,5.678629695234159 L40.46925276089086,5.647212151621705 L40.55974140251374,5.613413037571684 L40.64925085299758,5.577252712406569 L40.737727195196406,5.5387529577541175 L40.82511713427001,5.497936964426936 L40.911368029786814,5.454829318453193 L40.99642792743249,5.409455986266925 L41.08024559030529,5.361844299066826 L41.16277052977924,5.312022936352947 L41.243953035916604,5.260021908651247 L41.32374420741131,5.205872539436369 L41.40209598104522,5.149607446263554 L41.47896116063966,5.09126052112104 L41.554293445484625,5.030866910014803 L41.62804745822857,4.968462991797908 L41.70017877221207,4.904086356257258 L41.77064393822873,4.837775781470905 L41.83940051069741,4.76957121044959 L41.90640707322983,4.699513727076559 L41.97162326357826,4.627645531360182 L42.03500979794822,4.554009914014231 L42.09652849466158,4.478651230381184 L42.156142297155775,4.401614873714218 L42.213815296305285,4.322947247834014 L42.26951275205195,4.242695739176829 L42.3232011143311,4.160908688250684 L42.374848043280835,4.07763536051684 L42.424422428722345,3.9929259167141335 L42.47189440889956,3.906831382644022 L42.51723538846671,3.8194036184345466 L42.56041805571311,3.7306952873017334 L42.60141639901471,3.6407598238272367 L42.640205722502536,3.5496514017713516 L42.67676266093855,3.4574249014407616 L42.71106519378998,3.364135876630694 L42.7430926584937,3.2698405211613935 L42.772825762902556,3.174595635029063 L42.800246596906234,3.0784585901916737 L42.82533864321967,2.9814872960102416 L42.84808678733243,2.8837401643663867 L42.868477326613075,2.785276074477217 L42.88649797856322,2.686154337428669 L42.90213788821596,2.5864346604487367 L42.91538763467453,2.486177110942082 L42.92623923678711,2.3854420803076515 L42.934686157954346,2.284290247561175 L42.94072331006679,2.1827825427843877 L42.94434705656973,2.0809801104230297 L42.9455552146538,1.978944272455755 " />
			<path d="M32.55131506517303,9.2162039356968 L32.55131506517303,-6.432059532821363 " />
			<path d="M32.55131506517303,-6.432059532821363 L-29.701230222258644,-10.861898458906023 " />
			<path d="M41.9898986288332,2.0724943653354435 L41.98806588079691,1.958228640061599 L41.98256967026518,1.8438288679106467 L41.97341609571302,1.7294219843681022 L41.960615313746594,1.615134932810124 L41.94418152783364,1.5010945236499196 L41.924132972543646,1.3874272936316847 L41.90049189331514,1.2742593654282026 L41.87328452177265,1.1617163076978811 L41.842541046620696,1.0499229957565128 L41.808295580146996,0.9390034730183603 L41.77058612037228,0.8290808133602936 L41.7294545088885,0.7202769845617087 L41.68494638443231,0.6127127129717462 L41.637111132245295,0.5065073495539725 L41.586001829277244,0.40177873745716486 L41.53167518529308,0.2986430812591261 L41.47419147994897,0.19721481802862928 L41.413614495907325,0.09760649034854807 L41.350011448064954,-7.137855893413203e-05 L41.28345290897289,-0.09571040746647275 L41.21401273053063,-0.1892044773990018 L41.14176796204165,-0.2804498493810299 L41.066798764721256,-0.3693452795431358 L40.98918832275138,-0.45579213145995423 L40.90902275098127,-0.539694485594997 L40.82639099937632,-0.6209592457308712 L40.74138475432114,-0.6994962422668078 L40.65409833688634,-0.7752183322688766 L40.564628598171964,-0.8480414961618838 L40.47307481184358,-0.917884930955652 L40.37953856398042,-0.984671139902253 L40.28412364035769,-1.0483260184847034 L40.18693591128813,-1.1087789366417167 L40.088083214150636,-1.165962817137276 L39.98767523373627,-1.2198142099880651 L39.8858233805444,-1.2702733628661864 L39.78264066716407,-1.3172842873990338 L39.678241582877654,-1.3607948212927687 L39.57274196662612,-1.4007566862104608 L39.4662588784766,-1.4371255413406714 L39.358910469735186,-1.4698610325970551 L39.250815851848735,-1.498926837394365 L39.142094964241466,-1.5242907049512002 L39.03286844123279,-1.545924492074772 L38.9232574781841,-1.56380419438797 L38.81338369702305,-1.5779099729640955 L38.70336901129453,-1.5882261763397025 L38.59333549088804,-1.594741357881118 L38.483405226591636,-1.5974482884853756 L38.373700194622664,-1.5963439646014712 L38.264342121285594,-1.5914296115630373 L38.155452347907186,-1.5827106822287398 L38.0471516961988,-1.5701968509319038 L37.939560334195285,-1.5539020027460881 L37.83279764291914,-1.533844218078508 L37.72698208391794,-1.5100457526084115 L37.62223106782201,-1.4825330125926652 L37.518660824068135,-1.4513365255659498 L37.41638627193395,-1.4164909064680717 L37.315520893025976,-1.378034819235988 L37.216176605362946,-1.3360109339031427 L37.11846363919403,-1.290465879253734 L37.02249041468972,-1.2414501910844327 L36.92836342164122,-1.1890182561309763 " />
			<path d="M40.444425341463074,4.8638578020729835 L40.53177978725164,4.811099889730124 L40.61729736440652,4.755382021317269 L40.70089295002893,4.6967596575552575 L40.782483334341315,4.6352911502555285 L40.86198730351304,4.5710376842376155 L40.93932572049948,4.504063216426705 L41.01442160381378,4.434434412191887 L41.08720020415309,4.362220578988449 L41.15758907880286,4.287493597370297 L41.22551816374524,4.210327849441137 L41.29091984339974,4.130800144815661 L41.35372901792673,4.048989644164412 L41.41388316802688,3.9649777804184714 L41.47132241717185,3.8788481777123387 L41.52598959120454,3.790686568145744 L41.57783027524937,3.700580706447215 L41.626792867875984,3.6086202826243543 L41.672828632462576,3.514896832687764 L41.71589174570755,3.419503647537489 L41.75593934324136,3.322535680102673 L41.79293156229304,3.2240894508268525 L41.82683158136902,3.1242629515929696 L41.85760565690465,3.0231555481837447 L41.88522315685207,2.9208678813744733 L41.90965659117086,2.817501766756739 L41.930881639191206,2.7131600933927054 L41.94887717382235,2.6079467214009133 L41.96362528258217,2.5019663785754904 L41.97511128542696,2.395324556141698 L41.98332374936376,2.28812740375156 L41.988254499830575,2.180481623824114 L41.9898986288332,2.0724943653354497 " />
			<path d="M-47.70126305184426,-31.742607159738387 L50.61571118377984,-24.746453708455167 " />
			<path d="M50.62111590448945,-24.740650768670836 L50.62111590448945,30.007281125765626 " />
			<path d="M-29.70123022225864,4.786365009612141 L32.62108307490063,9.221168568770995 " />
			<path d="M-29.70123022225864,-10.956494602743263 L-29.70123022225864,4.791783354001879 " />
			<path d="M36.9283634216412,-1.1890182561309692 L36.821674688399554,-1.1238986192795561 L36.717854868820936,-1.0541840287823767 L36.61705529963226,-0.9799663891324916 L36.51942403396386,-0.9013439954439214 L36.425105841349406,-0.818421533451647 L36.33424220772597,-0.7313100795116089 L36.246971335434004,-0.6401271006007075 L36.16342814321732,-0.5449964543168035 L36.083744266223114,-0.44604838887871745 L36.00804805600198,-0.3434195431262297 L35.93646458050787,-0.23725294652008055 L35.86911562409811,-0.12769801914197032 L35.806119687533425,-0.014910571694559449 L35.747591987977906,0.10094719449853118 L35.69364445899902,0.21970668749272204 L35.644385750567615,0.34119292472247287 L35.598437188746004,0.4695731944751784 L35.55769479277088,0.6004777780966513 L35.52225551365688,0.7336780448865994 L35.49220534237047,0.8689420646497518 L35.467619309829956,1.0060346076958604 L35.44856148690546,1.1447171448397 L35.43508498441894,1.2847478474010678 L35.42723195314417,1.4258815872047834 L35.425033583806766,1.567869936580688 L35.428510107084165,1.7104611683636461 L35.43767079360562,1.8534002558935438 L35.452513953952234,1.996428873015291 L35.47302693865692,2.1392853940788195 L35.49918613820443,2.281704893939083 L35.53095698303134,2.423419147956058 L35.56829394352605,2.564156631994744 L35.60866343257582,2.6961561638978684 L35.65390149986293,2.8268602263661835 L35.70393556905738,2.9560463002771455 L35.75868539889703,3.0834969655235716 L35.81806308318772,3.2089999010136396 L35.881973050803175,3.332347884670892 L35.95031206568507,3.45333879343423 L36.02296922684297,3.571775603257918 L36.0998259683544,3.687466389111583 L36.18075605936478,3.8002243249802143 L36.26562560408747,3.9098676838641606 L36.35429304180374,4.016219837779135 L36.44660914686279,4.119109257756213 L36.54241702868174,4.218369513841828 L36.64155213174563,4.31383927509778 L36.74384223560743,4.4053623096012275 L36.840064329159674,4.485531123428121 L36.93866304177922,4.562183237472446 L37.039493944918036,4.63521971306339 L37.14241159052372,4.7045479413739795 L37.24726951103959,4.770081643421087 L37.353920219404586,4.831740870065428 L37.46221520905333,4.889452002011556 L37.57200495391612,4.943147749807867 L37.6831389084189,4.992767153846604 L37.79546550748329,5.0382555843638475 L37.90883216652659,5.079564741439523 L38.02308528146173,5.116652654997395 L38.13807022869735,5.149483684805074 L38.25363136513772,5.17802852047401 L38.3696120281828,5.202264181459497 L38.4858545357282,5.222174017060668 L38.615368768143476,5.23924076349727 L38.744827427942525,5.250918809582638 L38.874026879341336,5.257216130281906 L39.00276735899551,5.258146631276526 L39.13085297600026,5.25373014896427 L39.25809171189039,5.243992450459228 L39.38429542064031,5.228965233591807 L39.50927982866405,5.2086861269087334 L39.632864534815226,5.183198689673054 L39.75487301038707,5.15255241186413 L39.87513259911241,5.116802714177646 L39.99347451716369,5.076010948025601 L40.10973385315295,5.030244395536315 L40.22374956813183,4.979576269554427 L40.335364495591584,4.92408571364089 L40.44442534146305,4.863857802072992 " />

       </g>
    </g>
    <g transform="translate(20,210.0)" stroke="rgb(0,0,255)">
        <line x1="30" y1="-30" x2="75" y2="-33" stroke-width="3" stroke="#000000" />
         <text x="80" y="-30" style="stroke:#000000">X </text>

        <line x1="30" y1="-30" x2="30" y2="-75" stroke-width="3" stroke="#000000" />
         <text x="25" y="-85" style="stroke:#000000">Y </text>

        <line x1="30" y1="-30" x2="58" y2="-15" stroke-width="3" stroke="#000000" />
         <text x="65" y="-5" style="stroke:#000000">Z </text>
        <!--
            <line x1="0" y1="0" x2="2.86476775211269" y2="0" stroke-width="3" />
            <text x="0" y="20" style="stroke:#000000">1  mm </text>
        -->
    </g>
</svg>
