<?xml version="1.0" encoding="UTF-8" standalone="no"?>
<svg
   xmlns:svg="http://www.w3.org/2000/svg"
   xmlns="http://www.w3.org/2000/svg"
   width="800.0"
   height="240.0"

>
    <g transform="scale(2.796812727513757, -2.796812727513757)   translate(121.29850035774923,-38.5628941270132)" stroke-width="0.3575498602972091"  fill="none">
       <!-- hidden lines -->
       <g  stroke="rgb(160,160,160)" fill="none" stroke-dasharray="0.3575498602972091,0.3575498602972091" >
			<path d="M51.487473339766254,-25.376716570161637 L52.148174189222466,-25.760511823001533 " />
			<path d="M-49.50537079139761,-32.56328267958871 L51.487473339766254,-25.37671657016164 " />
			<path d="M51.487473339766254,-25.376716570161637 L51.487473339766254,31.41189692106902 " />
			<path d="M-47.14572490048258,-29.947587192194067 L49.12782744885121,-23.096841929001904 " />
			<path d="M49.12782744885121,-23.096841929001908 L49.12782744885121,28.79620143367438 " />
			<path d="M49.12782744885121,28.79620143367438 L-47.14572490048258,21.945456170482217 " />
			<path d="M-47.14572490048258,21.94545617048222 L-47.14572490048258,-29.947587192194067 " />
			<path d="M-49.50537079139761,-28.576889860623016 L-47.14572490048258,-29.947587192194067 " />
			<path d="M-49.788528298307426,-28.41240618083448 L46.48502405102636,-21.56166091764232 " />
			<path d="M46.48502405102636,-21.56166091764232 L49.12782744885121,-23.096841929001908 " />
			<path d="M-41.52976768010477,-28.901745128205352 L-41.578582114298726,-28.87693340162975 L-41.63789250973851,-28.853085740621 L-41.707243466378706,-28.830385253482913 L-41.78610249023454,-28.80900624023148 L-41.873864082003905,-28.789112854275793 L-41.96985438624235,-28.770857842007125 L-42.0733363653937,-28.754381369973938 L-42.18351545894865,-28.73980994864807 L-42.29954568427904,-28.72725546104573 L-42.420536132304,-28.716814303661696 L-42.54555780811262,-28.708566646312946 L-42.67365076401915,-28.70257581657474 L-42.803831470281324,-28.69888781353569 L-42.935100366887674,-28.69753095460523 L-43.06644953842917,-28.69851565808548 L-43.196870453125776,-28.701834363176918 L-43.325361706585596,-28.70746158803208 L-43.45093671083817,-28.715354125411565 L-43.572631269603605,-28.725451374440023 L-43.68951098163268,-28.73767580591482 L-43.80067841527325,-28.75193355759464 L-43.905279999174866,-28.768115154897256 L-44.00251257622303,-28.786096351472725 L-44.09162957038033,-28.805739083197945 L-44.17194671908388,-28.826892528267496 L-44.242847327184414,-28.849394265241187 L-44.30378700208582,-28.873071520156472 L-44.35429783372759,-28.897742493130142 L-44.39399198731526,-28.923217754263273 L-44.40968425287892,-28.936196066632057 L-44.42256468121295,-28.94930169813136 L-44.43260853565345,-28.96250947959808 L-44.43979652713293,-28.975794045691675 L-44.44411485122464,-28.989129883607916 L-44.445555214653794,-29.002491382075824 " />
			<path d="M-44.445555214653794,-29.002491382075824 L-44.44374839896155,-29.01745544449134 L-44.43833230466209,-29.0323834571698 L-44.42931997960096,-29.047239457221124 L-44.41673313525864,-29.061987655239953 L-44.40060209444561,-29.07659252152547 L-44.38096571825211,-29.091018871675562 L-44.33137451342073,-29.119197519992277 L-44.268437111176326,-29.146252224402794 L-44.19275963310761,-29.17192243331403 L-44.1050708946979,-29.195960928581407 L-44.00621538643362,-29.218136206354725 L-43.89714514089926,-29.238234706586784 L-43.7789105641832,-29.256062869733395 L-43.65265031989279,-29.271449000837585 L-43.51958036320143,-29.28424492304591 L-43.38098223053549,-29.29432740463254 L-43.238190697677986,-29.301599345788155 L-43.092580925148134,-29.30599071374417 L-42.945555214653794,-29.307459217226608 L-42.798529504159454,-29.30599071374417 L-42.6529197316296,-29.301599345788155 L-42.5101281987721,-29.29432740463254 L-42.37153006610616,-29.28424492304591 L-42.238460109414795,-29.271449000837585 L-42.11219986512439,-29.256062869733395 L-41.993965288408326,-29.238234706586784 L-41.88489504287397,-29.218136206354725 L-41.786039534609685,-29.195960928581407 L-41.698350796199975,-29.17192243331403 L-41.62267331813126,-29.146252224402794 L-41.55973591588686,-29.119197519992277 L-41.51014471105548,-29.091018871675562 L-41.49050833486198,-29.07659252152547 L-41.47437729404895,-29.061987655239953 L-41.46179044970662,-29.047239457221124 L-41.4527781246455,-29.0323834571698 L-41.447362030346035,-29.01745544449134 L-41.445555214653794,-29.002491382075828 " />
			<path d="M-41.445555214653794,-29.002491382075824 L-41.44688333815645,-28.98966079636576 L-41.45086535678169,-28.976852931458946 L-41.45749421904616,-28.96409046792391 L-41.46675818635283,-28.95139600593102 L-41.493121179122085,-28.926300845348973 L-41.52976768010477,-28.901745128205352 " />
			<path d="M44.36134274920282,-22.78980572672999 L44.31252831500886,-22.76499400015439 L44.253217919569074,-22.74114633914564 L44.18386696292888,-22.71844585200755 L44.10500793907305,-22.69706683875612 L44.01724634730368,-22.67717345280043 L43.921256043065235,-22.658918440531764 L43.81777406391389,-22.642441968498577 L43.70759497035894,-22.62787054717271 L43.59156474502855,-22.615316059570368 L43.47057429700359,-22.604874902186335 L43.34555262119497,-22.596627244837585 L43.21745966528844,-22.59063641509938 L43.087278959026264,-22.58694841206033 L42.956010062419914,-22.58559155312987 L42.82466089087842,-22.58657625661012 L42.69423997618181,-22.589894961701557 L42.56574872272199,-22.595522186556718 L42.44017371846942,-22.603414723936204 L42.31847915970398,-22.613511972964663 L42.20159944767491,-22.625736404439458 L42.09043201403434,-22.63999415611928 L41.98583043013272,-22.656175753421895 L41.888597853084555,-22.674156949997364 L41.79948085892726,-22.693799681722584 L41.71916371022371,-22.714953126792135 L41.648263102123174,-22.737454863765826 L41.58732342722177,-22.76113211868111 L41.536812595579995,-22.78580309165478 L41.49711844199233,-22.811278352787912 L41.48142617642867,-22.824256665156696 L41.46854574809464,-22.837362296656 L41.45850189365414,-22.85057007812272 L41.45131390217466,-22.863854644216314 L41.44699557808295,-22.877190482132555 L41.445555214653794,-22.890551980600463 " />
			<path d="M41.445555214653794,-22.890551980600463 L41.447362030346035,-22.90551604301598 L41.4527781246455,-22.92044405569444 L41.461790449706626,-22.935300055745763 L41.47437729404895,-22.950048253764592 L41.49050833486198,-22.96465312005011 L41.51014471105548,-22.9790794702002 L41.55973591588686,-23.007258118516916 L41.62267331813126,-23.034312822927433 L41.698350796199975,-23.05998303183867 L41.786039534609685,-23.084021527106046 L41.88489504287397,-23.106196804879364 L41.993965288408326,-23.126295305111423 L42.11219986512439,-23.144123468258034 L42.238460109414795,-23.159509599362224 L42.37153006610616,-23.17230552157055 L42.5101281987721,-23.18238800315718 L42.6529197316296,-23.189659944312794 L42.798529504159454,-23.194051312268808 L42.945555214653794,-23.195519815751247 L43.092580925148134,-23.194051312268808 L43.238190697677986,-23.189659944312794 L43.38098223053549,-23.18238800315718 L43.51958036320143,-23.17230552157055 L43.65265031989279,-23.159509599362224 L43.7789105641832,-23.144123468258034 L43.89714514089926,-23.126295305111423 L44.00621538643362,-23.106196804879364 L44.1050708946979,-23.084021527106046 L44.19275963310761,-23.05998303183867 L44.268437111176326,-23.034312822927433 L44.33137451342073,-23.007258118516916 L44.38096571825211,-22.9790794702002 L44.40060209444561,-22.96465312005011 L44.41673313525864,-22.950048253764592 L44.42931997960097,-22.935300055745763 L44.43833230466209,-22.92044405569444 L44.44374839896155,-22.90551604301598 L44.445555214653794,-22.890551980600467 " />
			<path d="M44.445555214653794,-22.890551980600463 L44.44422709115114,-22.8777213948904 L44.4402450725259,-22.864913529983586 L44.43361621026143,-22.85215106644855 L44.42435224295476,-22.83945660445566 L44.3979892501855,-22.81436144387361 L44.36134274920282,-22.78980572672999 " />
			<path d="M46.48502405102636,30.331382445033967 L49.12782744885121,28.79620143367438 " />
			<path d="M46.48502405102636,-21.56166091764232 L46.48502405102636,30.331382445033967 " />
			<path d="M46.48502405102636,30.331382445033967 L-49.50537079139761,23.5007864326159 " />
			<path d="M-49.50537079139761,23.31615350205327 L-47.14572490048258,21.94545617048222 " />
			<path d="M44.36134274920282,29.103237635946297 L44.3979892501855,29.078681918802676 L44.42435224295476,29.05358675822063 L44.43361621026143,29.04089229622774 L44.4402450725259,29.028129832692702 L44.44422709115114,29.015321967785887 L44.445555214653794,29.002491382075824 " />
			<path d="M44.445555214653794,29.002491382075824 L44.44374839896155,28.98752731966031 L44.43833230466209,28.97259930698185 L44.42931997960096,28.957743306930524 L44.41673313525864,28.942995108911695 L44.40060209444561,28.92839024262618 L44.38096571825211,28.913963892476087 L44.33137451342073,28.885785244159372 L44.268437111176326,28.858730539748855 L44.19275963310761,28.83306033083762 L44.1050708946979,28.809021835570242 L44.00621538643362,28.786846557796924 L43.89714514089926,28.766748057564865 L43.7789105641832,28.748919894418254 L43.65265031989279,28.733533763314064 L43.51958036320143,28.720737841105738 L43.38098223053549,28.71065535951911 L43.238190697677986,28.703383418363494 L43.092580925148134,28.69899205040748 L42.945555214653794,28.69752354692504 L42.798529504159454,28.69899205040748 L42.6529197316296,28.703383418363494 L42.5101281987721,28.71065535951911 L42.37153006610616,28.720737841105738 L42.238460109414795,28.733533763314064 L42.11219986512439,28.748919894418254 L41.993965288408326,28.766748057564865 L41.88489504287397,28.786846557796924 L41.786039534609685,28.809021835570242 L41.698350796199975,28.83306033083762 L41.62267331813126,28.858730539748855 L41.55973591588686,28.885785244159372 L41.51014471105548,28.913963892476087 L41.49050833486198,28.92839024262618 L41.47437729404895,28.942995108911695 L41.46179044970662,28.957743306930524 L41.4527781246455,28.97259930698185 L41.447362030346035,28.98752731966031 L41.445555214653794,29.00249138207582 " />
			<path d="M41.445555214653794,29.002491382075824 L41.44699557808295,29.015852880543733 L41.45131390217466,29.029188718459974 L41.45850189365414,29.04247328455357 L41.46854574809464,29.055681066020288 L41.48142617642867,29.06878669751959 L41.49711844199233,29.081765009888375 L41.536812595579995,29.107240271021507 L41.58732342722177,29.131911243995177 L41.648263102123174,29.15558849891046 L41.71916371022371,29.178090235884152 L41.79948085892726,29.199243680953703 L41.888597853084555,29.218886412678923 L41.98583043013272,29.236867609254393 L42.09043201403434,29.25304920655701 L42.20159944767491,29.26730695823683 L42.31847915970398,29.279531389711625 L42.44017371846942,29.289628638740083 L42.56574872272199,29.29752117611957 L42.69423997618181,29.30314840097473 L42.82466089087841,29.30646710606617 L42.956010062419914,29.307451809546418 L43.087278959026264,29.306094950615957 L43.21745966528844,29.30240694757691 L43.34555262119496,29.296416117838703 L43.47057429700359,29.288168460489953 L43.59156474502855,29.27772730310592 L43.70759497035894,29.26517281550358 L43.81777406391389,29.25060139417771 L43.921256043065235,29.234124922144524 L44.01724634730368,29.215869909875856 L44.10500793907305,29.19597652392017 L44.18386696292888,29.174597510668736 L44.253217919569074,29.151897023530648 L44.31252831500886,29.1280493625219 L44.36134274920282,29.1032376359463 " />
			<path d="M-41.52976768010477,22.991298234470936 L-41.493121179122085,22.966742517327315 L-41.46675818635283,22.941647356745268 L-41.45749421904616,22.928952894752378 L-41.45086535678169,22.91619043121734 L-41.44688333815645,22.903382566310526 L-41.445555214653794,22.890551980600463 " />
			<path d="M-41.445555214653794,22.890551980600463 L-41.447362030346035,22.875587918184948 L-41.4527781246455,22.860659905506488 L-41.461790449706626,22.845803905455163 L-41.47437729404895,22.831055707436335 L-41.49050833486198,22.816450841150818 L-41.51014471105548,22.802024491000726 L-41.55973591588686,22.77384584268401 L-41.62267331813126,22.746791138273494 L-41.698350796199975,22.721120929362257 L-41.786039534609685,22.69708243409488 L-41.88489504287397,22.674907156321563 L-41.993965288408326,22.654808656089504 L-42.11219986512439,22.636980492942893 L-42.238460109414795,22.621594361838703 L-42.37153006610616,22.608798439630377 L-42.5101281987721,22.598715958043748 L-42.6529197316296,22.591444016888133 L-42.798529504159454,22.58705264893212 L-42.945555214653794,22.58558414544968 L-43.092580925148134,22.58705264893212 L-43.238190697677986,22.591444016888133 L-43.38098223053549,22.598715958043748 L-43.51958036320143,22.608798439630377 L-43.65265031989279,22.621594361838703 L-43.7789105641832,22.636980492942893 L-43.89714514089926,22.654808656089504 L-44.00621538643362,22.674907156321563 L-44.1050708946979,22.69708243409488 L-44.19275963310761,22.721120929362257 L-44.268437111176326,22.746791138273494 L-44.33137451342073,22.77384584268401 L-44.38096571825211,22.802024491000726 L-44.40060209444561,22.816450841150818 L-44.41673313525864,22.831055707436335 L-44.42931997960097,22.845803905455163 L-44.43833230466209,22.860659905506488 L-44.44374839896155,22.875587918184948 L-44.445555214653794,22.89055198060046 " />
			<path d="M-44.445555214653794,22.890551980600463 L-44.44411485122464,22.903913479068372 L-44.43979652713293,22.917249316984613 L-44.43260853565345,22.93053388307821 L-44.42256468121295,22.943741664544927 L-44.40968425287892,22.95684729604423 L-44.39399198731526,22.969825608413014 L-44.35429783372759,22.995300869546146 L-44.30378700208582,23.019971842519816 L-44.242847327184414,23.0436490974351 L-44.17194671908388,23.06615083440879 L-44.09162957038033,23.087304279478342 L-44.00251257622303,23.106947011203562 L-43.905279999174866,23.124928207779032 L-43.80067841527325,23.141109805081648 L-43.68951098163268,23.15536755676147 L-43.572631269603605,23.167591988236264 L-43.45093671083817,23.177689237264723 L-43.325361706585596,23.18558177464421 L-43.196870453125776,23.19120899949937 L-43.066449538429175,23.194527704590808 L-42.935100366887674,23.195512408071057 L-42.803831470281324,23.194155549140596 L-42.67365076401915,23.190467546101548 L-42.545557808112626,23.184476716363342 L-42.420536132304,23.17622905901459 L-42.29954568427904,23.16578790163056 L-42.18351545894865,23.153233414028218 L-42.0733363653937,23.13866199270235 L-41.96985438624235,23.122185520669163 L-41.873864082003905,23.103930508400495 L-41.78610249023454,23.08403712244481 L-41.707243466378706,23.062658109193375 L-41.63789250973851,23.039957622055287 L-41.578582114298726,23.01610996104654 L-41.52976768010477,22.99129823447094 " />
			<path d="M32.138377034262895,9.473636911577547 L32.138377034262895,9.042826740264761 " />
			<path d="M32.13837703426289,9.473636911577543 L32.79907788371911,9.089841658737644 " />
			<path d="M-29.495573636438046,-10.57800775162435 L-30.156274485894258,-10.625022670097238 " />
			<path d="M-30.156274485894265,-10.62502267009724 L-29.495573636438046,-11.008817922937139 " />
			<path d="M-30.156274485894258,-10.625022670097238 L-30.156274485894258,5.040801741276736 " />
			<path d="M-30.156274485894265,5.040801741276734 L-29.495573636438046,4.657006488436835 " />
			<path d="M-30.156274485894258,5.040801741276736 L32.138377034262895,9.473636911577547 " />
			<path d="M36.858082050244114,-1.1198587522225516 L36.770367540497695,-1.0812940098253305 L36.683969676547235,-1.0399624723408696 L36.59896413947265,-0.9959003445460923 L36.51542539073109,-0.9491462231060424 " />
			<path d="M36.51542539073108,-0.9491462231060352 L36.447316313887086,-0.9083631852485516 L36.380307235517456,-0.8657817004651731 L36.31443851938538,-0.82142741825011 L36.249749842342446,-0.7753270559644521 L36.18628017042886,-0.7275083827426401 L36.12406773540169,-0.6780002027653658 L36.06315001170552,-0.6268323379090184 L36.003563693899245,-0.574035609782098 L35.94534467455264,-0.5196418211594294 L35.88852802262602,-0.46368373682536523 L35.83314796234597,-0.4061950638375018 L35.77923785259003,-0.3472104312228055 L35.726830166792475,-0.28676536911838646 L35.67595647338358,-0.22489628736947065 L35.62664741677398,-0.16164045359746826 L35.57893269889557,-0.09703597075135573 L35.53284106131025,-0.031121754155882364 L35.48840026789701,0.03606249192956401 L35.44563708812807,0.10447629822732374 L35.4045772809439,0.17407845481863982 L35.365245579237005,0.2448270359669742 L35.327665674953806,0.31667942537250315 L35.29186020482343,0.3895923418425822 L35.25785073672224,0.4635218653627198 L35.22565775668211,0.5384234635523502 L35.19530065655046,0.614252018489474 L35.16679772230927,0.6909618538880107 L35.14016612306034,0.7685067626114834 L35.115421900683245,0.8468400345064662 L35.09257996017228,0.9259144845390372 L35.07165406065831,1.0056824812172833 L35.05265680712073,1.0860959752827215 L35.035599642794715,1.1671065286533824 L35.02049284227824,1.2486653436010948 L35.00734550534307,1.3307232921454148 L34.99616555145335,1.4132309456464835 L34.98695971499527,1.496138604578992 L34.97973354122048,1.5793963284693164 L34.97123639773155,1.7467611851080065 L34.970694591349485,1.9149223189634792 L34.97810942733333,2.0834746151350974 L34.99346304269372,2.2520120163779493 L35.01671844922644,2.420128501330308 L35.04781962262022,2.587419062654658 L35.08669163742421,2.7534806827358467 L35.13324084754996,2.9179133045858183 L35.18735511187306,3.0803207956159397 L35.2489040643909,3.2403119019551037 L35.317739428285805,3.3975011910145723 L35.3936953731369,3.5515099800288463 L35.47658891442007,3.7019672483356163 L35.56622035433376,3.8485105311970282 L35.662373762888414,3.9907867930089904 L35.76481749810079,4.128453277794872 L35.87330476403976,4.261178334934664 L35.987574205379296,4.388642218140374 L36.1073505370264,4.510537855752844 L36.23234520730696,4.626571590504266 L36.36225709311205,4.73646388696427 L36.496773225329804,4.839950004965256 L36.6355695428155,4.936780637384645 L36.77831167308319,5.026722510747579 L36.92465573783833,5.109558947203148 L37.07424918141069,5.185090386520317 L37.15015208250725,5.220059169455208 L37.22673162009187,5.253134866845993 L37.30394166551462,5.284297555129344 L37.381735710331206,5.313528463067084 L37.46006689431793,5.340809983053289 L37.538888033698555,5.366125681720438 L37.61815164956602,5.38946030983827 L37.697809996482,5.410799811499346 L37.777815091236924,5.430131332585799 L37.85811874175329,5.44744322851218 L37.938672576114776,5.462725071239715 L38.019428071703665,5.4759676555577705 L38.100336584429066,5.4871630046287265 L38.18134937802826,5.4963043747929206 L38.262417653423654,5.503386259630788 L38.3434925781175,5.508404393279708 L38.42452531560672,5.5113557530036115 L38.50546705480029,5.512238561013759 L38.58626903942111,5.511052285539616 L38.666882597375036,5.507797641149171 L38.74725917006908,5.502476588318505 L38.82735034166132,5.495092332250875 L38.90710786822481,5.485649320946023 L38.98648370680787,5.474153242520861 L39.06543004437338,5.460611021783167 L39.14389932659959,5.445030816060337 L39.22184428652504,5.427422010285717 L39.299217973020426,5.407795211345469 L39.375973779070186,5.386162241689382 L39.45206546984684,5.362536132209469 L39.52744721056113,5.336931114390643 L39.602073594071136,5.309362611738203 L39.675899668233896,5.279847230487297 L39.74888096298288,5.248402749599936 L39.820973517115064,5.2150481100556245 L39.89213390477156,5.179803403442014 L39.9623192615957,5.14268985985248 L40.03148731055291,5.103729835097935 " />
			<path d="M40.03148731055293,5.10372983509792 L40.11348609435237,5.054324674756586 L40.193873085548354,5.002311752462235 L40.27257786834558,4.947736629458495 L40.34953150049612,4.890647111374536 " />
			<path d="M-47.90081158557538,-26.319849790918774 L44.59730733829433,-19.73776120471454 " />
			<path d="M44.59730733829433,-19.737761204714538 L44.59730733829433,28.23882605511826 " />
			<path d="M44.59730733829433,28.23882605511826 L-47.90081158557538,21.656737468914027 " />
			<path d="M-47.90081158557538,21.656737468914024 L-47.90081158557538,-26.319849790918774 " />
			<path d="M-41.52976768010477,-26.943517076783607 L-41.578582114298726,-26.918705350208004 L-41.63789250973851,-26.894857689199256 L-41.707243466378706,-26.872157202061167 L-41.78610249023454,-26.850778188809734 L-41.873864082003905,-26.830884802854047 L-41.96985438624235,-26.81262979058538 L-42.0733363653937,-26.796153318552193 L-42.18351545894865,-26.781581897226324 L-42.29954568427904,-26.769027409623984 L-42.420536132304,-26.75858625223995 L-42.54555780811262,-26.7503385948912 L-42.67365076401915,-26.744347765152995 L-42.803831470281324,-26.740659762113946 L-42.935100366887674,-26.739302903183486 L-43.06644953842917,-26.740287606663735 L-43.196870453125776,-26.743606311755173 L-43.325361706585596,-26.749233536610333 L-43.45093671083817,-26.75712607398982 L-43.572631269603605,-26.76722332301828 L-43.68951098163268,-26.779447754493074 L-43.80067841527325,-26.793705506172895 L-43.905279999174866,-26.80988710347551 L-44.00251257622303,-26.82786830005098 L-44.09162957038033,-26.8475110317762 L-44.17194671908388,-26.86866447684575 L-44.242847327184414,-26.891166213819442 L-44.30378700208582,-26.914843468734727 L-44.35429783372759,-26.939514441708397 L-44.39399198731526,-26.964989702841528 L-44.40968425287892,-26.977968015210312 L-44.42256468121295,-26.991073646709616 L-44.43260853565345,-27.004281428176334 L-44.43979652713293,-27.01756599426993 L-44.44411485122464,-27.03090183218617 L-44.445555214653794,-27.04426333065408 " />
			<path d="M-44.445555214653794,-27.04426333065408 L-44.44374839896155,-27.059227393069595 L-44.43833230466209,-27.074155405748055 L-44.42931997960096,-27.08901140579938 L-44.41673313525864,-27.103759603818208 L-44.40060209444561,-27.118364470103725 L-44.38096571825211,-27.132790820253817 L-44.33137451342073,-27.16096946857053 L-44.268437111176326,-27.18802417298105 L-44.19275963310761,-27.213694381892285 L-44.1050708946979,-27.23773287715966 L-44.00621538643362,-27.25990815493298 L-43.89714514089926,-27.28000665516504 L-43.7789105641832,-27.29783481831165 L-43.65265031989279,-27.31322094941584 L-43.51958036320143,-27.326016871624166 L-43.38098223053549,-27.336099353210795 L-43.238190697677986,-27.34337129436641 L-43.092580925148134,-27.347762662322424 L-42.945555214653794,-27.349231165804863 L-42.798529504159454,-27.347762662322424 L-42.6529197316296,-27.34337129436641 L-42.5101281987721,-27.336099353210795 L-42.37153006610616,-27.326016871624166 L-42.238460109414795,-27.31322094941584 L-42.11219986512439,-27.29783481831165 L-41.993965288408326,-27.28000665516504 L-41.88489504287397,-27.25990815493298 L-41.786039534609685,-27.23773287715966 L-41.698350796199975,-27.213694381892285 L-41.62267331813126,-27.18802417298105 L-41.55973591588686,-27.16096946857053 L-41.51014471105548,-27.132790820253817 L-41.49050833486198,-27.118364470103725 L-41.47437729404895,-27.103759603818208 L-41.46179044970662,-27.08901140579938 L-41.4527781246455,-27.074155405748055 L-41.447362030346035,-27.059227393069595 L-41.445555214653794,-27.044263330654083 " />
			<path d="M-41.445555214653794,-27.04426333065408 L-41.44688333815645,-27.031432744944016 L-41.45086535678169,-27.0186248800372 L-41.45749421904616,-27.005862416502165 L-41.46675818635283,-26.993167954509275 L-41.493121179122085,-26.968072793927227 L-41.52976768010477,-26.943517076783607 " />
			<path d="M44.36134274920282,-20.831577675308246 L44.31252831500886,-20.806765948732643 L44.253217919569074,-20.782918287723895 L44.18386696292888,-20.760217800585806 L44.10500793907305,-20.738838787334373 L44.01724634730368,-20.718945401378686 L43.921256043065235,-20.70069038911002 L43.81777406391389,-20.684213917076832 L43.70759497035894,-20.669642495750963 L43.59156474502855,-20.657088008148623 L43.47057429700359,-20.64664685076459 L43.34555262119497,-20.63839919341584 L43.21745966528844,-20.632408363677634 L43.087278959026264,-20.628720360638585 L42.956010062419914,-20.627363501708125 L42.82466089087842,-20.628348205188374 L42.69423997618181,-20.63166691027981 L42.56574872272199,-20.637294135134972 L42.44017371846942,-20.64518667251446 L42.31847915970398,-20.655283921542917 L42.20159944767491,-20.667508353017713 L42.09043201403434,-20.681766104697534 L41.98583043013272,-20.69794770200015 L41.888597853084555,-20.71592889857562 L41.79948085892726,-20.73557163030084 L41.71916371022371,-20.75672507537039 L41.648263102123174,-20.77922681234408 L41.58732342722177,-20.802904067259366 L41.536812595579995,-20.827575040233036 L41.49711844199233,-20.853050301366167 L41.48142617642867,-20.86602861373495 L41.46854574809464,-20.879134245234255 L41.45850189365414,-20.892342026700973 L41.45131390217466,-20.90562659279457 L41.44699557808295,-20.91896243071081 L41.445555214653794,-20.932323929178718 " />
			<path d="M41.445555214653794,-20.932323929178718 L41.447362030346035,-20.947287991594234 L41.4527781246455,-20.962216004272694 L41.461790449706626,-20.977072004324018 L41.47437729404895,-20.991820202342847 L41.49050833486198,-21.006425068628364 L41.51014471105548,-21.020851418778456 L41.55973591588686,-21.04903006709517 L41.62267331813126,-21.076084771505688 L41.698350796199975,-21.101754980416924 L41.786039534609685,-21.1257934756843 L41.88489504287397,-21.14796875345762 L41.993965288408326,-21.168067253689678 L42.11219986512439,-21.18589541683629 L42.238460109414795,-21.20128154794048 L42.37153006610616,-21.214077470148805 L42.5101281987721,-21.224159951735434 L42.6529197316296,-21.23143189289105 L42.798529504159454,-21.235823260847063 L42.945555214653794,-21.237291764329502 L43.092580925148134,-21.235823260847063 L43.238190697677986,-21.23143189289105 L43.38098223053549,-21.224159951735434 L43.51958036320143,-21.214077470148805 L43.65265031989279,-21.20128154794048 L43.7789105641832,-21.18589541683629 L43.89714514089926,-21.168067253689678 L44.00621538643362,-21.14796875345762 L44.1050708946979,-21.1257934756843 L44.19275963310761,-21.101754980416924 L44.268437111176326,-21.076084771505688 L44.33137451342073,-21.04903006709517 L44.38096571825211,-21.020851418778456 L44.40060209444561,-21.006425068628364 L44.41673313525864,-20.991820202342847 L44.42931997960097,-20.977072004324018 L44.43833230466209,-20.962216004272694 L44.44374839896155,-20.947287991594234 L44.445555214653794,-20.93232392917872 " />
			<path d="M44.445555214653794,-20.932323929178718 L44.44422709115114,-20.919493343468655 L44.4402450725259,-20.90668547856184 L44.43361621026143,-20.893923015026804 L44.42435224295476,-20.881228553033914 L44.3979892501855,-20.856133392451866 L44.36134274920282,-20.831577675308246 " />
			<path d="M44.36134274920282,27.14500958452455 L44.3979892501855,27.12045386738093 L44.42435224295476,27.095358706798883 L44.43361621026143,27.082664244805994 L44.4402450725259,27.069901781270957 L44.44422709115114,27.057093916364142 L44.445555214653794,27.04426333065408 " />
			<path d="M44.445555214653794,27.04426333065408 L44.44374839896155,27.029299268238564 L44.43833230466209,27.014371255560103 L44.42931997960096,26.99951525550878 L44.41673313525864,26.98476705748995 L44.40060209444561,26.970162191204434 L44.38096571825211,26.95573584105434 L44.33137451342073,26.927557192737627 L44.268437111176326,26.90050248832711 L44.19275963310761,26.874832279415873 L44.1050708946979,26.850793784148497 L44.00621538643362,26.82861850637518 L43.89714514089926,26.80852000614312 L43.7789105641832,26.79069184299651 L43.65265031989279,26.77530571189232 L43.51958036320143,26.762509789683993 L43.38098223053549,26.752427308097364 L43.238190697677986,26.74515536694175 L43.092580925148134,26.740763998985734 L42.945555214653794,26.739295495503296 L42.798529504159454,26.740763998985734 L42.6529197316296,26.74515536694175 L42.5101281987721,26.752427308097364 L42.37153006610616,26.762509789683993 L42.238460109414795,26.77530571189232 L42.11219986512439,26.79069184299651 L41.993965288408326,26.80852000614312 L41.88489504287397,26.82861850637518 L41.786039534609685,26.850793784148497 L41.698350796199975,26.874832279415873 L41.62267331813126,26.90050248832711 L41.55973591588686,26.927557192737627 L41.51014471105548,26.95573584105434 L41.49050833486198,26.970162191204434 L41.47437729404895,26.98476705748995 L41.46179044970662,26.99951525550878 L41.4527781246455,27.014371255560103 L41.447362030346035,27.029299268238564 L41.445555214653794,27.044263330654076 " />
			<path d="M41.445555214653794,27.04426333065408 L41.44699557808295,27.057624829121988 L41.45131390217466,27.07096066703823 L41.45850189365414,27.084245233131824 L41.46854574809464,27.097453014598543 L41.48142617642867,27.110558646097846 L41.49711844199233,27.12353695846663 L41.536812595579995,27.14901221959976 L41.58732342722177,27.17368319257343 L41.648263102123174,27.197360447488716 L41.71916371022371,27.219862184462407 L41.79948085892726,27.241015629531958 L41.888597853084555,27.26065836125718 L41.98583043013272,27.278639557832648 L42.09043201403434,27.294821155135264 L42.20159944767491,27.309078906815085 L42.31847915970398,27.32130333828988 L42.44017371846942,27.33140058731834 L42.56574872272199,27.339293124697825 L42.69423997618181,27.344920349552986 L42.82466089087841,27.348239054644424 L42.956010062419914,27.349223758124673 L43.087278959026264,27.347866899194212 L43.21745966528844,27.344178896155164 L43.34555262119496,27.338188066416958 L43.47057429700359,27.329940409068207 L43.59156474502855,27.319499251684174 L43.70759497035894,27.306944764081834 L43.81777406391389,27.292373342755965 L43.921256043065235,27.27589687072278 L44.01724634730368,27.25764185845411 L44.10500793907305,27.237748472498424 L44.18386696292888,27.21636945924699 L44.253217919569074,27.193668972108902 L44.31252831500886,27.169821311100154 L44.36134274920282,27.145009584524555 " />
			<path d="M-41.52976768010477,21.03307018304919 L-41.493121179122085,21.00851446590557 L-41.46675818635283,20.983419305323523 L-41.45749421904616,20.970724843330633 L-41.45086535678169,20.957962379795596 L-41.44688333815645,20.94515451488878 L-41.445555214653794,20.932323929178718 " />
			<path d="M-41.445555214653794,20.932323929178718 L-41.447362030346035,20.917359866763203 L-41.4527781246455,20.902431854084742 L-41.461790449706626,20.887575854033418 L-41.47437729404895,20.87282765601459 L-41.49050833486198,20.858222789729073 L-41.51014471105548,20.84379643957898 L-41.55973591588686,20.815617791262266 L-41.62267331813126,20.78856308685175 L-41.698350796199975,20.762892877940512 L-41.786039534609685,20.738854382673136 L-41.88489504287397,20.716679104899818 L-41.993965288408326,20.69658060466776 L-42.11219986512439,20.678752441521148 L-42.238460109414795,20.663366310416958 L-42.37153006610616,20.65057038820863 L-42.5101281987721,20.640487906622003 L-42.6529197316296,20.633215965466388 L-42.798529504159454,20.628824597510373 L-42.945555214653794,20.627356094027935 L-43.092580925148134,20.628824597510373 L-43.238190697677986,20.633215965466388 L-43.38098223053549,20.640487906622003 L-43.51958036320143,20.65057038820863 L-43.65265031989279,20.663366310416958 L-43.7789105641832,20.678752441521148 L-43.89714514089926,20.69658060466776 L-44.00621538643362,20.716679104899818 L-44.1050708946979,20.738854382673136 L-44.19275963310761,20.762892877940512 L-44.268437111176326,20.78856308685175 L-44.33137451342073,20.815617791262266 L-44.38096571825211,20.84379643957898 L-44.40060209444561,20.858222789729073 L-44.41673313525864,20.87282765601459 L-44.42931997960097,20.887575854033418 L-44.43833230466209,20.902431854084742 L-44.44374839896155,20.917359866763203 L-44.445555214653794,20.932323929178715 " />
			<path d="M-44.445555214653794,20.932323929178718 L-44.44411485122464,20.945685427646627 L-44.43979652713293,20.959021265562868 L-44.43260853565345,20.972305831656463 L-44.42256468121295,20.98551361312318 L-44.40968425287892,20.998619244622486 L-44.39399198731526,21.01159755699127 L-44.35429783372759,21.0370728181244 L-44.30378700208582,21.06174379109807 L-44.242847327184414,21.085421046013355 L-44.17194671908388,21.107922782987046 L-44.09162957038033,21.129076228056597 L-44.00251257622303,21.148718959781817 L-43.905279999174866,21.166700156357287 L-43.80067841527325,21.182881753659903 L-43.68951098163268,21.197139505339724 L-43.572631269603605,21.20936393681452 L-43.45093671083817,21.219461185842977 L-43.325361706585596,21.227353723222464 L-43.196870453125776,21.232980948077625 L-43.066449538429175,21.236299653169063 L-42.935100366887674,21.23728435664931 L-42.803831470281324,21.23592749771885 L-42.67365076401915,21.232239494679803 L-42.545557808112626,21.226248664941597 L-42.420536132304,21.218001007592846 L-42.29954568427904,21.207559850208813 L-42.18351545894865,21.195005362606473 L-42.0733363653937,21.180433941280604 L-41.96985438624235,21.163957469247418 L-41.873864082003905,21.14570245697875 L-41.78610249023454,21.125809071023063 L-41.707243466378706,21.10443005777163 L-41.63789250973851,21.08172957063354 L-41.578582114298726,21.057881909624793 L-41.52976768010477,21.033070183049194 " />
			<path d="M-45.258008187750534,20.121556457554437 L-45.258008187750534,-27.85503080227836 " />
			<path d="M-45.258008187750534,-27.85503080227836 L47.24011073611918,-21.272942216074128 " />
			<path d="M47.24011073611918,-21.272942216074124 L47.24011073611918,26.703645043758673 " />
			<path d="M47.24011073611918,26.703645043758673 L-45.258008187750534,20.12155645755444 " />
			<path d="M-47.90081158557538,-26.319849790918774 L-45.258008187750534,-27.85503080227836 " />
			<path d="M44.59730733829433,-19.737761204714538 L47.24011073611918,-21.272942216074124 " />
			<path d="M44.59730733829433,28.23882605511826 L47.24011073611918,26.703645043758673 " />
			<path d="M-47.90081158557538,21.656737468914024 L-45.258008187750534,20.121556457554437 " />
			<path d="M40.69218816000915,4.71993458225802 L40.03148731055294,5.103729835097916 " />
			<path d="M37.17612624018728,-1.3329414759459297 L36.51542539073107,-0.9491462231060339 " />
			<path d="M-41.445555214653794,-29.002491382075824 L-41.445555214653794,-27.04426333065408 " />
			<path d="M-44.445555214653794,-29.002491382075824 L-44.445555214653794,-27.04426333065408 " />
			<path d="M44.445555214653794,-22.890551980600463 L44.445555214653794,-20.932323929178718 " />
			<path d="M41.445555214653794,-22.890551980600463 L41.445555214653794,-20.932323929178718 " />
			<path d="M41.445555214653794,29.002491382075824 L41.445555214653794,27.04426333065408 " />
			<path d="M44.445555214653794,29.002491382075824 L44.445555214653794,27.04426333065408 " />
			<path d="M-44.445555214653794,22.890551980600463 L-44.445555214653794,20.932323929178718 " />
			<path d="M-41.445555214653794,22.890551980600463 L-41.445555214653794,20.932323929178718 " />

       </g>

       <!-- solid lines -->
       <g  stroke="rgb(0,0,0)" fill="none">
			<path d="M-49.50537079139761,-32.56328267958871 L-48.8446699419414,-32.947077932428606 " />
			<path d="M-48.844669941941405,-32.947077932428606 L52.14817418922246,-25.760511823001536 " />
			<path d="M-49.50537079139761,24.22533081164195 L-48.8446699419414,23.841535558802054 " />
			<path d="M-49.50537079139761,24.22533081164195 L-49.50537079139761,-32.56328267958871 " />
			<path d="M-48.844669941941405,23.84153555880205 L-48.844669941941405,-32.947077932428606 " />
			<path d="M51.487473339766254,31.41189692106902 L52.148174189222466,31.028101668229123 " />
			<path d="M52.14817418922246,-25.760511823001536 L52.14817418922246,31.02810166822912 " />
			<path d="M51.487473339766254,31.41189692106902 L-49.50537079139761,24.225330811641946 " />
			<path d="M52.14817418922246,31.02810166822912 L-48.844669941941405,23.84153555880205 " />
			<path d="M32.79907788371911,9.08984165873765 L32.79907788371911,-6.575982752636325 " />
			<path d="M32.79907788371911,-6.575982752636325 L-29.495573636438046,-11.008817922937135 " />
			<path d="M-29.495573636438046,-11.008817922937133 L-29.495573636438046,4.657006488436839 " />
			<path d="M-29.495573636438046,4.657006488436839 L32.79907788371911,9.08984165873765 " />
			<path d="M42.23766144737929,1.9285711455204833 L42.235828699342996,1.8143054202466375 L42.230332488811264,1.699905648095686 L42.221178914259106,1.5854987645531426 L42.20837813229268,1.4712117129951645 L42.19194434637973,1.3571713038349595 L42.17189579108973,1.2435040738167251 L42.14825471186123,1.130336145613243 L42.12104734031874,1.017793087882921 L42.09030386516678,0.9059997759415531 L42.05605839869308,0.7950802532034011 L42.01834893891837,0.6851575935453349 L41.97721732743459,0.5763537647467496 L41.932709202978394,0.4687894931567862 L41.88487395079138,0.36258412973901266 L41.83376464782333,0.2578555176422048 L41.77943800383917,0.15471986144416672 L41.721954298495056,0.05329159821367058 L41.66137731445342,-0.0463167294664113 L41.59777426661105,-0.14399459837389417 L41.53121572751898,-0.23963362728143278 L41.46177554907671,-0.33312769721396185 L41.38953078058774,-0.4243730691959895 L41.31456158326734,-0.5132684993580949 L41.23695114129747,-0.5997153512749143 L41.15678556952736,-0.6836177054099575 L41.07415381792241,-0.7648824655458313 L40.989147572867225,-0.8434194620817665 L40.901861155432435,-0.9191415520838357 L40.81239141671806,-0.9919647159768434 L40.72083763038967,-1.0618081507706116 L40.62730138252651,-1.1285943597172126 L40.53188645890378,-1.192249238299663 L40.43469872983422,-1.2527021564566763 L40.33584603269672,-1.3098860369522356 L40.23543805228236,-1.3637374298030247 L40.133586199090495,-1.414196582681147 L40.03040348571016,-1.4612075072139943 L39.92600440142375,-1.5047180411077292 L39.820504785172204,-1.5446799060254204 L39.714021697022694,-1.5810487611556319 L39.60667328828127,-1.6137842524120156 L39.49857867039482,-1.6428500572093254 L39.38985778278755,-1.6682139247661611 L39.28063125977888,-1.6898477118897324 L39.17102029673019,-1.7077274142029308 L39.06114651556914,-1.7218331927790569 L38.95113182984062,-1.7321493961546643 L38.84109830943412,-1.7386645776960794 L38.73116804513773,-1.741371508300337 L38.62146301316876,-1.7402671844164326 L38.51210493983169,-1.7353528313779987 L38.40321516645327,-1.7266339020437016 L38.29491451474489,-1.714120070746866 L38.18732315274137,-1.6978252225610504 L38.080560461465225,-1.6777674378934697 L37.97474490246403,-1.6539689724233733 L37.8699938863681,-1.6264562324076275 L37.76642364261423,-1.5952597453809116 L37.66414909048004,-1.560414126283034 L37.56328371157206,-1.5219580390509506 L37.46393942390904,-1.479934153718105 L37.36622645774012,-1.4343890990686963 L37.27025323323581,-1.3853734108993954 L37.17612624018731,-1.332941475945939 " />
			<path d="M37.1761262401873,-1.332941475945932 L37.108017163343305,-1.2921584380884483 L37.041008084973676,-1.2495769533050698 L36.975139368841596,-1.2052226710900067 L36.910450691798665,-1.1591223088043487 L36.84698101988508,-1.1113036355825368 L36.78476858485791,-1.0617954556052625 L36.723850861161736,-1.010627590748915 L36.664264543355465,-0.9578308626219947 L36.60604552400886,-0.903437073999326 L36.54922887208224,-0.8474789896652619 L36.49384881180219,-0.7899903166773985 L36.43993870204625,-0.7310056840627022 L36.387531016248694,-0.6705606219582831 L36.3366573228398,-0.6086915402093673 L36.2873482662302,-0.5454357064373649 L36.23963354835179,-0.4808312235912524 L36.19354191076647,-0.41491700699577905 L36.14910111735323,-0.34773276091033267 L36.10633793758429,-0.27931895461257294 L36.06527813040012,-0.20971679802125687 L36.025946428693224,-0.1389682168729225 L35.988366524410026,-0.06711582746739353 L35.95256105427965,0.005797089002685496 L35.91855158617846,0.07972661252282309 L35.88635860613833,0.15462821071245347 L35.85600150600668,0.2304567656495773 L35.82749857176549,0.307166601048114 L35.80086697251656,0.38471150977158675 L35.776122750139464,0.4630447816665695 L35.7532808096285,0.5421192316991406 L35.73235491011453,0.6218872283773866 L35.713357656576946,0.7023007224428248 L35.696300492250934,0.7833112758134857 L35.68119369173446,0.8648700907611981 L35.66804635479929,0.9469280393055182 L35.65686640090957,1.0294356928065869 L35.64766056445149,1.1123433517390953 L35.6404343906767,1.1956010756294198 L35.63193724718777,1.3629659322681098 L35.631395440805704,1.5311270661235825 L35.63881027678955,1.699679362295201 L35.65416389214994,1.8682167635380527 L35.67741929868266,2.0363332484904113 L35.70852047207644,2.2036238098147614 L35.74739248688043,2.36968542989595 L35.79394169700618,2.5341180517459216 L35.84805596132928,2.696525542776043 L35.90960491384712,2.856516649115207 L35.978440277742024,3.0137059381746756 L36.05439622259312,3.1677147271889496 L36.13728976387629,3.3181719954957196 L36.22692120378998,3.4647152783571316 L36.323074612344634,3.6069915401690937 L36.42551834755701,3.7446580249549752 L36.53400561349598,3.8773830820947675 L36.648275054835516,4.004846965300478 L36.76805138648262,4.126742602912947 L36.89304605676318,4.242776337664369 L37.02295794256827,4.352668634124373 L37.15747407478602,4.456154752125359 L37.29627039227172,4.5529853845447485 L37.43901252253941,4.642927257907682 L37.58535658729455,4.725763694363252 L37.73495003086691,4.801295133680419 L37.81085293196347,4.836263916615312 L37.88743246954809,4.869339614006097 L37.96464251497084,4.900502302289447 L38.042436559787426,4.929733210227187 L38.12076774377415,4.957014730213392 L38.199588883154775,4.982330428880541 L38.27885249902224,5.005665056998374 L38.35851084593822,5.027004558659449 L38.438515940693144,5.0463360797459025 L38.51881959120951,5.063647975672282 L38.599373425570995,5.078929818399819 L38.680128921159884,5.092172402717874 L38.761037433885285,5.103367751788829 L38.84205022748448,5.112509121953025 L38.92311850287987,5.119591006790891 L39.00419342757372,5.124609140439811 L39.08522616506294,5.127560500163715 L39.16616790425651,5.128443308173862 L39.24696988887733,5.12725703269972 L39.327583446831255,5.124002388309274 L39.4079600195253,5.118681335478607 L39.48805119111754,5.111297079410979 L39.56780871768103,5.101854068106126 L39.64718455626409,5.090357989680964 L39.7261308938296,5.076815768943271 L39.80460017605581,5.061235563220441 L39.88254513598126,5.04362675744582 L39.959918822476645,5.023999958505572 L40.036674628526406,5.002366988849486 L40.11276631930306,4.978740879369572 L40.18814806001735,4.953135861550745 L40.262774443527356,4.925567358898306 L40.336600517690115,4.896051977647399 L40.4095818124391,4.86460749676004 L40.48167436657128,4.831252857215729 L40.55283475422778,4.796008150602116 L40.62302011105192,4.758894607012583 L40.69218816000913,4.7199345822580385 " />
			<path d="M40.69218816000915,4.719934582258023 L40.779542605797715,4.667176669915165 L40.865060182952604,4.61145880150231 L40.948655768575016,4.552836437740298 L41.03024615288739,4.491367930440569 L41.109750122059125,4.427114464422655 L41.18708853904556,4.360139996611746 L41.262184422359866,4.290511192376927 L41.33496302269917,4.21829735917349 L41.40535189734894,4.143570377555338 L41.47328098229132,4.066404629626178 L41.53868266194582,3.9868769250007006 L41.60149183647282,3.905066424349453 L41.661645986572964,3.8210545606035122 L41.71908523571793,3.734924957897379 L41.77375240975063,3.6467633483307846 L41.825593093795455,3.5566574866322562 L41.87455568642207,3.4646970628093956 L41.92059145100866,3.370973612872805 L41.96365456425364,3.2755804277225304 L42.003702161787444,3.178612460287715 L42.04069438083913,3.080166231011894 L42.07459439991511,2.9803397317780114 L42.10536847545074,2.879232328368786 L42.13298597539816,2.7769446615595155 L42.157419409716944,2.67357854694178 L42.17864445773729,2.569236873577746 L42.19663999236844,2.464023501585955 L42.21138810112826,2.3580431587605326 L42.22287410397305,2.2514013363267393 L42.23108656790985,2.1442041839366013 L42.23601731837666,2.0365584040091553 L42.23766144737929,1.9285711455204917 " />
			<path d="M-49.788528298307426,-28.41240618083448 L-49.50537079139761,-28.576889860623016 " />
			<path d="M-49.50537079139761,23.5007864326159 L-49.788528298307426,23.480637181841807 " />
			<path d="M-49.788528298307426,23.480637181841807 L-49.50537079139761,23.31615350205327 " />
			<path d="M-49.788528298307426,23.480637181841807 L-49.788528298307426,-28.41240618083448 " />
			<path d="M32.138377034262895,9.042826740264761 L32.138377034262895,-6.192187499796427 " />
			<path d="M32.13837703426289,-6.192187499796429 L32.79907788371911,-6.575982752636328 " />
			<path d="M32.138377034262895,-6.192187499796427 L-29.495573636438046,-10.57800775162435 " />
			<path d="M41.57696059792306,2.3123663983603784 L42.237661447379274,1.9285711455204826 " />
			<path d="M41.57696059792307,2.31236639836038 L41.575325732146936,2.2044507003045934 L41.5704227529706,2.0964091433372554 L41.562256513248634,1.9883486644747341 L41.5508350957349,1.8803762194618527 L41.536169805082395,1.7725986769095796 L41.5182751566542,1.6651227125189667 L41.497168862156485,1.558054703496028 L41.4728718121079,1.4515006232620553 L41.44540805516261,1.345565936563599 L41.4148047743075,1.2403554950859146 L41.38109225995708,1.1359734336732097 L41.34430387997276,1.0325230672583978 L41.30447604663612,0.9301067886043886 L41.261648180608816,0.828825966958114 L41.21586267191504,0.7287808477176068 L41.16716483798475,0.6300704532114443 L41.11560287879962,0.5327924846887537 L41.06122782918576,0.43704322561678954 L41.00409350830067,0.3429174463818019 L40.94425646636429,0.25050831048751565 L40.881775928686864,0.15990728234406415 L40.81671373704918,0.0712040367386475 L40.74913428849296,-0.015513629922483396 L40.6791044715822,-0.10015988651286634 L40.606693600198405,-0.1826509521394737 L40.531973344935324,-0.2629051790670913 L40.4550176621611,-0.34084313353134643 L40.375902720817926,-0.4163876743603927 L40.29470682703185,-0.4894640293274488 L40.21151034660717,-0.5599998691586068 L40.12639562548224,-0.6279253791226598 L40.03944690822536,-0.6931733281321 L39.950750254651496,-0.755679135286881 L39.86039345464226,-0.8153809337950881 L39.768465941253524,-0.8722196322072486 L39.675058702196694,-0.9261389729036744 L39.58026418978117,-0.9770855877769375 L39.48417622940719,-1.025009051054385 L39.386889926699666,-1.0698619292083933 L39.28850157337484,-1.1115998279049641 L39.18910855193297,-1.1501814359442104 L39.08880923927143,-1.1855685661492128 L38.98770290931352,-1.2177261931628012 L38.88588963474946,-1.2466224881148342 L38.783470187986794,-1.2722288501256802 L38.68054594140816,-1.294519934614692 L38.577218767035326,-1.3134736783856908 L38.47359093569856,-1.3290713214646006 L38.36976501581144,-1.3412974256676318 L38.265843771850946,-1.3501398898816381 L38.16193006264361,-1.3555899620415182 L38.05812673955825,-1.3576422477928003 L37.95453654470605,-1.3562947158308547 L37.85126200924887,-1.3515486999114277 L37.748405351916226,-1.343408897530523 L37.6460683778316,-1.331883365274928 L37.54435237774811,-1.3169835108479955 L37.44335802779327,-1.2987240817785595 L37.34318528982212,-1.2771231508241794 L37.24393331247727,-1.2522020980831425 L37.145700333053924,-1.2239855898329406 L37.048583580266886,-1.192501554116168 L36.952679178015835,-1.1577811530979871 L36.85808205024413,-1.1198587522225565 " />
			<path d="M40.34953150049612,4.890647111374536 L40.42028496773284,4.834674621962575 L40.48937325670261,4.776563380578399 L40.556742779374986,4.7163584609533 L40.62234128087311,4.6541065607709795 L40.68611788000499,4.589855965446693 L40.74802310872928,4.523656510674881 L40.808008950524915,4.4555595437743225 L40.866028877634974,4.385617883860817 L40.922037887155675,4.313885780878267 L40.97599253594271,4.240418873519942 L41.02785097430774,4.165274146072569 L41.0775729784789,4.088509884216723 L41.1251199818002,4.010185629817789 L41.17045510464558,3.930362134742569 L41.213543183024484,3.849101313737372 L41.254350795856546,3.766466196404104 L41.2928462908946,3.6825208783116277 L41.32899980927559,3.5973304712803245 L41.36278330868043,3.5109610528783852 L41.394170585084936,3.423479615169035 L41.42313729308488,3.334954012748434 L41.44966096477934,3.245452910114553 L41.4737210271979,3.155045728407851 L41.495298818257915,3.0638025915650777 L41.51437760123974,2.971794271927942 L41.530942577768435,2.8790921353488548 L41.5449808992921,2.785768085836316 L41.5564816770478,2.691894509782883 L41.56543599050734,2.597544219818983 L41.57183689429649,2.5027903983361117 L41.5756794235821,2.4077065407232285 L41.57696059792307,2.312366398360388 " />

       </g>
    </g>
    <g transform="translate(20,210.0)" stroke="rgb(0,0,255)">
        <line x1="30" y1="-30" x2="75" y2="-33" stroke-width="3" stroke="#000000" />
         <text x="80" y="-30" style="stroke:#000000">X </text>

        <line x1="30" y1="-30" x2="30" y2="-75" stroke-width="3" stroke="#000000" />
         <text x="25" y="-85" style="stroke:#000000">Y </text>

        <line x1="30" y1="-30" x2="58" y2="-15" stroke-width="3" stroke="#000000" />
         <text x="65" y="-5" style="stroke:#000000">Z </text>
        <!--
            <line x1="0" y1="0" x2="2.796812727513757" y2="0" stroke-width="3" />
            <text x="0" y="20" style="stroke:#000000">1  mm </text>
        -->
    </g>
</svg>
